<?xml version="1.0" encoding="UTF-8" standalone="no"?>
<!-- Created with Inkscape (http://www.inkscape.org/) -->

<svg
   xmlns:dc="http://purl.org/dc/elements/1.1/"
   xmlns:cc="http://creativecommons.org/ns#"
   xmlns:rdf="http://www.w3.org/1999/02/22-rdf-syntax-ns#"
   xmlns:svg="http://www.w3.org/2000/svg"
   xmlns="http://www.w3.org/2000/svg"
   xmlns:sodipodi="http://sodipodi.sourceforge.net/DTD/sodipodi-0.dtd"
   xmlns:inkscape="http://www.inkscape.org/namespaces/inkscape"
   sodipodi:docname="barley.svg"
   inkscape:version="0.92.2 5c3e80d, 2017-08-06"
   id="svg8"
   version="1.1"
   viewBox="-530.746090 179.638350 149.935180 149.935180"
   height="149.93518"
   width="149.93518">
  <sodipodi:namedview
     inkscape:window-maximized="1"
     inkscape:window-y="0"
     inkscape:window-x="0"
     inkscape:window-height="1380"
     inkscape:window-width="2560"
     showgrid="false"
     inkscape:current-layer="layer1"
     inkscape:document-units="mm"
     inkscape:cy="160.55457"
     inkscape:cx="-59.097694"
     inkscape:zoom="2.8"
     inkscape:pageshadow="2"
     inkscape:pageopacity="0.0"
     borderopacity="1.0"
     bordercolor="#666666"
     pagecolor="#ffffff"
     id="base" />
  <defs
     id="defs2" />
  <metadata
     id="metadata5">
    <rdf:RDF>
      <cc:Work
         rdf:about="">
        <dc:format>image/svg+xml</dc:format>
        <dc:type
           rdf:resource="http://purl.org/dc/dcmitype/StillImage" />
        <dc:title />
      </cc:Work>
    </rdf:RDF>
  </metadata>
  <g
     id="layer1"
     inkscape:groupmode="layer"
     inkscape:label="Layer 1">
    <path
       style="fill:#ffffff;fill-opacity:1;stroke:none;stroke-width:1px;stroke-linecap:butt;stroke-linejoin:miter;stroke-opacity:1"
       d="m -453.68525,182.90088 -62.80945,50.53912 0.26786,94.24523 125.70162,-0.4774 -0.28317,-93.30866 z"
       id="path830"
       inkscape:connector-curvature="0"
       sodipodi:nodetypes="cccccc" />
    <g
       id="g1000"
       transform="matrix(0.78015066,0,0,0.78015066,-100.34503,60.670066)">
      <g
         transform="matrix(0.64839194,0.44630524,-0.44630524,0.64839194,-60.213916,265.84951)"
         id="g4651">
        <g
           id="g4580">
          <path
             sodipodi:nodetypes="ccssc"
             inkscape:connector-curvature="0"
             id="path4562"
             d="m -455.50049,182.66075 c 7.89982,48.65756 6.48941,64.05056 15.56915,66.05458 l 0.21541,-9.46699 c 0.0753,-3.30687 -5.81612,-1.40133 -6.37508,-4.6615 -2.75554,-16.072 -9.40948,-51.92609 -9.40948,-51.92609 z"
             style="fill:#ffcb00;fill-opacity:1;stroke:#000000;stroke-width:0.37795275;stroke-linecap:butt;stroke-linejoin:miter;stroke-miterlimit:4;stroke-dasharray:none;stroke-opacity:1" />
          <path
             style="fill:#ffcb00;fill-opacity:1;stroke:#000000;stroke-width:0.37795275;stroke-linecap:butt;stroke-linejoin:miter;stroke-miterlimit:4;stroke-dasharray:none;stroke-opacity:1"
             d="m -422.81539,182.69232 c -7.89982,48.65756 -6.48941,64.05056 -15.56915,66.05458 l -0.21541,-9.46699 c -0.0753,-3.30687 5.81612,-1.40133 6.37508,-4.6615 2.75554,-16.072 9.40948,-51.92609 9.40948,-51.92609 z"
             id="path4576"
             inkscape:connector-curvature="0"
             sodipodi:nodetypes="ccssc" />
        </g>
        <g
           id="g4596">
          <g
             transform="translate(0,11.785714)"
             id="g4586">
            <path
               sodipodi:nodetypes="ccssc"
               inkscape:connector-curvature="0"
               id="path4582"
               d="m -460.32192,183.91075 c 12.99917,55.57172 11.18457,61.91668 20.39058,64.80458 l 0.21541,-9.46699 c 0.0753,-3.30687 -5.27363,-1.54253 -6.37508,-4.6615 -5.61268,-15.89343 -14.23091,-50.67609 -14.23091,-50.67609 z"
               style="fill:#ffcb00;fill-opacity:1;stroke:#000000;stroke-width:0.37795275;stroke-linecap:butt;stroke-linejoin:miter;stroke-miterlimit:4;stroke-dasharray:none;stroke-opacity:1" />
          </g>
          <g
             id="g4590"
             transform="matrix(-1,0,0,1,-878.29987,11.725752)">
            <path
               style="fill:#ffcb00;fill-opacity:1;stroke:#000000;stroke-width:0.37795275;stroke-linecap:butt;stroke-linejoin:miter;stroke-miterlimit:4;stroke-dasharray:none;stroke-opacity:1"
               d="m -460.32192,183.91075 c 12.99917,55.57172 11.18457,61.91668 20.39058,64.80458 l 0.21541,-9.46699 c 0.0753,-3.30687 -5.27363,-1.54253 -6.37508,-4.6615 -5.61268,-15.89343 -14.23091,-50.67609 -14.23091,-50.67609 z"
               id="path4588"
               inkscape:connector-curvature="0"
               sodipodi:nodetypes="ccssc" />
          </g>
        </g>
        <g
           id="g4606"
           transform="translate(0,12.321429)">
          <g
             id="g4600"
             transform="translate(0,11.785714)">
            <path
               style="fill:#ffcb00;fill-opacity:1;stroke:#000000;stroke-width:0.37795275;stroke-linecap:butt;stroke-linejoin:miter;stroke-miterlimit:4;stroke-dasharray:none;stroke-opacity:1"
               d="m -460.32192,183.91075 c 12.99917,55.57172 11.18457,61.91668 20.39058,64.80458 l 0.21541,-9.46699 c 0.0753,-3.30687 -5.27363,-1.54253 -6.37508,-4.6615 -5.61268,-15.89343 -14.23091,-50.67609 -14.23091,-50.67609 z"
               id="path4598"
               inkscape:connector-curvature="0"
               sodipodi:nodetypes="ccssc" />
          </g>
          <g
             transform="matrix(-1,0,0,1,-878.29987,11.725752)"
             id="g4604">
            <path
               sodipodi:nodetypes="ccssc"
               inkscape:connector-curvature="0"
               id="path4602"
               d="m -460.32192,183.91075 c 12.99917,55.57172 11.18457,61.91668 20.39058,64.80458 l 0.21541,-9.46699 c 0.0753,-3.30687 -5.27363,-1.54253 -6.37508,-4.6615 -5.61268,-15.89343 -14.23091,-50.67609 -14.23091,-50.67609 z"
               style="fill:#ffcb00;fill-opacity:1;stroke:#000000;stroke-width:0.37795275;stroke-linecap:butt;stroke-linejoin:miter;stroke-miterlimit:4;stroke-dasharray:none;stroke-opacity:1" />
          </g>
        </g>
        <g
           transform="translate(0,24.464286)"
           id="g4616">
          <g
             transform="translate(0,11.785714)"
             id="g4610">
            <path
               sodipodi:nodetypes="ccssc"
               inkscape:connector-curvature="0"
               id="path4608"
               d="m -460.32192,183.91075 c 12.99917,55.57172 11.18457,61.91668 20.39058,64.80458 l 0.21541,-9.46699 c 0.0753,-3.30687 -5.27363,-1.54253 -6.37508,-4.6615 -5.61268,-15.89343 -14.23091,-50.67609 -14.23091,-50.67609 z"
               style="fill:#ffcb00;fill-opacity:1;stroke:#000000;stroke-width:0.37795275;stroke-linecap:butt;stroke-linejoin:miter;stroke-miterlimit:4;stroke-dasharray:none;stroke-opacity:1" />
          </g>
          <g
             id="g4614"
             transform="matrix(-1,0,0,1,-878.29987,11.725752)">
            <path
               style="fill:#ffcb00;fill-opacity:1;stroke:#000000;stroke-width:0.37795275;stroke-linecap:butt;stroke-linejoin:miter;stroke-miterlimit:4;stroke-dasharray:none;stroke-opacity:1"
               d="m -460.32192,183.91075 c 12.99917,55.57172 11.18457,61.91668 20.39058,64.80458 l 0.21541,-9.46699 c 0.0753,-3.30687 -5.27363,-1.54253 -6.37508,-4.6615 -5.61268,-15.89343 -14.23091,-50.67609 -14.23091,-50.67609 z"
               id="path4612"
               inkscape:connector-curvature="0"
               sodipodi:nodetypes="ccssc" />
          </g>
        </g>
        <g
           id="g4626"
           transform="translate(0,37.091193)">
          <g
             id="g4620"
             transform="translate(0,11.785714)">
            <path
               style="fill:#ffcb00;fill-opacity:1;stroke:#000000;stroke-width:0.37795275;stroke-linecap:butt;stroke-linejoin:miter;stroke-miterlimit:4;stroke-dasharray:none;stroke-opacity:1"
               d="m -460.32192,183.91075 c 12.99917,55.57172 11.18457,61.91668 20.39058,64.80458 l 0.21541,-9.46699 c 0.0753,-3.30687 -5.27363,-1.54253 -6.37508,-4.6615 -5.61268,-15.89343 -14.23091,-50.67609 -14.23091,-50.67609 z"
               id="path4618"
               inkscape:connector-curvature="0"
               sodipodi:nodetypes="ccssc" />
          </g>
          <g
             transform="matrix(-1,0,0,1,-878.29987,11.725752)"
             id="g4624">
            <path
               sodipodi:nodetypes="ccssc"
               inkscape:connector-curvature="0"
               id="path4622"
               d="m -460.32192,183.91075 c 12.99917,55.57172 11.18457,61.91668 20.39058,64.80458 l 0.21541,-9.46699 c 0.0753,-3.30687 -5.27363,-1.54253 -6.37508,-4.6615 -5.61268,-15.89343 -14.23091,-50.67609 -14.23091,-50.67609 z"
               style="fill:#ffcb00;fill-opacity:1;stroke:#000000;stroke-width:0.37795275;stroke-linecap:butt;stroke-linejoin:miter;stroke-miterlimit:4;stroke-dasharray:none;stroke-opacity:1" />
          </g>
        </g>
      </g>
      <path
         sodipodi:nodetypes="cscsc"
         inkscape:connector-curvature="0"
         id="path4655"
         d="m -492.93144,232.91541 c 0,0 -25.95563,38.51259 -31.00506,59.46327 -3.50461,14.54104 9.85527,43.99606 9.85527,43.99606 0,0 -3.84036,-27.11762 0.55669,-41.83615 6.03162,-20.19007 20.5931,-61.62318 20.5931,-61.62318 z"
         style="fill:#ffcb00;fill-opacity:1;stroke:#000000;stroke-width:0.37795275;stroke-linecap:butt;stroke-linejoin:miter;stroke-miterlimit:4;stroke-dasharray:none;stroke-opacity:1" />
      <path
         sodipodi:nodetypes="ccsccsc"
         inkscape:connector-curvature="0"
         id="rect4653"
         d="m -478.97207,262.67623 1.78067,0.90236 c 0,0 -14.92161,22.33458 -21.06991,34.46727 -6.14831,12.13269 -15.81992,38.32888 -15.81992,38.32888 l -1.78067,-0.90237 c 0,0 9.67161,-26.19619 15.81991,-38.32888 6.14831,-12.13269 21.06992,-34.46726 21.06992,-34.46726 z"
         style="opacity:1;fill:#ffcb00;fill-opacity:1;stroke:#000000;stroke-width:0.2394364;stroke-miterlimit:4;stroke-dasharray:none;stroke-opacity:1" />
      <g
         transform="translate(-56.854549,0.00231857)"
         id="g4791">
        <g
           transform="matrix(0.42711775,0.66118901,-0.66118901,0.42711775,-22.70658,444.58159)"
           id="g4732">
          <g
             id="g4690">
            <path
               sodipodi:nodetypes="ccssc"
               inkscape:connector-curvature="0"
               id="path4686"
               d="m -455.50049,182.66075 c 7.89982,48.65756 6.48941,64.05056 15.56915,66.05458 l 0.21541,-9.46699 c 0.0753,-3.30687 -5.81612,-1.40133 -6.37508,-4.6615 -2.75554,-16.072 -9.40948,-51.92609 -9.40948,-51.92609 z"
               style="fill:#ffcb00;fill-opacity:1;stroke:#000000;stroke-width:0.37795275;stroke-linecap:butt;stroke-linejoin:miter;stroke-miterlimit:4;stroke-dasharray:none;stroke-opacity:1" />
            <path
               style="fill:#ffcb00;fill-opacity:1;stroke:#000000;stroke-width:0.37795275;stroke-linecap:butt;stroke-linejoin:miter;stroke-miterlimit:4;stroke-dasharray:none;stroke-opacity:1"
               d="m -422.81539,182.69232 c -7.89982,48.65756 -6.48941,64.05056 -15.56915,66.05458 l -0.21541,-9.46699 c -0.0753,-3.30687 5.81612,-1.40133 6.37508,-4.6615 2.75554,-16.072 9.40948,-51.92609 9.40948,-51.92609 z"
               id="path4688"
               inkscape:connector-curvature="0"
               sodipodi:nodetypes="ccssc" />
          </g>
          <g
             id="g4700">
            <g
               transform="translate(0,11.785714)"
               id="g4694">
              <path
                 sodipodi:nodetypes="ccssc"
                 inkscape:connector-curvature="0"
                 id="path4692"
                 d="m -460.32192,183.91075 c 12.99917,55.57172 11.18457,61.91668 20.39058,64.80458 l 0.21541,-9.46699 c 0.0753,-3.30687 -5.27363,-1.54253 -6.37508,-4.6615 -5.61268,-15.89343 -14.23091,-50.67609 -14.23091,-50.67609 z"
                 style="fill:#ffcb00;fill-opacity:1;stroke:#000000;stroke-width:0.37795275;stroke-linecap:butt;stroke-linejoin:miter;stroke-miterlimit:4;stroke-dasharray:none;stroke-opacity:1" />
            </g>
            <g
               id="g4698"
               transform="matrix(-1,0,0,1,-878.29987,11.725752)">
              <path
                 style="fill:#ffcb00;fill-opacity:1;stroke:#000000;stroke-width:0.37795275;stroke-linecap:butt;stroke-linejoin:miter;stroke-miterlimit:4;stroke-dasharray:none;stroke-opacity:1"
                 d="m -460.32192,183.91075 c 12.99917,55.57172 11.18457,61.91668 20.39058,64.80458 l 0.21541,-9.46699 c 0.0753,-3.30687 -5.27363,-1.54253 -6.37508,-4.6615 -5.61268,-15.89343 -14.23091,-50.67609 -14.23091,-50.67609 z"
                 id="path4696"
                 inkscape:connector-curvature="0"
                 sodipodi:nodetypes="ccssc" />
            </g>
          </g>
          <g
             id="g4710"
             transform="translate(0,12.321429)">
            <g
               id="g4704"
               transform="translate(0,11.785714)">
              <path
                 style="fill:#ffcb00;fill-opacity:1;stroke:#000000;stroke-width:0.37795275;stroke-linecap:butt;stroke-linejoin:miter;stroke-miterlimit:4;stroke-dasharray:none;stroke-opacity:1"
                 d="m -460.32192,183.91075 c 12.99917,55.57172 11.18457,61.91668 20.39058,64.80458 l 0.21541,-9.46699 c 0.0753,-3.30687 -5.27363,-1.54253 -6.37508,-4.6615 -5.61268,-15.89343 -14.23091,-50.67609 -14.23091,-50.67609 z"
                 id="path4702"
                 inkscape:connector-curvature="0"
                 sodipodi:nodetypes="ccssc" />
            </g>
            <g
               transform="matrix(-1,0,0,1,-878.29987,11.725752)"
               id="g4708">
              <path
                 sodipodi:nodetypes="ccssc"
                 inkscape:connector-curvature="0"
                 id="path4706"
                 d="m -460.32192,183.91075 c 12.99917,55.57172 11.18457,61.91668 20.39058,64.80458 l 0.21541,-9.46699 c 0.0753,-3.30687 -5.27363,-1.54253 -6.37508,-4.6615 -5.61268,-15.89343 -14.23091,-50.67609 -14.23091,-50.67609 z"
                 style="fill:#ffcb00;fill-opacity:1;stroke:#000000;stroke-width:0.37795275;stroke-linecap:butt;stroke-linejoin:miter;stroke-miterlimit:4;stroke-dasharray:none;stroke-opacity:1" />
            </g>
          </g>
          <g
             transform="translate(0,24.464286)"
             id="g4720">
            <g
               transform="translate(0,11.785714)"
               id="g4714">
              <path
                 sodipodi:nodetypes="ccssc"
                 inkscape:connector-curvature="0"
                 id="path4712"
                 d="m -460.32192,183.91075 c 12.99917,55.57172 11.18457,61.91668 20.39058,64.80458 l 0.21541,-9.46699 c 0.0753,-3.30687 -5.27363,-1.54253 -6.37508,-4.6615 -5.61268,-15.89343 -14.23091,-50.67609 -14.23091,-50.67609 z"
                 style="fill:#ffcb00;fill-opacity:1;stroke:#000000;stroke-width:0.37795275;stroke-linecap:butt;stroke-linejoin:miter;stroke-miterlimit:4;stroke-dasharray:none;stroke-opacity:1" />
            </g>
            <g
               id="g4718"
               transform="matrix(-1,0,0,1,-878.29987,11.725752)">
              <path
                 style="fill:#ffcb00;fill-opacity:1;stroke:#000000;stroke-width:0.37795275;stroke-linecap:butt;stroke-linejoin:miter;stroke-miterlimit:4;stroke-dasharray:none;stroke-opacity:1"
                 d="m -460.32192,183.91075 c 12.99917,55.57172 11.18457,61.91668 20.39058,64.80458 l 0.21541,-9.46699 c 0.0753,-3.30687 -5.27363,-1.54253 -6.37508,-4.6615 -5.61268,-15.89343 -14.23091,-50.67609 -14.23091,-50.67609 z"
                 id="path4716"
                 inkscape:connector-curvature="0"
                 sodipodi:nodetypes="ccssc" />
            </g>
          </g>
          <g
             id="g4730"
             transform="translate(0,37.091193)">
            <g
               id="g4724"
               transform="translate(0,11.785714)">
              <path
                 style="fill:#ffcb00;fill-opacity:1;stroke:#000000;stroke-width:0.37795275;stroke-linecap:butt;stroke-linejoin:miter;stroke-miterlimit:4;stroke-dasharray:none;stroke-opacity:1"
                 d="m -460.32192,183.91075 c 12.99917,55.57172 11.18457,61.91668 20.39058,64.80458 l 0.21541,-9.46699 c 0.0753,-3.30687 -5.27363,-1.54253 -6.37508,-4.6615 -5.61268,-15.89343 -14.23091,-50.67609 -14.23091,-50.67609 z"
                 id="path4722"
                 inkscape:connector-curvature="0"
                 sodipodi:nodetypes="ccssc" />
            </g>
            <g
               transform="matrix(-1,0,0,1,-878.29987,11.725752)"
               id="g4728">
              <path
                 sodipodi:nodetypes="ccssc"
                 inkscape:connector-curvature="0"
                 id="path4726"
                 d="m -460.32192,183.91075 c 12.99917,55.57172 11.18457,61.91668 20.39058,64.80458 l 0.21541,-9.46699 c 0.0753,-3.30687 -5.27363,-1.54253 -6.37508,-4.6615 -5.61268,-15.89343 -14.23091,-50.67609 -14.23091,-50.67609 z"
                 style="fill:#ffcb00;fill-opacity:1;stroke:#000000;stroke-width:0.37795275;stroke-linecap:butt;stroke-linejoin:miter;stroke-miterlimit:4;stroke-dasharray:none;stroke-opacity:1" />
            </g>
          </g>
        </g>
        <path
           sodipodi:nodetypes="ccsccsc"
           inkscape:connector-curvature="0"
           id="path4734"
           d="m -408.09602,280.74191 1.29722,1.51731 c 0,0 -22.35821,14.88618 -32.69653,23.72489 -10.33834,8.83871 -29.33345,29.30737 -29.33345,29.30737 l -1.29722,-1.51733 c 0,0 18.99511,-20.46866 29.33344,-29.30737 10.33833,-8.8387 32.69654,-23.72487 32.69654,-23.72487 z"
           style="opacity:1;fill:#ffcb00;fill-opacity:1;stroke:#000000;stroke-width:0.2394364;stroke-miterlimit:4;stroke-dasharray:none;stroke-opacity:1" />
      </g>
    </g>
    <g
       id="g1011"
       transform="matrix(1,0,0,1.0245586,0,-8.0814558)">
      <path
         inkscape:connector-curvature="0"
         id="path1002"
         d="m -453.96038,189.03782 -69.82142,53.39285 -1.60715,-3.03571 71.60715,-55.35714"
         style="fill:#ffffff;fill-opacity:1;stroke:#000000;stroke-width:1px;stroke-linecap:butt;stroke-linejoin:miter;stroke-opacity:1" />
      <path
         style="fill:#ffffff;fill-opacity:1;stroke:#000000;stroke-width:1px;stroke-linecap:butt;stroke-linejoin:miter;stroke-opacity:1"
         d="m -453.96038,189.03782 69.82142,53.39285 1.60715,-3.03571 -71.60715,-55.35714"
         id="path1004"
         inkscape:connector-curvature="0" />
      <path
         inkscape:connector-curvature="0"
         id="path1006"
         d="m -518.24545,238.40726 -0.12627,90.66119 129.55206,-0.25253 -0.25254,-90.02985 -2.90418,-2.0203 -0.25254,88.89342 -123.11234,0.37881 v -90.15612 z"
         style="fill:#ffffff;fill-opacity:1;stroke:#000000;stroke-width:1px;stroke-linecap:butt;stroke-linejoin:miter;stroke-opacity:1" />
    </g>
  </g>
</svg>
