<?xml version="1.0" encoding="UTF-8" standalone="no"?>
<!-- Created with Inkscape (http://www.inkscape.org/) -->

<svg
   xmlns:dc="http://purl.org/dc/elements/1.1/"
   xmlns:cc="http://creativecommons.org/ns#"
   xmlns:rdf="http://www.w3.org/1999/02/22-rdf-syntax-ns#"
   xmlns:svg="http://www.w3.org/2000/svg"
   xmlns="http://www.w3.org/2000/svg"
   xmlns:sodipodi="http://sodipodi.sourceforge.net/DTD/sodipodi-0.dtd"
   xmlns:inkscape="http://www.inkscape.org/namespaces/inkscape"
   width="11.378639"
   height="9.59375"
   viewBox="-228.004470 15.322917 11.378639 9.593750"
   version="1.1"
   id="svg8"
   sodipodi:docname="barn.svg"
   inkscape:version="0.92.2 5c3e80d, 2017-08-06">
  <sodipodi:namedview
     id="base"
     pagecolor="#ffffff"
     bordercolor="#666666"
     borderopacity="1.0"
     inkscape:pageopacity="0.0"
     inkscape:pageshadow="2"
     inkscape:zoom="45.254834"
     inkscape:cx="7.249554"
     inkscape:cy="4.7375021"
     inkscape:document-units="mm"
     inkscape:current-layer="layer1"
     showgrid="true"
     inkscape:window-width="2560"
     inkscape:window-height="1380"
     inkscape:window-x="0"
     inkscape:window-y="0"
     inkscape:window-maximized="1"
     inkscape:measure-start="-8.25195e-07,39.6875"
     inkscape:measure-end="39.6875,39.6875"
     objecttolerance="1"
     gridtolerance="1"
     guidetolerance="1">
    <inkscape:grid
       snapvisiblegridlinesonly="false"
       spacingy="1"
       empspacing="5"
       units="px"
       id="grid821"
       type="axonomgrid" />
  </sodipodi:namedview>
  <defs
     id="defs2" />
  <metadata
     id="metadata5">
    <rdf:RDF>
      <cc:Work
         rdf:about="">
        <dc:format>image/svg+xml</dc:format>
        <dc:type
           rdf:resource="http://purl.org/dc/dcmitype/StillImage" />
        <dc:title></dc:title>
      </cc:Work>
    </rdf:RDF>
  </metadata>
  <g
     inkscape:label="Layer 1"
     inkscape:groupmode="layer"
     id="layer1">
    <path
       inkscape:connector-curvature="0"
       id="path837"
       d="m -227.95056,21.879076 5.19616,3 6.06217,-3.5 v -3 l -6.06217,3.5 -5.19616,-3 z"
       style="fill:none;stroke:#000000;stroke-width:0.03779528;stroke-linecap:butt;stroke-linejoin:miter;stroke-miterlimit:4;stroke-dasharray:none;stroke-opacity:1" />
    <path
       sodipodi:nodetypes="cccc"
       inkscape:connector-curvature="0"
       id="path839"
       d="m -227.95056,18.879076 4.33013,-3.5 4.33013,2.5 -3.46411,4"
       style="fill:none;stroke:#000000;stroke-width:0.03779528;stroke-linecap:butt;stroke-linejoin:miter;stroke-miterlimit:4;stroke-dasharray:none;stroke-opacity:1" />
    <path
       inkscape:connector-curvature="0"
       id="path841"
       d="m -219.2903,17.879076 2.59807,0.5 -4.33012,-2.5 -2.59808,-0.5"
       style="fill:none;stroke:#000000;stroke-width:0.03779528;stroke-linecap:butt;stroke-linejoin:miter;stroke-miterlimit:4;stroke-dasharray:none;stroke-opacity:1" />
    <path
       inkscape:connector-curvature="0"
       id="path843"
       d="m -222.7544,21.879076 v 3"
       style="fill:none;stroke:#000000;stroke-width:0.03779528;stroke-linecap:butt;stroke-linejoin:miter;stroke-miterlimit:4;stroke-dasharray:none;stroke-opacity:1" />
    <path
       inkscape:connector-curvature="0"
       id="path847"
       d="m -221.02235,23.879076 v -3 l 2.59807,-1.5 v 3"
       style="fill:none;stroke:#000000;stroke-width:0.03779528;stroke-linecap:butt;stroke-linejoin:miter;stroke-miterlimit:4;stroke-dasharray:none;stroke-opacity:1" />
    <path
       inkscape:connector-curvature="0"
       id="path849"
       d="m -220.98724,22.355569 0.006,-1.463511 1.24849,-0.722833 c 0.68666,-0.397559 1.25601,-0.723404 1.26521,-0.724101 0.009,-6.98e-4 0.0142,0.656329 0.011,1.46006 l -0.006,1.461327 -1.25788,0.726284 c -0.69183,0.399456 -1.26118,0.726284 -1.26521,0.726284 -0.004,0 -0.005,-0.65858 -0.002,-1.46351 z"
       style="opacity:1;fill:#333333;fill-opacity:1;stroke:#000000;stroke-width:0.00083517;stroke-linejoin:miter;stroke-miterlimit:4;stroke-dasharray:none;stroke-opacity:1" />
    <path
       inkscape:connector-curvature="0"
       id="path851"
       d="m -222.71532,23.349516 8.5e-4,-1.463932 0.80844,-0.464039 c 0.44464,-0.255221 0.81722,-0.467377 0.82794,-0.471457 0.0112,-0.0043 0.0171,0.616974 0.0138,1.457219 l -0.006,1.464638 -0.81555,0.470751 c -0.44855,0.258914 -0.81895,0.470752 -0.82312,0.470752 -0.004,0 -0.007,-0.658769 -0.007,-1.463932 z"
       style="opacity:1;fill:#aa8800;fill-opacity:1;stroke:#000000;stroke-width:0.00083517;stroke-linejoin:miter;stroke-miterlimit:4;stroke-dasharray:none;stroke-opacity:1" />
    <path
       inkscape:connector-curvature="0"
       id="path853"
       d="m -218.3847,20.854167 4.5e-4,-1.465554 0.81461,-0.469563 c 0.44804,-0.25826 0.82079,-0.469563 0.82835,-0.469563 0.008,0 0.0112,0.657417 0.008,1.460927 l -0.006,1.460926 -0.69606,0.401766 c -0.38283,0.220972 -0.75323,0.434358 -0.82312,0.474191 l -0.12705,0.07242 z"
       style="opacity:1;fill:#aa8800;fill-opacity:1;stroke:#000000;stroke-width:0.00083517;stroke-linejoin:miter;stroke-miterlimit:4;stroke-dasharray:none;stroke-opacity:1" />
    <path
       inkscape:connector-curvature="0"
       id="path855"
       d="m -222.54879,21.695065 c 0.0182,-0.02943 3.15154,-3.652348 3.2257,-3.729704 l 0.051,-0.05323 1.24968,0.240357 c 0.91025,0.175073 1.23926,0.246149 1.21132,0.261683 -0.0512,0.02846 -3.93871,2.271736 -4.9378,2.849327 -0.43416,0.250998 -0.79521,0.456361 -0.80232,0.456361 -0.007,0 -0.006,-0.01116 0.002,-0.02479 z"
       style="opacity:1;fill:#aa8800;fill-opacity:1;stroke:#000000;stroke-width:0.00083517;stroke-linejoin:miter;stroke-miterlimit:4;stroke-dasharray:none;stroke-opacity:1" />
    <path
       inkscape:connector-curvature="0"
       id="path857"
       d="m -225.34021,20.354167 c -1.40068,-0.810171 -2.54603,-1.478178 -2.54522,-1.48446 0.001,-0.01069 4.18486,-3.392846 4.2461,-3.432771 0.0187,-0.01217 0.75006,0.398272 2.16059,1.212481 1.1728,0.676983 2.13443,1.232567 2.13695,1.234633 0.0116,0.0095 -3.40277,3.935713 -3.4257,3.939198 -0.0143,0.0022 -1.17204,-0.658911 -2.57272,-1.469081 z"
       style="opacity:1;fill:#ff8080;fill-opacity:1;stroke:#000000;stroke-width:0.00083517;stroke-linejoin:miter;stroke-miterlimit:4;stroke-dasharray:none;stroke-opacity:1" />
    <path
       inkscape:connector-curvature="0"
       id="path859"
       d="m -218.1519,18.070745 -1.12572,-0.219233 -2.05594,-1.1868 c -1.13077,-0.65274 -2.04117,-1.189566 -2.02312,-1.192946 0.0181,-0.0034 0.54782,0.09296 1.17724,0.214093 l 1.14442,0.220239 2.03756,1.175229 c 1.12067,0.646376 2.04702,1.183835 2.05857,1.194355 0.0392,0.03574 -0.0845,0.01483 -1.21301,-0.204937 z"
       style="opacity:1;fill:#c64040;fill-opacity:1;stroke:#000000;stroke-width:0.00083517;stroke-linejoin:miter;stroke-miterlimit:4;stroke-dasharray:none;stroke-opacity:1" />
    <path
       inkscape:connector-curvature="0"
       id="path861"
       d="m -225.36783,23.336718 -2.55221,-1.474797 -0.006,-1.463149 c -0.003,-0.804732 -0.001,-1.463149 0.004,-1.463149 0.005,0 1.16124,0.66503 2.56894,1.477844 l 2.55946,1.477844 0.006,1.461069 c 0.003,0.803587 -0.002,1.460633 -0.0111,1.460101 -0.009,-5.32e-4 -1.16523,-0.664625 -2.56895,-1.475763 z"
       style="opacity:1;fill:#d5c16d;fill-opacity:1;stroke:#000000;stroke-width:0.00083517;stroke-linejoin:miter;stroke-miterlimit:4;stroke-dasharray:none;stroke-opacity:1" />
    <path
       inkscape:connector-curvature="0"
       id="path863"
       d="m -227.08452,20.379076 v 1 l 0.86602,0.5 v -1 z"
       style="fill:none;stroke:#000000;stroke-width:0.03779528;stroke-linecap:butt;stroke-linejoin:miter;stroke-miterlimit:4;stroke-dasharray:none;stroke-opacity:1" />
    <path
       style="fill:none;stroke:#000000;stroke-width:0.03779528;stroke-linecap:butt;stroke-linejoin:miter;stroke-miterlimit:4;stroke-dasharray:none;stroke-opacity:1"
       d="m -227.08452,20.379076 v 1 l 0.86602,0.5 v -1 z"
       id="path865"
       inkscape:connector-curvature="0" />
    <path
       style="fill:none;stroke:#000000;stroke-width:0.03779528;stroke-linecap:butt;stroke-linejoin:miter;stroke-miterlimit:4;stroke-dasharray:none;stroke-opacity:1"
       d="m -224.48645,21.879076 v 1 l 0.86602,0.5 v -1 z"
       id="path867"
       inkscape:connector-curvature="0" />
    <path
       inkscape:connector-curvature="0"
       id="path869"
       d="m -224.48645,21.879076 v 1 l 0.86602,0.5 v -1 z"
       style="fill:none;stroke:#000000;stroke-width:0.03779528;stroke-linecap:butt;stroke-linejoin:miter;stroke-miterlimit:4;stroke-dasharray:none;stroke-opacity:1" />
    <path
       inkscape:connector-curvature="0"
       id="path871"
       d="m -224.05858,23.090916 -0.40327,-0.232324 V 22.39971 c 0,-0.252386 0.005,-0.458883 0.0118,-0.458883 0.0288,0 0.78877,0.451465 0.79727,0.473614 0.005,0.01362 0.007,0.223671 0.004,0.466781 l -0.006,0.442017 z"
       style="opacity:1;fill:#666666;fill-opacity:1;stroke:#000000;stroke-width:0.00083517;stroke-linejoin:miter;stroke-miterlimit:4;stroke-dasharray:none;stroke-opacity:1" />
    <path
       inkscape:connector-curvature="0"
       id="path873"
       d="m -226.66051,21.589151 -0.37565,-0.218246 -0.006,-0.468421 -0.006,-0.468421 0.11646,0.06819 c 0.0641,0.0375 0.2432,0.140363 0.39811,0.228576 l 0.28166,0.160388 8e-5,0.458515 c 4e-5,0.252183 -0.007,0.458323 -0.0165,0.45809 -0.009,-2.33e-4 -0.18561,-0.09863 -0.39222,-0.218669 z"
       style="opacity:1;fill:#666666;fill-opacity:1;stroke:#000000;stroke-width:0.00083517;stroke-linejoin:miter;stroke-miterlimit:4;stroke-dasharray:none;stroke-opacity:1" />
  </g>
</svg>
