<?xml version="1.0" encoding="UTF-8" standalone="no"?>
<!-- Created with Inkscape (http://www.inkscape.org/) -->

<svg
   xmlns:dc="http://purl.org/dc/elements/1.1/"
   xmlns:cc="http://creativecommons.org/ns#"
   xmlns:rdf="http://www.w3.org/1999/02/22-rdf-syntax-ns#"
   xmlns:svg="http://www.w3.org/2000/svg"
   xmlns="http://www.w3.org/2000/svg"
   xmlns:sodipodi="http://sodipodi.sourceforge.net/DTD/sodipodi-0.dtd"
   xmlns:inkscape="http://www.inkscape.org/namespaces/inkscape"
   width="39.6875"
   height="39.6875"
   viewBox="-242.660720 0.666667 39.687500 39.687500"
   version="1.1"
   id="svg8"
   sodipodi:docname="builder.svg"
   inkscape:version="0.92.1 r15371">
  <sodipodi:namedview
     id="base"
     pagecolor="#ffffff"
     bordercolor="#666666"
     borderopacity="1.0"
     inkscape:pageopacity="0.0"
     inkscape:pageshadow="2"
     inkscape:zoom="11.313709"
     inkscape:cx="7.5772114"
     inkscape:cy="16.024836"
     inkscape:document-units="mm"
     inkscape:current-layer="layer1"
     showgrid="false"
     inkscape:window-width="1366"
     inkscape:window-height="703"
     inkscape:window-x="0"
     inkscape:window-y="0"
     inkscape:window-maximized="1"
     inkscape:measure-start="-8.25195e-07,39.6875"
     inkscape:measure-end="39.6875,39.6875" />
  <defs
     id="defs2" />
  <metadata
     id="metadata5">
    <rdf:RDF>
      <cc:Work
         rdf:about="">
        <dc:format>image/svg+xml</dc:format>
        <dc:type
           rdf:resource="http://purl.org/dc/dcmitype/StillImage" />
        <dc:title></dc:title>
      </cc:Work>
    </rdf:RDF>
  </metadata>
  <g
     id="layer1"
     inkscape:groupmode="layer"
     inkscape:label="Layer 1">
    <g
       id="g4513">
      <g
         transform="translate(-0.88388348,-0.44194174)"
         style="fill:#ff0000;fill-opacity:1"
         id="g4503">
        <path
           style="fill:#ff0000;fill-opacity:1;stroke:#000000;stroke-width:0.07559055;stroke-linecap:butt;stroke-linejoin:miter;stroke-miterlimit:4;stroke-dasharray:none;stroke-opacity:1"
           d="m -221.71268,5.263989 v 4e-6 c -1.14643,-1.6950392 -3.50499,-2.5645935 -5.31766,-2.5968202 -1.98912,0.094287 -3.83608,2.6559534 -3.90967,4.2984983 -0.32025,1.7900712 1.09686,3.2651979 2.70996,3.7227609 1.20744,0.256673 2.59924,0.0125 2.46695,1.909777 0,0 0.22567,2.001051 -1.66319,1.962832 -2.22903,-0.189483 -5.71066,-0.297974 -7.69504,0.955155 -1.92303,1.57208 -0.51494,4.149372 1.15875,4.633931 2.43847,0.239705 4.77303,-0.03683 7.21152,-0.03683 -0.46634,4.289092 -2.3178,7.343159 -3.0361,11.188277 -2.26842,0.880366 -3.55838,0.5481 -6.47487,0.955002 -1.92647,0.268776 -3.07674,2.139782 -2.67905,3.763774 0.0583,2.119383 1.99459,3.143796 3.61877,2.993408 3.09358,0.403294 10.37992,0.106492 13.50516,0.04336"
           id="path4493"
           inkscape:connector-curvature="0"
           sodipodi:nodetypes="cccccccccccsccc" />
        <path
           sodipodi:nodetypes="cccccccccccsccc"
           inkscape:connector-curvature="0"
           id="path4499"
           d="m -221.71268,5.263985 v 4e-6 c 1.14643,-1.6950392 3.50499,-2.5645935 5.31766,-2.5968202 1.98912,0.094287 3.83608,2.6559534 3.90967,4.2984983 0.32025,1.7900712 -1.09686,3.2651979 -2.70996,3.7227609 -1.20744,0.256673 -2.59924,0.137498 -2.46695,1.909777 0,0 -0.22567,2.001051 1.66319,1.962832 2.22903,-0.189483 5.71066,-0.297974 7.69504,0.955155 1.92303,1.57208 0.51494,4.149372 -1.15875,4.633931 -2.43847,0.239705 -4.77303,-0.03683 -7.21152,-0.03683 0.46634,4.289092 2.3178,7.343159 3.0361,11.188277 2.26842,0.880366 3.55838,0.5481 6.47487,0.955002 1.92647,0.268776 3.07674,2.139782 2.67905,3.763774 -0.0583,2.119383 -1.99459,3.143796 -3.61877,2.993408 -3.09358,0.403294 -10.58886,0.106496 -13.7141,0.04336"
           style="fill:#ff0000;fill-opacity:1;stroke:#000000;stroke-width:0.07559055;stroke-linecap:butt;stroke-linejoin:miter;stroke-miterlimit:4;stroke-dasharray:none;stroke-opacity:1" />
      </g>
      <rect
         y="4.9199166"
         x="-223.43623"
         height="33.600182"
         width="1.5909654"
         id="rect4507"
         style="opacity:1;fill:#ff0000;fill-opacity:1;stroke:none;stroke-width:0.03962941;stroke-miterlimit:4;stroke-dasharray:none;stroke-opacity:0.98058256" />
    </g>
  </g>
</svg>
