<?xml version="1.0" encoding="UTF-8" standalone="no"?>
<!-- Created with Inkscape (http://www.inkscape.org/) -->

<svg
   xmlns:dc="http://purl.org/dc/elements/1.1/"
   xmlns:cc="http://creativecommons.org/ns#"
   xmlns:rdf="http://www.w3.org/1999/02/22-rdf-syntax-ns#"
   xmlns:svg="http://www.w3.org/2000/svg"
   xmlns="http://www.w3.org/2000/svg"
   xmlns:sodipodi="http://sodipodi.sourceforge.net/DTD/sodipodi-0.dtd"
   xmlns:inkscape="http://www.inkscape.org/namespaces/inkscape"
   width="84.004463"
   height="66.499992"
   viewBox="-215.501430 -26.317711 84.004463 66.499992"
   version="1.1"
   id="svg8"
   sodipodi:docname="cathedral.svg"
   inkscape:version="0.92.2 5c3e80d, 2017-08-06">
  <sodipodi:namedview
     id="base"
     pagecolor="#ffffff"
     bordercolor="#666666"
     borderopacity="1.0"
     inkscape:pageopacity="0.0"
     inkscape:pageshadow="2"
     inkscape:zoom="16"
     inkscape:cx="55.878284"
     inkscape:cy="33.919661"
     inkscape:document-units="mm"
     inkscape:current-layer="layer1"
     showgrid="true"
     inkscape:window-width="2560"
     inkscape:window-height="1380"
     inkscape:window-x="0"
     inkscape:window-y="0"
     inkscape:window-maximized="1"
     inkscape:measure-start="-8.25195e-07,39.6875"
     inkscape:measure-end="39.6875,39.6875"
     objecttolerance="20"
     gridtolerance="20"
     guidetolerance="20">
    <inkscape:grid
       snapvisiblegridlinesonly="false"
       type="axonomgrid"
       id="grid821"
       units="px"
       empspacing="5"
       spacingy="1" />
  </sodipodi:namedview>
  <defs
     id="defs2" />
  <metadata
     id="metadata5">
    <rdf:RDF>
      <cc:Work
         rdf:about="">
        <dc:format>image/svg+xml</dc:format>
        <dc:type
           rdf:resource="http://purl.org/dc/dcmitype/StillImage" />
        <dc:title></dc:title>
      </cc:Work>
    </rdf:RDF>
  </metadata>
  <g
     id="layer1"
     inkscape:groupmode="layer"
     inkscape:label="Layer 1">
    <path
       style="opacity:1;fill:#a0892c;fill-opacity:1;stroke:none;stroke-width:0.00472441;stroke-linejoin:miter;stroke-miterlimit:4;stroke-dasharray:none;stroke-opacity:1"
       d="m 90.98695,-13.914411 0.0022,-4.945955 -4.26274,-2.461138 c -2.344505,-1.353627 -4.271336,-2.469737 -4.281844,-2.480245 -0.01638,-0.01638 12.532989,-7.28614 12.67727,-7.343856 0.02873,-0.01149 0.04512,4.443638 0.03642,9.900292 l -0.01582,9.921189 -2.03125,1.176565 c -1.117187,0.6471102 -2.052671,1.1771352 -2.078853,1.1778327 -0.02618,7e-4 -0.04661,-2.2244107 -0.04539,-4.9446847 z"
       id="path1744"
       inkscape:connector-curvature="0"
       transform="translate(-227.62579,15.494785)" />
    <path
       style="fill:#d5c16d;stroke:#000000;stroke-width:0.07559055;stroke-linecap:butt;stroke-linejoin:miter;stroke-opacity:1;stroke-miterlimit:4;stroke-dasharray:none;fill-opacity:1"
       d="m -214.63541,-3.317715 v 30 l 21.65064,12.5 v -30 l -4.33013,-2.5 v 10 l -6.06218,-8.5 -6.9282,1 v -10 z"
       id="path1689"
       inkscape:connector-curvature="0" />
    <path
       style="fill:#a05a2c;fill-opacity:1;stroke:#000000;stroke-width:0.07559055;stroke-linecap:butt;stroke-linejoin:miter;stroke-miterlimit:4;stroke-dasharray:none;stroke-opacity:1"
       d="m -209.43926,29.682285 v -10 c 0,0 1.73204,-1.999997 2.59807,-1.5 1.73206,1 1.73206,4 1.73206,4 0,0 1.73205,-1.999998 2.59807,-1.5 1.73206,1 1.73205,4 1.73205,4 v 10 z"
       id="path1691"
       inkscape:connector-curvature="0"
       sodipodi:nodetypes="ccscsccc" />
    <path
       style="fill:#a0892c;stroke:#000000;stroke-width:0.07559055;stroke-linecap:butt;stroke-linejoin:miter;stroke-opacity:1;stroke-miterlimit:4;stroke-dasharray:none;fill-opacity:1"
       d="m -192.98477,39.182285 34.64101,-20 v -20 l -30.31089,17.5 v -10 l -4.33012,2.5 z"
       id="path1693"
       inkscape:connector-curvature="0" />
    <path
       style="fill:#d5c16d;stroke:#000000;stroke-width:0.07559055;stroke-linecap:butt;stroke-linejoin:miter;stroke-opacity:1;stroke-miterlimit:4;stroke-dasharray:none;fill-opacity:1"
       d="m -158.34376,19.182285 8.66026,5 v -20 l -8.66026,-5 z"
       id="path1714"
       inkscape:connector-curvature="0" />
    <path
       sodipodi:nodetypes="cccacc"
       inkscape:connector-curvature="0"
       id="path1778"
       d="m -140.15723,3.682285 4.33013,-2.5 v -10 c 0,0 -1.21209,-1.405515 -1.96695,-1.234261 -1.43656,0.325911 -2.36318,3.734261 -2.36318,3.734261 z"
       style="fill:#a3ecec;fill-opacity:1;stroke:#000000;stroke-width:0.07559055;stroke-linecap:butt;stroke-linejoin:miter;stroke-miterlimit:4;stroke-dasharray:none;stroke-opacity:1" />
    <path
       style="fill:#a0892c;stroke:#000000;stroke-width:0.07559055;stroke-linecap:butt;stroke-linejoin:miter;stroke-opacity:1;stroke-miterlimit:4;stroke-dasharray:none;fill-opacity:1"
       d="m -149.6835,4.182285 12.99038,-7.5 v 20 l -12.99038,7.5 z"
       id="path1716"
       inkscape:connector-curvature="0" />
    <path
       style="fill:#a0892c;stroke:#000000;stroke-width:0.07559055;stroke-linecap:butt;stroke-linejoin:miter;stroke-miterlimit:4;stroke-dasharray:none;stroke-opacity:1;fill-opacity:1"
       d="m -149.6835,4.182285 7.79422,-10.5 5.19616,3 z"
       id="path1720"
       inkscape:connector-curvature="0"
       sodipodi:nodetypes="cccc" />
    <path
       style="fill:none;stroke:#000000;stroke-width:0.07559055;stroke-linecap:butt;stroke-linejoin:miter;stroke-miterlimit:4;stroke-dasharray:none;stroke-opacity:1"
       d="m -158.34376,-0.817715 v -15 l -45.03332,24"
       id="path1722"
       inkscape:connector-curvature="0"
       sodipodi:nodetypes="ccc" />
    <path
       style="fill:none;stroke:#000000;stroke-width:0.07559055;stroke-linecap:butt;stroke-linejoin:miter;stroke-miterlimit:4;stroke-dasharray:none;stroke-opacity:1"
       d="m -205.97515,6.682285 0,-10 -4.33013,-2.5 -4.33013,2.5 4.33013,2.5 4.33013,-2.5 z"
       id="path1724"
       inkscape:connector-curvature="0"
       sodipodi:nodetypes="ccccccc" />
    <path
       style="fill:none;stroke:#000000;stroke-width:0.07559055;stroke-linecap:butt;stroke-linejoin:miter;stroke-opacity:1;stroke-miterlimit:4;stroke-dasharray:none"
       d="m -141.88927,-6.317715 -16.45449,-9.5"
       id="path1726"
       inkscape:connector-curvature="0" />
    <path
       inkscape:connector-curvature="0"
       id="path1728"
       d="m -158.34376,-15.817715 -16.45449,-9.5"
       style="fill:none;stroke:#000000;stroke-width:0.07559055;stroke-linecap:butt;stroke-linejoin:miter;stroke-miterlimit:4;stroke-dasharray:none;stroke-opacity:1" />
    <path
       style="fill:none;stroke:#000000;stroke-width:0.07559055;stroke-linecap:butt;stroke-linejoin:miter;stroke-opacity:1;stroke-miterlimit:4;stroke-dasharray:none"
       d="m -197.3149,6.682285 4.33013,-2.5 4.33012,2.5"
       id="path1730"
       inkscape:connector-curvature="0" />
    <path
       sodipodi:nodetypes="ccc"
       inkscape:connector-curvature="0"
       id="path1732"
       d="m -182.59246,-14.817715 7.79422,-10.5 5.19616,3"
       style="fill:none;fill-opacity:1;stroke:#000000;stroke-width:0.07559055;stroke-linecap:butt;stroke-linejoin:miter;stroke-miterlimit:4;stroke-dasharray:none;stroke-opacity:1" />
    <path
       style="fill:none;stroke:#000000;stroke-width:0.07559055;stroke-linecap:butt;stroke-linejoin:miter;stroke-miterlimit:4;stroke-dasharray:none;stroke-opacity:1"
       d="m -210.30528,9.182285 34.64101,-20 17.32051,-5"
       id="path1734"
       inkscape:connector-curvature="0"
       sodipodi:nodetypes="ccc" />
    <path
       style="fill:#d5c16d;stroke:#000000;stroke-width:0.07559055;stroke-linecap:butt;stroke-linejoin:miter;stroke-opacity:1;stroke-miterlimit:4;stroke-dasharray:none;fill-opacity:1"
       d="m -175.66427,-10.817715 -6.9282,-4 0,8"
       id="path1736"
       inkscape:connector-curvature="0" />
    <path
       style="fill:none;stroke:#000000;stroke-width:0.07559055;stroke-linecap:butt;stroke-linejoin:miter;stroke-opacity:1;stroke-miterlimit:4;stroke-dasharray:none"
       d="m -145.35338,-8.317715 12.99038,-7.5 v 20 l -4.33012,2.5"
       id="path1738"
       inkscape:connector-curvature="0" />
    <path
       style="fill:none;stroke:#000000;stroke-width:0.07559055;stroke-linecap:butt;stroke-linejoin:miter;stroke-opacity:1;stroke-miterlimit:4;stroke-dasharray:none"
       d="m -132.363,-15.817715 -8.66025,-10 -10.3923,1 -11.25833,6.5 4.33012,2.5 17.32051,-10"
       id="path1740"
       inkscape:connector-curvature="0" />
    <path
       style="opacity:1;fill:#a0892c;fill-opacity:1;stroke:none;stroke-width:0.00472441;stroke-linejoin:miter;stroke-miterlimit:4;stroke-dasharray:none;stroke-opacity:1"
       d="m 17.361197,-11.336023 v -4.922156 l 0.984375,-0.566872 c 0.541406,-0.31178 1.497656,-0.863563 2.125,-1.226185 l 1.140625,-0.659314 v 4.91983 4.9198294 l -1.015625,0.5874312 c -0.558594,0.3230875 -1.514844,0.8759181 -2.125,1.2285125 l -1.109375,0.6410819 z"
       id="path1742"
       inkscape:connector-curvature="0"
       transform="translate(-227.62579,15.494785)" />
    <path
       style="opacity:1;fill:#d5c16d;fill-opacity:1;stroke:none;stroke-width:0.00472441;stroke-linejoin:miter;stroke-miterlimit:4;stroke-dasharray:none;stroke-opacity:1"
       d="m 32.569405,-7.5827509 c -1.105798,-0.6418261 -2.028191,-1.1846624 -2.049762,-1.2063029 -0.02157,-0.02164 0.895666,-0.5799457 2.038307,-1.2406782 2.012669,-1.163827 2.082517,-1.198468 2.237263,-1.109573 3.008429,1.7282053 4.003045,2.3204351 3.961113,2.3585864 -0.0914,0.083164 -4.088283,2.3749253 -4.133054,2.3698427 -0.02383,-0.00271 -0.948069,-0.5300489 -2.053867,-1.171875 z"
       id="path1746"
       inkscape:connector-curvature="0"
       transform="translate(-227.62579,15.494785)" />
    <path
       style="opacity:1;fill:#d5c16d;fill-opacity:1;stroke:none;stroke-width:0.00472441;stroke-linejoin:miter;stroke-miterlimit:4;stroke-dasharray:none;stroke-opacity:1"
       d="m 17.079947,-16.531583 c -0.103125,-0.0634 -1.034001,-0.603244 -2.068613,-1.199658 l -1.881113,-1.084387 2.057952,-1.18579 c 1.131874,-0.652184 2.091562,-1.185789 2.13264,-1.185789 0.132488,0 4.175342,2.359005 4.122589,2.40553 -0.09358,0.08253 -4.094112,2.375798 -4.13534,2.370542 -0.02234,-0.0028 -0.12499,-0.05705 -0.228115,-0.120448 z"
       id="path1748"
       inkscape:connector-curvature="0"
       transform="translate(-227.62579,15.494785)" />
    <path
       style="opacity:1;fill:#c64040;fill-opacity:1;stroke:none;stroke-width:0.00472441;stroke-linejoin:miter;stroke-miterlimit:4;stroke-dasharray:none;stroke-opacity:1"
       d="m 39.048697,-3.9204231 v -4.9623832 l -0.203125,-0.098027 c -0.111719,-0.053915 -1.089062,-0.6114037 -2.171875,-1.2388637 -1.082812,-0.62746 -1.996875,-1.141019 -2.03125,-1.141242 -0.03437,-2.5e-4 -0.967782,0.523738 -2.074239,1.164357 -1.106456,0.64062 -2.08363,1.1975194 -2.171498,1.237555 l -0.15976,0.072791 -0.016,4.9041988 -0.016,4.90419873 -2.915294,-4.08593433 c -2.161024,-3.028785 -2.896784,-4.1037007 -2.84375,-4.1546019 0.03935,-0.037768 10.041857,-5.3783303 22.227794,-11.8679183 12.185938,-6.489587 22.247656,-11.853949 22.359375,-11.920804 l 0.203125,-0.121555 v 7.43171 7.431711 l -15.037192,8.6827619 c -8.270457,4.7755194 -15.062644,8.6921369 -15.09375,8.703595 -0.03344,0.012319 -0.05656,-2.00722187 -0.05656,-4.9415487 z"
       id="path1750"
       inkscape:connector-curvature="0"
       transform="translate(-227.62579,15.494785)" />
    <path
       style="opacity:1;fill:#c64040;fill-opacity:1;stroke:none;stroke-width:0.00472441;stroke-linejoin:miter;stroke-miterlimit:4;stroke-dasharray:none;stroke-opacity:1"
       d="m 75.954947,-27.532239 c -3.4375,-1.988442 -6.312723,-3.653042 -6.389384,-3.699112 -0.130298,-0.0783 0.415624,-0.404185 8.375,-4.999383 4.682912,-2.703592 8.550193,-4.924813 8.59396,-4.936048 0.07045,-0.01808 8.576674,9.724615 8.576674,9.823381 0,0.04663 -12.793676,7.439971 -12.860534,7.431977 -0.02514,-0.003 -2.858216,-1.632373 -6.295716,-3.620815 z"
       id="path1752"
       inkscape:connector-curvature="0"
       transform="translate(-227.62579,15.494785)" />
    <path
       style="opacity:1;fill:#ff8080;fill-opacity:1;stroke:none;stroke-width:0.00472441;stroke-linejoin:miter;stroke-miterlimit:4;stroke-dasharray:none;stroke-opacity:1"
       d="m 17.811059,-6.5016525 c 0.08011,-0.08011 34.159969,-19.7360935 34.300138,-19.7830325 0.516348,-0.172909 16.265125,-4.689481 16.284419,-4.670187 0.01298,0.01298 -9.921523,5.323825 -22.076669,11.801881 L 24.21868,-7.3747075 21.118063,-6.9237494 c -3.088636,0.4492156 -3.370041,0.4851338 -3.307004,0.4220969 z"
       id="path1754"
       inkscape:connector-curvature="0"
       transform="translate(-227.62579,15.494785)" />
    <path
       style="opacity:1;fill:#ff8080;fill-opacity:1;stroke:none;stroke-width:0.00472441;stroke-linejoin:miter;stroke-miterlimit:4;stroke-dasharray:none;stroke-opacity:1"
       d="m 48.532394,-28.364831 c -1.929028,-1.118001 -3.348372,-1.977832 -3.332625,-2.018887 0.01871,-0.04877 7.370572,-9.993375 7.629557,-10.320227 0.0073,-0.0092 2.89323,1.645774 6.413192,3.677732 3.519961,2.031958 7.165813,4.134802 8.101895,4.672987 0.936082,0.538185 1.702363,0.992581 1.702848,1.009769 10e-4,0.0371 -17.001378,4.944823 -17.092314,4.933668 -0.03437,-0.0042 -1.574524,-0.883985 -3.422553,-1.955042 z"
       id="path1756"
       inkscape:connector-curvature="0"
       transform="translate(-227.62579,15.494785)" />
    <path
       style="opacity:1;fill:#ff8080;fill-opacity:1;stroke:none;stroke-width:0.00472441;stroke-linejoin:miter;stroke-miterlimit:4;stroke-dasharray:none;stroke-opacity:1"
       d="m 73.642447,-13.874504 -4.25,-2.454767 -0.01588,-7.418637 c -0.0095,-4.424952 0.007,-7.410195 0.04086,-7.397718 0.206579,0.07616 16.188328,9.342779 16.176873,9.37976 -0.01989,0.0642 -7.611941,10.292622 -7.661675,10.322218 -0.0221,0.01315 -1.952679,-1.080734 -4.290178,-2.430856 z"
       id="path1758"
       inkscape:connector-curvature="0"
       transform="translate(-227.62579,15.494785)" />
    <path
       style="opacity:1;fill:#ff8080;fill-opacity:1;stroke:none;stroke-width:0.00472441;stroke-linejoin:miter;stroke-miterlimit:4;stroke-dasharray:none;stroke-opacity:1"
       d="m 67.207555,-32.594795 c -1.131551,-0.653861 -2.066346,-1.197817 -2.07732,-1.208791 -0.01098,-0.01097 2.476346,-1.463168 5.527379,-3.227096 l 5.547333,-3.207143 5,-0.484517 c 2.75,-0.266484 5.006484,-0.478298 5.014409,-0.470698 0.01451,0.01392 -16.895151,9.787083 -16.933738,9.787083 -0.01138,0 -0.946511,-0.534977 -2.078063,-1.188838 z"
       id="path1760"
       inkscape:connector-curvature="0"
       transform="translate(-227.62579,15.494785)" />
    <path
       style="fill:#784421;stroke:#000000;stroke-width:0.07559055;stroke-linecap:butt;stroke-linejoin:miter;stroke-miterlimit:4;stroke-dasharray:none;stroke-opacity:1;fill-opacity:1"
       d="m -145.35338,21.682285 v -10 c 0,0 1.17534,-3.2051932 2.59808,-3.5 0.6528,-0.1352665 1.73205,1 1.73205,1 v 10 z"
       id="path1762"
       inkscape:connector-curvature="0"
       sodipodi:nodetypes="ccaccc" />
    <ellipse
       style="opacity:1;fill:#a3ecec;fill-opacity:1;stroke:#000000;stroke-width:0.06535017;stroke-linejoin:miter;stroke-miterlimit:4;stroke-dasharray:none;stroke-opacity:1"
       id="path1764"
       cx="-204.51105"
       cy="13.869785"
       rx="2.5891016"
       ry="4.5" />
    <path
       sodipodi:type="star"
       style="opacity:1;fill:#eca3ad;fill-opacity:1;stroke:#000000;stroke-width:0.07559055;stroke-linejoin:miter;stroke-miterlimit:4;stroke-dasharray:none;stroke-opacity:1"
       id="path1766"
       sodipodi:sides="21"
       sodipodi:cx="-203.37708"
       sodipodi:cy="-5.8177152"
       sodipodi:r1="4.5825758"
       sodipodi:r2="2.2912879"
       sodipodi:arg1="0.71372438"
       sodipodi:arg2="0.86332403"
       inkscape:flatsided="false"
       inkscape:rounded="0"
       inkscape:randomized="0"
       d="m -199.91297,-2.8177151 -1.97496,-1.258605 0.93679,2.1463853 -1.51624,-1.7848183 0.26252,2.3271523 -0.92279,-2.1524428 -0.43509,2.3011416 -0.24735,-2.3288131 -1.09403,2.0706644 0.45007,-2.2982583 -1.65576,1.6561995 1.10749,-2.0634931 -2.07037,1.094574 1.66651,-1.6453775 -2.30102,0.435691 2.07746,-1.0810629 -2.32722,-0.2619053 2.30382,-0.4206911 -2.14663,-0.93623 2.32546,0.2770609 -1.7753,-1.5273667 2.14048,0.950195 -1.24623,-1.9827901 1.76532,1.5388999 -0.60643,-2.2620336 1.23329,1.9908667 0.0873,-2.3402857 0.59168,2.2659362 0.77319,-2.2105932 -0.1025,2.3396676 1.39042,-1.88448 -0.78758,2.2055094 1.88412,-1.3909222 -1.40268,1.8753817 2.21039,-0.7737749 -1.89313,1.3786182 2.34026,-0.087874 -2.21538,0.7593584 2.26219,0.6058343 -2.34079,0.072626 1.98312,1.2457119 -2.2582,-0.6205591 z"
       inkscape:transform-center-x="0.0077665587"
       inkscape:transform-center-y="0.011569374"
       transform="matrix(0.55989528,0,0,0.98592598,-90.635834,19.596488)" />
    <path
       sodipodi:type="star"
       style="opacity:1;fill:#f2e873;fill-opacity:1;stroke:#000000;stroke-width:0.07559055;stroke-linejoin:miter;stroke-miterlimit:4;stroke-dasharray:none;stroke-opacity:1"
       id="path1768"
       sodipodi:sides="12"
       sodipodi:cx="-203.50079"
       sodipodi:cy="-2.9270899"
       sodipodi:r1="1.9727143"
       sodipodi:r2="0.98635715"
       sodipodi:arg1="0.86388827"
       sodipodi:arg2="1.1256877"
       inkscape:flatsided="false"
       inkscape:rounded="0"
       inkscape:randomized="0"
       d="m -202.21954,-1.4270899 -0.85657,-0.6097497 -0.0651,1.04941282 -0.43693,-0.95634272 -0.58108,0.8762747 0.0998,-1.0466846 -0.94136,0.4683395 0.60975,-0.8565681 -1.04942,-0.065087 0.95635,-0.4369349 -0.87628,-0.5810733 1.04669,0.099775 -0.46834,-0.9413616 0.85656,0.6097497 0.0651,-1.0494128 0.43694,0.9563428 0.58107,-0.8762747 -0.0998,1.0466846 0.94136,-0.4683396 -0.60975,0.8565682 1.04941,0.065087 -0.95634,0.4369349 0.87627,0.5810733 -1.04668,-0.099775 z"
       transform="matrix(0.68350012,0,0,1.1687467,-65.407827,17.336865)" />
    <path
       style="fill:#a3ecec;fill-opacity:1;stroke:#000000;stroke-width:0.07559055;stroke-linecap:butt;stroke-linejoin:miter;stroke-miterlimit:4;stroke-dasharray:none;stroke-opacity:1"
       d="m -186.9226,30.682285 4.33013,-2.5 v -10 c 0,0 -1.21209,-1.405515 -1.96695,-1.234261 -1.43656,0.325911 -2.36318,3.734261 -2.36318,3.734261 z"
       id="path1770"
       inkscape:connector-curvature="0"
       sodipodi:nodetypes="cccacc" />
    <path
       sodipodi:nodetypes="cccacc"
       inkscape:connector-curvature="0"
       id="path1772"
       d="m -179.99439,26.682285 4.33013,-2.5 v -10 c 0,0 -1.21209,-1.405515 -1.96695,-1.234261 -1.43656,0.325911 -2.36318,3.734261 -2.36318,3.734261 z"
       style="fill:#a3ecec;fill-opacity:1;stroke:#000000;stroke-width:0.07559055;stroke-linecap:butt;stroke-linejoin:miter;stroke-miterlimit:4;stroke-dasharray:none;stroke-opacity:1" />
    <path
       style="fill:#a3ecec;fill-opacity:1;stroke:#000000;stroke-width:0.07559055;stroke-linecap:butt;stroke-linejoin:miter;stroke-miterlimit:4;stroke-dasharray:none;stroke-opacity:1"
       d="m -173.06619,22.682285 4.33013,-2.5 v -10 c 0,0 -1.21209,-1.405515 -1.96695,-1.234261 -1.43656,0.325911 -2.36318,3.734261 -2.36318,3.734261 z"
       id="path1774"
       inkscape:connector-curvature="0"
       sodipodi:nodetypes="cccacc" />
    <path
       sodipodi:nodetypes="cccacc"
       inkscape:connector-curvature="0"
       id="path1776"
       d="m -166.13799,18.682285 4.33013,-2.5 v -10 c 0,0 -1.21209,-1.405515 -1.96695,-1.234261 -1.43656,0.325911 -2.36318,3.734261 -2.36318,3.734261 z"
       style="fill:#a3ecec;fill-opacity:1;stroke:#000000;stroke-width:0.07559055;stroke-linecap:butt;stroke-linejoin:miter;stroke-miterlimit:4;stroke-dasharray:none;stroke-opacity:1" />
    <g
       id="g1788">
      <path
         inkscape:connector-curvature="0"
         id="path1782"
         d="m -196.44887,9.182285 -0.86603,1.5 2.59808,1.5 0.86602,-1.5 z"
         style="fill:#dcbf49;stroke:#000000;stroke-width:0.07559055;stroke-linecap:butt;stroke-linejoin:miter;stroke-opacity:1;stroke-miterlimit:4;stroke-dasharray:none;fill-opacity:1" />
      <path
         inkscape:connector-curvature="0"
         id="path1784"
         d="m -194.71682,12.182285 0.86602,0.04687 v -1.546875 z"
         style="fill:#000202;stroke:#000000;stroke-width:0.03779528;stroke-linecap:butt;stroke-linejoin:miter;stroke-opacity:1;stroke-miterlimit:4;stroke-dasharray:none;fill-opacity:1" />
    </g>
    <g
       id="g1794"
       transform="translate(-4.6561913e-6,3)">
      <path
         style="fill:#dcbf49;fill-opacity:1;stroke:#000000;stroke-width:0.07559055;stroke-linecap:butt;stroke-linejoin:miter;stroke-miterlimit:4;stroke-dasharray:none;stroke-opacity:1"
         d="m -196.44887,9.182285 -0.86603,1.5 2.59808,1.5 0.86602,-1.5 z"
         id="path1790"
         inkscape:connector-curvature="0" />
      <path
         style="fill:#000202;fill-opacity:1;stroke:#000000;stroke-width:0.03779528;stroke-linecap:butt;stroke-linejoin:miter;stroke-miterlimit:4;stroke-dasharray:none;stroke-opacity:1"
         d="m -194.71682,12.182285 0.86602,0.04687 V 10.68228 Z"
         id="path1792"
         inkscape:connector-curvature="0" />
    </g>
    <g
       transform="translate(7.4759311e-7,6)"
       id="g1800">
      <path
         inkscape:connector-curvature="0"
         id="path1796"
         d="m -196.44887,9.182285 -0.86603,1.5 2.59808,1.5 0.86602,-1.5 z"
         style="fill:#dcbf49;fill-opacity:1;stroke:#000000;stroke-width:0.07559055;stroke-linecap:butt;stroke-linejoin:miter;stroke-miterlimit:4;stroke-dasharray:none;stroke-opacity:1" />
      <path
         inkscape:connector-curvature="0"
         id="path1798"
         d="m -194.71682,12.182285 0.86602,0.04687 V 10.68228 Z"
         style="fill:#000202;fill-opacity:1;stroke:#000000;stroke-width:0.03779528;stroke-linecap:butt;stroke-linejoin:miter;stroke-miterlimit:4;stroke-dasharray:none;stroke-opacity:1" />
    </g>
    <g
       id="g1806"
       transform="translate(-17.320507,-10)">
      <path
         style="fill:#dcbf49;fill-opacity:1;stroke:#000000;stroke-width:0.07559055;stroke-linecap:butt;stroke-linejoin:miter;stroke-miterlimit:4;stroke-dasharray:none;stroke-opacity:1"
         d="m -196.44887,9.182285 -0.86603,1.5 2.59808,1.5 0.86602,-1.5 z"
         id="path1802"
         inkscape:connector-curvature="0" />
      <path
         style="fill:#000202;fill-opacity:1;stroke:#000000;stroke-width:0.03779528;stroke-linecap:butt;stroke-linejoin:miter;stroke-miterlimit:4;stroke-dasharray:none;stroke-opacity:1"
         d="m -194.71682,12.182285 0.86602,0.04687 V 10.68228 Z"
         id="path1804"
         inkscape:connector-curvature="0" />
    </g>
    <g
       transform="translate(-17.320513,-7)"
       id="g1812">
      <path
         inkscape:connector-curvature="0"
         id="path1808"
         d="m -196.44887,9.182285 -0.86603,1.5 2.59808,1.5 0.86602,-1.5 z"
         style="fill:#dcbf49;fill-opacity:1;stroke:#000000;stroke-width:0.07559055;stroke-linecap:butt;stroke-linejoin:miter;stroke-miterlimit:4;stroke-dasharray:none;stroke-opacity:1" />
      <path
         inkscape:connector-curvature="0"
         id="path1810"
         d="m -194.71682,12.182285 0.86602,0.04687 V 10.68228 Z"
         style="fill:#000202;fill-opacity:1;stroke:#000000;stroke-width:0.03779528;stroke-linecap:butt;stroke-linejoin:miter;stroke-miterlimit:4;stroke-dasharray:none;stroke-opacity:1" />
    </g>
    <g
       id="g1818"
       transform="translate(-17.320513,-4)">
      <path
         style="fill:#dcbf49;fill-opacity:1;stroke:#000000;stroke-width:0.07559055;stroke-linecap:butt;stroke-linejoin:miter;stroke-miterlimit:4;stroke-dasharray:none;stroke-opacity:1"
         d="m -196.44887,9.182285 -0.86603,1.5 2.59808,1.5 0.86602,-1.5 z"
         id="path1814"
         inkscape:connector-curvature="0" />
      <path
         style="fill:#000202;fill-opacity:1;stroke:#000000;stroke-width:0.03779528;stroke-linecap:butt;stroke-linejoin:miter;stroke-miterlimit:4;stroke-dasharray:none;stroke-opacity:1"
         d="m -194.71682,12.182285 0.86602,0.04687 V 10.68228 Z"
         id="path1816"
         inkscape:connector-curvature="0" />
    </g>
  </g>
</svg>
