<?xml version="1.0" encoding="UTF-8" standalone="no"?>
<!-- Created with Inkscape (http://www.inkscape.org/) -->

<svg
   xmlns:dc="http://purl.org/dc/elements/1.1/"
   xmlns:cc="http://creativecommons.org/ns#"
   xmlns:rdf="http://www.w3.org/1999/02/22-rdf-syntax-ns#"
   xmlns:svg="http://www.w3.org/2000/svg"
   xmlns="http://www.w3.org/2000/svg"
   xmlns:sodipodi="http://sodipodi.sourceforge.net/DTD/sodipodi-0.dtd"
   xmlns:inkscape="http://www.inkscape.org/namespaces/inkscape"
   width="150.0"
   height="150.0"
   viewBox="-242.660720 -109.645830 150.000000 150.000000"
   version="1.1"
   id="svg8"
   sodipodi:docname="city_half_2.svg"
   inkscape:version="0.92.2 5c3e80d, 2017-08-06">
  <sodipodi:namedview
     id="base"
     pagecolor="#ffffff"
     bordercolor="#666666"
     borderopacity="1.0"
     inkscape:pageopacity="0.0"
     inkscape:pageshadow="2"
     inkscape:zoom="5.6568542"
     inkscape:cx="64.551087"
     inkscape:cy="67.153386"
     inkscape:document-units="mm"
     inkscape:current-layer="layer1"
     showgrid="false"
     inkscape:window-width="2560"
     inkscape:window-height="1380"
     inkscape:window-x="0"
     inkscape:window-y="0"
     inkscape:window-maximized="1"
     inkscape:measure-start="-8.25195e-07,39.6875"
     inkscape:measure-end="39.6875,39.6875"
     gridtolerance="1"
     objecttolerance="1"
     guidetolerance="1" />
  <defs
     id="defs2">
    <clipPath
       clipPathUnits="userSpaceOnUse"
       id="clipPath1069">
      <rect
         style="opacity:1;fill:#806600;fill-opacity:1;stroke:#000000;stroke-width:0;stroke-linejoin:miter;stroke-miterlimit:4;stroke-dasharray:none;stroke-opacity:1"
         id="rect1071"
         width="150"
         height="150"
         x="-242.66072"
         y="-109.64583"
         ry="0" />
    </clipPath>
    <clipPath
       clipPathUnits="userSpaceOnUse"
       id="clipPath1073">
      <rect
         style="opacity:1;fill:#806600;fill-opacity:1;stroke:#000000;stroke-width:0;stroke-linejoin:miter;stroke-miterlimit:4;stroke-dasharray:none;stroke-opacity:1"
         id="rect1075"
         width="150"
         height="150"
         x="-242.66072"
         y="-109.64583"
         ry="0" />
    </clipPath>
    <clipPath
       clipPathUnits="userSpaceOnUse"
       id="clipPath1077">
      <rect
         style="opacity:1;fill:#806600;fill-opacity:1;stroke:#000000;stroke-width:0;stroke-linejoin:miter;stroke-miterlimit:4;stroke-dasharray:none;stroke-opacity:1"
         id="rect1079"
         width="150"
         height="150"
         x="-242.66072"
         y="-109.64583"
         ry="0" />
    </clipPath>
    <clipPath
       clipPathUnits="userSpaceOnUse"
       id="clipPath1081">
      <rect
         style="opacity:1;fill:#806600;fill-opacity:1;stroke:#000000;stroke-width:0;stroke-linejoin:miter;stroke-miterlimit:4;stroke-dasharray:none;stroke-opacity:1"
         id="rect1083"
         width="150"
         height="150"
         x="-242.66072"
         y="-109.64583"
         ry="0" />
    </clipPath>
    <clipPath
       clipPathUnits="userSpaceOnUse"
       id="clipPath1085">
      <rect
         style="opacity:1;fill:#806600;fill-opacity:1;stroke:#000000;stroke-width:0;stroke-linejoin:miter;stroke-miterlimit:4;stroke-dasharray:none;stroke-opacity:1"
         id="rect1087"
         width="150"
         height="150"
         x="-242.66072"
         y="-109.64583"
         ry="0" />
    </clipPath>
    <clipPath
       clipPathUnits="userSpaceOnUse"
       id="clipPath1089">
      <rect
         style="opacity:1;fill:#806600;fill-opacity:1;stroke:#000000;stroke-width:0;stroke-linejoin:miter;stroke-miterlimit:4;stroke-dasharray:none;stroke-opacity:1"
         id="rect1091"
         width="150"
         height="150"
         x="-242.66072"
         y="-109.64583"
         ry="0" />
    </clipPath>
    <clipPath
       clipPathUnits="userSpaceOnUse"
       id="clipPath1093">
      <rect
         style="opacity:1;fill:#806600;fill-opacity:1;stroke:#000000;stroke-width:0;stroke-linejoin:miter;stroke-miterlimit:4;stroke-dasharray:none;stroke-opacity:1"
         id="rect1095"
         width="150"
         height="150"
         x="-242.66072"
         y="-109.64583"
         ry="0" />
    </clipPath>
    <clipPath
       clipPathUnits="userSpaceOnUse"
       id="clipPath1097">
      <rect
         style="opacity:1;fill:#806600;fill-opacity:1;stroke:#000000;stroke-width:0;stroke-linejoin:miter;stroke-miterlimit:4;stroke-dasharray:none;stroke-opacity:1"
         id="rect1099"
         width="150"
         height="150"
         x="-242.66072"
         y="-109.64583"
         ry="0" />
    </clipPath>
    <clipPath
       clipPathUnits="userSpaceOnUse"
       id="clipPath1101">
      <rect
         style="opacity:1;fill:#806600;fill-opacity:1;stroke:#000000;stroke-width:0;stroke-linejoin:miter;stroke-miterlimit:4;stroke-dasharray:none;stroke-opacity:1"
         id="rect1103"
         width="150"
         height="150"
         x="-242.66072"
         y="-109.64583"
         ry="0" />
    </clipPath>
    <clipPath
       clipPathUnits="userSpaceOnUse"
       id="clipPath1105">
      <rect
         style="opacity:1;fill:#806600;fill-opacity:1;stroke:#000000;stroke-width:0;stroke-linejoin:miter;stroke-miterlimit:4;stroke-dasharray:none;stroke-opacity:1"
         id="rect1107"
         width="150"
         height="150"
         x="-242.66072"
         y="-109.64583"
         ry="0" />
    </clipPath>
    <clipPath
       clipPathUnits="userSpaceOnUse"
       id="clipPath1109">
      <rect
         style="opacity:1;fill:#806600;fill-opacity:1;stroke:#000000;stroke-width:0;stroke-linejoin:miter;stroke-miterlimit:4;stroke-dasharray:none;stroke-opacity:1"
         id="rect1111"
         width="150"
         height="150"
         x="-242.66072"
         y="-109.64583"
         ry="0" />
    </clipPath>
    <clipPath
       clipPathUnits="userSpaceOnUse"
       id="clipPath1113">
      <rect
         style="opacity:1;fill:#806600;fill-opacity:1;stroke:#000000;stroke-width:0;stroke-linejoin:miter;stroke-miterlimit:4;stroke-dasharray:none;stroke-opacity:1"
         id="rect1115"
         width="150"
         height="150"
         x="-242.66072"
         y="-109.64583"
         ry="0" />
    </clipPath>
    <clipPath
       clipPathUnits="userSpaceOnUse"
       id="clipPath1117">
      <rect
         style="opacity:1;fill:#806600;fill-opacity:1;stroke:#000000;stroke-width:0;stroke-linejoin:miter;stroke-miterlimit:4;stroke-dasharray:none;stroke-opacity:1"
         id="rect1119"
         width="150"
         height="150"
         x="-242.66072"
         y="-109.64583"
         ry="0" />
    </clipPath>
    <clipPath
       clipPathUnits="userSpaceOnUse"
       id="clipPath1121">
      <rect
         style="opacity:1;fill:#806600;fill-opacity:1;stroke:#000000;stroke-width:0;stroke-linejoin:miter;stroke-miterlimit:4;stroke-dasharray:none;stroke-opacity:1"
         id="rect1123"
         width="150"
         height="150"
         x="-242.66072"
         y="-109.64583"
         ry="0" />
    </clipPath>
    <clipPath
       clipPathUnits="userSpaceOnUse"
       id="clipPath1125">
      <rect
         style="opacity:1;fill:#806600;fill-opacity:1;stroke:#000000;stroke-width:0;stroke-linejoin:miter;stroke-miterlimit:4;stroke-dasharray:none;stroke-opacity:1"
         id="rect1127"
         width="150"
         height="150"
         x="-242.66072"
         y="-109.64583"
         ry="0" />
    </clipPath>
    <clipPath
       clipPathUnits="userSpaceOnUse"
       id="clipPath1129">
      <rect
         style="opacity:1;fill:#806600;fill-opacity:1;stroke:#000000;stroke-width:0;stroke-linejoin:miter;stroke-miterlimit:4;stroke-dasharray:none;stroke-opacity:1"
         id="rect1131"
         width="150"
         height="150"
         x="-242.66072"
         y="-109.64583"
         ry="0" />
    </clipPath>
    <clipPath
       clipPathUnits="userSpaceOnUse"
       id="clipPath1133">
      <rect
         style="opacity:1;fill:#806600;fill-opacity:1;stroke:#000000;stroke-width:0;stroke-linejoin:miter;stroke-miterlimit:4;stroke-dasharray:none;stroke-opacity:1"
         id="rect1135"
         width="150"
         height="150"
         x="-242.66072"
         y="-109.64583"
         ry="0" />
    </clipPath>
    <clipPath
       clipPathUnits="userSpaceOnUse"
       id="clipPath1137">
      <rect
         style="opacity:1;fill:#806600;fill-opacity:1;stroke:#000000;stroke-width:0;stroke-linejoin:miter;stroke-miterlimit:4;stroke-dasharray:none;stroke-opacity:1"
         id="rect1139"
         width="150"
         height="150"
         x="-242.66072"
         y="-109.64583"
         ry="0" />
    </clipPath>
    <clipPath
       clipPathUnits="userSpaceOnUse"
       id="clipPath1141">
      <rect
         style="opacity:1;fill:#806600;fill-opacity:1;stroke:#000000;stroke-width:0;stroke-linejoin:miter;stroke-miterlimit:4;stroke-dasharray:none;stroke-opacity:1"
         id="rect1143"
         width="150"
         height="150"
         x="-242.66072"
         y="-109.64583"
         ry="0" />
    </clipPath>
    <clipPath
       clipPathUnits="userSpaceOnUse"
       id="clipPath1145">
      <rect
         style="opacity:1;fill:#806600;fill-opacity:1;stroke:#000000;stroke-width:0;stroke-linejoin:miter;stroke-miterlimit:4;stroke-dasharray:none;stroke-opacity:1"
         id="rect1147"
         width="150"
         height="150"
         x="-242.66072"
         y="-109.64583"
         ry="0" />
    </clipPath>
    <clipPath
       clipPathUnits="userSpaceOnUse"
       id="clipPath1149">
      <rect
         style="opacity:1;fill:#806600;fill-opacity:1;stroke:#000000;stroke-width:0;stroke-linejoin:miter;stroke-miterlimit:4;stroke-dasharray:none;stroke-opacity:1"
         id="rect1151"
         width="150"
         height="150"
         x="-242.66072"
         y="-109.64583"
         ry="0" />
    </clipPath>
    <clipPath
       clipPathUnits="userSpaceOnUse"
       id="clipPath1153">
      <rect
         style="opacity:1;fill:#806600;fill-opacity:1;stroke:#000000;stroke-width:0;stroke-linejoin:miter;stroke-miterlimit:4;stroke-dasharray:none;stroke-opacity:1"
         id="rect1155"
         width="150"
         height="150"
         x="-242.66072"
         y="-109.64583"
         ry="0" />
    </clipPath>
    <clipPath
       clipPathUnits="userSpaceOnUse"
       id="clipPath1157">
      <rect
         style="opacity:1;fill:#806600;fill-opacity:1;stroke:#000000;stroke-width:0;stroke-linejoin:miter;stroke-miterlimit:4;stroke-dasharray:none;stroke-opacity:1"
         id="rect1159"
         width="150"
         height="150"
         x="-242.66072"
         y="-109.64583"
         ry="0" />
    </clipPath>
    <clipPath
       clipPathUnits="userSpaceOnUse"
       id="clipPath1161">
      <rect
         style="opacity:1;fill:#806600;fill-opacity:1;stroke:#000000;stroke-width:0;stroke-linejoin:miter;stroke-miterlimit:4;stroke-dasharray:none;stroke-opacity:1"
         id="rect1163"
         width="150"
         height="150"
         x="-242.66072"
         y="-109.64583"
         ry="0" />
    </clipPath>
    <clipPath
       clipPathUnits="userSpaceOnUse"
       id="clipPath1165">
      <rect
         style="opacity:1;fill:#806600;fill-opacity:1;stroke:#000000;stroke-width:0;stroke-linejoin:miter;stroke-miterlimit:4;stroke-dasharray:none;stroke-opacity:1"
         id="rect1167"
         width="150"
         height="150"
         x="-242.66072"
         y="-109.64583"
         ry="0" />
    </clipPath>
    <clipPath
       clipPathUnits="userSpaceOnUse"
       id="clipPath1169">
      <rect
         style="opacity:1;fill:#806600;fill-opacity:1;stroke:#000000;stroke-width:0;stroke-linejoin:miter;stroke-miterlimit:4;stroke-dasharray:none;stroke-opacity:1"
         id="rect1171"
         width="150"
         height="150"
         x="-242.66072"
         y="-109.64583"
         ry="0" />
    </clipPath>
    <clipPath
       clipPathUnits="userSpaceOnUse"
       id="clipPath1173">
      <rect
         style="opacity:1;fill:#806600;fill-opacity:1;stroke:#000000;stroke-width:0;stroke-linejoin:miter;stroke-miterlimit:4;stroke-dasharray:none;stroke-opacity:1"
         id="rect1175"
         width="150"
         height="150"
         x="-242.66072"
         y="-109.64583"
         ry="0" />
    </clipPath>
    <clipPath
       clipPathUnits="userSpaceOnUse"
       id="clipPath1177">
      <rect
         style="opacity:1;fill:#806600;fill-opacity:1;stroke:#000000;stroke-width:0;stroke-linejoin:miter;stroke-miterlimit:4;stroke-dasharray:none;stroke-opacity:1"
         id="rect1179"
         width="150"
         height="150"
         x="-242.66072"
         y="-109.64583"
         ry="0" />
    </clipPath>
    <clipPath
       clipPathUnits="userSpaceOnUse"
       id="clipPath1181">
      <rect
         style="opacity:1;fill:#806600;fill-opacity:1;stroke:#000000;stroke-width:0;stroke-linejoin:miter;stroke-miterlimit:4;stroke-dasharray:none;stroke-opacity:1"
         id="rect1183"
         width="150"
         height="150"
         x="-242.66072"
         y="-109.64583"
         ry="0" />
    </clipPath>
    <clipPath
       clipPathUnits="userSpaceOnUse"
       id="clipPath1185">
      <rect
         style="opacity:1;fill:#806600;fill-opacity:1;stroke:#000000;stroke-width:0;stroke-linejoin:miter;stroke-miterlimit:4;stroke-dasharray:none;stroke-opacity:1"
         id="rect1187"
         width="150"
         height="150"
         x="-242.66072"
         y="-109.64583"
         ry="0" />
    </clipPath>
    <clipPath
       clipPathUnits="userSpaceOnUse"
       id="clipPath1189">
      <rect
         style="opacity:1;fill:#806600;fill-opacity:1;stroke:#000000;stroke-width:0;stroke-linejoin:miter;stroke-miterlimit:4;stroke-dasharray:none;stroke-opacity:1"
         id="rect1191"
         width="150"
         height="150"
         x="-242.66072"
         y="-109.64583"
         ry="0" />
    </clipPath>
    <clipPath
       clipPathUnits="userSpaceOnUse"
       id="clipPath1193">
      <rect
         style="opacity:1;fill:#806600;fill-opacity:1;stroke:#000000;stroke-width:0;stroke-linejoin:miter;stroke-miterlimit:4;stroke-dasharray:none;stroke-opacity:1"
         id="rect1195"
         width="150"
         height="150"
         x="-242.66072"
         y="-109.64583"
         ry="0" />
    </clipPath>
    <clipPath
       clipPathUnits="userSpaceOnUse"
       id="clipPath1197">
      <rect
         style="opacity:1;fill:#806600;fill-opacity:1;stroke:#000000;stroke-width:0;stroke-linejoin:miter;stroke-miterlimit:4;stroke-dasharray:none;stroke-opacity:1"
         id="rect1199"
         width="150"
         height="150"
         x="-242.66072"
         y="-109.64583"
         ry="0" />
    </clipPath>
    <clipPath
       clipPathUnits="userSpaceOnUse"
       id="clipPath1201">
      <rect
         style="opacity:1;fill:#806600;fill-opacity:1;stroke:#000000;stroke-width:0;stroke-linejoin:miter;stroke-miterlimit:4;stroke-dasharray:none;stroke-opacity:1"
         id="rect1203"
         width="150"
         height="150"
         x="-242.66072"
         y="-109.64583"
         ry="0" />
    </clipPath>
    <clipPath
       clipPathUnits="userSpaceOnUse"
       id="clipPath1205">
      <rect
         style="opacity:1;fill:#806600;fill-opacity:1;stroke:#000000;stroke-width:0;stroke-linejoin:miter;stroke-miterlimit:4;stroke-dasharray:none;stroke-opacity:1"
         id="rect1207"
         width="150"
         height="150"
         x="-242.66072"
         y="-109.64583"
         ry="0" />
    </clipPath>
    <clipPath
       clipPathUnits="userSpaceOnUse"
       id="clipPath1209">
      <rect
         style="opacity:1;fill:#806600;fill-opacity:1;stroke:#000000;stroke-width:0;stroke-linejoin:miter;stroke-miterlimit:4;stroke-dasharray:none;stroke-opacity:1"
         id="rect1211"
         width="150"
         height="150"
         x="-242.66072"
         y="-109.64583"
         ry="0" />
    </clipPath>
    <clipPath
       clipPathUnits="userSpaceOnUse"
       id="clipPath1213">
      <rect
         style="opacity:1;fill:#806600;fill-opacity:1;stroke:#000000;stroke-width:0;stroke-linejoin:miter;stroke-miterlimit:4;stroke-dasharray:none;stroke-opacity:1"
         id="rect1215"
         width="150"
         height="150"
         x="-242.66072"
         y="-109.64583"
         ry="0" />
    </clipPath>
    <clipPath
       clipPathUnits="userSpaceOnUse"
       id="clipPath1217">
      <rect
         style="opacity:1;fill:#806600;fill-opacity:1;stroke:#000000;stroke-width:0;stroke-linejoin:miter;stroke-miterlimit:4;stroke-dasharray:none;stroke-opacity:1"
         id="rect1219"
         width="150"
         height="150"
         x="-242.66072"
         y="-109.64583"
         ry="0" />
    </clipPath>
    <clipPath
       clipPathUnits="userSpaceOnUse"
       id="clipPath1221">
      <rect
         style="opacity:1;fill:#806600;fill-opacity:1;stroke:#000000;stroke-width:0;stroke-linejoin:miter;stroke-miterlimit:4;stroke-dasharray:none;stroke-opacity:1"
         id="rect1223"
         width="150"
         height="150"
         x="-242.66072"
         y="-109.64583"
         ry="0" />
    </clipPath>
    <clipPath
       clipPathUnits="userSpaceOnUse"
       id="clipPath1225">
      <rect
         style="opacity:1;fill:#806600;fill-opacity:1;stroke:#000000;stroke-width:0;stroke-linejoin:miter;stroke-miterlimit:4;stroke-dasharray:none;stroke-opacity:1"
         id="rect1227"
         width="150"
         height="150"
         x="-242.66072"
         y="-109.64583"
         ry="0" />
    </clipPath>
  </defs>
  <metadata
     id="metadata5">
    <rdf:RDF>
      <cc:Work
         rdf:about="">
        <dc:format>image/svg+xml</dc:format>
        <dc:type
           rdf:resource="http://purl.org/dc/dcmitype/StillImage" />
        <dc:title />
      </cc:Work>
    </rdf:RDF>
  </metadata>
  <g
     inkscape:label="Layer 1"
     inkscape:groupmode="layer"
     id="layer1">
    <path
       style="opacity:1;fill:#806600;fill-opacity:1;stroke:#000000;stroke-width:0;stroke-linejoin:miter;stroke-miterlimit:4;stroke-dasharray:none;stroke-opacity:1"
       clip-path="url(#clipPath1225)"
       d="m -242.66072,-109.64583 h 149.999999 l 0.353553,4.51278 -44.040742,24.571961 -55.53122,25.279068 -28.13083,57.9827566 -22.65076,37.6534364 z"
       id="rect842"
       inkscape:connector-curvature="0"
       sodipodi:nodetypes="cccccccc" />
    <path
       style="fill:#aa8800;fill-opacity:0.19607843;stroke:#000000;stroke-width:0;stroke-linecap:butt;stroke-linejoin:miter;stroke-miterlimit:4;stroke-dasharray:none;stroke-opacity:1"
       d="m -242.04698,-124.40171 c -4.72354,-0.053 -9.46704,0.21003 -14.14032,-0.39357 -2.88141,0.34286 -5.99109,-0.20982 -6.71933,-2.78841 0.47283,-3.17508 -4.42947,-5.37885 -6.92124,-5.4173 -2.59628,-0.46601 -5.44888,0.93683 -6.51379,3.29598 -0.84639,2.03178 -0.12321,5.39165 0,7.77817 1.96206,2.81923 0.64035,7.98153 5.30331,8.48528 3.61527,1.74582 8.37187,4.35326 4.94974,8.83884 -0.75538,3.38598 -3.01893,5.229715 -5.3033,8.131728 -3.47375,1.695419 -7.06626,2.049066 -9.19239,3.889087 -1.88857,0.639856 -3.10838,1.320241 -5.64267,2.556174 -2.91104,1.284401 -3.44301,5.323603 -3.52127,8.662172 -0.86366,2.507729 0.32099,4.986603 -0.0284,7.682001 0.14459,3.128715 -0.35174,6.390243 0.38935,9.388943 1.00972,1.945171 4.5528,3.613844 7.56067,3.530515 3.3134,-0.05371 6.23126,0.546049 9.46051,-0.117021 1.85931,-1.653747 3.78852,-2.563598 4.86333,-4.832726 1.04113,-3.527287 0.40085,-6.917632 3.18724,-9.442268 2.29414,-0.87961 4.85332,-4.181777 8.48001,-3.639207 4.3843,-0.0091 8.78231,-0.273788 12.72792,1.767767 3.54753,1.05994 7.09033,1.838735 10.60661,3.535534 2.6551,1.07199 5.49665,1.154711 8.52617,1.06066 1.96938,-0.192563 3.2202,-1.776274 3.14109,-3.828522 0.19067,-2.622714 -2.18693,-3.399685 -2.12132,-6.424526 -1.93383,-2.250745 -5.19579,-4.3292 -6.36396,-6.363962 -1.62837,-1.851137 -3.49593,-4.456219 -6.01041,-4.949748 0.53802,-3.79458 4.48727,-4.812134 7.07107,-5.656854 4.69392,-1.425817 9.9107,-0.09345 14.49568,1.767767 2.03292,0.168417 7.24496,1.446393 9.8995,2.828427 3.92706,1.0291 7.7985,3.291667 12.1321,3.181981 5.24162,1.993648 7.90202,-2.553484 10.7134,-6.032603 1.48851,-2.853679 2.03088,-5.599079 1.90324,-8.867369 0.48247,-4.21827 -2.51603,-7.2635 -5.45267,-9.52262 -2.07486,-0.52432 -4.19309,-2.38746 -7.42265,-2.4676 -4.66461,0.0445 -9.32986,0.008 -13.99474,0.0201 -1.4476,-3.9982 -6.36835,-6.01353 -6.71752,-10.25305 -0.002,-2.94365 -0.001,-5.89884 0,-8.83883 1.43907,-2.40471 2.02239,-5.41988 1.76777,-8.48528 -0.22745,-3.51511 -2.18797,-6.75146 -5.3033,-8.13174 -2.3938,-1.38557 -5.18775,-1.57277 -8.07115,-1.41421 -2.79901,-0.20385 -5.36982,0.34041 -7.83875,1.06066 -3.31654,0.34088 -6.25478,1.19606 -8.83054,3.01668 -2.99275,1.42399 -6.61264,4.69382 -6.04401,8.52231 1.56992,3.60681 6.10901,5.43541 9.21769,7.90645 2.56849,1.17782 4.07805,3.15313 4.24264,5.3033 0.48588,3.28203 -1.44419,4.10946 -4.24264,3.88909 -0.97662,1.05461 -4.01396,-0.80398 -4.24264,1.76777 z"
       id="path873"
       inkscape:connector-curvature="0"
       clip-path="url(#clipPath1221)" />
    <path
       inkscape:connector-curvature="0"
       id="path988"
       d="m -92.04698,-124.40171 c -4.72354,-0.053 -9.46704,0.21003 -14.14032,-0.39357 -2.88141,0.34286 -5.99109,-0.20982 -6.71933,-2.78841 0.47283,-3.17508 -4.42947,-5.37885 -6.92124,-5.4173 -2.59628,-0.46601 -5.44888,0.93683 -6.51379,3.29598 -0.84639,2.03178 -0.12321,5.39165 0,7.77817 1.96206,2.81923 0.64035,7.98153 5.30331,8.48528 3.61527,1.74582 8.37187,4.35326 4.94974,8.83884 -0.75538,3.38598 -3.01893,5.229715 -5.3033,8.131728 -3.47375,1.695419 -7.06626,2.049066 -9.19239,3.889087 -1.88857,0.639856 -3.10838,1.320241 -5.64267,2.556174 -2.91104,1.284401 -3.44301,5.323603 -3.52127,8.662172 51.561901,-23.739081 63.371725,-31.253661 77.04622,-47.634381 -0.002,-2.94365 -0.001,-5.89884 0,-8.83883 1.43907,-2.40471 2.02239,-5.41988 1.76777,-8.48528 -0.22745,-3.51511 -2.18797,-6.75146 -5.3033,-8.13174 -2.3938,-1.38557 -5.18775,-1.57277 -8.07115,-1.41421 -2.79901,-0.20385 -5.36982,0.34041 -7.83875,1.06066 -3.31654,0.34088 -6.25478,1.19606 -8.83054,3.01668 -2.99275,1.42399 -6.61264,4.69382 -6.04401,8.52231 1.56992,3.60681 6.10901,5.43541 9.21769,7.90645 2.56849,1.17782 4.07805,3.15313 4.24264,5.3033 0.48588,3.28203 -1.44419,4.10946 -4.24264,3.88909 -0.97662,1.05461 -4.01396,-0.80398 -4.24264,1.76777 z"
       style="fill:#aa8800;fill-opacity:0.19607843;stroke:#000000;stroke-width:0;stroke-linecap:butt;stroke-linejoin:miter;stroke-miterlimit:4;stroke-dasharray:none;stroke-opacity:1"
       clip-path="url(#clipPath1217)"
       sodipodi:nodetypes="ccccccccccccccccccccccccc" />
    <path
       inkscape:connector-curvature="0"
       id="path990"
       d="m -242.04698,25.59829 c -4.72354,-0.053 -9.46704,0.21003 -14.14032,-0.39357 -2.88141,0.34286 -5.99109,-0.20982 -6.71933,-2.78841 0.47283,-3.17508 -4.42947,-5.37885 -6.92124,-5.4173 -2.59628,-0.46601 -5.44888,0.93683 -6.51379,3.29598 -0.84639,2.03178 -0.12321,5.39165 0,7.77817 1.96206,2.81923 0.64035,7.98153 5.30331,8.48528 3.61527,1.74582 8.37187,4.35326 4.94974,8.83884 -0.75538,3.38598 -3.01893,5.229715 -5.3033,8.131728 -3.47375,1.695419 -7.06626,2.049066 -9.19239,3.889087 -1.88857,0.639856 -3.10838,1.320241 -5.64267,2.556174 -2.91104,1.284401 -3.44301,5.323603 -3.52127,8.662172 -0.86366,2.507729 0.32099,4.986603 -0.0284,7.682001 0.14459,3.128715 -0.35174,6.390243 0.38935,9.388943 1.00972,1.945171 4.5528,3.613844 7.56067,3.530515 3.3134,-0.05371 6.23126,0.546049 9.46051,-0.117021 1.85931,-1.653747 3.78852,-2.563598 4.86333,-4.832726 1.04113,-3.527287 0.40085,-6.917632 3.18724,-9.442268 2.29414,-0.87961 4.85332,-4.181777 8.48001,-3.639207 4.3843,-0.0091 8.78231,-0.273788 12.72792,1.767767 -9.27474,-32.855558 18.96697,-64.6853205 26.87006,-77.428235 -2.3938,-1.38557 -5.18775,-1.57277 -8.07115,-1.41421 -2.79901,-0.20385 -5.36982,0.34041 -7.83875,1.06066 -3.31654,0.34088 -6.25478,1.19606 -8.83054,3.01668 -2.99275,1.42399 -6.61264,4.69382 -6.04401,8.52231 1.56992,3.60681 6.10901,5.43541 9.21769,7.90645 2.56849,1.17782 4.07805,3.15313 4.24264,5.3033 0.48588,3.28203 -1.44419,4.10946 -4.24264,3.88909 -0.97662,1.05461 -4.01396,-0.80398 -4.24264,1.76777 z"
       style="fill:#aa8800;fill-opacity:0.19607843;stroke:#000000;stroke-width:0;stroke-linecap:butt;stroke-linejoin:miter;stroke-miterlimit:4;stroke-dasharray:none;stroke-opacity:1"
       clip-path="url(#clipPath1213)"
       sodipodi:nodetypes="cccccccccccccccccccccccccccccc" />
    <path
       inkscape:connector-curvature="0"
       id="path999"
       d="m -275.67552,-44.550734 c -5.21886,-0.578822 -10.78398,0.07422 -15.40627,2.282409 -2.71742,1.051862 -6.29817,2.712696 -7.13252,5.42072 -1.79438,3.168896 1.08293,5.317139 2.28241,7.417827 4.18519,3.420823 8.26146,4.232976 12.83855,4.564817 4.31859,0.690034 8.68467,3.20257 10.84144,6.847226 0.95921,1.810935 2.49374,3.569623 2.56771,6.561924 -0.29073,2.8635082 -2.16473,6.8822122 -5.99132,6.5619242 -2.78557,1.006962 -6.36101,1.353051 -9.12964,0.285301 -5.10366,-0.821419 -10.25296,-1.530885 -14.83566,-3.138312 -3.94004,-0.375055 -7.79742,-1.341238 -11.86657,-1.141204 -3.07764,0.07165 -6.35417,0.99984 -8.6751,2.282408 -2.59783,1.608491 -5.09461,1.97769 -7.26309,3.86204 -1.95934,1.765447 -3.90642,4.695331 -2.72245,7.869151 0.31823,2.614861 1.98198,5.3406488 3.13832,7.9545798 4.0301,1.735894 7.54554,4.248157 11.69734,5.420724 3.10405,0.64307 6.48548,0.111174 9.70023,0.285299 3.17186,-0.902601 6.67359,0.246697 9.41494,1.141201 2.14449,0.942183 2.37584,1.889198 2.85301,4.028067 -0.18469,2.671641 0.36019,5.041637 0.2853,7.669277 0.74498,3.065953 1.59619,7.023029 5.70602,6.276627 4.20305,-0.123163 8.46435,-0.884262 11.70019,-3.561862 3.55032,-2.171758 7.31501,-4.094383 8.4786,-7.976736 0.59808,-2.240932 0.58346,-5.577578 0.91224,-8.162567 0.85276,-3.357382 2.53258,-8.9863518 6.29787,-9.1142428 4.06041,-0.133488 7.94908,1.0552088 11.89468,1.6627138 5.45448,1.720225 10.77355,3.925151 16.35013,4.899208 10.45253,-9.7742657 14.85901,-16.13018586 18.54456,-23.6799848 -1.58087,-2.7623082 -4.40715,-3.9217862 -6.56192,-4.5648172 -3.35405,-1.986666 -8.31113,-1.222384 -10.71266,-3.999755 -2.80654,-0.652152 -1.99918,-4.316937 -2.12589,-6.725621 0.15467,-3.038865 1.01715,-6.592492 2.88926,-8.399196 1.3447,-2.310508 3.45089,-6.220099 4.81387,-9.120232 1.04124,-2.545958 2.51782,-5.429358 2.28241,-8.728268 0.31634,-2.997888 -1.5647,-5.280014 -4.27952,-7.533892 -4.03578,-2.385297 -8.86467,-5.078167 -12.98119,-5.848677 -4.78152,-1.57739 -9.99828,-0.92652 -14.97831,-0.71325 -4.28362,1.4969 -9.43037,1.19122 -11.98265,4.850121 -2.5857,2.691932 -3.96725,6.440258 -4.85012,9.414935 -0.60187,1.556946 -0.74032,3.706258 -2.2824,3.708914 0.30646,1.112086 -2.14075,-0.753635 -1.7118,1.141203 z"
       style="fill:#a88500;fill-opacity:0.19607843;stroke:#000000;stroke-width:0;stroke-linecap:butt;stroke-linejoin:miter;stroke-miterlimit:4;stroke-dasharray:none;stroke-opacity:1"
       clip-path="url(#clipPath1201)"
       sodipodi:nodetypes="ccccccccccccccccccccccccccccccccccccccccc" />
    <path
       style="fill:#a88500;fill-opacity:0.19607843;stroke:#000000;stroke-width:0;stroke-linecap:butt;stroke-linejoin:miter;stroke-miterlimit:4;stroke-dasharray:none;stroke-opacity:1"
       d="m -184.10519,-58.217082 c -2.78557,-1.006962 -6.36101,-1.353051 -9.12964,-0.285301 -5.10366,0.821419 -10.25296,1.530885 -14.83566,3.138312 -3.94004,0.375055 -7.79742,1.341238 -11.86657,1.141204 -3.07764,-0.07165 -6.35417,-0.99984 -8.6751,-2.282408 -2.59783,-1.608491 -5.09461,-1.97769 -7.26309,-3.86204 -1.95934,-1.765447 -3.90642,-4.695331 -2.72245,-7.869151 0.31823,-2.614861 1.98198,-5.340649 3.13832,-7.95458 4.0301,-1.735894 7.54554,-4.248157 11.69734,-5.420724 3.10405,-0.64307 6.48548,-0.111174 9.70023,-0.285299 3.17186,0.902601 6.67359,-0.246697 9.41494,-1.141201 2.14449,-0.942183 2.37584,-1.889198 2.85301,-4.028067 -0.18469,-2.671641 0.36019,-5.041637 0.2853,-7.669277 0.74498,-3.065953 1.59619,-7.023026 5.70602,-6.276626 4.20305,0.12316 8.46435,0.88426 11.70019,3.561861 3.55032,2.171758 7.31501,4.094383 8.4786,7.976736 0.59808,2.240932 0.58346,5.577578 0.91224,8.162567 0.85276,3.357382 2.53258,8.986352 6.29787,9.114243 4.06041,0.133488 7.94908,-1.055209 11.89468,-1.662714 -2.95422,3.633633 -4.00025,5.30781 -27.58623,15.642465 z"
       id="path1001"
       inkscape:connector-curvature="0"
       clip-path="url(#clipPath1197)"
       sodipodi:nodetypes="cccccccccccccccccccc" />
    <path
       inkscape:connector-curvature="0"
       id="path1005"
       d="m -184.32441,-146.06183 c -4.72354,-0.053 -9.46704,0.21003 -14.14032,-0.39357 -2.88141,0.34286 -5.99109,-0.20982 -6.71933,-2.78841 0.47283,-3.17508 -4.42947,-5.37885 -6.92124,-5.4173 -2.59628,-0.46601 -5.44888,0.93683 -6.51379,3.29598 -0.84639,2.03178 -0.12321,5.39165 0,7.77817 1.96206,2.81923 0.64035,7.98153 5.30331,8.48528 3.61527,1.74582 8.37187,4.35326 4.94974,8.83884 -0.75538,3.38598 -3.01893,5.22972 -5.3033,8.13173 -3.47375,1.69542 -7.06626,2.04906 -9.19239,3.88909 -1.88857,0.63985 -3.10838,1.32024 -5.64267,2.55617 -2.91104,1.2844 -3.44301,5.3236 -3.52127,8.66217 -0.86366,2.50773 0.32099,4.986604 -0.0284,7.682002 0.14459,3.128715 -0.35174,6.390243 0.38935,9.388943 1.00972,1.945171 4.5528,3.613844 7.56067,3.530515 3.3134,-0.05371 6.23126,0.546049 9.46051,-0.117021 1.85931,-1.653747 3.78852,-2.563598 4.86333,-4.832726 1.04113,-3.527287 0.40085,-6.917632 3.18724,-9.442268 2.29414,-0.87961 4.85332,-4.181775 8.48001,-3.639205 4.3843,-0.009 8.78231,-0.27379 12.72792,1.767765 3.54753,1.05994 7.09033,1.838735 10.60661,3.535534 2.6551,1.07199 5.49665,1.154711 8.52617,1.06066 1.96938,-0.192563 3.2202,-1.776274 3.14109,-3.828522 0.19067,-2.622717 -2.18693,-3.399687 -2.12132,-6.424527 -1.93383,-2.25074 -5.19579,-4.3292 -6.36396,-6.36396 -1.62837,-1.85114 -3.49593,-4.45622 -6.01041,-4.94975 0.53802,-3.79458 4.48727,-4.81213 7.07107,-5.65685 4.69392,-1.42582 9.9107,-0.0935 14.49568,1.76776 2.03292,0.16842 7.24496,1.4464 9.8995,2.82843 3.92706,1.0291 7.7985,3.29167 12.1321,3.18198 5.24162,1.99365 7.90202,-2.55348 10.7134,-6.0326 1.48851,-2.85368 2.03088,-5.59908 1.90324,-8.86737 0.48247,-4.21827 -2.51603,-7.2635 -5.45267,-9.52262 -2.07486,-0.52432 -4.19309,-2.38746 -7.42265,-2.4676 -4.66461,0.0445 -9.32986,0.008 -13.99474,0.0201 -1.4476,-3.9982 -6.36835,-6.01353 -6.71752,-10.25305 -0.002,-2.94365 -10e-4,-5.89884 0,-8.83883 1.43907,-2.40471 2.02239,-5.41988 1.76777,-8.48528 -0.22745,-3.51511 -2.18797,-6.75146 -5.3033,-8.13174 -2.3938,-1.38557 -5.18775,-1.57277 -8.07115,-1.41421 -2.79901,-0.20385 -5.36982,0.34041 -7.83875,1.06066 -3.31654,0.34088 -6.25478,1.19606 -8.83054,3.01668 -2.99275,1.42399 -6.61264,4.69382 -6.04401,8.52231 1.56992,3.60681 6.10901,5.43541 9.21769,7.90645 2.56849,1.17782 4.07805,3.15313 4.24264,5.3033 0.48588,3.28203 -1.44419,4.10946 -4.24264,3.88909 -0.97662,1.05461 -4.01396,-0.80398 -4.24264,1.76777 z"
       style="fill:#aa8800;fill-opacity:0.19607843;stroke:#000000;stroke-width:0;stroke-linecap:butt;stroke-linejoin:miter;stroke-miterlimit:4;stroke-dasharray:none;stroke-opacity:1"
       clip-path="url(#clipPath1189)" />
    <path
       style="fill:#aa8800;fill-opacity:0.19607843;stroke:#000000;stroke-width:0;stroke-linecap:butt;stroke-linejoin:miter;stroke-miterlimit:4;stroke-dasharray:none;stroke-opacity:1"
       d="m -142.34814,-102.11026 c -2.64259,-3.91553 -5.55649,-7.66775 -7.7176,-11.85505 -1.92062,-2.17516 -3.23443,-5.04735 -1.52752,-7.11276 2.88058,-1.41668 1.90546,-6.70235 0.52007,-8.77384 -1.09314,-2.4006 -3.86927,-3.94926 -6.41541,-3.48361 -2.15258,0.45923 -4.50501,2.96478 -6.39799,4.42329 -1.2032,3.21715 -6.20112,5.06567 -3.96375,9.1877 0.61989,3.96659 1.18011,9.36197 -4.45564,9.09793 -3.21474,1.3042 -6.01856,0.49079 -9.70471,0.26208 -3.37004,-1.89321 -5.70392,-4.64715 -8.42654,-5.34962 -1.60031,-1.18959 -2.85365,-1.80603 -5.31148,-3.18778 -2.71194,-1.66409 -6.33694,0.19535 -9.12762,2.02956 -2.5539,0.71568 -3.91923,3.09981 -6.33504,4.34524 -2.49133,1.89818 -5.45638,3.34468 -7.50154,5.65958 -1.02581,1.93673 -0.38351,5.80006 1.39555,8.226824 1.92845,2.694921 3.09445,5.436103 5.47627,7.715274 2.41766,0.588937 4.26317,1.65841 6.74088,1.252095 3.49347,-1.14951 5.91811,-3.604202 9.57934,-2.747946 2.02816,1.386847 6.19974,1.614044 7.81588,4.905759 2.50067,3.601225 5.21954,7.068263 5.78403,11.474751 1.14555,3.520818 2.51967,6.877863 3.12359,10.735145 8.22533,1.335306 12.20727,-0.824763 14.60554,-6.229231 0.59665,-2.392137 -0.65078,-5.553033 0.65346,-7.758741 1.95068,-3.298957 6.53258,0.92528 8.67427,2.599426 23.94154,-5.07757 41.53967,-15.570436 51.91287,-21.276353 -0.22159,-2.756983 -1.65648,-5.161633 -3.42664,-7.443223 -1.42406,-2.41828 -3.33372,-4.22341 -5.3302,-5.84466 -2.16644,-2.53419 -4.5408,-4.46474 -7.50315,-5.5481 -2.87323,-1.65192 -7.62142,-2.77 -10.44721,-0.12508 -2.07403,3.34247 -0.99687,8.11603 -1.26159,12.07833 0.49182,2.78254 -0.27453,5.147563 -1.94957,6.505708 -2.42335,2.266092 -4.20155,1.14904 -5.61171,-1.278168 -1.42286,-0.203591 -1.62134,-3.75892 -3.8668,-2.48452 z"
       id="path1007"
       inkscape:connector-curvature="0"
       clip-path="url(#clipPath1185)"
       sodipodi:nodetypes="ccccccccccccccccccccccsccccccccccc" />
    <path
       style="fill:#aa8800;fill-opacity:0.19607843;stroke:#000000;stroke-width:0;stroke-linecap:butt;stroke-linejoin:miter;stroke-miterlimit:4;stroke-dasharray:none;stroke-opacity:1"
       d="m -196.87421,-58.055128 c -0.24555,-3.857605 0.79487,-7.314293 -0.0974,-9.980758 0.12718,-1.98996 -0.0377,-3.376928 -0.21594,-6.190891 -0.0797,-3.180797 -3.61231,-5.210198 -6.66978,-6.553359 -1.99021,-1.753189 -4.73341,-1.601269 -7.09292,-2.950327 -2.94824,-1.057204 -5.77532,-2.757639 -8.83038,-3.213751 -2.18309,0.193301 -5.07478,2.834509 -6.14264,5.647678 -1.21154,3.084427 -2.87679,5.554356 -3.49282,8.792906 0.82154,2.34883 0.92857,4.479141 2.61777,6.336758 2.86547,2.305379 6.24432,3.003791 7.5183,6.541409 -0.0598,2.456257 2.01963,6.079723 0.13745,9.226894 -1.66052,4.057693 -3.08971,8.225428 -6.47944,11.09693 -2.33048,2.877033 -4.39917,5.856707 -7.30667,8.462424 -2.00193,2.047194 -3.16003,4.643363 -4.22621,7.48063 -0.57155,1.894427 0.41684,3.653919 2.34471,4.361924 2.35271,1.174626 3.9762,-0.728251 6.74837,0.483792 2.8174,-0.931543 5.98103,-3.156815 8.30727,-3.462543 2.33162,-0.801176 5.45146,-1.536556 6.86495,-3.6739 3.30415,1.941879 2.74186,5.981167 2.5395,8.692002 -0.46819,4.883301 -3.68593,9.2002484 -7.1523,12.7316214 -0.92955,1.815785 -4.09523,6.14904 -6.38365,8.077698 -2.44642,3.239732 -6.01229,5.958527 -7.56039,10.0076606 33.08047,-43.479322 37.57212,-60.960867 34.57222,-71.914798 z"
       id="path1011"
       inkscape:connector-curvature="0"
       clip-path="url(#clipPath1177)"
       sodipodi:nodetypes="ccccccccccccccccccccccc" />
    <ellipse
       ry="4.5961943"
       rx="7.601398"
       cy="-17.275028"
       cx="-216.32098"
       id="ellipse1015"
       style="opacity:1;fill:#806600;fill-opacity:1;stroke:#000000;stroke-width:0;stroke-linejoin:miter;stroke-miterlimit:4;stroke-dasharray:none;stroke-opacity:1"
       clip-path="url(#clipPath1173)" />
    <ellipse
       style="opacity:1;fill:#554400;fill-opacity:0.19607843;stroke:#000000;stroke-width:0;stroke-linejoin:miter;stroke-miterlimit:4;stroke-dasharray:none;stroke-opacity:1"
       id="path1017"
       cx="-187.15283"
       cy="-52.453594"
       rx="2.1213202"
       ry="1.9445436"
       clip-path="url(#clipPath1165)" />
    <ellipse
       style="opacity:1;fill:#ffe680;fill-opacity:0.19607843;stroke:#000000;stroke-width:0;stroke-linejoin:miter;stroke-miterlimit:4;stroke-dasharray:none;stroke-opacity:1"
       id="ellipse1025"
       cx="-244.34506"
       cy="18.96419"
       rx="5.833631"
       ry="4.4194174"
       clip-path="url(#clipPath1149)" />
    <ellipse
       ry="4.4194174"
       rx="5.833631"
       cy="-100.89041"
       cx="-135.80417"
       id="ellipse1027"
       style="opacity:1;fill:#ffe680;fill-opacity:0.19607843;stroke:#000000;stroke-width:0;stroke-linejoin:miter;stroke-miterlimit:4;stroke-dasharray:none;stroke-opacity:1"
       clip-path="url(#clipPath1145)" />
    <ellipse
       style="opacity:1;fill:#dec043;fill-opacity:0.19607843;stroke:#000000;stroke-width:0;stroke-linejoin:miter;stroke-miterlimit:4;stroke-dasharray:none;stroke-opacity:1"
       id="ellipse1029"
       cx="-216.41434"
       cy="-19.219578"
       rx="5.833631"
       ry="4.4194174"
       clip-path="url(#clipPath1141)" />
    <ellipse
       ry="1.9445436"
       rx="4.9497466"
       cy="-74.727455"
       cx="-224.6295"
       id="ellipse1035"
       style="opacity:1;fill:#554400;fill-opacity:0.19607843;stroke:#000000;stroke-width:0;stroke-linejoin:miter;stroke-miterlimit:4;stroke-dasharray:none;stroke-opacity:1"
       clip-path="url(#clipPath1129)" />
    <ellipse
       ry="1.9445436"
       rx="4.9497466"
       cy="-92.051575"
       cx="-164.17186"
       id="ellipse1039"
       style="opacity:1;fill:#554400;fill-opacity:0.19607843;stroke:#000000;stroke-width:0;stroke-linejoin:miter;stroke-miterlimit:4;stroke-dasharray:none;stroke-opacity:1"
       clip-path="url(#clipPath1121)" />
    <ellipse
       ry="3.1819806"
       rx="6.0104079"
       cy="-86.925049"
       cx="-200.94141"
       id="ellipse1047"
       style="opacity:1;fill:#ddbd3b;fill-opacity:0.19607843;stroke:#000000;stroke-width:0;stroke-linejoin:miter;stroke-miterlimit:4;stroke-dasharray:none;stroke-opacity:1"
       clip-path="url(#clipPath1105)" />
    <ellipse
       style="opacity:1;fill:#554400;fill-opacity:0.19607843;stroke:#000000;stroke-width:0;stroke-linejoin:miter;stroke-miterlimit:4;stroke-dasharray:none;stroke-opacity:1"
       id="ellipse1055"
       cx="-209.78026"
       cy="-37.250801"
       rx="4.9497466"
       ry="1.9445436"
       clip-path="url(#clipPath1089)" />
    <ellipse
       style="opacity:1;fill:#554400;fill-opacity:0.19607843;stroke:#000000;stroke-width:0;stroke-linejoin:miter;stroke-miterlimit:4;stroke-dasharray:none;stroke-opacity:1"
       id="ellipse1059"
       cx="-241.60005"
       cy="-52.100044"
       rx="4.9497466"
       ry="1.9445436"
       clip-path="url(#clipPath1081)" />
    <ellipse
       style="opacity:1;fill:#ddbd3b;fill-opacity:0.19607843;stroke:#000000;stroke-width:0;stroke-linejoin:miter;stroke-miterlimit:4;stroke-dasharray:none;stroke-opacity:1"
       id="ellipse1065"
       cx="-172.1268"
       cy="-110.17616"
       rx="5.833631"
       ry="4.4194174"
       clip-path="url(#clipPath1069)" />
    <g
       inkscape:label="Layer 1"
       id="layer1-3"
       transform="matrix(3.7723075,0,0,3.7723075,672.79821,-111.5481)">
      <g
         inkscape:label="Layer 1"
         id="g2097"
         transform="matrix(0.44670385,0,0,0.44670385,-136.91608,14.856082)">
        <path
           inkscape:connector-curvature="0"
           id="path2061"
           d="m -227.95056,21.879076 5.19616,3 6.06217,-3.5 v -3 l -6.06217,3.5 -5.19616,-3 z"
           style="fill:none;stroke:#000000;stroke-width:0.03779528;stroke-linecap:butt;stroke-linejoin:miter;stroke-miterlimit:4;stroke-dasharray:none;stroke-opacity:1" />
        <path
           sodipodi:nodetypes="cccc"
           inkscape:connector-curvature="0"
           id="path2063"
           d="m -227.95056,18.879076 4.33013,-3.5 4.33013,2.5 -3.46411,4"
           style="fill:none;stroke:#000000;stroke-width:0.03779528;stroke-linecap:butt;stroke-linejoin:miter;stroke-miterlimit:4;stroke-dasharray:none;stroke-opacity:1" />
        <path
           inkscape:connector-curvature="0"
           id="path2065"
           d="m -219.2903,17.879076 2.59807,0.5 -4.33012,-2.5 -2.59808,-0.5"
           style="fill:none;stroke:#000000;stroke-width:0.03779528;stroke-linecap:butt;stroke-linejoin:miter;stroke-miterlimit:4;stroke-dasharray:none;stroke-opacity:1" />
        <path
           inkscape:connector-curvature="0"
           id="path2067"
           d="m -222.7544,21.879076 v 3"
           style="fill:none;stroke:#000000;stroke-width:0.03779528;stroke-linecap:butt;stroke-linejoin:miter;stroke-miterlimit:4;stroke-dasharray:none;stroke-opacity:1" />
        <path
           inkscape:connector-curvature="0"
           id="path2069"
           d="m -221.02235,23.879076 v -3 l 2.59807,-1.5 v 3"
           style="fill:none;stroke:#000000;stroke-width:0.03779528;stroke-linecap:butt;stroke-linejoin:miter;stroke-miterlimit:4;stroke-dasharray:none;stroke-opacity:1" />
        <path
           inkscape:connector-curvature="0"
           id="path2071"
           d="m -220.98724,22.355569 0.006,-1.463511 1.24849,-0.722833 c 0.68666,-0.397559 1.25601,-0.723404 1.26521,-0.724101 0.009,-6.98e-4 0.0142,0.656329 0.011,1.46006 l -0.006,1.461327 -1.25788,0.726284 c -0.69183,0.399456 -1.26118,0.726284 -1.26521,0.726284 -0.004,0 -0.005,-0.65858 -0.002,-1.46351 z"
           style="opacity:1;fill:#333333;fill-opacity:1;stroke:#000000;stroke-width:0.00083517;stroke-linejoin:miter;stroke-miterlimit:4;stroke-dasharray:none;stroke-opacity:1" />
        <path
           inkscape:connector-curvature="0"
           id="path2073"
           d="m -222.71532,23.349516 8.5e-4,-1.463932 0.80844,-0.464039 c 0.44464,-0.255221 0.81722,-0.467377 0.82794,-0.471457 0.0112,-0.0043 0.0171,0.616974 0.0138,1.457219 l -0.006,1.464638 -0.81555,0.470751 c -0.44855,0.258914 -0.81895,0.470752 -0.82312,0.470752 -0.004,0 -0.007,-0.658769 -0.007,-1.463932 z"
           style="opacity:1;fill:#aa8800;fill-opacity:1;stroke:#000000;stroke-width:0.00083517;stroke-linejoin:miter;stroke-miterlimit:4;stroke-dasharray:none;stroke-opacity:1" />
        <path
           inkscape:connector-curvature="0"
           id="path2075"
           d="m -218.3847,20.854167 4.5e-4,-1.465554 0.81461,-0.469563 c 0.44804,-0.25826 0.82079,-0.469563 0.82835,-0.469563 0.008,0 0.0112,0.657417 0.008,1.460927 l -0.006,1.460926 -0.69606,0.401766 c -0.38283,0.220972 -0.75323,0.434358 -0.82312,0.474191 l -0.12705,0.07242 z"
           style="opacity:1;fill:#aa8800;fill-opacity:1;stroke:#000000;stroke-width:0.00083517;stroke-linejoin:miter;stroke-miterlimit:4;stroke-dasharray:none;stroke-opacity:1" />
        <path
           inkscape:connector-curvature="0"
           id="path2077"
           d="m -222.54879,21.695065 c 0.0182,-0.02943 3.15154,-3.652348 3.2257,-3.729704 l 0.051,-0.05323 1.24968,0.240357 c 0.91025,0.175073 1.23926,0.246149 1.21132,0.261683 -0.0512,0.02846 -3.93871,2.271736 -4.9378,2.849327 -0.43416,0.250998 -0.79521,0.456361 -0.80232,0.456361 -0.007,0 -0.006,-0.01116 0.002,-0.02479 z"
           style="opacity:1;fill:#aa8800;fill-opacity:1;stroke:#000000;stroke-width:0.00083517;stroke-linejoin:miter;stroke-miterlimit:4;stroke-dasharray:none;stroke-opacity:1" />
        <path
           inkscape:connector-curvature="0"
           id="path2079"
           d="m -225.34021,20.354167 c -1.40068,-0.810171 -2.54603,-1.478178 -2.54522,-1.48446 0.001,-0.01069 4.18486,-3.392846 4.2461,-3.432771 0.0187,-0.01217 0.75006,0.398272 2.16059,1.212481 1.1728,0.676983 2.13443,1.232567 2.13695,1.234633 0.0116,0.0095 -3.40277,3.935713 -3.4257,3.939198 -0.0143,0.0022 -1.17204,-0.658911 -2.57272,-1.469081 z"
           style="opacity:1;fill:#ff8080;fill-opacity:1;stroke:#000000;stroke-width:0.00083517;stroke-linejoin:miter;stroke-miterlimit:4;stroke-dasharray:none;stroke-opacity:1" />
        <path
           inkscape:connector-curvature="0"
           id="path2081"
           d="m -218.1519,18.070745 -1.12572,-0.219233 -2.05594,-1.1868 c -1.13077,-0.65274 -2.04117,-1.189566 -2.02312,-1.192946 0.0181,-0.0034 0.54782,0.09296 1.17724,0.214093 l 1.14442,0.220239 2.03756,1.175229 c 1.12067,0.646376 2.04702,1.183835 2.05857,1.194355 0.0392,0.03574 -0.0845,0.01483 -1.21301,-0.204937 z"
           style="opacity:1;fill:#c64040;fill-opacity:1;stroke:#000000;stroke-width:0.00083517;stroke-linejoin:miter;stroke-miterlimit:4;stroke-dasharray:none;stroke-opacity:1" />
        <path
           inkscape:connector-curvature="0"
           id="path2083"
           d="m -225.36783,23.336718 -2.55221,-1.474797 -0.006,-1.463149 c -0.003,-0.804732 -0.001,-1.463149 0.004,-1.463149 0.005,0 1.16124,0.66503 2.56894,1.477844 l 2.55946,1.477844 0.006,1.461069 c 0.003,0.803587 -0.002,1.460633 -0.0111,1.460101 -0.009,-5.32e-4 -1.16523,-0.664625 -2.56895,-1.475763 z"
           style="opacity:1;fill:#d5c16d;fill-opacity:1;stroke:#000000;stroke-width:0.00083517;stroke-linejoin:miter;stroke-miterlimit:4;stroke-dasharray:none;stroke-opacity:1" />
        <path
           inkscape:connector-curvature="0"
           id="path2085"
           d="m -227.08452,20.379076 v 1 l 0.86602,0.5 v -1 z"
           style="fill:none;stroke:#000000;stroke-width:0.03779528;stroke-linecap:butt;stroke-linejoin:miter;stroke-miterlimit:4;stroke-dasharray:none;stroke-opacity:1" />
        <path
           style="fill:none;stroke:#000000;stroke-width:0.03779528;stroke-linecap:butt;stroke-linejoin:miter;stroke-miterlimit:4;stroke-dasharray:none;stroke-opacity:1"
           d="m -227.08452,20.379076 v 1 l 0.86602,0.5 v -1 z"
           id="path2087"
           inkscape:connector-curvature="0" />
        <path
           style="fill:none;stroke:#000000;stroke-width:0.03779528;stroke-linecap:butt;stroke-linejoin:miter;stroke-miterlimit:4;stroke-dasharray:none;stroke-opacity:1"
           d="m -224.48645,21.879076 v 1 l 0.86602,0.5 v -1 z"
           id="path2089"
           inkscape:connector-curvature="0" />
        <path
           inkscape:connector-curvature="0"
           id="path2091"
           d="m -224.48645,21.879076 v 1 l 0.86602,0.5 v -1 z"
           style="fill:none;stroke:#000000;stroke-width:0.03779528;stroke-linecap:butt;stroke-linejoin:miter;stroke-miterlimit:4;stroke-dasharray:none;stroke-opacity:1" />
        <path
           inkscape:connector-curvature="0"
           id="path2093"
           d="m -224.05858,23.090916 -0.40327,-0.232324 V 22.39971 c 0,-0.252386 0.005,-0.458883 0.0118,-0.458883 0.0288,0 0.78877,0.451465 0.79727,0.473614 0.005,0.01362 0.007,0.223671 0.004,0.466781 l -0.006,0.442017 z"
           style="opacity:1;fill:#666666;fill-opacity:1;stroke:#000000;stroke-width:0.00083517;stroke-linejoin:miter;stroke-miterlimit:4;stroke-dasharray:none;stroke-opacity:1" />
        <path
           inkscape:connector-curvature="0"
           id="path2095"
           d="m -226.66051,21.589151 -0.37565,-0.218246 -0.006,-0.468421 -0.006,-0.468421 0.11646,0.06819 c 0.0641,0.0375 0.2432,0.140363 0.39811,0.228576 l 0.28166,0.160388 8e-5,0.458515 c 4e-5,0.252183 -0.007,0.458323 -0.0165,0.45809 -0.009,-2.33e-4 -0.18561,-0.09863 -0.39222,-0.218669 z"
           style="opacity:1;fill:#666666;fill-opacity:1;stroke:#000000;stroke-width:0.00083517;stroke-linejoin:miter;stroke-miterlimit:4;stroke-dasharray:none;stroke-opacity:1" />
      </g>
      <path
         sodipodi:nodetypes="cccccccccccccccccccccccccccccccccccccccccccccccccccccccccccccccccccccccccccccccccccccccccccccccccccccccccccccccccccccccc"
         inkscape:connector-curvature="0"
         id="path870"
         d="m -242.66,40.3575 7.79423,-11.5 6.06218,-13.5 13.74815,-6 12.12436,-7 v -2.3 l -0.37889,0.51875 -0.37888,0.21875 -0.37889,-0.08125 -0.37889,0.21875 -0.37888,0.51875 -0.37889,0.21875 -0.37888,-0.08125 -0.37889,0.21875 -0.37889,0.51875 -0.37888,0.21875 -0.37889,-0.08125 -0.37888,0.21875 -0.37889,0.51875 -0.37889,0.21875 -0.37888,-0.08125 -0.37889,0.21875 -0.37889,0.51875 -0.37888,0.21875 -0.37889,-0.08125 -0.37888,0.21875 -0.37889,0.51875 -0.37889,0.21875 -0.37888,-0.08125 -0.37889,0.21875 -0.37889,0.51875 -0.37888,0.21875 -0.37889,-0.08125 -0.37888,0.21875 -0.37889,0.51875 -0.37889,0.21875 -0.37888,-0.08125 -0.37889,0.21875 -0.4319,0.5983107 -0.60612,0.306307 -0.47777,-0.1047578 -0.42253,0.1935529 -0.36728,0.4918636 -0.42253,0.1935529 -0.47777,-0.1047578 -0.42253,0.1935529 -0.36729,0.4918636 -0.42253,0.1935529 -0.47777,-0.1047577 -0.36728,0.4918635 -0.42253,0.1935533 -0.47777,-0.1047581 -0.42253,0.1935531 -0.36729,0.491863 -0.42253,0.193553 -0.47777,-0.104758 -0.42253,0.193553 -0.36728,0.491864 -0.42253,0.193553 -0.47777,-0.104758 -0.42253,0.193553 -0.36729,0.491864 -0.42253,0.193553 -0.47777,-0.104758 -0.42253,0.193553 -0.36728,0.491863 -0.42253,0.193553 -0.47777,-0.104758 -0.42253,0.193553 -0.36729,0.491864 -0.42253,0.193553 -0.47777,-0.104758 -0.21651,0.4375 -0.0287,0.636374 -0.2165,0.4375 -0.40433,0.238626 -0.21651,0.4375 -0.0287,0.636374 -0.21651,0.4375 -0.40433,0.238626 -0.21651,0.4375 -0.0287,0.636374 -0.2165,0.4375 -0.40434,0.238626 -0.2165,0.4375 -0.0287,0.636374 -0.21651,0.4375 -0.40433,0.238626 -0.21651,0.4375 -0.0287,0.636374 -0.2165,0.4375 -0.40434,0.238626 -0.2165,0.4375 -0.0287,0.636374 -0.21651,0.4375 -0.40433,0.238626 -0.21651,0.4375 -0.0287,0.636374 -0.21651,0.4375 -0.40433,0.238626 -0.2165,0.4375 -0.0287,0.636374 -0.21651,0.4375 -0.40433,0.238626 -0.37889,0.59375 -0.15755,0.846444 -0.37889,0.59375 -0.60022,0.341056 -0.37888,0.59375 -0.15756,0.846444 -0.37888,0.59375 -0.60022,0.341056 -0.37889,0.59375 -0.15755,0.846444 -0.37889,0.59375 -0.60022,0.341056 -0.37888,0.59375 -0.15756,0.846444 -0.37888,0.59375 -0.60022,0.341056"
         style="fill:#aa8800;fill-opacity:1;stroke:#000000;stroke-width:0.03779528;stroke-linecap:butt;stroke-linejoin:miter;stroke-miterlimit:4;stroke-dasharray:none;stroke-opacity:1" />
      <g
         transform="matrix(0.53158323,0,0,0.53158323,-109.54245,3.1544306)"
         id="layer1-5"
         inkscape:label="Layer 1">
        <path
           style="fill:none;stroke:#000000;stroke-width:0.03779528;stroke-linecap:butt;stroke-linejoin:miter;stroke-miterlimit:4;stroke-dasharray:none;stroke-opacity:1"
           d="m -225.36591,24.874966 2.59807,1.5 2.59808,-1.5 v -9 l -2.59808,1.5 -2.59807,-1.5 z"
           id="path1472"
           inkscape:connector-curvature="0" />
        <path
           style="fill:none;stroke:#000000;stroke-width:0.03779528;stroke-linecap:butt;stroke-linejoin:miter;stroke-miterlimit:4;stroke-dasharray:none;stroke-opacity:1"
           d="m -222.76784,26.374966 v -12 l 2.59808,1.5"
           id="path1474"
           inkscape:connector-curvature="0"
           sodipodi:nodetypes="ccc" />
        <path
           style="fill:none;stroke:#000000;stroke-width:0.03779528;stroke-linecap:butt;stroke-linejoin:miter;stroke-miterlimit:4;stroke-dasharray:none;stroke-opacity:1"
           d="m -225.36591,15.874966 2.59807,-1.5"
           id="path1476"
           inkscape:connector-curvature="0" />
        <path
           style="opacity:1;fill:#aa8800;fill-opacity:1;stroke:#000000;stroke-width:0.00059055;stroke-linejoin:miter;stroke-miterlimit:4;stroke-dasharray:none;stroke-opacity:1"
           d="m -224.04162,16.608286 c -0.68473,-0.39543 -1.24907,-0.72315 -1.25409,-0.728266 -0.005,-0.0051 0.55402,-0.334443 1.2423,-0.731835 0.68829,-0.397392 1.25442,-0.719536 1.25808,-0.715876 0.004,0.0037 0.005,0.65652 0.003,1.450798 l -0.004,1.444142 z"
           id="path1478"
           inkscape:connector-curvature="0" />
        <path
           style="opacity:1;fill:#aa8800;fill-opacity:1;stroke:#000000;stroke-width:0.00059055;stroke-linejoin:miter;stroke-miterlimit:4;stroke-dasharray:none;stroke-opacity:1"
           d="m -222.74168,21.854167 2.8e-4,-4.464844 1.25918,-0.726563 c 0.69256,-0.399609 1.26548,-0.728906 1.27316,-0.731771 0.008,-0.0031 0.014,1.841894 0.014,4.461291 v 4.466499 l -1.26464,0.730116 c -0.69555,0.401563 -1.2686,0.730115 -1.27344,0.730115 -0.005,0 -0.009,-2.009179 -0.009,-4.464843 z"
           id="path1480"
           inkscape:connector-curvature="0" />
        <path
           style="opacity:1;fill:#ff8080;fill-opacity:1;stroke:#000000;stroke-width:0.00059055;stroke-linejoin:miter;stroke-miterlimit:4;stroke-dasharray:none;stroke-opacity:1"
           d="m -223.7111,16.791192 c -0.48576,-0.281185 -1.03573,-0.599135 -1.22215,-0.706557 -0.18642,-0.107422 -0.33721,-0.201209 -0.33509,-0.208417 0.005,-0.01798 1.75248,-1.035061 2.45216,-1.42748 0.006,-0.0036 0.0117,0.637202 0.0117,1.424038 0,0.786835 -0.005,1.430396 -0.0117,1.430134 -0.006,-2.6e-4 -0.40916,-0.230534 -0.89492,-0.511718 z"
           id="path1482"
           inkscape:connector-curvature="0" />
        <path
           style="opacity:1;fill:#c64040;fill-opacity:1;stroke:#000000;stroke-width:0.00059055;stroke-linejoin:miter;stroke-miterlimit:4;stroke-dasharray:none;stroke-opacity:1"
           d="m -222.74196,15.873698 c 0,-0.794922 0.003,-1.445313 0.007,-1.445313 0.006,0 2.49597,1.435411 2.50511,1.44431 0.005,0.0047 -2.49023,1.446315 -2.50315,1.446315 -0.005,0 -0.009,-0.65039 -0.009,-1.445312 z"
           id="path1484"
           inkscape:connector-curvature="0" />
        <path
           style="opacity:1;fill:#d5c16d;fill-opacity:1;stroke:#000000;stroke-width:0.00059055;stroke-linejoin:miter;stroke-miterlimit:4;stroke-dasharray:none;stroke-opacity:1"
           d="m -224.06618,25.596503 -1.26953,-0.734922 v -4.468023 -4.468023 l 0.0926,0.05221 c 0.0509,0.02871 0.62365,0.358066 1.27274,0.731894 l 1.18016,0.679688 7e-4,4.472656 c 3.8e-4,2.459961 -0.001,4.471934 -0.003,4.471052 -0.002,-8.83e-4 -0.5752,-0.33232 -1.27344,-0.736528 z"
           id="path1486"
           inkscape:connector-curvature="0" />
        <path
           style="fill:none;stroke:#000000;stroke-width:0.03779528;stroke-linecap:butt;stroke-linejoin:miter;stroke-miterlimit:4;stroke-dasharray:none;stroke-opacity:1"
           d="m -224.49989,25.374966 v -3 l 0.86603,0.5 v 3"
           id="path1488"
           inkscape:connector-curvature="0" />
        <path
           style="opacity:1;fill:#a05a2c;fill-opacity:1;stroke:#000000;stroke-width:0.00059055;stroke-linejoin:miter;stroke-miterlimit:4;stroke-dasharray:none;stroke-opacity:1"
           d="m -224.07008,25.587673 -0.39844,-0.230893 -0.004,-1.464198 c -0.002,-0.805308 -1.1e-4,-1.464197 0.005,-1.464197 0.005,0 0.18758,0.103302 0.40633,0.229561 l 0.39772,0.22956 v 1.465752 c 0,0.806164 -0.002,1.465652 -0.004,1.465531 -0.002,-1.22e-4 -0.1832,-0.104124 -0.40234,-0.231116 z"
           id="path1490"
           inkscape:connector-curvature="0" />
        <path
           style="fill:none;stroke:#000000;stroke-width:0.03779528;stroke-linecap:butt;stroke-linejoin:miter;stroke-miterlimit:4;stroke-dasharray:none;stroke-opacity:1"
           d="m -224.49989,17.374966 v 1 l 0.86603,0.5 v -1 z"
           id="path1492"
           inkscape:connector-curvature="0" />
        <path
           style="fill:none;stroke:#000000;stroke-width:0.03779528;stroke-linecap:butt;stroke-linejoin:miter;stroke-miterlimit:4;stroke-dasharray:none;stroke-opacity:1"
           d="m -221.90181,18.874966 0.86602,-0.5 v -1 l -0.86602,0.5 v 1"
           id="path1494"
           inkscape:connector-curvature="0" />
        <path
           style="opacity:1;fill:#333333;fill-opacity:1;stroke:#000000;stroke-width:0.00059055;stroke-linejoin:miter;stroke-miterlimit:4;stroke-dasharray:none;stroke-opacity:1"
           d="m -221.8822,18.362295 3.8e-4,-0.472972 0.12852,-0.07232 c 0.0707,-0.03978 0.25685,-0.146706 0.41369,-0.237624 l 0.28515,-0.165307 -1.6e-4,0.471999 -1.5e-4,0.471999 -0.33908,0.195312 c -0.18649,0.107425 -0.37274,0.214794 -0.4139,0.238601 l -0.0748,0.04328 z"
           id="path1496"
           inkscape:connector-curvature="0" />
        <path
           style="opacity:1;fill:#666666;fill-opacity:1;stroke:#000000;stroke-width:0.00059055;stroke-linejoin:miter;stroke-miterlimit:4;stroke-dasharray:none;stroke-opacity:1"
           d="m -224.0818,18.587765 -0.39453,-0.229174 v -0.465103 c 0,-0.255806 0.004,-0.465103 0.009,-0.465103 0.005,0 0.1875,0.103302 0.40625,0.229561 l 0.39772,0.22956 v 0.465752 c 0,0.256164 -0.005,0.465286 -0.0117,0.464717 -0.006,-5.69e-4 -0.18926,-0.104164 -0.40625,-0.23021 z"
           id="path1498"
           inkscape:connector-curvature="0" />
      </g>
      <g
         transform="matrix(0.57363164,0,0,0.57363164,-90.373381,-6.3319667)"
         id="g1973"
         inkscape:label="Layer 1">
        <path
           style="fill:none;stroke:#000000;stroke-width:0.07559055;stroke-linecap:butt;stroke-linejoin:miter;stroke-miterlimit:4;stroke-dasharray:none;stroke-opacity:1"
           d="m -227.11455,21.378002 4.33013,2.5 4.33012,-2.5 v -3 l -4.33012,2.5 -4.33013,-2.5 z"
           id="path1947"
           inkscape:connector-curvature="0" />
        <path
           style="fill:none;stroke:#000000;stroke-width:0.07559055;stroke-linecap:butt;stroke-linejoin:miter;stroke-miterlimit:4;stroke-dasharray:none;stroke-opacity:1"
           d="m -222.78442,20.878002 -1.73206,-3 -2.59807,0.5 4.33013,-2.5 2.59807,-0.5 1.73205,3"
           id="path1949"
           inkscape:connector-curvature="0" />
        <path
           style="fill:none;stroke:#000000;stroke-width:0.07559055;stroke-linecap:butt;stroke-linejoin:miter;stroke-miterlimit:4;stroke-dasharray:none;stroke-opacity:1"
           d="m -224.51648,17.878002 4.33013,-2.5"
           id="path1951"
           inkscape:connector-curvature="0" />
        <path
           style="fill:none;stroke:#000000;stroke-width:0.07559055;stroke-linecap:butt;stroke-linejoin:miter;stroke-miterlimit:4;stroke-dasharray:none;stroke-opacity:1"
           d="m -222.78442,20.878002 v 3"
           id="path1953"
           inkscape:connector-curvature="0" />
        <path
           style="fill:none;stroke:#000000;stroke-width:0.07559055;stroke-linecap:butt;stroke-linejoin:miter;stroke-miterlimit:4;stroke-dasharray:none;stroke-opacity:1"
           d="m -225.3825,22.378002 v -2 l 0.86602,0.5 v 2"
           id="path1955"
           inkscape:connector-curvature="0" />
        <path
           style="fill:#a9f5f5;fill-opacity:1;stroke:#000000;stroke-width:0.07559055;stroke-linecap:butt;stroke-linejoin:miter;stroke-miterlimit:4;stroke-dasharray:none;stroke-opacity:1"
           d="m -221.05237,20.878002 v 1 l 0.86602,-0.5 v -1 z"
           id="path1957"
           inkscape:connector-curvature="0" />
        <path
           style="opacity:1;fill:#a0892c;fill-opacity:1;stroke:#000000;stroke-width:0.00083517;stroke-miterlimit:4;stroke-dasharray:none;stroke-opacity:1"
           d="m -222.74401,22.352695 0.003,-1.449555 2.09369,-1.209236 c 1.15154,-0.665079 2.10738,-1.216514 2.12409,-1.22541 l 0.0304,-0.01617 -4.6e-4,1.450405 -4.6e-4,1.450405 -2.11624,1.220864 c -1.16393,0.671475 -2.12083,1.222527 -2.12643,1.22456 -0.006,0.0022 -0.009,-0.564802 -0.007,-1.445859 z m 2.13146,-0.678515 0.46775,-0.270046 0.003,-0.547546 c 0.002,-0.30115 -3.9e-4,-0.547546 -0.004,-0.547546 -0.0108,0 -0.91238,0.520162 -0.93487,0.539354 -0.0179,0.0153 -0.0193,0.05585 -0.0193,0.556165 0,0.318802 0.004,0.539666 0.0101,0.539666 0.006,0 0.22059,-0.121521 0.47785,-0.270047 z"
           id="path1959"
           inkscape:connector-curvature="0" />
        <path
           style="opacity:1;fill:#d5c16d;fill-opacity:1;stroke:#000000;stroke-width:0.00083517;stroke-miterlimit:4;stroke-dasharray:none;stroke-opacity:1"
           d="m -223.65421,23.326573 -0.81998,-0.472406 -3.7e-4,-1.001229 -3.8e-4,-1.001229 -0.46601,-0.269354 c -0.25631,-0.148144 -0.4701,-0.27101 -0.47509,-0.273035 -0.005,-0.002 -0.009,0.444197 -0.009,0.991606 0,0.54741 -0.003,0.99529 -0.006,0.99529 -0.003,0 -0.37374,-0.212247 -0.82312,-0.47166 l -0.81699,-0.471659 V 19.90231 18.451723 l 0.0911,0.0535 c 0.0501,0.02943 0.99852,0.576923 2.10751,1.216658 1.109,0.639735 2.0226,1.168883 2.03022,1.175884 0.011,0.0101 0.0133,0.310536 0.011,1.45697 l -0.003,1.444242 z"
           id="path1961"
           inkscape:connector-curvature="0" />
        <path
           style="opacity:1;fill:#a05a2c;fill-opacity:1;stroke:#000000;stroke-width:0.00083517;stroke-miterlimit:4;stroke-dasharray:none;stroke-opacity:1"
           d="m -224.95791,22.574655 -0.37801,-0.217672 -4e-4,-0.947413 c -2.2e-4,-0.521077 0.003,-0.947412 0.006,-0.947412 0.004,0 0.17751,0.09819 0.38635,0.218208 l 0.37971,0.218209 3.4e-4,0.947413 c 2e-4,0.521077 -0.003,0.947171 -0.008,0.946876 -0.005,-2.95e-4 -0.17839,-0.09849 -0.38629,-0.218209 z"
           id="path1963"
           inkscape:connector-curvature="0" />
        <path
           style="opacity:1;fill:#ff8080;fill-opacity:1;stroke:#000000;stroke-width:0.00083517;stroke-miterlimit:4;stroke-dasharray:none;stroke-opacity:1"
           d="m -224.95307,19.575798 c -1.11657,-0.644666 -2.02818,-1.174059 -2.02581,-1.176429 0.006,-0.0055 2.40348,-0.467328 2.42658,-0.467328 0.0113,0 0.29658,0.483833 0.82759,1.403649 0.44568,0.772006 0.8084,1.405579 0.80604,1.407938 -0.002,0.0024 -0.91784,-0.523164 -2.0344,-1.16783 z"
           id="path1965"
           inkscape:connector-curvature="0" />
        <path
           style="opacity:1;fill:#ff8080;fill-opacity:1;stroke:#000000;stroke-width:0.00083517;stroke-miterlimit:4;stroke-dasharray:none;stroke-opacity:1"
           d="m -226.84485,18.273233 c 0.0122,-0.0076 0.93443,-0.54047 2.0495,-1.184232 l 2.02741,-1.170476 1.14335,-0.219943 c 0.62884,-0.120969 1.14885,-0.218559 1.15557,-0.216868 0.0115,0.0029 -3.95921,2.300923 -4.04772,2.342611 -0.0226,0.01064 -0.54819,0.116586 -1.16801,0.235439 -0.61983,0.118852 -1.13938,0.2186 -1.15458,0.22166 -0.026,0.0052 -0.0263,0.0047 -0.006,-0.0082 z"
           id="path1967"
           inkscape:connector-curvature="0" />
        <path
           style="opacity:1;fill:#c64040;fill-opacity:1;stroke:#000000;stroke-width:0.00083517;stroke-miterlimit:4;stroke-dasharray:none;stroke-opacity:1"
           d="m -223.61254,19.356623 c -0.46351,-0.802841 -0.83846,-1.463452 -0.83323,-1.468026 0.005,-0.0046 0.95167,-0.551835 2.1032,-1.216138 1.15154,-0.664303 2.104,-1.214467 2.11659,-1.222587 0.022,-0.01417 0.0359,0.0078 0.34969,0.551455 0.17974,0.311421 0.55848,0.967514 0.84166,1.457985 0.28317,0.490472 0.51465,0.895677 0.5144,0.900456 -3.6e-4,0.0069 -4.20984,2.442072 -4.24115,2.453492 -0.005,0.0017 -0.38766,-0.653796 -0.85116,-1.456637 z"
           id="path1969"
           inkscape:connector-curvature="0" />
        <path
           style="opacity:1;fill:#d5c16d;fill-opacity:1;stroke:#000000;stroke-width:0.00083517;stroke-miterlimit:4;stroke-dasharray:none;stroke-opacity:1"
           d="m -222.98891,20.700023 c -1.2635,-0.724697 -3.49994,-2.015648 -3.84447,-2.219164 -0.12674,-0.07486 -0.13082,-0.07841 -0.0994,-0.0864 0.0417,-0.01062 1.48535,-0.289118 2.21249,-0.426819 l 0.16894,-0.03199 0.0622,0.100396 c 0.19836,0.320439 1.55745,2.67657 1.54884,2.685072 -0.002,0.0023 -0.0242,-0.0071 -0.0485,-0.02109 z"
           id="path1971"
           inkscape:connector-curvature="0" />
      </g>
      <g
         inkscape:label="Layer 1"
         id="g1822"
         transform="matrix(0.53158323,0,0,0.53158323,-96.541201,-3.2598087)">
        <path
           inkscape:connector-curvature="0"
           id="path1794"
           d="m -225.36591,24.874966 2.59807,1.5 2.59808,-1.5 v -9 l -2.59808,1.5 -2.59807,-1.5 z"
           style="fill:none;stroke:#000000;stroke-width:0.03779528;stroke-linecap:butt;stroke-linejoin:miter;stroke-miterlimit:4;stroke-dasharray:none;stroke-opacity:1" />
        <path
           sodipodi:nodetypes="ccc"
           inkscape:connector-curvature="0"
           id="path1796"
           d="m -222.76784,26.374966 v -12 l 2.59808,1.5"
           style="fill:none;stroke:#000000;stroke-width:0.03779528;stroke-linecap:butt;stroke-linejoin:miter;stroke-miterlimit:4;stroke-dasharray:none;stroke-opacity:1" />
        <path
           inkscape:connector-curvature="0"
           id="path1798"
           d="m -225.36591,15.874966 2.59807,-1.5"
           style="fill:none;stroke:#000000;stroke-width:0.03779528;stroke-linecap:butt;stroke-linejoin:miter;stroke-miterlimit:4;stroke-dasharray:none;stroke-opacity:1" />
        <path
           inkscape:connector-curvature="0"
           id="path1800"
           d="m -224.04162,16.608286 c -0.68473,-0.39543 -1.24907,-0.72315 -1.25409,-0.728266 -0.005,-0.0051 0.55402,-0.334443 1.2423,-0.731835 0.68829,-0.397392 1.25442,-0.719536 1.25808,-0.715876 0.004,0.0037 0.005,0.65652 0.003,1.450798 l -0.004,1.444142 z"
           style="opacity:1;fill:#aa8800;fill-opacity:1;stroke:#000000;stroke-width:0.00059055;stroke-linejoin:miter;stroke-miterlimit:4;stroke-dasharray:none;stroke-opacity:1" />
        <path
           inkscape:connector-curvature="0"
           id="path1802"
           d="m -222.74168,21.854167 2.8e-4,-4.464844 1.25918,-0.726563 c 0.69256,-0.399609 1.26548,-0.728906 1.27316,-0.731771 0.008,-0.0031 0.014,1.841894 0.014,4.461291 v 4.466499 l -1.26464,0.730116 c -0.69555,0.401563 -1.2686,0.730115 -1.27344,0.730115 -0.005,0 -0.009,-2.009179 -0.009,-4.464843 z"
           style="opacity:1;fill:#aa8800;fill-opacity:1;stroke:#000000;stroke-width:0.00059055;stroke-linejoin:miter;stroke-miterlimit:4;stroke-dasharray:none;stroke-opacity:1" />
        <path
           inkscape:connector-curvature="0"
           id="path1804"
           d="m -223.7111,16.791192 c -0.48576,-0.281185 -1.03573,-0.599135 -1.22215,-0.706557 -0.18642,-0.107422 -0.33721,-0.201209 -0.33509,-0.208417 0.005,-0.01798 1.75248,-1.035061 2.45216,-1.42748 0.006,-0.0036 0.0117,0.637202 0.0117,1.424038 0,0.786835 -0.005,1.430396 -0.0117,1.430134 -0.006,-2.6e-4 -0.40916,-0.230534 -0.89492,-0.511718 z"
           style="opacity:1;fill:#ff8080;fill-opacity:1;stroke:#000000;stroke-width:0.00059055;stroke-linejoin:miter;stroke-miterlimit:4;stroke-dasharray:none;stroke-opacity:1" />
        <path
           inkscape:connector-curvature="0"
           id="path1806"
           d="m -222.74196,15.873698 c 0,-0.794922 0.003,-1.445313 0.007,-1.445313 0.006,0 2.49597,1.435411 2.50511,1.44431 0.005,0.0047 -2.49023,1.446315 -2.50315,1.446315 -0.005,0 -0.009,-0.65039 -0.009,-1.445312 z"
           style="opacity:1;fill:#c64040;fill-opacity:1;stroke:#000000;stroke-width:0.00059055;stroke-linejoin:miter;stroke-miterlimit:4;stroke-dasharray:none;stroke-opacity:1" />
        <path
           inkscape:connector-curvature="0"
           id="path1808"
           d="m -224.06618,25.596503 -1.26953,-0.734922 v -4.468023 -4.468023 l 0.0926,0.05221 c 0.0509,0.02871 0.62365,0.358066 1.27274,0.731894 l 1.18016,0.679688 7e-4,4.472656 c 3.8e-4,2.459961 -0.001,4.471934 -0.003,4.471052 -0.002,-8.83e-4 -0.5752,-0.33232 -1.27344,-0.736528 z"
           style="opacity:1;fill:#d5c16d;fill-opacity:1;stroke:#000000;stroke-width:0.00059055;stroke-linejoin:miter;stroke-miterlimit:4;stroke-dasharray:none;stroke-opacity:1" />
        <path
           inkscape:connector-curvature="0"
           id="path1810"
           d="m -224.49989,25.374966 v -3 l 0.86603,0.5 v 3"
           style="fill:none;stroke:#000000;stroke-width:0.03779528;stroke-linecap:butt;stroke-linejoin:miter;stroke-miterlimit:4;stroke-dasharray:none;stroke-opacity:1" />
        <path
           inkscape:connector-curvature="0"
           id="path1812"
           d="m -224.07008,25.587673 -0.39844,-0.230893 -0.004,-1.464198 c -0.002,-0.805308 -1.1e-4,-1.464197 0.005,-1.464197 0.005,0 0.18758,0.103302 0.40633,0.229561 l 0.39772,0.22956 v 1.465752 c 0,0.806164 -0.002,1.465652 -0.004,1.465531 -0.002,-1.22e-4 -0.1832,-0.104124 -0.40234,-0.231116 z"
           style="opacity:1;fill:#a05a2c;fill-opacity:1;stroke:#000000;stroke-width:0.00059055;stroke-linejoin:miter;stroke-miterlimit:4;stroke-dasharray:none;stroke-opacity:1" />
        <path
           inkscape:connector-curvature="0"
           id="path1814"
           d="m -224.49989,17.374966 v 1 l 0.86603,0.5 v -1 z"
           style="fill:none;stroke:#000000;stroke-width:0.03779528;stroke-linecap:butt;stroke-linejoin:miter;stroke-miterlimit:4;stroke-dasharray:none;stroke-opacity:1" />
        <path
           inkscape:connector-curvature="0"
           id="path1816"
           d="m -221.90181,18.874966 0.86602,-0.5 v -1 l -0.86602,0.5 v 1"
           style="fill:none;stroke:#000000;stroke-width:0.03779528;stroke-linecap:butt;stroke-linejoin:miter;stroke-miterlimit:4;stroke-dasharray:none;stroke-opacity:1" />
        <path
           inkscape:connector-curvature="0"
           id="path1818"
           d="m -221.8822,18.362295 3.8e-4,-0.472972 0.12852,-0.07232 c 0.0707,-0.03978 0.25685,-0.146706 0.41369,-0.237624 l 0.28515,-0.165307 -1.6e-4,0.471999 -1.5e-4,0.471999 -0.33908,0.195312 c -0.18649,0.107425 -0.37274,0.214794 -0.4139,0.238601 l -0.0748,0.04328 z"
           style="opacity:1;fill:#333333;fill-opacity:1;stroke:#000000;stroke-width:0.00059055;stroke-linejoin:miter;stroke-miterlimit:4;stroke-dasharray:none;stroke-opacity:1" />
        <path
           inkscape:connector-curvature="0"
           id="path1820"
           d="m -224.0818,18.587765 -0.39453,-0.229174 v -0.465103 c 0,-0.255806 0.004,-0.465103 0.009,-0.465103 0.005,0 0.1875,0.103302 0.40625,0.229561 l 0.39772,0.22956 v 0.465752 c 0,0.256164 -0.005,0.465286 -0.0117,0.464717 -0.006,-5.69e-4 -0.18926,-0.104164 -0.40625,-0.23021 z"
           style="opacity:1;fill:#666666;fill-opacity:1;stroke:#000000;stroke-width:0.00059055;stroke-linejoin:miter;stroke-miterlimit:4;stroke-dasharray:none;stroke-opacity:1" />
      </g>
      <g
         inkscape:label="Layer 1"
         id="g1945"
         transform="matrix(0.57363164,0,0,0.57363164,-107.96051,0.36679752)">
        <path
           inkscape:connector-curvature="0"
           id="path1919"
           d="m -227.11455,21.378002 4.33013,2.5 4.33012,-2.5 v -3 l -4.33012,2.5 -4.33013,-2.5 z"
           style="fill:none;stroke:#000000;stroke-width:0.07559055;stroke-linecap:butt;stroke-linejoin:miter;stroke-miterlimit:4;stroke-dasharray:none;stroke-opacity:1" />
        <path
           inkscape:connector-curvature="0"
           id="path1921"
           d="m -222.78442,20.878002 -1.73206,-3 -2.59807,0.5 4.33013,-2.5 2.59807,-0.5 1.73205,3"
           style="fill:none;stroke:#000000;stroke-width:0.07559055;stroke-linecap:butt;stroke-linejoin:miter;stroke-miterlimit:4;stroke-dasharray:none;stroke-opacity:1" />
        <path
           inkscape:connector-curvature="0"
           id="path1923"
           d="m -224.51648,17.878002 4.33013,-2.5"
           style="fill:none;stroke:#000000;stroke-width:0.07559055;stroke-linecap:butt;stroke-linejoin:miter;stroke-miterlimit:4;stroke-dasharray:none;stroke-opacity:1" />
        <path
           inkscape:connector-curvature="0"
           id="path1925"
           d="m -222.78442,20.878002 v 3"
           style="fill:none;stroke:#000000;stroke-width:0.07559055;stroke-linecap:butt;stroke-linejoin:miter;stroke-miterlimit:4;stroke-dasharray:none;stroke-opacity:1" />
        <path
           inkscape:connector-curvature="0"
           id="path1927"
           d="m -225.3825,22.378002 v -2 l 0.86602,0.5 v 2"
           style="fill:none;stroke:#000000;stroke-width:0.07559055;stroke-linecap:butt;stroke-linejoin:miter;stroke-miterlimit:4;stroke-dasharray:none;stroke-opacity:1" />
        <path
           inkscape:connector-curvature="0"
           id="path1929"
           d="m -221.05237,20.878002 v 1 l 0.86602,-0.5 v -1 z"
           style="fill:#a9f5f5;fill-opacity:1;stroke:#000000;stroke-width:0.07559055;stroke-linecap:butt;stroke-linejoin:miter;stroke-miterlimit:4;stroke-dasharray:none;stroke-opacity:1" />
        <path
           inkscape:connector-curvature="0"
           id="path1931"
           d="m -222.74401,22.352695 0.003,-1.449555 2.09369,-1.209236 c 1.15154,-0.665079 2.10738,-1.216514 2.12409,-1.22541 l 0.0304,-0.01617 -4.6e-4,1.450405 -4.6e-4,1.450405 -2.11624,1.220864 c -1.16393,0.671475 -2.12083,1.222527 -2.12643,1.22456 -0.006,0.0022 -0.009,-0.564802 -0.007,-1.445859 z m 2.13146,-0.678515 0.46775,-0.270046 0.003,-0.547546 c 0.002,-0.30115 -3.9e-4,-0.547546 -0.004,-0.547546 -0.0108,0 -0.91238,0.520162 -0.93487,0.539354 -0.0179,0.0153 -0.0193,0.05585 -0.0193,0.556165 0,0.318802 0.004,0.539666 0.0101,0.539666 0.006,0 0.22059,-0.121521 0.47785,-0.270047 z"
           style="opacity:1;fill:#a0892c;fill-opacity:1;stroke:#000000;stroke-width:0.00083517;stroke-miterlimit:4;stroke-dasharray:none;stroke-opacity:1" />
        <path
           inkscape:connector-curvature="0"
           id="path1933"
           d="m -223.65421,23.326573 -0.81998,-0.472406 -3.7e-4,-1.001229 -3.8e-4,-1.001229 -0.46601,-0.269354 c -0.25631,-0.148144 -0.4701,-0.27101 -0.47509,-0.273035 -0.005,-0.002 -0.009,0.444197 -0.009,0.991606 0,0.54741 -0.003,0.99529 -0.006,0.99529 -0.003,0 -0.37374,-0.212247 -0.82312,-0.47166 l -0.81699,-0.471659 V 19.90231 18.451723 l 0.0911,0.0535 c 0.0501,0.02943 0.99852,0.576923 2.10751,1.216658 1.109,0.639735 2.0226,1.168883 2.03022,1.175884 0.011,0.0101 0.0133,0.310536 0.011,1.45697 l -0.003,1.444242 z"
           style="opacity:1;fill:#d5c16d;fill-opacity:1;stroke:#000000;stroke-width:0.00083517;stroke-miterlimit:4;stroke-dasharray:none;stroke-opacity:1" />
        <path
           inkscape:connector-curvature="0"
           id="path1935"
           d="m -224.95791,22.574655 -0.37801,-0.217672 -4e-4,-0.947413 c -2.2e-4,-0.521077 0.003,-0.947412 0.006,-0.947412 0.004,0 0.17751,0.09819 0.38635,0.218208 l 0.37971,0.218209 3.4e-4,0.947413 c 2e-4,0.521077 -0.003,0.947171 -0.008,0.946876 -0.005,-2.95e-4 -0.17839,-0.09849 -0.38629,-0.218209 z"
           style="opacity:1;fill:#a05a2c;fill-opacity:1;stroke:#000000;stroke-width:0.00083517;stroke-miterlimit:4;stroke-dasharray:none;stroke-opacity:1" />
        <path
           inkscape:connector-curvature="0"
           id="path1937"
           d="m -224.95307,19.575798 c -1.11657,-0.644666 -2.02818,-1.174059 -2.02581,-1.176429 0.006,-0.0055 2.40348,-0.467328 2.42658,-0.467328 0.0113,0 0.29658,0.483833 0.82759,1.403649 0.44568,0.772006 0.8084,1.405579 0.80604,1.407938 -0.002,0.0024 -0.91784,-0.523164 -2.0344,-1.16783 z"
           style="opacity:1;fill:#ff8080;fill-opacity:1;stroke:#000000;stroke-width:0.00083517;stroke-miterlimit:4;stroke-dasharray:none;stroke-opacity:1" />
        <path
           inkscape:connector-curvature="0"
           id="path1939"
           d="m -226.84485,18.273233 c 0.0122,-0.0076 0.93443,-0.54047 2.0495,-1.184232 l 2.02741,-1.170476 1.14335,-0.219943 c 0.62884,-0.120969 1.14885,-0.218559 1.15557,-0.216868 0.0115,0.0029 -3.95921,2.300923 -4.04772,2.342611 -0.0226,0.01064 -0.54819,0.116586 -1.16801,0.235439 -0.61983,0.118852 -1.13938,0.2186 -1.15458,0.22166 -0.026,0.0052 -0.0263,0.0047 -0.006,-0.0082 z"
           style="opacity:1;fill:#ff8080;fill-opacity:1;stroke:#000000;stroke-width:0.00083517;stroke-miterlimit:4;stroke-dasharray:none;stroke-opacity:1" />
        <path
           inkscape:connector-curvature="0"
           id="path1941"
           d="m -223.61254,19.356623 c -0.46351,-0.802841 -0.83846,-1.463452 -0.83323,-1.468026 0.005,-0.0046 0.95167,-0.551835 2.1032,-1.216138 1.15154,-0.664303 2.104,-1.214467 2.11659,-1.222587 0.022,-0.01417 0.0359,0.0078 0.34969,0.551455 0.17974,0.311421 0.55848,0.967514 0.84166,1.457985 0.28317,0.490472 0.51465,0.895677 0.5144,0.900456 -3.6e-4,0.0069 -4.20984,2.442072 -4.24115,2.453492 -0.005,0.0017 -0.38766,-0.653796 -0.85116,-1.456637 z"
           style="opacity:1;fill:#c64040;fill-opacity:1;stroke:#000000;stroke-width:0.00083517;stroke-miterlimit:4;stroke-dasharray:none;stroke-opacity:1" />
        <path
           inkscape:connector-curvature="0"
           id="path1943"
           d="m -222.98891,20.700023 c -1.2635,-0.724697 -3.49994,-2.015648 -3.84447,-2.219164 -0.12674,-0.07486 -0.13082,-0.07841 -0.0994,-0.0864 0.0417,-0.01062 1.48535,-0.289118 2.21249,-0.426819 l 0.16894,-0.03199 0.0622,0.100396 c 0.19836,0.320439 1.55745,2.67657 1.54884,2.685072 -0.002,0.0023 -0.0242,-0.0071 -0.0485,-0.02109 z"
           style="opacity:1;fill:#d5c16d;fill-opacity:1;stroke:#000000;stroke-width:0.00083517;stroke-miterlimit:4;stroke-dasharray:none;stroke-opacity:1" />
      </g>
      <g
         transform="matrix(0.57363164,0,0,0.57363164,-108.92916,3.8075858)"
         id="layer1-7"
         inkscape:label="Layer 1">
        <path
           style="fill:none;stroke:#000000;stroke-width:0.07559055;stroke-linecap:butt;stroke-linejoin:miter;stroke-miterlimit:4;stroke-dasharray:none;stroke-opacity:1"
           d="m -227.11455,21.378002 4.33013,2.5 4.33012,-2.5 v -3 l -4.33012,2.5 -4.33013,-2.5 z"
           id="path823"
           inkscape:connector-curvature="0" />
        <path
           style="fill:none;stroke:#000000;stroke-width:0.07559055;stroke-linecap:butt;stroke-linejoin:miter;stroke-miterlimit:4;stroke-dasharray:none;stroke-opacity:1"
           d="m -222.78442,20.878002 -1.73206,-3 -2.59807,0.5 4.33013,-2.5 2.59807,-0.5 1.73205,3"
           id="path825"
           inkscape:connector-curvature="0" />
        <path
           style="fill:none;stroke:#000000;stroke-width:0.07559055;stroke-linecap:butt;stroke-linejoin:miter;stroke-miterlimit:4;stroke-dasharray:none;stroke-opacity:1"
           d="m -224.51648,17.878002 4.33013,-2.5"
           id="path827"
           inkscape:connector-curvature="0" />
        <path
           style="fill:none;stroke:#000000;stroke-width:0.07559055;stroke-linecap:butt;stroke-linejoin:miter;stroke-miterlimit:4;stroke-dasharray:none;stroke-opacity:1"
           d="m -222.78442,20.878002 v 3"
           id="path829"
           inkscape:connector-curvature="0" />
        <path
           style="fill:none;stroke:#000000;stroke-width:0.07559055;stroke-linecap:butt;stroke-linejoin:miter;stroke-miterlimit:4;stroke-dasharray:none;stroke-opacity:1"
           d="m -225.3825,22.378002 v -2 l 0.86602,0.5 v 2"
           id="path831"
           inkscape:connector-curvature="0" />
        <path
           style="fill:#a9f5f5;fill-opacity:1;stroke:#000000;stroke-width:0.07559055;stroke-linecap:butt;stroke-linejoin:miter;stroke-miterlimit:4;stroke-dasharray:none;stroke-opacity:1"
           d="m -221.05237,20.878002 v 1 l 0.86602,-0.5 v -1 z"
           id="path833"
           inkscape:connector-curvature="0" />
        <path
           style="opacity:1;fill:#a0892c;fill-opacity:1;stroke:#000000;stroke-width:0.00083517;stroke-miterlimit:4;stroke-dasharray:none;stroke-opacity:1"
           d="m -222.74401,22.352695 0.003,-1.449555 2.09369,-1.209236 c 1.15154,-0.665079 2.10738,-1.216514 2.12409,-1.22541 l 0.0304,-0.01617 -4.6e-4,1.450405 -4.6e-4,1.450405 -2.11624,1.220864 c -1.16393,0.671475 -2.12083,1.222527 -2.12643,1.22456 -0.006,0.0022 -0.009,-0.564802 -0.007,-1.445859 z m 2.13146,-0.678515 0.46775,-0.270046 0.003,-0.547546 c 0.002,-0.30115 -3.9e-4,-0.547546 -0.004,-0.547546 -0.0108,0 -0.91238,0.520162 -0.93487,0.539354 -0.0179,0.0153 -0.0193,0.05585 -0.0193,0.556165 0,0.318802 0.004,0.539666 0.0101,0.539666 0.006,0 0.22059,-0.121521 0.47785,-0.270047 z"
           id="path835"
           inkscape:connector-curvature="0" />
        <path
           style="opacity:1;fill:#d5c16d;fill-opacity:1;stroke:#000000;stroke-width:0.00083517;stroke-miterlimit:4;stroke-dasharray:none;stroke-opacity:1"
           d="m -223.65421,23.326573 -0.81998,-0.472406 -3.7e-4,-1.001229 -3.8e-4,-1.001229 -0.46601,-0.269354 c -0.25631,-0.148144 -0.4701,-0.27101 -0.47509,-0.273035 -0.005,-0.002 -0.009,0.444197 -0.009,0.991606 0,0.54741 -0.003,0.99529 -0.006,0.99529 -0.003,0 -0.37374,-0.212247 -0.82312,-0.47166 l -0.81699,-0.471659 V 19.90231 18.451723 l 0.0911,0.0535 c 0.0501,0.02943 0.99852,0.576923 2.10751,1.216658 1.109,0.639735 2.0226,1.168883 2.03022,1.175884 0.011,0.0101 0.0133,0.310536 0.011,1.45697 l -0.003,1.444242 z"
           id="path858"
           inkscape:connector-curvature="0" />
        <path
           style="opacity:1;fill:#a05a2c;fill-opacity:1;stroke:#000000;stroke-width:0.00083517;stroke-miterlimit:4;stroke-dasharray:none;stroke-opacity:1"
           d="m -224.95791,22.574655 -0.37801,-0.217672 -4e-4,-0.947413 c -2.2e-4,-0.521077 0.003,-0.947412 0.006,-0.947412 0.004,0 0.17751,0.09819 0.38635,0.218208 l 0.37971,0.218209 3.4e-4,0.947413 c 2e-4,0.521077 -0.003,0.947171 -0.008,0.946876 -0.005,-2.95e-4 -0.17839,-0.09849 -0.38629,-0.218209 z"
           id="path860"
           inkscape:connector-curvature="0" />
        <path
           style="opacity:1;fill:#ff8080;fill-opacity:1;stroke:#000000;stroke-width:0.00083517;stroke-miterlimit:4;stroke-dasharray:none;stroke-opacity:1"
           d="m -224.95307,19.575798 c -1.11657,-0.644666 -2.02818,-1.174059 -2.02581,-1.176429 0.006,-0.0055 2.40348,-0.467328 2.42658,-0.467328 0.0113,0 0.29658,0.483833 0.82759,1.403649 0.44568,0.772006 0.8084,1.405579 0.80604,1.407938 -0.002,0.0024 -0.91784,-0.523164 -2.0344,-1.16783 z"
           id="path862"
           inkscape:connector-curvature="0" />
        <path
           style="opacity:1;fill:#ff8080;fill-opacity:1;stroke:#000000;stroke-width:0.00083517;stroke-miterlimit:4;stroke-dasharray:none;stroke-opacity:1"
           d="m -226.84485,18.273233 c 0.0122,-0.0076 0.93443,-0.54047 2.0495,-1.184232 l 2.02741,-1.170476 1.14335,-0.219943 c 0.62884,-0.120969 1.14885,-0.218559 1.15557,-0.216868 0.0115,0.0029 -3.95921,2.300923 -4.04772,2.342611 -0.0226,0.01064 -0.54819,0.116586 -1.16801,0.235439 -0.61983,0.118852 -1.13938,0.2186 -1.15458,0.22166 -0.026,0.0052 -0.0263,0.0047 -0.006,-0.0082 z"
           id="path864"
           inkscape:connector-curvature="0" />
        <path
           style="opacity:1;fill:#c64040;fill-opacity:1;stroke:#000000;stroke-width:0.00083517;stroke-miterlimit:4;stroke-dasharray:none;stroke-opacity:1"
           d="m -223.61254,19.356623 c -0.46351,-0.802841 -0.83846,-1.463452 -0.83323,-1.468026 0.005,-0.0046 0.95167,-0.551835 2.1032,-1.216138 1.15154,-0.664303 2.104,-1.214467 2.11659,-1.222587 0.022,-0.01417 0.0359,0.0078 0.34969,0.551455 0.17974,0.311421 0.55848,0.967514 0.84166,1.457985 0.28317,0.490472 0.51465,0.895677 0.5144,0.900456 -3.6e-4,0.0069 -4.20984,2.442072 -4.24115,2.453492 -0.005,0.0017 -0.38766,-0.653796 -0.85116,-1.456637 z"
           id="path866"
           inkscape:connector-curvature="0" />
        <path
           style="opacity:1;fill:#d5c16d;fill-opacity:1;stroke:#000000;stroke-width:0.00083517;stroke-miterlimit:4;stroke-dasharray:none;stroke-opacity:1"
           d="m -222.98891,20.700023 c -1.2635,-0.724697 -3.49994,-2.015648 -3.84447,-2.219164 -0.12674,-0.07486 -0.13082,-0.07841 -0.0994,-0.0864 0.0417,-0.01062 1.48535,-0.289118 2.21249,-0.426819 l 0.16894,-0.03199 0.0622,0.100396 c 0.19836,0.320439 1.55745,2.67657 1.54884,2.685072 -0.002,0.0023 -0.0242,-0.0071 -0.0485,-0.02109 z"
           id="path868"
           inkscape:connector-curvature="0" />
      </g>
      <g
         transform="matrix(0.44670385,0,0,0.44670385,-129.20603,-0.46926363)"
         id="layer1-6"
         inkscape:label="Layer 1">
        <path
           style="fill:none;stroke:#000000;stroke-width:0.03779528;stroke-linecap:butt;stroke-linejoin:miter;stroke-miterlimit:4;stroke-dasharray:none;stroke-opacity:1"
           d="m -227.95056,21.879076 5.19616,3 6.06217,-3.5 v -3 l -6.06217,3.5 -5.19616,-3 z"
           id="path837"
           inkscape:connector-curvature="0" />
        <path
           style="fill:none;stroke:#000000;stroke-width:0.03779528;stroke-linecap:butt;stroke-linejoin:miter;stroke-miterlimit:4;stroke-dasharray:none;stroke-opacity:1"
           d="m -227.95056,18.879076 4.33013,-3.5 4.33013,2.5 -3.46411,4"
           id="path839"
           inkscape:connector-curvature="0"
           sodipodi:nodetypes="cccc" />
        <path
           style="fill:none;stroke:#000000;stroke-width:0.03779528;stroke-linecap:butt;stroke-linejoin:miter;stroke-miterlimit:4;stroke-dasharray:none;stroke-opacity:1"
           d="m -219.2903,17.879076 2.59807,0.5 -4.33012,-2.5 -2.59808,-0.5"
           id="path841"
           inkscape:connector-curvature="0" />
        <path
           style="fill:none;stroke:#000000;stroke-width:0.03779528;stroke-linecap:butt;stroke-linejoin:miter;stroke-miterlimit:4;stroke-dasharray:none;stroke-opacity:1"
           d="m -222.7544,21.879076 v 3"
           id="path843"
           inkscape:connector-curvature="0" />
        <path
           style="fill:none;stroke:#000000;stroke-width:0.03779528;stroke-linecap:butt;stroke-linejoin:miter;stroke-miterlimit:4;stroke-dasharray:none;stroke-opacity:1"
           d="m -221.02235,23.879076 v -3 l 2.59807,-1.5 v 3"
           id="path847"
           inkscape:connector-curvature="0" />
        <path
           style="opacity:1;fill:#333333;fill-opacity:1;stroke:#000000;stroke-width:0.00083517;stroke-linejoin:miter;stroke-miterlimit:4;stroke-dasharray:none;stroke-opacity:1"
           d="m -220.98724,22.355569 0.006,-1.463511 1.24849,-0.722833 c 0.68666,-0.397559 1.25601,-0.723404 1.26521,-0.724101 0.009,-6.98e-4 0.0142,0.656329 0.011,1.46006 l -0.006,1.461327 -1.25788,0.726284 c -0.69183,0.399456 -1.26118,0.726284 -1.26521,0.726284 -0.004,0 -0.005,-0.65858 -0.002,-1.46351 z"
           id="path849"
           inkscape:connector-curvature="0" />
        <path
           style="opacity:1;fill:#aa8800;fill-opacity:1;stroke:#000000;stroke-width:0.00083517;stroke-linejoin:miter;stroke-miterlimit:4;stroke-dasharray:none;stroke-opacity:1"
           d="m -222.71532,23.349516 8.5e-4,-1.463932 0.80844,-0.464039 c 0.44464,-0.255221 0.81722,-0.467377 0.82794,-0.471457 0.0112,-0.0043 0.0171,0.616974 0.0138,1.457219 l -0.006,1.464638 -0.81555,0.470751 c -0.44855,0.258914 -0.81895,0.470752 -0.82312,0.470752 -0.004,0 -0.007,-0.658769 -0.007,-1.463932 z"
           id="path851"
           inkscape:connector-curvature="0" />
        <path
           style="opacity:1;fill:#aa8800;fill-opacity:1;stroke:#000000;stroke-width:0.00083517;stroke-linejoin:miter;stroke-miterlimit:4;stroke-dasharray:none;stroke-opacity:1"
           d="m -218.3847,20.854167 4.5e-4,-1.465554 0.81461,-0.469563 c 0.44804,-0.25826 0.82079,-0.469563 0.82835,-0.469563 0.008,0 0.0112,0.657417 0.008,1.460927 l -0.006,1.460926 -0.69606,0.401766 c -0.38283,0.220972 -0.75323,0.434358 -0.82312,0.474191 l -0.12705,0.07242 z"
           id="path853"
           inkscape:connector-curvature="0" />
        <path
           style="opacity:1;fill:#aa8800;fill-opacity:1;stroke:#000000;stroke-width:0.00083517;stroke-linejoin:miter;stroke-miterlimit:4;stroke-dasharray:none;stroke-opacity:1"
           d="m -222.54879,21.695065 c 0.0182,-0.02943 3.15154,-3.652348 3.2257,-3.729704 l 0.051,-0.05323 1.24968,0.240357 c 0.91025,0.175073 1.23926,0.246149 1.21132,0.261683 -0.0512,0.02846 -3.93871,2.271736 -4.9378,2.849327 -0.43416,0.250998 -0.79521,0.456361 -0.80232,0.456361 -0.007,0 -0.006,-0.01116 0.002,-0.02479 z"
           id="path855"
           inkscape:connector-curvature="0" />
        <path
           style="opacity:1;fill:#ff8080;fill-opacity:1;stroke:#000000;stroke-width:0.00083517;stroke-linejoin:miter;stroke-miterlimit:4;stroke-dasharray:none;stroke-opacity:1"
           d="m -225.34021,20.354167 c -1.40068,-0.810171 -2.54603,-1.478178 -2.54522,-1.48446 0.001,-0.01069 4.18486,-3.392846 4.2461,-3.432771 0.0187,-0.01217 0.75006,0.398272 2.16059,1.212481 1.1728,0.676983 2.13443,1.232567 2.13695,1.234633 0.0116,0.0095 -3.40277,3.935713 -3.4257,3.939198 -0.0143,0.0022 -1.17204,-0.658911 -2.57272,-1.469081 z"
           id="path857"
           inkscape:connector-curvature="0" />
        <path
           style="opacity:1;fill:#c64040;fill-opacity:1;stroke:#000000;stroke-width:0.00083517;stroke-linejoin:miter;stroke-miterlimit:4;stroke-dasharray:none;stroke-opacity:1"
           d="m -218.1519,18.070745 -1.12572,-0.219233 -2.05594,-1.1868 c -1.13077,-0.65274 -2.04117,-1.189566 -2.02312,-1.192946 0.0181,-0.0034 0.54782,0.09296 1.17724,0.214093 l 1.14442,0.220239 2.03756,1.175229 c 1.12067,0.646376 2.04702,1.183835 2.05857,1.194355 0.0392,0.03574 -0.0845,0.01483 -1.21301,-0.204937 z"
           id="path859"
           inkscape:connector-curvature="0" />
        <path
           style="opacity:1;fill:#d5c16d;fill-opacity:1;stroke:#000000;stroke-width:0.00083517;stroke-linejoin:miter;stroke-miterlimit:4;stroke-dasharray:none;stroke-opacity:1"
           d="m -225.36783,23.336718 -2.55221,-1.474797 -0.006,-1.463149 c -0.003,-0.804732 -0.001,-1.463149 0.004,-1.463149 0.005,0 1.16124,0.66503 2.56894,1.477844 l 2.55946,1.477844 0.006,1.461069 c 0.003,0.803587 -0.002,1.460633 -0.0111,1.460101 -0.009,-5.32e-4 -1.16523,-0.664625 -2.56895,-1.475763 z"
           id="path861"
           inkscape:connector-curvature="0" />
        <path
           style="fill:none;stroke:#000000;stroke-width:0.03779528;stroke-linecap:butt;stroke-linejoin:miter;stroke-miterlimit:4;stroke-dasharray:none;stroke-opacity:1"
           d="m -227.08452,20.379076 v 1 l 0.86602,0.5 v -1 z"
           id="path863"
           inkscape:connector-curvature="0" />
        <path
           inkscape:connector-curvature="0"
           id="path865"
           d="m -227.08452,20.379076 v 1 l 0.86602,0.5 v -1 z"
           style="fill:none;stroke:#000000;stroke-width:0.03779528;stroke-linecap:butt;stroke-linejoin:miter;stroke-miterlimit:4;stroke-dasharray:none;stroke-opacity:1" />
        <path
           inkscape:connector-curvature="0"
           id="path867"
           d="m -224.48645,21.879076 v 1 l 0.86602,0.5 v -1 z"
           style="fill:none;stroke:#000000;stroke-width:0.03779528;stroke-linecap:butt;stroke-linejoin:miter;stroke-miterlimit:4;stroke-dasharray:none;stroke-opacity:1" />
        <path
           style="fill:none;stroke:#000000;stroke-width:0.03779528;stroke-linecap:butt;stroke-linejoin:miter;stroke-miterlimit:4;stroke-dasharray:none;stroke-opacity:1"
           d="m -224.48645,21.879076 v 1 l 0.86602,0.5 v -1 z"
           id="path869"
           inkscape:connector-curvature="0" />
        <path
           style="opacity:1;fill:#666666;fill-opacity:1;stroke:#000000;stroke-width:0.00083517;stroke-linejoin:miter;stroke-miterlimit:4;stroke-dasharray:none;stroke-opacity:1"
           d="m -224.05858,23.090916 -0.40327,-0.232324 V 22.39971 c 0,-0.252386 0.005,-0.458883 0.0118,-0.458883 0.0288,0 0.78877,0.451465 0.79727,0.473614 0.005,0.01362 0.007,0.223671 0.004,0.466781 l -0.006,0.442017 z"
           id="path871"
           inkscape:connector-curvature="0" />
        <path
           style="opacity:1;fill:#666666;fill-opacity:1;stroke:#000000;stroke-width:0.00083517;stroke-linejoin:miter;stroke-miterlimit:4;stroke-dasharray:none;stroke-opacity:1"
           d="m -226.66051,21.589151 -0.37565,-0.218246 -0.006,-0.468421 -0.006,-0.468421 0.11646,0.06819 c 0.0641,0.0375 0.2432,0.140363 0.39811,0.228576 l 0.28166,0.160388 8e-5,0.458515 c 4e-5,0.252183 -0.007,0.458323 -0.0165,0.45809 -0.009,-2.33e-4 -0.18561,-0.09863 -0.39222,-0.218669 z"
           id="path873-5"
           inkscape:connector-curvature="0" />
      </g>
    </g>
  </g>
  <g
     inkscape:groupmode="layer"
     id="layer2"
     inkscape:label="Layer 2" />
</svg>
