<?xml version="1.0" encoding="UTF-8" standalone="no"?>
<!-- Created with Inkscape (http://www.inkscape.org/) -->

<svg
   xmlns:dc="http://purl.org/dc/elements/1.1/"
   xmlns:cc="http://creativecommons.org/ns#"
   xmlns:rdf="http://www.w3.org/1999/02/22-rdf-syntax-ns#"
   xmlns:svg="http://www.w3.org/2000/svg"
   xmlns="http://www.w3.org/2000/svg"
   xmlns:sodipodi="http://sodipodi.sourceforge.net/DTD/sodipodi-0.dtd"
   xmlns:inkscape="http://www.inkscape.org/namespaces/inkscape"
   width="150.0"
   height="150.0"
   viewBox="-242.660720 -109.645830 150.000000 150.000000"
   version="1.1"
   id="svg8"
   sodipodi:docname="city_ground_2.svg"
   inkscape:version="0.92.2 5c3e80d, 2017-08-06">
  <sodipodi:namedview
     id="base"
     pagecolor="#ffffff"
     bordercolor="#666666"
     borderopacity="1.0"
     inkscape:pageopacity="0.0"
     inkscape:pageshadow="2"
     inkscape:zoom="2.8284271"
     inkscape:cx="163.58399"
     inkscape:cy="42.821924"
     inkscape:document-units="mm"
     inkscape:current-layer="layer1"
     showgrid="false"
     inkscape:window-width="2560"
     inkscape:window-height="1380"
     inkscape:window-x="0"
     inkscape:window-y="0"
     inkscape:window-maximized="1"
     inkscape:measure-start="-8.25195e-07,39.6875"
     inkscape:measure-end="39.6875,39.6875"
     gridtolerance="1"
     objecttolerance="1"
     guidetolerance="1" />
  <defs
     id="defs2">
    <clipPath
       clipPathUnits="userSpaceOnUse"
       id="clipPath1069">
      <rect
         style="opacity:1;fill:#806600;fill-opacity:1;stroke:#000000;stroke-width:0;stroke-linejoin:miter;stroke-miterlimit:4;stroke-dasharray:none;stroke-opacity:1"
         id="rect1071"
         width="150"
         height="150"
         x="-242.66072"
         y="-109.64583"
         ry="0" />
    </clipPath>
    <clipPath
       clipPathUnits="userSpaceOnUse"
       id="clipPath1073">
      <rect
         style="opacity:1;fill:#806600;fill-opacity:1;stroke:#000000;stroke-width:0;stroke-linejoin:miter;stroke-miterlimit:4;stroke-dasharray:none;stroke-opacity:1"
         id="rect1075"
         width="150"
         height="150"
         x="-242.66072"
         y="-109.64583"
         ry="0" />
    </clipPath>
    <clipPath
       clipPathUnits="userSpaceOnUse"
       id="clipPath1077">
      <rect
         style="opacity:1;fill:#806600;fill-opacity:1;stroke:#000000;stroke-width:0;stroke-linejoin:miter;stroke-miterlimit:4;stroke-dasharray:none;stroke-opacity:1"
         id="rect1079"
         width="150"
         height="150"
         x="-242.66072"
         y="-109.64583"
         ry="0" />
    </clipPath>
    <clipPath
       clipPathUnits="userSpaceOnUse"
       id="clipPath1081">
      <rect
         style="opacity:1;fill:#806600;fill-opacity:1;stroke:#000000;stroke-width:0;stroke-linejoin:miter;stroke-miterlimit:4;stroke-dasharray:none;stroke-opacity:1"
         id="rect1083"
         width="150"
         height="150"
         x="-242.66072"
         y="-109.64583"
         ry="0" />
    </clipPath>
    <clipPath
       clipPathUnits="userSpaceOnUse"
       id="clipPath1085">
      <rect
         style="opacity:1;fill:#806600;fill-opacity:1;stroke:#000000;stroke-width:0;stroke-linejoin:miter;stroke-miterlimit:4;stroke-dasharray:none;stroke-opacity:1"
         id="rect1087"
         width="150"
         height="150"
         x="-242.66072"
         y="-109.64583"
         ry="0" />
    </clipPath>
    <clipPath
       clipPathUnits="userSpaceOnUse"
       id="clipPath1089">
      <rect
         style="opacity:1;fill:#806600;fill-opacity:1;stroke:#000000;stroke-width:0;stroke-linejoin:miter;stroke-miterlimit:4;stroke-dasharray:none;stroke-opacity:1"
         id="rect1091"
         width="150"
         height="150"
         x="-242.66072"
         y="-109.64583"
         ry="0" />
    </clipPath>
    <clipPath
       clipPathUnits="userSpaceOnUse"
       id="clipPath1093">
      <rect
         style="opacity:1;fill:#806600;fill-opacity:1;stroke:#000000;stroke-width:0;stroke-linejoin:miter;stroke-miterlimit:4;stroke-dasharray:none;stroke-opacity:1"
         id="rect1095"
         width="150"
         height="150"
         x="-242.66072"
         y="-109.64583"
         ry="0" />
    </clipPath>
    <clipPath
       clipPathUnits="userSpaceOnUse"
       id="clipPath1097">
      <rect
         style="opacity:1;fill:#806600;fill-opacity:1;stroke:#000000;stroke-width:0;stroke-linejoin:miter;stroke-miterlimit:4;stroke-dasharray:none;stroke-opacity:1"
         id="rect1099"
         width="150"
         height="150"
         x="-242.66072"
         y="-109.64583"
         ry="0" />
    </clipPath>
    <clipPath
       clipPathUnits="userSpaceOnUse"
       id="clipPath1101">
      <rect
         style="opacity:1;fill:#806600;fill-opacity:1;stroke:#000000;stroke-width:0;stroke-linejoin:miter;stroke-miterlimit:4;stroke-dasharray:none;stroke-opacity:1"
         id="rect1103"
         width="150"
         height="150"
         x="-242.66072"
         y="-109.64583"
         ry="0" />
    </clipPath>
    <clipPath
       clipPathUnits="userSpaceOnUse"
       id="clipPath1105">
      <rect
         style="opacity:1;fill:#806600;fill-opacity:1;stroke:#000000;stroke-width:0;stroke-linejoin:miter;stroke-miterlimit:4;stroke-dasharray:none;stroke-opacity:1"
         id="rect1107"
         width="150"
         height="150"
         x="-242.66072"
         y="-109.64583"
         ry="0" />
    </clipPath>
    <clipPath
       clipPathUnits="userSpaceOnUse"
       id="clipPath1109">
      <rect
         style="opacity:1;fill:#806600;fill-opacity:1;stroke:#000000;stroke-width:0;stroke-linejoin:miter;stroke-miterlimit:4;stroke-dasharray:none;stroke-opacity:1"
         id="rect1111"
         width="150"
         height="150"
         x="-242.66072"
         y="-109.64583"
         ry="0" />
    </clipPath>
    <clipPath
       clipPathUnits="userSpaceOnUse"
       id="clipPath1113">
      <rect
         style="opacity:1;fill:#806600;fill-opacity:1;stroke:#000000;stroke-width:0;stroke-linejoin:miter;stroke-miterlimit:4;stroke-dasharray:none;stroke-opacity:1"
         id="rect1115"
         width="150"
         height="150"
         x="-242.66072"
         y="-109.64583"
         ry="0" />
    </clipPath>
    <clipPath
       clipPathUnits="userSpaceOnUse"
       id="clipPath1117">
      <rect
         style="opacity:1;fill:#806600;fill-opacity:1;stroke:#000000;stroke-width:0;stroke-linejoin:miter;stroke-miterlimit:4;stroke-dasharray:none;stroke-opacity:1"
         id="rect1119"
         width="150"
         height="150"
         x="-242.66072"
         y="-109.64583"
         ry="0" />
    </clipPath>
    <clipPath
       clipPathUnits="userSpaceOnUse"
       id="clipPath1121">
      <rect
         style="opacity:1;fill:#806600;fill-opacity:1;stroke:#000000;stroke-width:0;stroke-linejoin:miter;stroke-miterlimit:4;stroke-dasharray:none;stroke-opacity:1"
         id="rect1123"
         width="150"
         height="150"
         x="-242.66072"
         y="-109.64583"
         ry="0" />
    </clipPath>
    <clipPath
       clipPathUnits="userSpaceOnUse"
       id="clipPath1125">
      <rect
         style="opacity:1;fill:#806600;fill-opacity:1;stroke:#000000;stroke-width:0;stroke-linejoin:miter;stroke-miterlimit:4;stroke-dasharray:none;stroke-opacity:1"
         id="rect1127"
         width="150"
         height="150"
         x="-242.66072"
         y="-109.64583"
         ry="0" />
    </clipPath>
    <clipPath
       clipPathUnits="userSpaceOnUse"
       id="clipPath1129">
      <rect
         style="opacity:1;fill:#806600;fill-opacity:1;stroke:#000000;stroke-width:0;stroke-linejoin:miter;stroke-miterlimit:4;stroke-dasharray:none;stroke-opacity:1"
         id="rect1131"
         width="150"
         height="150"
         x="-242.66072"
         y="-109.64583"
         ry="0" />
    </clipPath>
    <clipPath
       clipPathUnits="userSpaceOnUse"
       id="clipPath1133">
      <rect
         style="opacity:1;fill:#806600;fill-opacity:1;stroke:#000000;stroke-width:0;stroke-linejoin:miter;stroke-miterlimit:4;stroke-dasharray:none;stroke-opacity:1"
         id="rect1135"
         width="150"
         height="150"
         x="-242.66072"
         y="-109.64583"
         ry="0" />
    </clipPath>
    <clipPath
       clipPathUnits="userSpaceOnUse"
       id="clipPath1137">
      <rect
         style="opacity:1;fill:#806600;fill-opacity:1;stroke:#000000;stroke-width:0;stroke-linejoin:miter;stroke-miterlimit:4;stroke-dasharray:none;stroke-opacity:1"
         id="rect1139"
         width="150"
         height="150"
         x="-242.66072"
         y="-109.64583"
         ry="0" />
    </clipPath>
    <clipPath
       clipPathUnits="userSpaceOnUse"
       id="clipPath1141">
      <rect
         style="opacity:1;fill:#806600;fill-opacity:1;stroke:#000000;stroke-width:0;stroke-linejoin:miter;stroke-miterlimit:4;stroke-dasharray:none;stroke-opacity:1"
         id="rect1143"
         width="150"
         height="150"
         x="-242.66072"
         y="-109.64583"
         ry="0" />
    </clipPath>
    <clipPath
       clipPathUnits="userSpaceOnUse"
       id="clipPath1145">
      <rect
         style="opacity:1;fill:#806600;fill-opacity:1;stroke:#000000;stroke-width:0;stroke-linejoin:miter;stroke-miterlimit:4;stroke-dasharray:none;stroke-opacity:1"
         id="rect1147"
         width="150"
         height="150"
         x="-242.66072"
         y="-109.64583"
         ry="0" />
    </clipPath>
    <clipPath
       clipPathUnits="userSpaceOnUse"
       id="clipPath1149">
      <rect
         style="opacity:1;fill:#806600;fill-opacity:1;stroke:#000000;stroke-width:0;stroke-linejoin:miter;stroke-miterlimit:4;stroke-dasharray:none;stroke-opacity:1"
         id="rect1151"
         width="150"
         height="150"
         x="-242.66072"
         y="-109.64583"
         ry="0" />
    </clipPath>
    <clipPath
       clipPathUnits="userSpaceOnUse"
       id="clipPath1153">
      <rect
         style="opacity:1;fill:#806600;fill-opacity:1;stroke:#000000;stroke-width:0;stroke-linejoin:miter;stroke-miterlimit:4;stroke-dasharray:none;stroke-opacity:1"
         id="rect1155"
         width="150"
         height="150"
         x="-242.66072"
         y="-109.64583"
         ry="0" />
    </clipPath>
    <clipPath
       clipPathUnits="userSpaceOnUse"
       id="clipPath1157">
      <rect
         style="opacity:1;fill:#806600;fill-opacity:1;stroke:#000000;stroke-width:0;stroke-linejoin:miter;stroke-miterlimit:4;stroke-dasharray:none;stroke-opacity:1"
         id="rect1159"
         width="150"
         height="150"
         x="-242.66072"
         y="-109.64583"
         ry="0" />
    </clipPath>
    <clipPath
       clipPathUnits="userSpaceOnUse"
       id="clipPath1161">
      <rect
         style="opacity:1;fill:#806600;fill-opacity:1;stroke:#000000;stroke-width:0;stroke-linejoin:miter;stroke-miterlimit:4;stroke-dasharray:none;stroke-opacity:1"
         id="rect1163"
         width="150"
         height="150"
         x="-242.66072"
         y="-109.64583"
         ry="0" />
    </clipPath>
    <clipPath
       clipPathUnits="userSpaceOnUse"
       id="clipPath1165">
      <rect
         style="opacity:1;fill:#806600;fill-opacity:1;stroke:#000000;stroke-width:0;stroke-linejoin:miter;stroke-miterlimit:4;stroke-dasharray:none;stroke-opacity:1"
         id="rect1167"
         width="150"
         height="150"
         x="-242.66072"
         y="-109.64583"
         ry="0" />
    </clipPath>
    <clipPath
       clipPathUnits="userSpaceOnUse"
       id="clipPath1169">
      <rect
         style="opacity:1;fill:#806600;fill-opacity:1;stroke:#000000;stroke-width:0;stroke-linejoin:miter;stroke-miterlimit:4;stroke-dasharray:none;stroke-opacity:1"
         id="rect1171"
         width="150"
         height="150"
         x="-242.66072"
         y="-109.64583"
         ry="0" />
    </clipPath>
    <clipPath
       clipPathUnits="userSpaceOnUse"
       id="clipPath1173">
      <rect
         style="opacity:1;fill:#806600;fill-opacity:1;stroke:#000000;stroke-width:0;stroke-linejoin:miter;stroke-miterlimit:4;stroke-dasharray:none;stroke-opacity:1"
         id="rect1175"
         width="150"
         height="150"
         x="-242.66072"
         y="-109.64583"
         ry="0" />
    </clipPath>
    <clipPath
       clipPathUnits="userSpaceOnUse"
       id="clipPath1177">
      <rect
         style="opacity:1;fill:#806600;fill-opacity:1;stroke:#000000;stroke-width:0;stroke-linejoin:miter;stroke-miterlimit:4;stroke-dasharray:none;stroke-opacity:1"
         id="rect1179"
         width="150"
         height="150"
         x="-242.66072"
         y="-109.64583"
         ry="0" />
    </clipPath>
    <clipPath
       clipPathUnits="userSpaceOnUse"
       id="clipPath1181">
      <rect
         style="opacity:1;fill:#806600;fill-opacity:1;stroke:#000000;stroke-width:0;stroke-linejoin:miter;stroke-miterlimit:4;stroke-dasharray:none;stroke-opacity:1"
         id="rect1183"
         width="150"
         height="150"
         x="-242.66072"
         y="-109.64583"
         ry="0" />
    </clipPath>
    <clipPath
       clipPathUnits="userSpaceOnUse"
       id="clipPath1185">
      <rect
         style="opacity:1;fill:#806600;fill-opacity:1;stroke:#000000;stroke-width:0;stroke-linejoin:miter;stroke-miterlimit:4;stroke-dasharray:none;stroke-opacity:1"
         id="rect1187"
         width="150"
         height="150"
         x="-242.66072"
         y="-109.64583"
         ry="0" />
    </clipPath>
    <clipPath
       clipPathUnits="userSpaceOnUse"
       id="clipPath1189">
      <rect
         style="opacity:1;fill:#806600;fill-opacity:1;stroke:#000000;stroke-width:0;stroke-linejoin:miter;stroke-miterlimit:4;stroke-dasharray:none;stroke-opacity:1"
         id="rect1191"
         width="150"
         height="150"
         x="-242.66072"
         y="-109.64583"
         ry="0" />
    </clipPath>
    <clipPath
       clipPathUnits="userSpaceOnUse"
       id="clipPath1193">
      <rect
         style="opacity:1;fill:#806600;fill-opacity:1;stroke:#000000;stroke-width:0;stroke-linejoin:miter;stroke-miterlimit:4;stroke-dasharray:none;stroke-opacity:1"
         id="rect1195"
         width="150"
         height="150"
         x="-242.66072"
         y="-109.64583"
         ry="0" />
    </clipPath>
    <clipPath
       clipPathUnits="userSpaceOnUse"
       id="clipPath1197">
      <rect
         style="opacity:1;fill:#806600;fill-opacity:1;stroke:#000000;stroke-width:0;stroke-linejoin:miter;stroke-miterlimit:4;stroke-dasharray:none;stroke-opacity:1"
         id="rect1199"
         width="150"
         height="150"
         x="-242.66072"
         y="-109.64583"
         ry="0" />
    </clipPath>
    <clipPath
       clipPathUnits="userSpaceOnUse"
       id="clipPath1201">
      <rect
         style="opacity:1;fill:#806600;fill-opacity:1;stroke:#000000;stroke-width:0;stroke-linejoin:miter;stroke-miterlimit:4;stroke-dasharray:none;stroke-opacity:1"
         id="rect1203"
         width="150"
         height="150"
         x="-242.66072"
         y="-109.64583"
         ry="0" />
    </clipPath>
    <clipPath
       clipPathUnits="userSpaceOnUse"
       id="clipPath1205">
      <rect
         style="opacity:1;fill:#806600;fill-opacity:1;stroke:#000000;stroke-width:0;stroke-linejoin:miter;stroke-miterlimit:4;stroke-dasharray:none;stroke-opacity:1"
         id="rect1207"
         width="150"
         height="150"
         x="-242.66072"
         y="-109.64583"
         ry="0" />
    </clipPath>
    <clipPath
       clipPathUnits="userSpaceOnUse"
       id="clipPath1209">
      <rect
         style="opacity:1;fill:#806600;fill-opacity:1;stroke:#000000;stroke-width:0;stroke-linejoin:miter;stroke-miterlimit:4;stroke-dasharray:none;stroke-opacity:1"
         id="rect1211"
         width="150"
         height="150"
         x="-242.66072"
         y="-109.64583"
         ry="0" />
    </clipPath>
    <clipPath
       clipPathUnits="userSpaceOnUse"
       id="clipPath1213">
      <rect
         style="opacity:1;fill:#806600;fill-opacity:1;stroke:#000000;stroke-width:0;stroke-linejoin:miter;stroke-miterlimit:4;stroke-dasharray:none;stroke-opacity:1"
         id="rect1215"
         width="150"
         height="150"
         x="-242.66072"
         y="-109.64583"
         ry="0" />
    </clipPath>
    <clipPath
       clipPathUnits="userSpaceOnUse"
       id="clipPath1217">
      <rect
         style="opacity:1;fill:#806600;fill-opacity:1;stroke:#000000;stroke-width:0;stroke-linejoin:miter;stroke-miterlimit:4;stroke-dasharray:none;stroke-opacity:1"
         id="rect1219"
         width="150"
         height="150"
         x="-242.66072"
         y="-109.64583"
         ry="0" />
    </clipPath>
    <clipPath
       clipPathUnits="userSpaceOnUse"
       id="clipPath1221">
      <rect
         style="opacity:1;fill:#806600;fill-opacity:1;stroke:#000000;stroke-width:0;stroke-linejoin:miter;stroke-miterlimit:4;stroke-dasharray:none;stroke-opacity:1"
         id="rect1223"
         width="150"
         height="150"
         x="-242.66072"
         y="-109.64583"
         ry="0" />
    </clipPath>
    <clipPath
       clipPathUnits="userSpaceOnUse"
       id="clipPath1225">
      <rect
         style="opacity:1;fill:#806600;fill-opacity:1;stroke:#000000;stroke-width:0;stroke-linejoin:miter;stroke-miterlimit:4;stroke-dasharray:none;stroke-opacity:1"
         id="rect1227"
         width="150"
         height="150"
         x="-242.66072"
         y="-109.64583"
         ry="0" />
    </clipPath>
  </defs>
  <metadata
     id="metadata5">
    <rdf:RDF>
      <cc:Work
         rdf:about="">
        <dc:format>image/svg+xml</dc:format>
        <dc:type
           rdf:resource="http://purl.org/dc/dcmitype/StillImage" />
        <dc:title></dc:title>
      </cc:Work>
    </rdf:RDF>
  </metadata>
  <g
     inkscape:label="Layer 1"
     inkscape:groupmode="layer"
     id="layer1">
    <rect
       ry="0"
       y="-109.64583"
       x="-242.66072"
       height="150"
       width="150"
       id="rect842"
       style="opacity:1;fill:#806600;fill-opacity:1;stroke:#000000;stroke-width:0;stroke-linejoin:miter;stroke-miterlimit:4;stroke-dasharray:none;stroke-opacity:1"
       clip-path="url(#clipPath1225)" />
    <path
       style="fill:#aa8800;fill-opacity:0.19607843;stroke:#000000;stroke-width:0;stroke-linecap:butt;stroke-linejoin:miter;stroke-miterlimit:4;stroke-dasharray:none;stroke-opacity:1"
       d="m -242.04698,-124.40171 c -4.72354,-0.053 -9.46704,0.21003 -14.14032,-0.39357 -2.88141,0.34286 -5.99109,-0.20982 -6.71933,-2.78841 0.47283,-3.17508 -4.42947,-5.37885 -6.92124,-5.4173 -2.59628,-0.46601 -5.44888,0.93683 -6.51379,3.29598 -0.84639,2.03178 -0.12321,5.39165 0,7.77817 1.96206,2.81923 0.64035,7.98153 5.30331,8.48528 3.61527,1.74582 8.37187,4.35326 4.94974,8.83884 -0.75538,3.38598 -3.01893,5.229715 -5.3033,8.131728 -3.47375,1.695419 -7.06626,2.049066 -9.19239,3.889087 -1.88857,0.639856 -3.10838,1.320241 -5.64267,2.556174 -2.91104,1.284401 -3.44301,5.323603 -3.52127,8.662172 -0.86366,2.507729 0.32099,4.986603 -0.0284,7.682001 0.14459,3.128715 -0.35174,6.390243 0.38935,9.388943 1.00972,1.945171 4.5528,3.613844 7.56067,3.530515 3.3134,-0.05371 6.23126,0.546049 9.46051,-0.117021 1.85931,-1.653747 3.78852,-2.563598 4.86333,-4.832726 1.04113,-3.527287 0.40085,-6.917632 3.18724,-9.442268 2.29414,-0.87961 4.85332,-4.181777 8.48001,-3.639207 4.3843,-0.0091 8.78231,-0.273788 12.72792,1.767767 3.54753,1.05994 7.09033,1.838735 10.60661,3.535534 2.6551,1.07199 5.49665,1.154711 8.52617,1.06066 1.96938,-0.192563 3.2202,-1.776274 3.14109,-3.828522 0.19067,-2.622714 -2.18693,-3.399685 -2.12132,-6.424526 -1.93383,-2.250745 -5.19579,-4.3292 -6.36396,-6.363962 -1.62837,-1.851137 -3.49593,-4.456219 -6.01041,-4.949748 0.53802,-3.79458 4.48727,-4.812134 7.07107,-5.656854 4.69392,-1.425817 9.9107,-0.09345 14.49568,1.767767 2.03292,0.168417 7.24496,1.446393 9.8995,2.828427 3.92706,1.0291 7.7985,3.291667 12.1321,3.181981 5.24162,1.993648 7.90202,-2.553484 10.7134,-6.032603 1.48851,-2.853679 2.03088,-5.599079 1.90324,-8.867369 0.48247,-4.21827 -2.51603,-7.2635 -5.45267,-9.52262 -2.07486,-0.52432 -4.19309,-2.38746 -7.42265,-2.4676 -4.66461,0.0445 -9.32986,0.008 -13.99474,0.0201 -1.4476,-3.9982 -6.36835,-6.01353 -6.71752,-10.25305 -0.002,-2.94365 -0.001,-5.89884 0,-8.83883 1.43907,-2.40471 2.02239,-5.41988 1.76777,-8.48528 -0.22745,-3.51511 -2.18797,-6.75146 -5.3033,-8.13174 -2.3938,-1.38557 -5.18775,-1.57277 -8.07115,-1.41421 -2.79901,-0.20385 -5.36982,0.34041 -7.83875,1.06066 -3.31654,0.34088 -6.25478,1.19606 -8.83054,3.01668 -2.99275,1.42399 -6.61264,4.69382 -6.04401,8.52231 1.56992,3.60681 6.10901,5.43541 9.21769,7.90645 2.56849,1.17782 4.07805,3.15313 4.24264,5.3033 0.48588,3.28203 -1.44419,4.10946 -4.24264,3.88909 -0.97662,1.05461 -4.01396,-0.80398 -4.24264,1.76777 z"
       id="path873"
       inkscape:connector-curvature="0"
       clip-path="url(#clipPath1221)" />
    <path
       inkscape:connector-curvature="0"
       id="path988"
       d="m -92.04698,-124.40171 c -4.72354,-0.053 -9.46704,0.21003 -14.14032,-0.39357 -2.88141,0.34286 -5.99109,-0.20982 -6.71933,-2.78841 0.47283,-3.17508 -4.42947,-5.37885 -6.92124,-5.4173 -2.59628,-0.46601 -5.44888,0.93683 -6.51379,3.29598 -0.84639,2.03178 -0.12321,5.39165 0,7.77817 1.96206,2.81923 0.64035,7.98153 5.30331,8.48528 3.61527,1.74582 8.37187,4.35326 4.94974,8.83884 -0.75538,3.38598 -3.01893,5.229715 -5.3033,8.131728 -3.47375,1.695419 -7.06626,2.049066 -9.19239,3.889087 -1.88857,0.639856 -3.10838,1.320241 -5.64267,2.556174 -2.91104,1.284401 -3.44301,5.323603 -3.52127,8.662172 -0.86366,2.507729 0.32099,4.986603 -0.0284,7.682001 0.14459,3.128715 -0.35174,6.390243 0.38935,9.388943 1.00972,1.945171 4.5528,3.613844 7.56067,3.530515 3.3134,-0.05371 6.23126,0.546049 9.46051,-0.117021 1.85931,-1.653747 3.78852,-2.563598 4.86333,-4.832726 1.04113,-3.527287 0.40085,-6.917632 3.18724,-9.442268 2.29414,-0.87961 4.85332,-4.181777 8.48001,-3.639207 4.3843,-0.0091 8.78231,-0.273788 12.72792,1.767767 3.54753,1.05994 7.09033,1.838735 10.60661,3.535534 2.6551,1.07199 5.49665,1.154711 8.52617,1.06066 1.96938,-0.192563 3.2202,-1.776274 3.14109,-3.828522 0.19067,-2.622714 -2.18693,-3.399685 -2.12132,-6.424526 -1.93383,-2.250745 -5.19579,-4.3292 -6.36396,-6.363962 -1.62837,-1.851137 -3.49593,-4.456219 -6.01041,-4.949748 0.53802,-3.79458 4.48727,-4.812134 7.07107,-5.656854 4.69392,-1.425817 9.9107,-0.09345 14.49568,1.767767 2.03292,0.168417 7.24496,1.446393 9.8995,2.828427 3.92706,1.0291 7.7985,3.291667 12.1321,3.181981 5.24162,1.993648 7.90202,-2.553484 10.7134,-6.032603 1.48851,-2.853679 2.03088,-5.599079 1.90324,-8.867369 0.48247,-4.21827 -2.51603,-7.2635 -5.45267,-9.52262 -2.07486,-0.52432 -4.19309,-2.38746 -7.42265,-2.4676 -4.66461,0.0445 -9.32986,0.008 -13.99474,0.0201 -1.4476,-3.9982 -6.36835,-6.01353 -6.71752,-10.25305 -0.002,-2.94365 -0.001,-5.89884 0,-8.83883 1.43907,-2.40471 2.02239,-5.41988 1.76777,-8.48528 -0.22745,-3.51511 -2.18797,-6.75146 -5.3033,-8.13174 -2.3938,-1.38557 -5.18775,-1.57277 -8.07115,-1.41421 -2.79901,-0.20385 -5.36982,0.34041 -7.83875,1.06066 -3.31654,0.34088 -6.25478,1.19606 -8.83054,3.01668 -2.99275,1.42399 -6.61264,4.69382 -6.04401,8.52231 1.56992,3.60681 6.10901,5.43541 9.21769,7.90645 2.56849,1.17782 4.07805,3.15313 4.24264,5.3033 0.48588,3.28203 -1.44419,4.10946 -4.24264,3.88909 -0.97662,1.05461 -4.01396,-0.80398 -4.24264,1.76777 z"
       style="fill:#aa8800;fill-opacity:0.19607843;stroke:#000000;stroke-width:0;stroke-linecap:butt;stroke-linejoin:miter;stroke-miterlimit:4;stroke-dasharray:none;stroke-opacity:1"
       clip-path="url(#clipPath1217)" />
    <path
       inkscape:connector-curvature="0"
       id="path990"
       d="m -242.04698,25.59829 c -4.72354,-0.053 -9.46704,0.21003 -14.14032,-0.39357 -2.88141,0.34286 -5.99109,-0.20982 -6.71933,-2.78841 0.47283,-3.17508 -4.42947,-5.37885 -6.92124,-5.4173 -2.59628,-0.46601 -5.44888,0.93683 -6.51379,3.29598 -0.84639,2.03178 -0.12321,5.39165 0,7.77817 1.96206,2.81923 0.64035,7.98153 5.30331,8.48528 3.61527,1.74582 8.37187,4.35326 4.94974,8.83884 -0.75538,3.38598 -3.01893,5.229715 -5.3033,8.131728 -3.47375,1.695419 -7.06626,2.049066 -9.19239,3.889087 -1.88857,0.639856 -3.10838,1.320241 -5.64267,2.556174 -2.91104,1.284401 -3.44301,5.323603 -3.52127,8.662172 -0.86366,2.507729 0.32099,4.986603 -0.0284,7.682001 0.14459,3.128715 -0.35174,6.390243 0.38935,9.388943 1.00972,1.945171 4.5528,3.613844 7.56067,3.530515 3.3134,-0.05371 6.23126,0.546049 9.46051,-0.117021 1.85931,-1.653747 3.78852,-2.563598 4.86333,-4.832726 1.04113,-3.527287 0.40085,-6.917632 3.18724,-9.442268 2.29414,-0.87961 4.85332,-4.181777 8.48001,-3.639207 4.3843,-0.0091 8.78231,-0.273788 12.72792,1.767767 3.54753,1.05994 7.09033,1.838735 10.60661,3.535534 2.6551,1.07199 5.49665,1.154711 8.52617,1.06066 1.96938,-0.192563 3.2202,-1.776274 3.14109,-3.828522 0.19067,-2.622714 -2.18693,-3.399685 -2.12132,-6.424526 -1.93383,-2.250745 -5.19579,-4.3292 -6.36396,-6.363962 -1.62837,-1.851137 -3.49593,-4.456219 -6.01041,-4.949748 0.53802,-3.79458 4.48727,-4.812134 7.07107,-5.656854 4.69392,-1.425817 9.9107,-0.09345 14.49568,1.767767 2.03292,0.168417 7.24496,1.446393 9.8995,2.828427 3.92706,1.0291 7.7985,3.291667 12.1321,3.181981 5.24162,1.993648 7.90202,-2.553484 10.7134,-6.032603 1.48851,-2.853679 2.03088,-5.599079 1.90324,-8.867369 0.48247,-4.21827 -2.51603,-7.2635 -5.45267,-9.52262 -2.07486,-0.52432 -4.19309,-2.38746 -7.42265,-2.4676 -4.66461,0.0445 -9.32986,0.008 -13.99474,0.0201 -1.4476,-3.9982 -6.36835,-6.01353 -6.71752,-10.25305 -0.002,-2.94365 -0.001,-5.89884 0,-8.83883 1.43907,-2.40471 2.02239,-5.41988 1.76777,-8.48528 -0.22745,-3.51511 -2.18797,-6.75146 -5.3033,-8.13174 -2.3938,-1.38557 -5.18775,-1.57277 -8.07115,-1.41421 -2.79901,-0.20385 -5.36982,0.34041 -7.83875,1.06066 -3.31654,0.34088 -6.25478,1.19606 -8.83054,3.01668 -2.99275,1.42399 -6.61264,4.69382 -6.04401,8.52231 1.56992,3.60681 6.10901,5.43541 9.21769,7.90645 2.56849,1.17782 4.07805,3.15313 4.24264,5.3033 0.48588,3.28203 -1.44419,4.10946 -4.24264,3.88909 -0.97662,1.05461 -4.01396,-0.80398 -4.24264,1.76777 z"
       style="fill:#aa8800;fill-opacity:0.19607843;stroke:#000000;stroke-width:0;stroke-linecap:butt;stroke-linejoin:miter;stroke-miterlimit:4;stroke-dasharray:none;stroke-opacity:1"
       clip-path="url(#clipPath1213)" />
    <path
       style="fill:#aa8800;fill-opacity:0.19607843;stroke:#000000;stroke-width:0;stroke-linecap:butt;stroke-linejoin:miter;stroke-miterlimit:4;stroke-dasharray:none;stroke-opacity:1"
       d="m -92.04698,25.59829 c -4.72354,-0.053 -9.46704,0.21003 -14.14032,-0.39357 -2.88141,0.34286 -5.99109,-0.20982 -6.71933,-2.78841 0.47283,-3.17508 -4.42947,-5.37885 -6.92124,-5.4173 -2.59628,-0.46601 -5.44888,0.93683 -6.51379,3.29598 -0.84639,2.03178 -0.12321,5.39165 0,7.77817 1.96206,2.81923 0.64035,7.98153 5.30331,8.48528 3.61527,1.74582 8.37187,4.35326 4.94974,8.83884 -0.75538,3.38598 -3.01893,5.229715 -5.3033,8.131728 -3.47375,1.695419 -7.06626,2.049066 -9.19239,3.889087 -1.88857,0.639856 -3.10838,1.320241 -5.64267,2.556174 -2.91104,1.284401 -3.44301,5.323603 -3.52127,8.662172 -0.86366,2.507729 0.32099,4.986603 -0.0284,7.682001 0.14459,3.128715 -0.35174,6.390243 0.38935,9.388943 1.00972,1.945171 4.5528,3.613844 7.56067,3.530515 3.3134,-0.05371 6.23126,0.546049 9.46051,-0.117021 1.85931,-1.653747 3.78852,-2.563598 4.86333,-4.832726 1.04113,-3.527287 0.40085,-6.917632 3.18724,-9.442268 2.29414,-0.87961 4.85332,-4.181777 8.48001,-3.639207 4.3843,-0.0091 8.78231,-0.273788 12.72792,1.767767 3.54753,1.05994 7.09033,1.838735 10.60661,3.535534 2.6551,1.07199 5.49665,1.154711 8.52617,1.06066 1.96938,-0.192563 3.2202,-1.776274 3.14109,-3.828522 0.19067,-2.622714 -2.18693,-3.399685 -2.12132,-6.424526 -1.93383,-2.250745 -5.19579,-4.3292 -6.36396,-6.363962 -1.62837,-1.851137 -3.49593,-4.456219 -6.01041,-4.949748 0.53802,-3.79458 4.48727,-4.812134 7.07107,-5.656854 4.69392,-1.425817 9.9107,-0.09345 14.49568,1.767767 2.03292,0.168417 7.24496,1.446393 9.8995,2.828427 3.92706,1.0291 7.7985,3.291667 12.1321,3.181981 5.24162,1.993648 7.90202,-2.553484 10.7134,-6.032603 1.48851,-2.853679 2.03088,-5.599079 1.90324,-8.867369 0.48247,-4.21827 -2.51603,-7.2635 -5.45267,-9.52262 -2.07486,-0.52432 -4.19309,-2.38746 -7.42265,-2.4676 -4.66461,0.0445 -9.32986,0.008 -13.99474,0.0201 -1.4476,-3.9982 -6.36835,-6.01353 -6.71752,-10.25305 -0.002,-2.94365 -0.001,-5.89884 0,-8.83883 1.43907,-2.40471 2.02239,-5.41988 1.76777,-8.48528 -0.22745,-3.51511 -2.18797,-6.75146 -5.3033,-8.13174 -2.3938,-1.38557 -5.18775,-1.57277 -8.07115,-1.41421 -2.79901,-0.20385 -5.36982,0.34041 -7.83875,1.06066 -3.31654,0.34088 -6.25478,1.19606 -8.83054,3.01668 -2.99275,1.42399 -6.61264,4.69382 -6.04401,8.52231 1.56992,3.60681 6.10901,5.43541 9.21769,7.90645 2.56849,1.17782 4.07805,3.15313 4.24264,5.3033 0.48588,3.28203 -1.44419,4.10946 -4.24264,3.88909 -0.97662,1.05461 -4.01396,-0.80398 -4.24264,1.76777 z"
       id="path992"
       inkscape:connector-curvature="0"
       clip-path="url(#clipPath1209)" />
    <path
       style="fill:#a88500;fill-opacity:0.19607843;stroke:#000000;stroke-width:0;stroke-linecap:butt;stroke-linejoin:miter;stroke-miterlimit:4;stroke-dasharray:none;stroke-opacity:1"
       d="m -125.67552,-44.550734 c -5.21886,-0.578822 -10.78398,0.07422 -15.40627,2.282409 -2.71742,1.051862 -6.29817,2.712696 -7.13252,5.42072 -1.79438,3.168896 1.08293,5.317139 2.28241,7.417827 4.18519,3.420823 8.26146,4.232976 12.83855,4.564817 4.31859,0.690034 8.68467,3.20257 10.84144,6.847226 0.95921,1.810935 2.49374,3.569623 2.56771,6.561924 -0.29073,2.8635082 -2.16473,6.8822122 -5.99132,6.5619242 -2.78557,1.006962 -6.36101,1.353051 -9.12964,0.285301 -5.10366,-0.821419 -10.25296,-1.530885 -14.83566,-3.138312 -3.94004,-0.375055 -7.79742,-1.341238 -11.86657,-1.141204 -3.07764,0.07165 -6.35417,0.99984 -8.6751,2.282408 -2.59783,1.608491 -5.09461,1.97769 -7.26309,3.86204 -1.95934,1.765447 -3.90642,4.695331 -2.72245,7.869151 0.31823,2.614861 1.98198,5.3406488 3.13832,7.9545798 4.0301,1.735894 7.54554,4.248157 11.69734,5.420724 3.10405,0.64307 6.48548,0.111174 9.70023,0.285299 3.17186,-0.902601 6.67359,0.246697 9.41494,1.141201 2.14449,0.942183 2.37584,1.889198 2.85301,4.028067 -0.18469,2.671641 0.36019,5.041637 0.2853,7.669277 0.74498,3.065953 1.59619,7.023029 5.70602,6.276627 4.20305,-0.123163 8.46435,-0.884262 11.70019,-3.561862 3.55032,-2.171758 7.31501,-4.094383 8.4786,-7.976736 0.59808,-2.240932 0.58346,-5.577578 0.91224,-8.162567 0.85276,-3.357382 2.53258,-8.9863518 6.29787,-9.1142428 4.06041,-0.133488 7.94908,1.0552088 11.894681,1.6627138 5.45448,1.720225 10.77355,3.925151 16.35013,4.899208 3.25315,1.068779 6.86132,1.295003 10.12805,1.102701 3.42775,-1.916185 7.01259,-4.163242 8.70181,-7.3793218 2.26666,-2.837597 3.63106,-5.639117 3.70892,-9.163481 0.0293,-3.267032 -1.76144,-6.216054 -3.99422,-8.239883 -1.58087,-2.7623082 -4.40715,-3.9217862 -6.56192,-4.5648172 -3.35405,-1.986666 -8.31113,-1.222384 -10.71266,-3.999755 -2.80654,-0.652152 -1.99918,-4.316937 -2.12589,-6.725621 0.15467,-3.038865 1.01715,-6.592492 2.88926,-8.399196 1.3447,-2.310508 3.45089,-6.220099 4.81387,-9.120232 1.04124,-2.545958 2.51782,-5.429358 2.28241,-8.728268 0.31634,-2.997888 -1.5647,-5.280014 -4.27952,-7.533892 -4.03578,-2.385297 -8.86467,-5.078167 -12.98119,-5.848677 -4.78152,-1.57739 -9.99828,-0.92652 -14.978311,-0.71325 -4.28362,1.4969 -9.43037,1.19122 -11.98265,4.850121 -2.5857,2.691932 -3.96725,6.440258 -4.85012,9.414935 -0.60187,1.556946 -0.74032,3.706258 -2.2824,3.708914 0.30646,1.112086 -2.14075,-0.753635 -1.7118,1.141203 z"
       id="path996"
       inkscape:connector-curvature="0"
       clip-path="url(#clipPath1205)" />
    <path
       inkscape:connector-curvature="0"
       id="path999"
       d="m -275.67552,-44.550734 c -5.21886,-0.578822 -10.78398,0.07422 -15.40627,2.282409 -2.71742,1.051862 -6.29817,2.712696 -7.13252,5.42072 -1.79438,3.168896 1.08293,5.317139 2.28241,7.417827 4.18519,3.420823 8.26146,4.232976 12.83855,4.564817 4.31859,0.690034 8.68467,3.20257 10.84144,6.847226 0.95921,1.810935 2.49374,3.569623 2.56771,6.561924 -0.29073,2.8635082 -2.16473,6.8822122 -5.99132,6.5619242 -2.78557,1.006962 -6.36101,1.353051 -9.12964,0.285301 -5.10366,-0.821419 -10.25296,-1.530885 -14.83566,-3.138312 -3.94004,-0.375055 -7.79742,-1.341238 -11.86657,-1.141204 -3.07764,0.07165 -6.35417,0.99984 -8.6751,2.282408 -2.59783,1.608491 -5.09461,1.97769 -7.26309,3.86204 -1.95934,1.765447 -3.90642,4.695331 -2.72245,7.869151 0.31823,2.614861 1.98198,5.3406488 3.13832,7.9545798 4.0301,1.735894 7.54554,4.248157 11.69734,5.420724 3.10405,0.64307 6.48548,0.111174 9.70023,0.285299 3.17186,-0.902601 6.67359,0.246697 9.41494,1.141201 2.14449,0.942183 2.37584,1.889198 2.85301,4.028067 -0.18469,2.671641 0.36019,5.041637 0.2853,7.669277 0.74498,3.065953 1.59619,7.023029 5.70602,6.276627 4.20305,-0.123163 8.46435,-0.884262 11.70019,-3.561862 3.55032,-2.171758 7.31501,-4.094383 8.4786,-7.976736 0.59808,-2.240932 0.58346,-5.577578 0.91224,-8.162567 0.85276,-3.357382 2.53258,-8.9863518 6.29787,-9.1142428 4.06041,-0.133488 7.94908,1.0552088 11.89468,1.6627138 5.45448,1.720225 10.77355,3.925151 16.35013,4.899208 3.25315,1.068779 6.86132,1.295003 10.12805,1.102701 3.42775,-1.916185 7.01259,-4.163242 8.70181,-7.3793218 2.26666,-2.837597 3.63106,-5.639117 3.70892,-9.163481 0.0293,-3.267032 -1.76144,-6.216054 -3.99422,-8.239883 -1.58087,-2.7623082 -4.40715,-3.9217862 -6.56192,-4.5648172 -3.35405,-1.986666 -8.31113,-1.222384 -10.71266,-3.999755 -2.80654,-0.652152 -1.99918,-4.316937 -2.12589,-6.725621 0.15467,-3.038865 1.01715,-6.592492 2.88926,-8.399196 1.3447,-2.310508 3.45089,-6.220099 4.81387,-9.120232 1.04124,-2.545958 2.51782,-5.429358 2.28241,-8.728268 0.31634,-2.997888 -1.5647,-5.280014 -4.27952,-7.533892 -4.03578,-2.385297 -8.86467,-5.078167 -12.98119,-5.848677 -4.78152,-1.57739 -9.99828,-0.92652 -14.97831,-0.71325 -4.28362,1.4969 -9.43037,1.19122 -11.98265,4.850121 -2.5857,2.691932 -3.96725,6.440258 -4.85012,9.414935 -0.60187,1.556946 -0.74032,3.706258 -2.2824,3.708914 0.30646,1.112086 -2.14075,-0.753635 -1.7118,1.141203 z"
       style="fill:#a88500;fill-opacity:0.19607843;stroke:#000000;stroke-width:0;stroke-linecap:butt;stroke-linejoin:miter;stroke-miterlimit:4;stroke-dasharray:none;stroke-opacity:1"
       clip-path="url(#clipPath1201)" />
    <path
       style="fill:#a88500;fill-opacity:0.19607843;stroke:#000000;stroke-width:0;stroke-linecap:butt;stroke-linejoin:miter;stroke-miterlimit:4;stroke-dasharray:none;stroke-opacity:1"
       d="m -184.10519,-18.560235 c -5.21886,0.578822 -10.78398,-0.07422 -15.40627,-2.282409 -2.71742,-1.051862 -6.29817,-2.712696 -7.13252,-5.42072 -1.79438,-3.168896 1.08293,-5.317139 2.28241,-7.417827 4.18519,-3.420823 8.26146,-4.232976 12.83855,-4.564817 4.31859,-0.690034 8.68467,-3.20257 10.84144,-6.847226 0.95921,-1.810935 2.49374,-3.569623 2.56771,-6.561924 -0.29073,-2.863508 -2.16473,-6.882212 -5.99132,-6.561924 -2.78557,-1.006962 -6.36101,-1.353051 -9.12964,-0.285301 -5.10366,0.821419 -10.25296,1.530885 -14.83566,3.138312 -3.94004,0.375055 -7.79742,1.341238 -11.86657,1.141204 -3.07764,-0.07165 -6.35417,-0.99984 -8.6751,-2.282408 -2.59783,-1.608491 -5.09461,-1.97769 -7.26309,-3.86204 -1.95934,-1.765447 -3.90642,-4.695331 -2.72245,-7.869151 0.31823,-2.614861 1.98198,-5.340649 3.13832,-7.95458 4.0301,-1.735894 7.54554,-4.248157 11.69734,-5.420724 3.10405,-0.64307 6.48548,-0.111174 9.70023,-0.285299 3.17186,0.902601 6.67359,-0.246697 9.41494,-1.141201 2.14449,-0.942183 2.37584,-1.889198 2.85301,-4.028067 -0.18469,-2.671641 0.36019,-5.041637 0.2853,-7.669277 0.74498,-3.065953 1.59619,-7.023026 5.70602,-6.276626 4.20305,0.12316 8.46435,0.88426 11.70019,3.561861 3.55032,2.171758 7.31501,4.094383 8.4786,7.976736 0.59808,2.240932 0.58346,5.577578 0.91224,8.162567 0.85276,3.357382 2.53258,8.986352 6.29787,9.114243 4.06041,0.133488 7.94908,-1.055209 11.89468,-1.662714 5.45448,-1.720225 10.77355,-3.925151 16.35013,-4.899208 3.25315,-1.068779 6.86132,-1.295003 10.12804,-1.102701 3.42775,1.916185 7.01259,4.163242 8.70181,7.379322 2.26666,2.837597 3.63106,5.639117 3.70892,9.163481 0.0293,3.267032 -1.76144,6.216054 -3.99422,8.239883 -1.58087,2.762308 -4.40715,3.921786 -6.56192,4.564817 -3.35404,1.986666 -8.31112,1.222384 -10.71265,3.999755 -2.80654,0.652152 -1.99918,4.316937 -2.12589,6.725621 0.15467,3.038865 1.01715,6.592492 2.88926,8.399196 1.3447,2.310508 3.45089,6.220099 4.81387,9.120232 1.04124,2.545958 2.51782,5.429358 2.28241,8.728268 0.31634,2.997888 -1.5647,5.2800141 -4.27952,7.5338921 -4.03578,2.385297 -8.86467,5.07816698 -12.98119,5.84867698 -4.78152,1.57739042 -9.99828,0.9265204 -14.97831,0.7132504 -4.28362,-1.4969004 -9.43037,-1.1912204 -11.98265,-4.85012138 -2.5857,-2.691932 -3.96725,-6.4402581 -4.85012,-9.4149351 -0.60187,-1.556946 -0.74032,-3.706258 -2.2824,-3.708914 0.30646,-1.112086 -2.14075,0.753635 -1.7118,-1.141203 z"
       id="path1001"
       inkscape:connector-curvature="0"
       clip-path="url(#clipPath1197)" />
    <path
       style="fill:#aa8800;fill-opacity:0.19607843;stroke:#000000;stroke-width:0;stroke-linecap:butt;stroke-linejoin:miter;stroke-miterlimit:4;stroke-dasharray:none;stroke-opacity:1"
       d="m -184.32441,3.9381704 c -4.72354,-0.053 -9.46704,0.21003 -14.14032,-0.39357 -2.88141,0.34286 -5.99109,-0.20982 -6.71933,-2.78840996 0.47283,-3.17508004 -4.42947,-5.37885004 -6.92124,-5.41730004 -2.59628,-0.46601 -5.44888,0.93683 -6.51379,3.29598 -0.84639,2.03178004 -0.12321,5.39165 0,7.77817 1.96206,2.81923 0.64035,7.9815296 5.30331,8.4852796 3.61527,1.74582 8.37187,4.35326 4.94974,8.83884 -0.75538,3.38598 -3.01893,5.229715 -5.3033,8.131728 -3.47375,1.695419 -7.06626,2.049066 -9.19239,3.889087 -1.88857,0.639856 -3.10838,1.320241 -5.64267,2.556174 -2.91104,1.284401 -3.44301,5.323603 -3.52127,8.662172 -0.86366,2.507729 0.32099,4.986603 -0.0284,7.682001 0.14459,3.128715 -0.35174,6.390243 0.38935,9.388943 1.00972,1.945171 4.5528,3.613844 7.56067,3.530515 3.3134,-0.05371 6.23126,0.546049 9.46051,-0.117021 1.85931,-1.653747 3.78852,-2.563598 4.86333,-4.832726 1.04113,-3.527287 0.40085,-6.917632 3.18724,-9.442268 2.29414,-0.87961 4.85332,-4.181777 8.48001,-3.639207 4.3843,-0.0091 8.78231,-0.273788 12.72792,1.767767 3.54753,1.05994 7.09033,1.838735 10.60661,3.535534 2.6551,1.07199 5.49665,1.154711 8.52617,1.06066 1.96938,-0.192563 3.2202,-1.776274 3.14109,-3.828522 0.19067,-2.622714 -2.18693,-3.399685 -2.12132,-6.424526 -1.93383,-2.250745 -5.19579,-4.3292 -6.36396,-6.363962 -1.62837,-1.851137 -3.49593,-4.456219 -6.01041,-4.949748 0.53802,-3.79458 4.48727,-4.812134 7.07107,-5.656854 4.69392,-1.425817 9.9107,-0.09345 14.49568,1.767767 2.03292,0.168417 7.24496,1.446393 9.8995,2.828427 3.92706,1.0291 7.7985,3.291667 12.1321,3.181981 5.24162,1.993648 7.90202,-2.553484 10.7134,-6.032603 1.48851,-2.853679 2.03088,-5.599079 1.90324,-8.867369 0.48247,-4.21827 -2.51603,-7.2635 -5.45267,-9.52262 -2.07486,-0.52432 -4.19309,-2.3874596 -7.42265,-2.4675996 -4.66461,0.0445 -9.32986,0.008 -13.99474,0.0201 -1.4476,-3.9982 -6.36835,-6.01353 -6.71752,-10.25304996 -0.002,-2.94365004 -10e-4,-5.89884004 0,-8.83883004 1.43907,-2.4047104 2.02239,-5.4198804 1.76777,-8.4852804 -0.22745,-3.51511 -2.18797,-6.75146 -5.3033,-8.13174 -2.3938,-1.38557 -5.18775,-1.57277 -8.07115,-1.41421 -2.79901,-0.20385 -5.36982,0.34041 -7.83875,1.06066 -3.31654,0.34088 -6.25478,1.19606 -8.83054,3.01668 -2.99275,1.42399 -6.61264,4.69382 -6.04401,8.52231 1.56992,3.60681 6.10901,5.4354104 9.21769,7.9064504 2.56849,1.17782 4.07805,3.15313 4.24264,5.3033 0.48588,3.28203 -1.44419,4.10946 -4.24264,3.88909 -0.97662,1.05461 -4.01396,-0.80398 -4.24264,1.76777 z"
       id="path1003"
       inkscape:connector-curvature="0"
       clip-path="url(#clipPath1193)" />
    <path
       inkscape:connector-curvature="0"
       id="path1005"
       d="m -184.32441,-146.06183 c -4.72354,-0.053 -9.46704,0.21003 -14.14032,-0.39357 -2.88141,0.34286 -5.99109,-0.20982 -6.71933,-2.78841 0.47283,-3.17508 -4.42947,-5.37885 -6.92124,-5.4173 -2.59628,-0.46601 -5.44888,0.93683 -6.51379,3.29598 -0.84639,2.03178 -0.12321,5.39165 0,7.77817 1.96206,2.81923 0.64035,7.98153 5.30331,8.48528 3.61527,1.74582 8.37187,4.35326 4.94974,8.83884 -0.75538,3.38598 -3.01893,5.22972 -5.3033,8.13173 -3.47375,1.69542 -7.06626,2.04906 -9.19239,3.88909 -1.88857,0.63985 -3.10838,1.32024 -5.64267,2.55617 -2.91104,1.2844 -3.44301,5.3236 -3.52127,8.66217 -0.86366,2.50773 0.32099,4.986604 -0.0284,7.682002 0.14459,3.128715 -0.35174,6.390243 0.38935,9.388943 1.00972,1.945171 4.5528,3.613844 7.56067,3.530515 3.3134,-0.05371 6.23126,0.546049 9.46051,-0.117021 1.85931,-1.653747 3.78852,-2.563598 4.86333,-4.832726 1.04113,-3.527287 0.40085,-6.917632 3.18724,-9.442268 2.29414,-0.87961 4.85332,-4.181775 8.48001,-3.639205 4.3843,-0.009 8.78231,-0.27379 12.72792,1.767765 3.54753,1.05994 7.09033,1.838735 10.60661,3.535534 2.6551,1.07199 5.49665,1.154711 8.52617,1.06066 1.96938,-0.192563 3.2202,-1.776274 3.14109,-3.828522 0.19067,-2.622717 -2.18693,-3.399687 -2.12132,-6.424527 -1.93383,-2.25074 -5.19579,-4.3292 -6.36396,-6.36396 -1.62837,-1.85114 -3.49593,-4.45622 -6.01041,-4.94975 0.53802,-3.79458 4.48727,-4.81213 7.07107,-5.65685 4.69392,-1.42582 9.9107,-0.0935 14.49568,1.76776 2.03292,0.16842 7.24496,1.4464 9.8995,2.82843 3.92706,1.0291 7.7985,3.29167 12.1321,3.18198 5.24162,1.99365 7.90202,-2.55348 10.7134,-6.0326 1.48851,-2.85368 2.03088,-5.59908 1.90324,-8.86737 0.48247,-4.21827 -2.51603,-7.2635 -5.45267,-9.52262 -2.07486,-0.52432 -4.19309,-2.38746 -7.42265,-2.4676 -4.66461,0.0445 -9.32986,0.008 -13.99474,0.0201 -1.4476,-3.9982 -6.36835,-6.01353 -6.71752,-10.25305 -0.002,-2.94365 -10e-4,-5.89884 0,-8.83883 1.43907,-2.40471 2.02239,-5.41988 1.76777,-8.48528 -0.22745,-3.51511 -2.18797,-6.75146 -5.3033,-8.13174 -2.3938,-1.38557 -5.18775,-1.57277 -8.07115,-1.41421 -2.79901,-0.20385 -5.36982,0.34041 -7.83875,1.06066 -3.31654,0.34088 -6.25478,1.19606 -8.83054,3.01668 -2.99275,1.42399 -6.61264,4.69382 -6.04401,8.52231 1.56992,3.60681 6.10901,5.43541 9.21769,7.90645 2.56849,1.17782 4.07805,3.15313 4.24264,5.3033 0.48588,3.28203 -1.44419,4.10946 -4.24264,3.88909 -0.97662,1.05461 -4.01396,-0.80398 -4.24264,1.76777 z"
       style="fill:#aa8800;fill-opacity:0.19607843;stroke:#000000;stroke-width:0;stroke-linecap:butt;stroke-linejoin:miter;stroke-miterlimit:4;stroke-dasharray:none;stroke-opacity:1"
       clip-path="url(#clipPath1189)" />
    <path
       style="fill:#aa8800;fill-opacity:0.19607843;stroke:#000000;stroke-width:0;stroke-linecap:butt;stroke-linejoin:miter;stroke-miterlimit:4;stroke-dasharray:none;stroke-opacity:1"
       d="m -142.34814,-102.11026 c -2.64259,-3.91553 -5.55649,-7.66775 -7.7176,-11.85505 -1.92062,-2.17516 -3.23443,-5.04735 -1.52752,-7.11276 2.88058,-1.41668 1.90546,-6.70235 0.52007,-8.77384 -1.09314,-2.4006 -3.86927,-3.94926 -6.41541,-3.48361 -2.15258,0.45923 -4.50501,2.96478 -6.39799,4.42329 -1.2032,3.21715 -6.20112,5.06567 -3.96375,9.1877 0.61989,3.96659 1.18011,9.36197 -4.45564,9.09793 -3.21474,1.3042 -6.01856,0.49079 -9.70471,0.26208 -3.37004,-1.89321 -5.70392,-4.64715 -8.42654,-5.34962 -1.60031,-1.18959 -2.85365,-1.80603 -5.31148,-3.18778 -2.71194,-1.66409 -6.33694,0.19535 -9.12762,2.02956 -2.5539,0.71568 -3.91923,3.09981 -6.33504,4.34524 -2.49133,1.89818 -5.45638,3.34468 -7.50154,5.65958 -1.02581,1.93673 -0.38351,5.80006 1.39555,8.226824 1.92845,2.694921 3.09445,5.436103 5.47627,7.715274 2.41766,0.588937 4.26317,1.65841 6.74088,1.252095 3.49347,-1.14951 5.91811,-3.604202 9.57934,-2.747946 2.02816,1.386847 6.19974,1.614044 7.81588,4.905759 2.50067,3.601225 5.21954,7.068263 5.78403,11.474751 1.14555,3.520818 2.51967,6.877863 3.12359,10.735145 0.62813,2.793595 2.17603,5.177978 3.97622,7.616449 1.27834,1.510423 3.29236,1.63867 4.93546,0.406523 2.26577,-1.334651 1.55278,-3.732213 4.0782,-5.398414 0.75163,-2.87064 0.60627,-6.735773 1.61566,-8.853789 0.59665,-2.392137 1.67744,-5.409773 0.65346,-7.758741 3.42722,-1.715352 6.51008,0.954476 8.67427,2.599426 3.84216,3.050187 5.71293,8.098957 6.78932,12.928834 1.01755,1.767972 2.93033,6.781941 3.30311,9.751389 1.38675,3.815465 1.72727,8.286631 4.28193,11.788891 1.34091,5.445289 6.59411,5.047758 11.05467,5.381773 3.1938,-0.398446 5.76049,-1.513571 8.37626,-3.477177 3.74415,-2.001989 4.54384,-6.200194 4.73209,-9.900469 -0.74865,-2.004864 -0.42071,-4.806764 -2.19138,-7.50884 -2.68928,-3.811607 -5.31229,-7.669804 -7.97507,-11.500059 2.46553,-3.464435 1.32492,-8.658118 4.61361,-11.356264 2.42018,-1.675642 4.85157,-3.355379 7.27045,-5.026472 2.79639,-0.183794 5.60826,-1.418648 7.98493,-3.371322 2.76204,-2.186066 4.30922,-5.639158 3.67295,-8.986637 -0.22159,-2.756983 -1.65648,-5.161633 -3.42664,-7.443223 -1.42406,-2.41828 -3.33372,-4.22341 -5.3302,-5.84466 -2.16644,-2.53419 -4.5408,-4.46474 -7.50315,-5.5481 -2.87323,-1.65192 -7.62142,-2.77 -10.44721,-0.12508 -2.07403,3.34247 -0.99687,8.11603 -1.26159,12.07833 0.49182,2.78254 -0.27453,5.147563 -1.94957,6.505708 -2.42335,2.266092 -4.20155,1.14904 -5.61171,-1.278168 -1.42286,-0.203591 -1.62134,-3.75892 -3.8668,-2.48452 z"
       id="path1007"
       inkscape:connector-curvature="0"
       clip-path="url(#clipPath1185)" />
    <path
       inkscape:connector-curvature="0"
       id="path1009"
       d="m -142.34814,47.88974 c -2.64259,-3.91553 -5.55649,-7.66775 -7.7176,-11.85505 -1.92062,-2.17516 -3.23443,-5.04735 -1.52752,-7.11276 2.88058,-1.41668 1.90546,-6.70235 0.52007,-8.77384 -1.09314,-2.4006 -3.86927,-3.94926 -6.41541,-3.48361 -2.15258,0.45923 -4.50501,2.96478 -6.39799,4.42329 -1.2032,3.21715 -6.20112,5.06567 -3.96375,9.1877 0.61989,3.96659 1.18011,9.36197 -4.45564,9.09793 -3.21474,1.3042 -6.01856,0.49079 -9.70471,0.26208 -3.37004,-1.89321 -5.70392,-4.64715 -8.42654,-5.34962 -1.60031,-1.18959 -2.85365,-1.80603 -5.31148,-3.18778 -2.71194,-1.66409 -6.33694,0.19535 -9.12762,2.02956 -2.5539,0.71568 -3.91923,3.09981 -6.33504,4.34524 -2.49133,1.89818 -5.45638,3.34468 -7.50154,5.65958 -1.02581,1.93673 -0.38351,5.80006 1.39555,8.226824 1.92845,2.694921 3.09445,5.436103 5.47627,7.715274 2.41766,0.588937 4.26317,1.65841 6.74088,1.252095 3.49347,-1.14951 5.91811,-3.604202 9.57934,-2.747946 2.02816,1.386847 6.19974,1.614044 7.81588,4.905759 2.50067,3.601225 5.21954,7.068263 5.78403,11.474751 1.14555,3.520818 2.51967,6.877863 3.12359,10.735145 0.62813,2.793595 2.17603,5.177978 3.97622,7.616449 1.27834,1.510423 3.29236,1.63867 4.93546,0.406523 2.26577,-1.334651 1.55278,-3.732213 4.0782,-5.398414 0.75163,-2.87064 0.60627,-6.735773 1.61566,-8.853789 0.59665,-2.392137 1.67744,-5.409773 0.65346,-7.758741 3.42722,-1.715352 6.51008,0.954476 8.67427,2.599426 3.84216,3.050187 5.71293,8.098957 6.78932,12.928834 1.01755,1.767972 2.93033,6.781941 3.30311,9.751389 1.38675,3.815465 1.72727,8.286631 4.28193,11.788891 1.34091,5.44529 6.59411,5.04776 11.05467,5.38177 3.1938,-0.39844 5.76049,-1.51357 8.37626,-3.47717 3.74415,-2.00199 4.54384,-6.2002 4.73209,-9.900473 -0.74865,-2.004864 -0.42071,-4.806764 -2.19138,-7.50884 -2.68928,-3.811607 -5.31229,-7.669804 -7.97507,-11.500059 2.46553,-3.464435 1.32492,-8.658118 4.61361,-11.356264 2.42018,-1.675642 4.85157,-3.355379 7.27045,-5.026472 2.79639,-0.183794 5.60826,-1.418648 7.98493,-3.371322 2.76204,-2.186066 4.30922,-5.639158 3.67295,-8.986637 -0.22159,-2.756983 -1.65648,-5.161633 -3.42664,-7.443223 -1.42406,-2.41828 -3.33372,-4.22341 -5.3302,-5.84466 -2.16644,-2.53419 -4.5408,-4.46474 -7.50315,-5.5481 -2.87323,-1.65192 -7.62142,-2.77 -10.44721,-0.12508 -2.07403,3.34247 -0.99687,8.11603 -1.26159,12.07833 0.49182,2.78254 -0.27453,5.147563 -1.94957,6.505708 -2.42335,2.266092 -4.20155,1.14904 -5.61171,-1.278168 -1.42286,-0.203591 -1.62134,-3.75892 -3.8668,-2.48452 z"
       style="fill:#aa8800;fill-opacity:0.19607843;stroke:#000000;stroke-width:0;stroke-linecap:butt;stroke-linejoin:miter;stroke-miterlimit:4;stroke-dasharray:none;stroke-opacity:1"
       clip-path="url(#clipPath1181)" />
    <path
       style="fill:#aa8800;fill-opacity:0.19607843;stroke:#000000;stroke-width:0;stroke-linecap:butt;stroke-linejoin:miter;stroke-miterlimit:4;stroke-dasharray:none;stroke-opacity:1"
       d="m -182.21581,-20.287649 c 1.84697,-4.347798 3.40929,-8.834347 5.74628,-12.926091 0.77974,-2.795016 2.47447,-5.460245 5.13615,-5.152148 2.7561,1.645798 6.65998,-2.048645 7.644,-4.338204 1.41917,-2.223464 1.20774,-5.3953 -0.56847,-7.27804 -1.55667,-1.556047 -4.93889,-2.166201 -7.19266,-2.960666 -3.35384,0.741252 -7.62445,-2.44593 -9.86518,1.674272 -2.99052,2.678599 -7.21223,6.084652 -10.05755,1.212741 -2.84358,-1.987354 -3.68693,-4.782315 -5.50097,-7.999343 -0.24555,-3.857605 0.79487,-7.314293 -0.0974,-9.980758 0.12718,-1.98996 -0.0377,-3.376928 -0.21594,-6.190891 -0.0797,-3.180797 -3.61231,-5.210198 -6.66978,-6.553359 -1.99021,-1.753189 -4.73341,-1.601269 -7.09292,-2.950327 -2.94824,-1.057204 -5.77532,-2.757639 -8.83038,-3.213751 -2.18309,0.193301 -5.07478,2.834509 -6.14264,5.647678 -1.21154,3.084427 -2.87679,5.554356 -3.49282,8.792906 0.82154,2.34883 0.92857,4.479141 2.61777,6.336758 2.86547,2.305379 6.24432,3.003791 7.5183,6.541409 -0.0598,2.456257 2.01963,6.079723 0.13745,9.226894 -1.66052,4.057693 -3.08971,8.225428 -6.47944,11.09693 -2.33048,2.877033 -4.39917,5.856707 -7.30667,8.462424 -2.00193,2.047194 -3.16003,4.643363 -4.22621,7.48063 -0.57155,1.894427 0.41684,3.653919 2.34471,4.361924 2.35271,1.174626 3.9762,-0.728251 6.74837,0.483792 2.8174,-0.931543 5.98103,-3.156815 8.30727,-3.462543 2.33162,-0.801176 5.45146,-1.536556 6.86495,-3.6739 3.30415,1.941879 2.74186,5.981167 2.5395,8.692002 -0.46819,4.883301 -3.68593,9.2002484 -7.1523,12.7316214 -0.92955,1.815785 -4.09523,6.14904 -6.38365,8.077698 -2.44642,3.239732 -6.01229,5.958527 -7.56039,10.0076606 -3.83875,4.088188 -0.64656,8.279139 1.50055,12.203176 2.07228,2.46268 4.40457,4.009228 7.47542,5.135233 3.71709,2.051792 7.67444,0.438136 10.8813,-1.417533 1.27462,-1.719097 3.80379,-2.968696 5.10719,-5.924645 1.73438,-4.330416 3.54391,-8.630587 5.30835,-12.948919 4.24824,0.183238 7.98489,-3.5999846 12.03819,-2.3091426 2.72282,1.118611 5.45518,2.2443986 8.17347,3.3643956 1.67594,2.246071 4.2421,3.933166 7.17366,4.864519 3.33709,1.127661 7.07607,0.546604 9.53826,-1.808831 2.19244,-1.686196 3.42904,-4.198582 4.37994,-6.9252826 1.25392,-2.510718 1.72918,-5.095176 2.00292,-7.65241104 0.94718,-3.19662796 1.27478,-6.23920696 0.57164,-9.31406996 -0.17763,-3.3094924 -1.82346,-7.9015154 -5.5802,-8.8329624 -3.93287,0.07885 -7.35158,3.580217 -10.81988,5.51432 -2.06683,1.926818 -4.46805,2.5708654 -6.51901,1.904629 -3.21991,-0.799962 -3.2504,-2.899693 -1.98142,-5.403607 -0.60348,-1.304527 2.27132,-3.405776 -0.0198,-4.596149 z"
       id="path1011"
       inkscape:connector-curvature="0"
       clip-path="url(#clipPath1177)" />
    <ellipse
       ry="4.5961943"
       rx="7.601398"
       cy="-17.275028"
       cx="-216.32098"
       id="ellipse1015"
       style="opacity:1;fill:#806600;fill-opacity:1;stroke:#000000;stroke-width:0;stroke-linejoin:miter;stroke-miterlimit:4;stroke-dasharray:none;stroke-opacity:1"
       clip-path="url(#clipPath1173)" />
    <ellipse
       style="opacity:1;fill:#a88500;fill-opacity:0.39215687;stroke:#000000;stroke-width:0;stroke-linejoin:miter;stroke-miterlimit:4;stroke-dasharray:none;stroke-opacity:1"
       id="path1013"
       cx="-110.25497"
       cy="-69.247375"
       rx="7.601398"
       ry="4.5961943"
       clip-path="url(#clipPath1169)" />
    <ellipse
       style="opacity:1;fill:#554400;fill-opacity:0.19607843;stroke:#000000;stroke-width:0;stroke-linejoin:miter;stroke-miterlimit:4;stroke-dasharray:none;stroke-opacity:1"
       id="path1017"
       cx="-187.15283"
       cy="-52.453594"
       rx="2.1213202"
       ry="1.9445436"
       clip-path="url(#clipPath1165)" />
    <ellipse
       ry="1.9445436"
       rx="2.1213202"
       cy="-19.926682"
       cx="-111.84596"
       id="ellipse1019"
       style="opacity:1;fill:#554400;fill-opacity:0.19607843;stroke:#000000;stroke-width:0;stroke-linejoin:miter;stroke-miterlimit:4;stroke-dasharray:none;stroke-opacity:1"
       clip-path="url(#clipPath1161)" />
    <ellipse
       style="opacity:1;fill:#ddbd3b;fill-opacity:0.19607843;stroke:#000000;stroke-width:0;stroke-linejoin:miter;stroke-miterlimit:4;stroke-dasharray:none;stroke-opacity:1"
       id="path1021"
       cx="-143.48898"
       cy="-1.8954599"
       rx="5.833631"
       ry="4.4194174"
       clip-path="url(#clipPath1157)" />
    <ellipse
       ry="4.4194174"
       rx="5.833631"
       cy="18.96419"
       cx="-94.345062"
       id="ellipse1023"
       style="opacity:1;fill:#ffe680;fill-opacity:0.19607843;stroke:#000000;stroke-width:0;stroke-linejoin:miter;stroke-miterlimit:4;stroke-dasharray:none;stroke-opacity:1"
       clip-path="url(#clipPath1153)" />
    <ellipse
       style="opacity:1;fill:#ffe680;fill-opacity:0.19607843;stroke:#000000;stroke-width:0;stroke-linejoin:miter;stroke-miterlimit:4;stroke-dasharray:none;stroke-opacity:1"
       id="ellipse1025"
       cx="-244.34506"
       cy="18.96419"
       rx="5.833631"
       ry="4.4194174"
       clip-path="url(#clipPath1149)" />
    <ellipse
       ry="4.4194174"
       rx="5.833631"
       cy="-100.89041"
       cx="-135.80417"
       id="ellipse1027"
       style="opacity:1;fill:#ffe680;fill-opacity:0.19607843;stroke:#000000;stroke-width:0;stroke-linejoin:miter;stroke-miterlimit:4;stroke-dasharray:none;stroke-opacity:1"
       clip-path="url(#clipPath1145)" />
    <ellipse
       style="opacity:1;fill:#dec043;fill-opacity:0.19607843;stroke:#000000;stroke-width:0;stroke-linejoin:miter;stroke-miterlimit:4;stroke-dasharray:none;stroke-opacity:1"
       id="ellipse1029"
       cx="-216.41434"
       cy="-19.219578"
       rx="5.833631"
       ry="4.4194174"
       clip-path="url(#clipPath1141)" />
    <ellipse
       ry="1.9445436"
       rx="4.9497466"
       cy="12.953783"
       cx="-200.23431"
       id="ellipse1031"
       style="opacity:1;fill:#554400;fill-opacity:0.19607843;stroke:#000000;stroke-width:0;stroke-linejoin:miter;stroke-miterlimit:4;stroke-dasharray:none;stroke-opacity:1"
       clip-path="url(#clipPath1137)" />
    <ellipse
       style="opacity:1;fill:#554400;fill-opacity:0.19607843;stroke:#000000;stroke-width:0;stroke-linejoin:miter;stroke-miterlimit:4;stroke-dasharray:none;stroke-opacity:1"
       id="ellipse1033"
       cx="-149.67618"
       cy="-64.120857"
       rx="4.9497466"
       ry="1.9445436"
       clip-path="url(#clipPath1133)" />
    <ellipse
       ry="1.9445436"
       rx="4.9497466"
       cy="-74.727455"
       cx="-224.6295"
       id="ellipse1035"
       style="opacity:1;fill:#554400;fill-opacity:0.19607843;stroke:#000000;stroke-width:0;stroke-linejoin:miter;stroke-miterlimit:4;stroke-dasharray:none;stroke-opacity:1"
       clip-path="url(#clipPath1129)" />
    <ellipse
       style="opacity:1;fill:#554400;fill-opacity:0.19607843;stroke:#000000;stroke-width:0;stroke-linejoin:miter;stroke-miterlimit:4;stroke-dasharray:none;stroke-opacity:1"
       id="ellipse1037"
       cx="-140.13023"
       cy="25.681707"
       rx="4.9497466"
       ry="1.9445436"
       clip-path="url(#clipPath1125)" />
    <ellipse
       ry="1.9445436"
       rx="4.9497466"
       cy="-92.051575"
       cx="-164.17186"
       id="ellipse1039"
       style="opacity:1;fill:#554400;fill-opacity:0.19607843;stroke:#000000;stroke-width:0;stroke-linejoin:miter;stroke-miterlimit:4;stroke-dasharray:none;stroke-opacity:1"
       clip-path="url(#clipPath1121)" />
    <ellipse
       ry="1.9445436"
       rx="4.9497466"
       cy="-37.604355"
       cx="-105.12845"
       id="ellipse1041"
       style="opacity:1;fill:#554400;fill-opacity:0.19607843;stroke:#000000;stroke-width:0;stroke-linejoin:miter;stroke-miterlimit:4;stroke-dasharray:none;stroke-opacity:1"
       clip-path="url(#clipPath1117)" />
    <ellipse
       style="opacity:1;fill:#554400;fill-opacity:0.19607843;stroke:#000000;stroke-width:0;stroke-linejoin:miter;stroke-miterlimit:4;stroke-dasharray:none;stroke-opacity:1"
       id="ellipse1043"
       cx="-103.00713"
       cy="-94.880005"
       rx="4.9497466"
       ry="1.9445436"
       clip-path="url(#clipPath1113)" />
    <ellipse
       style="opacity:1;fill:#554400;fill-opacity:0.19607843;stroke:#000000;stroke-width:0;stroke-linejoin:miter;stroke-miterlimit:4;stroke-dasharray:none;stroke-opacity:1"
       id="ellipse1045"
       cx="-180.43532"
       cy="21.439066"
       rx="2.1213202"
       ry="1.9445436"
       clip-path="url(#clipPath1109)" />
    <ellipse
       ry="3.1819806"
       rx="6.0104079"
       cy="-86.925049"
       cx="-200.94141"
       id="ellipse1047"
       style="opacity:1;fill:#ddbd3b;fill-opacity:0.19607843;stroke:#000000;stroke-width:0;stroke-linejoin:miter;stroke-miterlimit:4;stroke-dasharray:none;stroke-opacity:1"
       clip-path="url(#clipPath1105)" />
    <ellipse
       style="opacity:1;fill:#ddbd3b;fill-opacity:0.19607843;stroke:#000000;stroke-width:0;stroke-linejoin:miter;stroke-miterlimit:4;stroke-dasharray:none;stroke-opacity:1"
       id="ellipse1049"
       cx="-165.58607"
       cy="-20.103458"
       rx="6.0104079"
       ry="3.1819806"
       clip-path="url(#clipPath1101)" />
    <ellipse
       ry="3.1819806"
       rx="6.0104079"
       cy="9.9485798"
       cx="-113.96728"
       id="ellipse1051"
       style="opacity:1;fill:#ddbd3b;fill-opacity:0.19607843;stroke:#000000;stroke-width:0;stroke-linejoin:miter;stroke-miterlimit:4;stroke-dasharray:none;stroke-opacity:1"
       clip-path="url(#clipPath1097)" />
    <ellipse
       style="opacity:1;fill:#554400;fill-opacity:0.19607843;stroke:#000000;stroke-width:0;stroke-linejoin:miter;stroke-miterlimit:4;stroke-dasharray:none;stroke-opacity:1"
       id="ellipse1053"
       cx="-223.21529"
       cy="30.277899"
       rx="4.9497466"
       ry="1.9445436"
       clip-path="url(#clipPath1093)" />
    <ellipse
       style="opacity:1;fill:#554400;fill-opacity:0.19607843;stroke:#000000;stroke-width:0;stroke-linejoin:miter;stroke-miterlimit:4;stroke-dasharray:none;stroke-opacity:1"
       id="ellipse1055"
       cx="-209.78026"
       cy="-37.250801"
       rx="4.9497466"
       ry="1.9445436"
       clip-path="url(#clipPath1089)" />
    <ellipse
       ry="4.5961943"
       rx="7.601398"
       cy="-42.023766"
       cx="-141.36766"
       id="ellipse1057"
       style="opacity:1;fill:#a88500;fill-opacity:0.39215686;stroke:#000000;stroke-width:0;stroke-linejoin:miter;stroke-miterlimit:4;stroke-dasharray:none;stroke-opacity:1"
       clip-path="url(#clipPath1085)" />
    <ellipse
       style="opacity:1;fill:#554400;fill-opacity:0.19607843;stroke:#000000;stroke-width:0;stroke-linejoin:miter;stroke-miterlimit:4;stroke-dasharray:none;stroke-opacity:1"
       id="ellipse1059"
       cx="-241.60005"
       cy="-52.100044"
       rx="4.9497466"
       ry="1.9445436"
       clip-path="url(#clipPath1081)" />
    <ellipse
       ry="1.9445436"
       rx="4.9497466"
       cy="-52.100044"
       cx="-91.600052"
       id="ellipse1061"
       style="opacity:1;fill:#554400;fill-opacity:0.19607843;stroke:#000000;stroke-width:0;stroke-linejoin:miter;stroke-miterlimit:4;stroke-dasharray:none;stroke-opacity:1"
       clip-path="url(#clipPath1077)" />
    <ellipse
       ry="4.4194174"
       rx="5.833631"
       cy="39.823841"
       cx="-172.1268"
       id="ellipse1063"
       style="opacity:1;fill:#ddbd3b;fill-opacity:0.19607843;stroke:#000000;stroke-width:0;stroke-linejoin:miter;stroke-miterlimit:4;stroke-dasharray:none;stroke-opacity:1"
       clip-path="url(#clipPath1073)" />
    <ellipse
       style="opacity:1;fill:#ddbd3b;fill-opacity:0.19607843;stroke:#000000;stroke-width:0;stroke-linejoin:miter;stroke-miterlimit:4;stroke-dasharray:none;stroke-opacity:1"
       id="ellipse1065"
       cx="-172.1268"
       cy="-110.17616"
       rx="5.833631"
       ry="4.4194174"
       clip-path="url(#clipPath1069)" />
  </g>
</svg>
