<?xml version="1.0" encoding="UTF-8" standalone="no"?>
<!-- Created with Inkscape (http://www.inkscape.org/) -->

<svg
   xmlns:dc="http://purl.org/dc/elements/1.1/"
   xmlns:cc="http://creativecommons.org/ns#"
   xmlns:rdf="http://www.w3.org/1999/02/22-rdf-syntax-ns#"
   xmlns:svg="http://www.w3.org/2000/svg"
   xmlns="http://www.w3.org/2000/svg"
   xmlns:sodipodi="http://sodipodi.sourceforge.net/DTD/sodipodi-0.dtd"
   xmlns:inkscape="http://www.inkscape.org/namespaces/inkscape"
   sodipodi:docname="dragon.svg"
   inkscape:version="0.92.2 5c3e80d, 2017-08-06"
   id="svg8"
   version="1.1"
   viewBox="-530.746090 179.638350 149.935180 149.935180"
   height="149.93518"
   width="149.93518">
  <sodipodi:namedview
     inkscape:window-maximized="1"
     inkscape:window-y="0"
     inkscape:window-x="0"
     inkscape:window-height="1380"
     inkscape:window-width="2560"
     showgrid="false"
     inkscape:current-layer="layer1"
     inkscape:document-units="mm"
     inkscape:cy="85.438148"
     inkscape:cx="77.932645"
     inkscape:zoom="7.9195959"
     inkscape:pageshadow="2"
     inkscape:pageopacity="0.0"
     borderopacity="1.0"
     bordercolor="#666666"
     pagecolor="#ffffff"
     id="base" />
  <defs
     id="defs2" />
  <metadata
     id="metadata5">
    <rdf:RDF>
      <cc:Work
         rdf:about="">
        <dc:format>image/svg+xml</dc:format>
        <dc:type
           rdf:resource="http://purl.org/dc/dcmitype/StillImage" />
        <dc:title />
      </cc:Work>
    </rdf:RDF>
  </metadata>
  <g
     id="layer1"
     inkscape:groupmode="layer"
     inkscape:label="Layer 1">
    <ellipse
       style="opacity:1;fill:#ffffff;fill-opacity:1;stroke:#000000;stroke-width:0.69048744;stroke-linejoin:miter;stroke-miterlimit:4;stroke-dasharray:none;stroke-opacity:1"
       id="path1191"
       cx="-449.31537"
       cy="224.86342"
       rx="67.530594"
       ry="43.715458" />
    <rect
       style="opacity:1;fill:#c44242;fill-opacity:1;stroke:none;stroke-width:0.3728632;stroke-linejoin:miter;stroke-miterlimit:4;stroke-dasharray:none;stroke-opacity:1"
       id="rect1199"
       width="8.7955284"
       height="30.22508"
       x="-457.20126"
       y="238.07303" />
    <path
       style="fill:#c44242;fill-opacity:1;stroke:#000000;stroke-width:0.34524372;stroke-linecap:butt;stroke-linejoin:miter;stroke-miterlimit:4;stroke-dasharray:none;stroke-opacity:1"
       d="m -456.49256,268.25265 c 0,0 20.4842,2.18812 41.43181,-5.54599 0,0 -10.39962,-10.22205 -11.90757,-16.9642 -2.01157,-8.99389 -3.17663,-22.50616 4.73041,-27.24061 7.71522,-4.6196 17.67326,12.71091 25.60942,8.4821 3.03865,-1.61915 3.81623,-6.66889 2.77299,-9.95015 -3.88774,-12.22806 -17.02107,-24.08974 -29.85048,-24.30449 -6.82835,-0.1143 -12.63178,7.37634 -16.31173,12.39691 -4.2733,5.83007 -8.29788,14.50987 -15.49616,15.16993 -19.14118,1.75516 -47.85533,-32.17231 -47.85533,-32.17231 l -25.28604,73.29686 c 0,0 18.77998,-3.17869 23.36923,-1.72545 4.53187,1.43508 16.86342,12.24634 16.86342,12.24634 0,0 10.59329,-3.35857 16.05192,-3.2559 5.38897,0.10137 15.71498,3.80801 15.71498,3.80801 0,0 -2.40787,-33.22508 7.82964,-33.7653"
       id="path1193"
       inkscape:connector-curvature="0"
       sodipodi:nodetypes="csaaaaasaccscacc" />
    <path
       style="fill:#a1b778;fill-opacity:1;stroke:#000000;stroke-width:0.34524372;stroke-linecap:butt;stroke-linejoin:miter;stroke-miterlimit:4;stroke-dasharray:none;stroke-opacity:1"
       d="m -530.21753,267.49018 c 16.21254,-44.81015 17.1594,-54.23721 30.59523,-70.9436 1.8965,-2.35815 16.27206,10.59016 15.90354,12.87328 -3.12968,19.38891 -5.46344,69.01024 -5.46344,69.01024 0,0 3.54283,-40.14048 9.55297,-66.1219 0.39079,-1.68935 10.18813,4.71673 10.48928,6.42434 3.02702,17.16402 13.80899,60.72743 13.80899,60.72743 0,0 -7.38337,-41.89504 -9.96994,-59.49006 -0.38916,-2.64727 6.60314,4.88823 9.13457,4.89352 1.63208,0.004 0.16312,-4.89352 0.16312,-4.89352 0,0 -44.86621,-35.34724 -47.36599,-31.84607 -16.24802,22.75685 -25.14073,55.96904 -26.84833,79.36634 z"
       id="path1197"
       inkscape:connector-curvature="0"
       sodipodi:nodetypes="csscsscsscsc" />
    <path
       style="fill:#a1b778;fill-opacity:1;stroke:#000000;stroke-width:0.34524372;stroke-linecap:butt;stroke-linejoin:miter;stroke-miterlimit:4;stroke-dasharray:none;stroke-opacity:1"
       d="m -450.58066,218.31229 c -0.59176,0.25151 -4.38298,-10.61141 -4.38298,-10.61141 0,0 11.9771,1.27653 11.30346,2.76819 -1.07361,2.37736 -3.6142,6.438 -6.92048,7.84322 z"
       id="path1220"
       inkscape:connector-curvature="0"
       sodipodi:nodetypes="scss" />
    <path
       sodipodi:nodetypes="scss"
       inkscape:connector-curvature="0"
       id="path1222"
       d="m -442.75102,208.93304 c -0.39354,0.5085 -5.48403,-11.54934 -5.48403,-11.54934 0,0 12.0218,2.66814 11.30346,3.543 -1.64172,1.99947 -3.53264,5.0515 -5.81943,8.00634 z"
       style="fill:#a1b778;fill-opacity:1;stroke:#000000;stroke-width:0.34524372;stroke-linecap:butt;stroke-linejoin:miter;stroke-miterlimit:4;stroke-dasharray:none;stroke-opacity:1" />
    <path
       style="fill:#a1b778;fill-opacity:1;stroke:#000000;stroke-width:0.34524372;stroke-linecap:butt;stroke-linejoin:miter;stroke-miterlimit:4;stroke-dasharray:none;stroke-opacity:1"
       d="m -435.81853,199.79847 c -0.39354,0.5085 -2.34401,-12.8135 -2.34401,-12.8135 0,0 11.15857,6.06526 10.16163,6.60146 -2.04951,1.10231 -5.53082,3.25719 -7.81762,6.21204 z"
       id="path1224"
       inkscape:connector-curvature="0"
       sodipodi:nodetypes="scss" />
    <path
       style="fill:none;stroke:#000000;stroke-width:0.91345733px;stroke-linecap:butt;stroke-linejoin:miter;stroke-opacity:1"
       d="m -397.77409,216.22215 c -0.15858,1.35497 0.32893,2.64878 1.84547,3.57558"
       id="path1226"
       inkscape:connector-curvature="0"
       sodipodi:nodetypes="cc" />
    <path
       style="fill:none;stroke:#000000;stroke-width:0.69048744;stroke-linecap:butt;stroke-linejoin:miter;stroke-miterlimit:4;stroke-dasharray:none;stroke-opacity:1"
       d="m -397.7543,227.42426 c 0,0 -9.52915,-9.16573 -15.34041,-12.11085 -1.67235,-0.84754 -3.77981,-0.59308 -5.42104,-1.49944 -0.77427,-0.42759 -1.96081,-1.78779 -1.96081,-1.78779"
       id="path1228"
       inkscape:connector-curvature="0"
       sodipodi:nodetypes="caac" />
    <path
       style="fill:#ffffff;fill-opacity:1;stroke:#000000;stroke-width:0.42400208;stroke-linecap:butt;stroke-linejoin:miter;stroke-miterlimit:4;stroke-dasharray:none;stroke-opacity:1"
       d="m -412.99765,215.55392 v 2.76224 l 1.62901,-1.8415 z"
       id="path1230"
       inkscape:connector-curvature="0" />
    <path
       inkscape:connector-curvature="0"
       id="path1232"
       d="m -401.95833,223.66361 -0.5981,2.39242 1.96044,-1.32913 z"
       style="fill:#ffffff;fill-opacity:1;stroke:#000000;stroke-width:0.39783704;stroke-linecap:butt;stroke-linejoin:miter;stroke-miterlimit:4;stroke-dasharray:none;stroke-opacity:1"
       sodipodi:nodetypes="cccc" />
    <path
       style="fill:#ffffff;fill-opacity:1;stroke:#000000;stroke-width:0.44221693;stroke-linecap:butt;stroke-linejoin:miter;stroke-miterlimit:4;stroke-dasharray:none;stroke-opacity:1"
       d="m -406.18223,220.13078 -0.44323,2.65931 1.95754,-1.4774 z"
       id="path1234"
       inkscape:connector-curvature="0"
       sodipodi:nodetypes="cccc" />
    <path
       inkscape:connector-curvature="0"
       id="path1236"
       d="m -408.03758,218.31026 0.54308,-2.7516 -2.02749,1.70165 z"
       style="fill:#ffffff;fill-opacity:1;stroke:#000000;stroke-width:0.4334833;stroke-linecap:butt;stroke-linejoin:miter;stroke-miterlimit:4;stroke-dasharray:none;stroke-opacity:1"
       sodipodi:nodetypes="cccc" />
    <path
       style="fill:#ffffff;fill-opacity:1;stroke:#000000;stroke-width:0.44636846;stroke-linecap:butt;stroke-linejoin:miter;stroke-miterlimit:4;stroke-dasharray:none;stroke-opacity:1"
       d="m -416.62487,214.21523 -0.0745,-2.90795 -1.86407,2.12505 z"
       id="path1238"
       inkscape:connector-curvature="0"
       sodipodi:nodetypes="cccc" />
    <ellipse
       style="opacity:1;fill:#000000;fill-opacity:1;stroke:none;stroke-width:0.34524372;stroke-linejoin:miter;stroke-miterlimit:4;stroke-dasharray:none;stroke-opacity:1"
       id="path1240"
       cx="-409.92282"
       cy="202.51051"
       rx="1.3264261"
       ry="1.153414" />
    <path
       style="fill:none;stroke:#000000;stroke-width:0.91345733px;stroke-linecap:butt;stroke-linejoin:miter;stroke-opacity:1"
       d="m -408.53605,202.47556 -2.81378,-2.60987"
       id="path1242"
       inkscape:connector-curvature="0" />
  </g>
</svg>
