<?xml version="1.0" encoding="UTF-8" standalone="no"?>
<!-- Created with Inkscape (http://www.inkscape.org/) -->

<svg
   xmlns:dc="http://purl.org/dc/elements/1.1/"
   xmlns:cc="http://creativecommons.org/ns#"
   xmlns:rdf="http://www.w3.org/1999/02/22-rdf-syntax-ns#"
   xmlns:svg="http://www.w3.org/2000/svg"
   xmlns="http://www.w3.org/2000/svg"
   xmlns:sodipodi="http://sodipodi.sourceforge.net/DTD/sodipodi-0.dtd"
   xmlns:inkscape="http://www.inkscape.org/namespaces/inkscape"
   width="39.6875"
   height="39.6875"
   viewBox="-242.660720 0.666667 39.687500 39.687500"
   version="1.1"
   id="svg8"
   sodipodi:docname="fairy.svg"
   inkscape:version="0.92.2 5c3e80d, 2017-08-06">
  <sodipodi:namedview
     id="base"
     pagecolor="#ffffff"
     bordercolor="#666666"
     borderopacity="1.0"
     inkscape:pageopacity="0.0"
     inkscape:pageshadow="2"
     inkscape:zoom="16"
     inkscape:cx="20.655037"
     inkscape:cy="15.732887"
     inkscape:document-units="mm"
     inkscape:current-layer="layer1"
     showgrid="false"
     inkscape:window-width="2560"
     inkscape:window-height="1380"
     inkscape:window-x="0"
     inkscape:window-y="0"
     inkscape:window-maximized="1"
     inkscape:measure-start="-8.25195e-07,39.6875"
     inkscape:measure-end="39.6875,39.6875" />
  <defs
     id="defs2" />
  <metadata
     id="metadata5">
    <rdf:RDF>
      <cc:Work
         rdf:about="">
        <dc:format>image/svg+xml</dc:format>
        <dc:type
           rdf:resource="http://purl.org/dc/dcmitype/StillImage" />
        <dc:title></dc:title>
      </cc:Work>
    </rdf:RDF>
  </metadata>
  <g
     id="layer1"
     inkscape:groupmode="layer"
     inkscape:label="Layer 1">
    <path
       id="path938"
       style="fill:#e1c597;fill-opacity:1;stroke:#000000;stroke-width:0.07559055;stroke-linecap:butt;stroke-linejoin:miter;stroke-miterlimit:4;stroke-dasharray:none;stroke-opacity:1"
       d="m -222.72915,40.034532 c 0,0 7.67819,0.0889 11.04854,-0.03392 1.97478,-0.07196 -7.29204,-19.468644 -7.29204,-19.468644 0,0 4.44612,0.09672 6.0546,0.02321 1.29576,-0.05922 1.15552,-3.736408 -0.13258,-3.889087 -1.71834,-0.203675 -6.36396,-0.08839 -6.36396,-0.08839 0,0 -2.44384,-15.3843806 -3.34641,-15.379576 -0.87084,0.00464 -3.28271,15.379568 -3.28271,15.379568 0,0 -4.5675,-0.146535 -6.36396,0.08839 -1.28616,0.168193 -1.42738,3.811633 -0.13258,3.889087 1.5437,0.09234 6.0546,-0.02321 6.0546,-0.02321 0,0 -9.35684,19.398109 -7.29204,19.468644 3.57294,0.122053 11.04854,0.03392 11.04854,0.03392"
       inkscape:connector-curvature="0"
       sodipodi:nodetypes="cscsscscsscsc" />
  </g>
</svg>
