<?xml version="1.0" encoding="UTF-8" standalone="no"?>
<!-- Created with Inkscape (http://www.inkscape.org/) -->

<svg
   xmlns:dc="http://purl.org/dc/elements/1.1/"
   xmlns:cc="http://creativecommons.org/ns#"
   xmlns:rdf="http://www.w3.org/1999/02/22-rdf-syntax-ns#"
   xmlns:svg="http://www.w3.org/2000/svg"
   xmlns="http://www.w3.org/2000/svg"
   xmlns:sodipodi="http://sodipodi.sourceforge.net/DTD/sodipodi-0.dtd"
   xmlns:inkscape="http://www.inkscape.org/namespaces/inkscape"
   width="39.6875"
   height="39.6875"
   viewBox="-242.660720 0.666667 39.687500 39.687500"
   version="1.1"
   id="svg8"
   sodipodi:docname="follower_red.svg"
   inkscape:version="0.92.2 5c3e80d, 2017-08-06">
  <sodipodi:namedview
     id="base"
     pagecolor="#ffffff"
     bordercolor="#666666"
     borderopacity="1.0"
     inkscape:pageopacity="0.0"
     inkscape:pageshadow="2"
     inkscape:zoom="22.627417"
     inkscape:cx="26.832008"
     inkscape:cy="15.686802"
     inkscape:document-units="mm"
     inkscape:current-layer="layer1"
     showgrid="false"
     inkscape:window-width="2560"
     inkscape:window-height="1380"
     inkscape:window-x="0"
     inkscape:window-y="0"
     inkscape:window-maximized="1"
     inkscape:measure-start="-8.25195e-07,39.6875"
     inkscape:measure-end="39.6875,39.6875" />
  <defs
     id="defs2" />
  <metadata
     id="metadata5">
    <rdf:RDF>
      <cc:Work
         rdf:about="">
        <dc:format>image/svg+xml</dc:format>
        <dc:type
           rdf:resource="http://purl.org/dc/dcmitype/StillImage" />
        <dc:title></dc:title>
      </cc:Work>
    </rdf:RDF>
  </metadata>
  <g
     id="layer1"
     inkscape:groupmode="layer"
     inkscape:label="Layer 1">
    <g
       id="g850"
       transform="translate(0,-0.22097087)">
      <path
         sodipodi:nodetypes="csssccsssssssc"
         inkscape:connector-curvature="0"
         id="path840"
         d="m -222.86173,1.2865174 c -1.39649,-0.026887 -3.0662,0.1941833 -3.98638,1.5475878 -1.30868,1.9248046 -1.41041,3.182784 -1.94031,5.7342007 -0.31489,1.5161931 -1.35913,3.7529261 -2.74791,4.6327001 -3.37421,2.137515 -2.9726,2.077445 -5.87468,4.380769 -2.09666,2.41018 -0.0472,5.575084 1.64344,4.961951 1.85291,-0.693718 1.20861,-0.49188 2.85099,-1.374919 0.78847,-0.42393 2.93588,-1.719295 3.02736,-0.658811 0.20929,2.42626 -0.0474,4.757657 -1.12077,7.262892 -1.12406,2.623464 -3.02519,4.837366 -3.89979,7.289651 -0.48807,1.368485 -1.8947,3.545588 -0.38014,4.475772 2.14837,1.319448 6.07546,0.75606 7.80906,0.06227 1.44821,-0.579577 1.92818,-2.734573 2.84672,-3.842725 0.32505,-0.392147 0.91819,-1.192283 1.81611,-1.193215"
         style="fill:none;stroke:#000000;stroke-width:0.07559055;stroke-linecap:butt;stroke-linejoin:miter;stroke-miterlimit:4;stroke-dasharray:none;stroke-opacity:1" />
      <path
         style="fill:none;stroke:#000000;stroke-width:0.07559055;stroke-linecap:butt;stroke-linejoin:miter;stroke-miterlimit:4;stroke-dasharray:none;stroke-opacity:1"
         d="m -222.86173,1.2865174 c 1.39649,-0.026887 3.0662,0.1941833 3.98638,1.5475878 1.30868,1.9248046 1.41041,3.182784 1.94031,5.7342007 0.31489,1.5161931 1.35913,3.7529261 2.74791,4.6327001 3.37421,2.137515 2.9726,2.077445 5.87468,4.380769 2.09666,2.41018 0.0472,5.575084 -1.64344,4.961951 -1.85291,-0.693718 -1.20861,-0.49188 -2.85099,-1.374919 -0.78847,-0.42393 -2.93588,-1.719295 -3.02736,-0.658811 -0.20929,2.42626 0.0474,4.757657 1.12077,7.262892 1.12406,2.623464 3.02519,4.837366 3.89979,7.289651 0.48807,1.368485 1.8947,3.545588 0.38014,4.475772 -2.14837,1.319448 -6.07546,0.75606 -7.80906,0.06227 -1.44821,-0.579577 -1.92818,-2.734573 -2.84672,-3.842725 -0.32505,-0.392147 -0.91819,-1.192283 -1.81611,-1.193215"
         id="path846"
         inkscape:connector-curvature="0"
         sodipodi:nodetypes="csssccsssssssc" />
    </g>
    <path
       style="opacity:1;fill:#ff0000;fill-opacity:1;stroke:#000000;stroke-width:0.00334066;stroke-linejoin:miter;stroke-miterlimit:4;stroke-dasharray:none;stroke-opacity:1"
       d="M 9.7730565,39.33129 C 8.7348259,39.213788 7.693319,38.857451 7.2002858,38.451051 7.1117328,38.378058 6.9782091,38.196122 6.9035665,38.04675 6.7834692,37.806413 6.7678527,37.731174 6.7678527,37.392888 c 0,-0.496128 0.1166055,-0.954031 0.4505084,-1.769123 0.1443808,-0.352448 0.4114587,-1.008732 0.5935063,-1.458407 0.4440023,-1.09673 0.9067553,-1.978636 1.9307517,-3.679588 1.1045219,-1.834712 1.1596009,-1.931136 1.5539109,-2.720347 0.846416,-1.694101 1.327229,-3.314732 1.529996,-5.157013 0.06566,-0.596593 0.06715,-2.547959 0.0022,-2.933599 -0.05491,-0.326205 -0.131595,-0.429814 -0.364545,-0.492541 -0.472628,-0.127265 -1.353304,0.244315 -3.5766831,1.509093 -0.3799567,0.21614 -0.9918796,0.514177 -1.3700194,0.667268 -0.6514318,0.263735 -0.7009212,0.276687 -1.059017,0.277171 C 5.9647597,21.636469 5.6749999,21.502256 5.2564332,21.079024 4.3857632,20.198649 4.1788869,18.69335 4.7681685,17.526251 5.0320613,17.0036 5.2026396,16.817377 6.0493352,16.127589 c 0.4559516,-0.371457 1.0676515,-0.873728 1.359333,-1.11616 0.767083,-0.637561 1.5595894,-1.218149 2.541165,-1.861651 0.4739828,-0.310734 1.0229718,-0.67059 1.2199758,-0.799681 0.73017,-0.478459 1.394166,-1.315772 1.983337,-2.5010333 0.438595,-0.8823389 0.674984,-1.6409403 0.974813,-3.1282881 0.425225,-2.1093995 0.67681,-2.9190277 1.201631,-3.8669902 0.627519,-1.1334607 1.017092,-1.5504757 1.801796,-1.92872036 0.844356,-0.40699742 2.197484,-0.56763933 3.641791,-0.43234952 1.065076,0.0997669 1.90408,0.42421068 2.485504,0.96114818 0.383719,0.3543584 0.819305,0.997922 1.186814,1.7534751 0.45484,0.9350956 0.622139,1.5106765 1.040484,3.579728 0.353125,1.7464822 0.681994,2.6837779 1.308427,3.7290932 0.624308,1.04177 1.051512,1.459611 2.348012,2.296551 1.165868,0.752612 1.958939,1.312764 2.619453,1.850138 2.291433,1.86424 2.530668,2.067886 2.730371,2.324197 0.809431,1.038877 0.905411,2.457747 0.242366,3.582931 -0.227176,0.385518 -0.610518,0.764015 -0.9459,0.933946 -0.229629,0.116348 -0.306792,0.132334 -0.636934,0.13195 -0.357465,-3.97e-4 -0.408812,-0.01377 -1.06066,-0.275816 -0.43368,-0.174344 -1.017413,-0.46257 -1.59099,-0.785572 -2.134442,-1.201981 -2.936861,-1.529617 -3.381619,-1.380749 -0.275064,0.09207 -0.32966,0.209633 -0.376132,0.80995 -0.199226,2.573608 0.287933,5.12509 1.434215,7.511658 0.358047,0.745458 0.78739,1.508416 1.615843,2.871412 1.139266,1.874356 1.543917,2.636574 1.936115,3.646955 0.09927,0.255736 0.283014,0.703202 0.408323,0.994369 0.688305,1.599334 0.839486,2.311509 0.616951,2.906287 -0.225082,0.601585 -1.078501,1.067049 -2.429397,1.325019 -0.444473,0.08488 -0.655585,0.09714 -1.658357,0.09632 -0.867588,-7.07e-4 -1.278954,-0.02014 -1.679379,-0.07935 -1.369894,-0.20255 -2.453221,-0.514998 -2.946713,-0.849876 -0.513923,-0.348743 -0.814401,-0.762382 -1.532795,-2.11005 -0.590557,-1.107852 -0.842084,-1.481128 -1.332026,-1.976776 -0.278463,-0.281707 -0.455515,-0.419158 -0.684347,-0.53128 -0.282782,-0.138556 -0.342145,-0.151177 -0.707107,-0.150345 -0.363991,8.31e-4 -0.423226,0.01366 -0.685672,0.148543 -0.344848,0.177231 -0.967634,0.790136 -1.308985,1.288216 -0.124425,0.181555 -0.420478,0.698016 -0.657894,1.147692 -0.754165,1.42842 -1.226403,2.035714 -1.81331,2.3319 -0.596722,0.301139 -1.914977,0.617141 -3.079699,0.738241 -0.690288,0.07177 -1.913978,0.08104 -2.4650825,0.01867 z"
       id="path852"
       inkscape:connector-curvature="0"
       transform="translate(-242.66072,0.666667)" />
  </g>
</svg>
