<?xml version="1.0" encoding="UTF-8" standalone="no"?>
<!-- Created with Inkscape (http://www.inkscape.org/) -->

<svg
   xmlns:dc="http://purl.org/dc/elements/1.1/"
   xmlns:cc="http://creativecommons.org/ns#"
   xmlns:rdf="http://www.w3.org/1999/02/22-rdf-syntax-ns#"
   xmlns:svg="http://www.w3.org/2000/svg"
   xmlns="http://www.w3.org/2000/svg"
   xmlns:sodipodi="http://sodipodi.sourceforge.net/DTD/sodipodi-0.dtd"
   xmlns:inkscape="http://www.inkscape.org/namespaces/inkscape"
   width="16.562729"
   height="18.640625"
   viewBox="-230.711000 13.322910 16.562729 18.640625"
   version="1.1"
   id="svg8"
   sodipodi:docname="inn.svg"
   inkscape:version="0.92.2 5c3e80d, 2017-08-06">
  <sodipodi:namedview
     id="base"
     pagecolor="#ffffff"
     bordercolor="#666666"
     borderopacity="1.0"
     inkscape:pageopacity="0.0"
     inkscape:pageshadow="2"
     inkscape:zoom="32"
     inkscape:cx="-7.9718724"
     inkscape:cy="4.7010975"
     inkscape:document-units="mm"
     inkscape:current-layer="layer1"
     showgrid="true"
     inkscape:window-width="2560"
     inkscape:window-height="1380"
     inkscape:window-x="0"
     inkscape:window-y="0"
     inkscape:window-maximized="1"
     inkscape:measure-start="-8.25195e-07,39.6875"
     inkscape:measure-end="39.6875,39.6875"
     objecttolerance="20"
     gridtolerance="15"
     guidetolerance="15">
    <inkscape:grid
       spacingy="1"
       empspacing="5"
       units="px"
       id="grid821"
       type="axonomgrid"
       snapvisiblegridlinesonly="false" />
  </sodipodi:namedview>
  <defs
     id="defs2" />
  <metadata
     id="metadata5">
    <rdf:RDF>
      <cc:Work
         rdf:about="">
        <dc:format>image/svg+xml</dc:format>
        <dc:type
           rdf:resource="http://purl.org/dc/dcmitype/StillImage" />
        <dc:title></dc:title>
      </cc:Work>
    </rdf:RDF>
  </metadata>
  <g
     inkscape:label="Layer 1"
     inkscape:groupmode="layer"
     id="layer1">
    <g
       id="g5421">
      <path
         style="opacity:1;fill:#00c6ff;fill-opacity:1;stroke:none;stroke-width:0.18897638;stroke-linejoin:miter;stroke-miterlimit:4;stroke-dasharray:none;stroke-opacity:1"
         d="m -214.83005,26.541697 c 0,1.579189 -0.90243,1.638857 -2.36145,2.673747 -1.45903,1.03489 -2.43609,2.647255 -4.66249,2.647255 -2.2264,0 -3.07088,-2.032209 -4.5299,-3.067099 -1.45903,-1.034891 -3.66518,-0.254869 -4.12922,-1.944544 -0.41821,-1.522806 1.30017,-4.467284 2.7592,-5.502175 1.45902,-1.03489 3.01061,0.09278 5.3033,-0.216575 2.2064,-0.297716 3.86637,1.059938 5.3254,2.094828 1.45902,1.03489 2.29516,1.735374 2.29516,3.314563 z"
         id="path4729"
         inkscape:connector-curvature="0"
         sodipodi:nodetypes="sssssssss" />
      <path
         style="fill:none;stroke:#000000;stroke-width:0.07559055;stroke-linecap:butt;stroke-linejoin:miter;stroke-miterlimit:4;stroke-dasharray:none;stroke-opacity:1"
         d="m -227.52907,21.590423 4.33013,2.5 8.56353,-4.985922 v -2.966855 l -8.56353,4.952777 -4.33013,-2.5 z"
         id="path823"
         inkscape:connector-curvature="0"
         sodipodi:nodetypes="ccccccc" />
      <path
         style="fill:none;stroke:#000000;stroke-width:0.07559055;stroke-linecap:butt;stroke-linejoin:miter;stroke-miterlimit:4;stroke-dasharray:none;stroke-opacity:1"
         d="m -223.19894,21.090423 -1.73206,-3 -2.59807,0.5 7.69751,-4.399548 3.00043,-0.776293 2.19572,2.723064"
         id="path825"
         inkscape:connector-curvature="0"
         sodipodi:nodetypes="cccccc" />
      <path
         style="fill:none;stroke:#000000;stroke-width:0.07559055;stroke-linecap:butt;stroke-linejoin:miter;stroke-miterlimit:4;stroke-dasharray:none;stroke-opacity:1"
         d="m -224.931,18.090423 8.09987,-4.675841"
         id="path827"
         inkscape:connector-curvature="0"
         sodipodi:nodetypes="cc" />
      <path
         style="fill:none;stroke:#000000;stroke-width:0.07559055;stroke-linecap:butt;stroke-linejoin:miter;stroke-miterlimit:4;stroke-dasharray:none;stroke-opacity:1"
         d="m -223.19894,21.090423 v 3"
         id="path829"
         inkscape:connector-curvature="0" />
      <path
         style="fill:none;stroke:#000000;stroke-width:0.07559055;stroke-linecap:butt;stroke-linejoin:miter;stroke-miterlimit:4;stroke-dasharray:none;stroke-opacity:1"
         d="m -225.79702,22.590423 v -2 l 0.86602,0.5 v 2"
         id="path831"
         inkscape:connector-curvature="0" />
      <path
         style="opacity:1;fill:#d5c16d;fill-opacity:1;stroke:#000000;stroke-width:0.00083517;stroke-miterlimit:4;stroke-dasharray:none;stroke-opacity:1"
         d="m -224.06873,23.538994 -0.81998,-0.472406 -3.7e-4,-1.001229 -3.8e-4,-1.001229 -0.46601,-0.269354 c -0.25631,-0.148144 -0.4701,-0.27101 -0.47509,-0.273035 -0.005,-0.002 -0.009,0.444197 -0.009,0.991606 0,0.54741 -0.003,0.99529 -0.006,0.99529 -0.003,0 -0.37374,-0.212247 -0.82312,-0.47166 l -0.81699,-0.471659 v -1.450587 -1.450587 l 0.0911,0.0535 c 0.0501,0.02943 0.99852,0.576923 2.10751,1.216658 1.109,0.639735 2.0226,1.168883 2.03022,1.175884 0.011,0.0101 0.0133,0.310536 0.011,1.45697 l -0.003,1.444242 z"
         id="path858"
         inkscape:connector-curvature="0" />
      <path
         style="opacity:1;fill:#a05a2c;fill-opacity:1;stroke:#000000;stroke-width:0.00083517;stroke-miterlimit:4;stroke-dasharray:none;stroke-opacity:1"
         d="m -225.37243,22.787076 -0.37801,-0.217672 -4e-4,-0.947413 c -2.2e-4,-0.521077 0.003,-0.947412 0.006,-0.947412 0.004,0 0.17751,0.09819 0.38635,0.218208 l 0.37971,0.218209 3.4e-4,0.947413 c 2e-4,0.521077 -0.003,0.947171 -0.008,0.946876 -0.005,-2.95e-4 -0.17839,-0.09849 -0.38629,-0.218209 z"
         id="path860"
         inkscape:connector-curvature="0" />
      <path
         style="opacity:1;fill:#ff8080;fill-opacity:1;stroke:#000000;stroke-width:0.00083517;stroke-miterlimit:4;stroke-dasharray:none;stroke-opacity:1"
         d="m -225.36759,19.788219 c -1.11657,-0.644666 -2.02818,-1.174059 -2.02581,-1.176429 0.006,-0.0055 2.40348,-0.467328 2.42658,-0.467328 0.0113,0 0.29658,0.483833 0.82759,1.403649 0.44568,0.772006 0.8084,1.405579 0.80604,1.407938 -0.002,0.0024 -0.91784,-0.523164 -2.0344,-1.16783 z"
         id="path862"
         inkscape:connector-curvature="0" />
      <path
         style="opacity:1;fill:#d5c16d;fill-opacity:1;stroke:#000000;stroke-width:0.00083517;stroke-miterlimit:4;stroke-dasharray:none;stroke-opacity:1"
         d="m -223.40343,20.912444 c -1.2635,-0.724697 -3.49994,-2.015648 -3.84447,-2.219164 -0.12674,-0.07486 -0.13082,-0.07841 -0.0994,-0.0864 0.0417,-0.01062 1.48535,-0.289118 2.21249,-0.426819 l 0.16894,-0.03199 0.0622,0.100396 c 0.19836,0.320439 1.55745,2.67657 1.54884,2.685072 -0.002,0.0023 -0.0242,-0.0071 -0.0485,-0.02109 z"
         id="path868"
         inkscape:connector-curvature="0" />
      <path
         style="opacity:0.5;fill:#f2f8f9;fill-opacity:1;stroke:none;stroke-width:1.00157475;stroke-linecap:butt;stroke-linejoin:miter;stroke-miterlimit:4;stroke-dasharray:none;stroke-opacity:1"
         d="m -229.3766,24.932076 c 0,0 1.85237,-1.259535 2.56326,-1.37002 0.64966,-0.100968 1.38991,0.534323 2.12243,0.973885 0.73252,0.439563 2.71094,0.207465 2.71094,0.207465 0,0 -2.09278,0.500248 -2.73333,0.305246 -0.64054,-0.195002 -1.30345,-0.830293 -1.83488,-0.823684 -0.71832,0.0089 -2.82842,0.707108 -2.82842,0.707108 z"
         id="path5334"
         inkscape:connector-curvature="0"
         sodipodi:nodetypes="csscssc" />
      <path
         sodipodi:nodetypes="csscssc"
         inkscape:connector-curvature="0"
         id="path5336"
         d="m -224.16169,27.182285 c 0,0 1.60931,0.950176 2.3202,1.060661 0.64966,0.100968 1.38991,-0.291255 2.12243,-0.730817 0.73252,-0.439563 2.37948,-0.362145 2.37948,-0.362145 0,0 -2.00439,-0.389763 -2.64494,-0.194761 -0.64054,0.195002 -1.39184,0.719808 -1.92327,0.713199 -0.71832,-0.0089 -2.2539,-0.486137 -2.2539,-0.486137 z"
         style="opacity:0.5;fill:#f2f8f9;fill-opacity:1;stroke:none;stroke-width:1.00157475;stroke-linecap:butt;stroke-linejoin:miter;stroke-miterlimit:4;stroke-dasharray:none;stroke-opacity:1" />
      <path
         style="opacity:1;fill:#a0892c;fill-opacity:1;stroke:none;stroke-width:0.01106594;stroke-linejoin:miter;stroke-miterlimit:4;stroke-dasharray:none;stroke-opacity:1"
         d="M 4.4712517,7.0660063 V 5.6200847 L 8.705606,3.1711265 12.93996,0.72216836 12.94276,2.1500245 c 0.0022,1.1333362 -5.5e-5,1.4304769 -0.01105,1.4405617 -0.01664,0.015266 -8.4442061,4.9213418 -8.4537854,4.9213418 -0.00367,0 -0.00668,-0.6506647 -0.00668,-1.4459217 z"
         id="path5382"
         inkscape:connector-curvature="0"
         transform="translate(-227.62579,15.494785)" />
      <path
         style="opacity:1;fill:#c64040;fill-opacity:1;stroke:none;stroke-width:0.01106594;stroke-linejoin:miter;stroke-miterlimit:4;stroke-dasharray:none;stroke-opacity:1"
         d="M 3.6034845,4.083103 C 3.1419065,3.28386 2.7630999,2.624657 2.7616921,2.6182077 2.7594542,2.6079556 10.740301,-2.0064336 10.775398,-2.01518 c 0.0093,-0.00233 1.86226,2.279974 2.138657,2.63424997 0.0087,0.0111515 -1.03701,0.61818923 -8.2775317,4.80513083 L 4.4427171,5.5362722 Z"
         id="path5386"
         inkscape:connector-curvature="0"
         transform="translate(-227.62579,15.494785)" />
      <path
         style="opacity:1;fill:#ff8080;fill-opacity:1;stroke:none;stroke-width:0.01106594;stroke-linejoin:miter;stroke-miterlimit:4;stroke-dasharray:none;stroke-opacity:1"
         d="M 0.36211428,2.9945016 C 0.36464624,2.9921899 2.0422295,2.033 4.090077,0.86296855 l 3.7233591,-2.12732985 1.3253113,-0.342934 c 0.7289211,-0.1886137 1.3268666,-0.3413786 1.3287676,-0.3394777 0.0024,0.00241 -7.7178751,4.4630284 -7.7870304,4.4991821 -0.0075,0.00392 -2.30150408,0.4462957 -2.3143384,0.4462957 -0.00475,0 -0.006564,-0.00189 -0.004032,-0.0042 z"
         id="path5390"
         inkscape:connector-curvature="0"
         transform="translate(-227.62579,15.494785)" />
      <path
         inkscape:connector-curvature="0"
         id="path5394"
         d="m -221.56361,21.370747 v 1 l 0.86602,-0.5 v -1 z"
         style="fill:#a9f5f5;fill-opacity:1;stroke:#000000;stroke-width:0.07559055;stroke-linecap:butt;stroke-linejoin:miter;stroke-miterlimit:4;stroke-dasharray:none;stroke-opacity:1" />
      <path
         inkscape:connector-curvature="0"
         id="path5396"
         d="m -219.83156,20.422786 v 1 l 0.86602,-0.5 v -1 z"
         style="fill:#a9f5f5;fill-opacity:1;stroke:#000000;stroke-width:0.07559055;stroke-linecap:butt;stroke-linejoin:miter;stroke-miterlimit:4;stroke-dasharray:none;stroke-opacity:1" />
      <path
         style="fill:#a9f5f5;fill-opacity:1;stroke:#000000;stroke-width:0.07559055;stroke-linecap:butt;stroke-linejoin:miter;stroke-miterlimit:4;stroke-dasharray:none;stroke-opacity:1"
         d="m -218.09951,19.384269 v 1 l 0.86602,-0.5 v -1 z"
         id="path5398"
         inkscape:connector-curvature="0" />
      <path
         inkscape:connector-curvature="0"
         id="path5400"
         d="m -216.36745,18.345357 v 1 l 0.86602,-0.5 v -1 z"
         style="fill:#a9f5f5;fill-opacity:1;stroke:#000000;stroke-width:0.07559055;stroke-linecap:butt;stroke-linejoin:miter;stroke-miterlimit:4;stroke-dasharray:none;stroke-opacity:1" />
    </g>
  </g>
</svg>
