<?xml version="1.0" encoding="UTF-8" standalone="no"?>
<!-- Created with Inkscape (http://www.inkscape.org/) -->

<svg
   xmlns:dc="http://purl.org/dc/elements/1.1/"
   xmlns:cc="http://creativecommons.org/ns#"
   xmlns:rdf="http://www.w3.org/1999/02/22-rdf-syntax-ns#"
   xmlns:svg="http://www.w3.org/2000/svg"
   xmlns="http://www.w3.org/2000/svg"
   xmlns:sodipodi="http://sodipodi.sourceforge.net/DTD/sodipodi-0.dtd"
   xmlns:inkscape="http://www.inkscape.org/namespaces/inkscape"
   width="14.671875"
   height="14.46875"
   viewBox="-229.676350 12.322917 14.671875 14.468750"
   version="1.1"
   id="svg8"
   sodipodi:docname="monastery.svg"
   inkscape:version="0.92.2 5c3e80d, 2017-08-06">
  <sodipodi:namedview
     id="base"
     pagecolor="#ffffff"
     bordercolor="#666666"
     borderopacity="1.0"
     inkscape:pageopacity="0.0"
     inkscape:pageshadow="2"
     inkscape:zoom="64"
     inkscape:cx="10.371527"
     inkscape:cy="7.130015"
     inkscape:document-units="mm"
     inkscape:current-layer="layer1"
     showgrid="false"
     inkscape:window-width="2560"
     inkscape:window-height="1380"
     inkscape:window-x="0"
     inkscape:window-y="0"
     inkscape:window-maximized="1"
     inkscape:measure-start="-8.25195e-07,39.6875"
     inkscape:measure-end="39.6875,39.6875" />
  <defs
     id="defs2" />
  <metadata
     id="metadata5">
    <rdf:RDF>
      <cc:Work
         rdf:about="">
        <dc:format>image/svg+xml</dc:format>
        <dc:type
           rdf:resource="http://purl.org/dc/dcmitype/StillImage" />
        <dc:title />
      </cc:Work>
    </rdf:RDF>
  </metadata>
  <g
     inkscape:label="Layer 1"
     inkscape:groupmode="layer"
     id="layer1">
    <g
       transform="matrix(0.08838233,0,0,0.09331524,-230.84963,-0.76201866)"
       id="layer1-6"
       inkscape:label="Layer 1">
      <path
         inkscape:connector-curvature="0"
         id="path5096"
         d="M 51.555575,295.01563 13.748153,273.1875 v -99.21876 l 37.807422,21.82812 z"
         style="fill:none;stroke:#000000;stroke-width:0.26458332px;stroke-linecap:butt;stroke-linejoin:miter;stroke-opacity:1" />
      <path
         sodipodi:nodetypes="ccc"
         inkscape:connector-curvature="0"
         id="path5098"
         d="m 51.555575,195.79686 37.807421,-21.82812 v 63.5"
         style="fill:none;stroke:#000000;stroke-width:0.26458332px;stroke-linecap:butt;stroke-linejoin:miter;stroke-opacity:1" />
      <path
         inkscape:connector-curvature="0"
         id="path5100"
         d="m 13.748153,173.96874 37.807422,-21.82813 v 43.65625"
         style="fill:none;stroke:#000000;stroke-width:0.16500001;stroke-linecap:butt;stroke-linejoin:miter;stroke-miterlimit:4;stroke-dasharray:none;stroke-opacity:1" />
      <path
         inkscape:connector-curvature="0"
         id="path5102"
         d="m 51.555575,152.14061 37.807421,21.82813"
         style="fill:none;stroke:#000000;stroke-width:0.16500001;stroke-linecap:butt;stroke-linejoin:miter;stroke-miterlimit:4;stroke-dasharray:none;stroke-opacity:1" />
      <path
         sodipodi:nodetypes="cccc"
         inkscape:connector-curvature="0"
         id="path5104"
         d="M 51.555575,295.01563 178.72599,221.59374 v -35.71875 l -89.362994,51.59375"
         style="fill:none;stroke:#000000;stroke-width:0.26458332px;stroke-linecap:butt;stroke-linejoin:miter;stroke-opacity:1" />
      <path
         sodipodi:nodetypes="ccc"
         inkscape:connector-curvature="0"
         id="path5106"
         d="m 178.72599,185.87499 -20.62223,-19.84375 -68.740764,39.6875"
         style="fill:none;stroke:#000000;stroke-width:0.26458332px;stroke-linecap:butt;stroke-linejoin:miter;stroke-opacity:1" />
      <path
         sodipodi:nodetypes="ccc"
         inkscape:connector-curvature="0"
         id="path5108"
         d="M 158.10376,166.03124 H 137.48153 L 89.362996,193.81249"
         style="fill:none;stroke:#000000;stroke-width:0.26458332px;stroke-linecap:butt;stroke-linejoin:miter;stroke-opacity:1" />
      <path
         inkscape:connector-curvature="0"
         id="path5110"
         d="M 51.555575,152.14061 V 140.23436"
         style="fill:none;stroke:#000000;stroke-width:0.86500001;stroke-linecap:butt;stroke-linejoin:miter;stroke-miterlimit:4;stroke-dasharray:none;stroke-opacity:1" />
      <path
         inkscape:connector-curvature="0"
         id="path5112"
         d="m 48.118535,142.21874 6.874078,3.96875"
         style="fill:none;stroke:#000000;stroke-width:0.86500001;stroke-linecap:butt;stroke-linejoin:miter;stroke-miterlimit:4;stroke-dasharray:none;stroke-opacity:1" />
      <path
         transform="scale(0.26458333)"
         inkscape:connector-curvature="0"
         id="path5114"
         d="m 123.32851,697.87287 -69.855666,-40.35217 2.175447,-1.26468 c 16.111097,-9.3661 137.975099,-79.62395 138.109729,-79.62395 0.10107,0 0.18377,36.36549 0.18377,80.81221 0,44.44671 -0.17046,80.80513 -0.3788,80.79648 -0.20835,-0.009 -31.81386,-18.17419 -70.23448,-40.36789 z"
         style="opacity:1;fill:#ff5555;fill-opacity:1;stroke:#000000;stroke-width:0.62362206;stroke-miterlimit:4;stroke-dasharray:none;stroke-opacity:1" />
      <path
         transform="scale(0.26458333)"
         inkscape:connector-curvature="0"
         id="path5118"
         d="m 195.45702,657.7549 c 0,-44.61755 0.15308,-81.12283 0.34018,-81.12283 0.52147,0 140.03321,80.52127 140.05335,80.83387 0.01,0.15081 -31.06345,18.20717 -69.0515,40.12523 -37.98805,21.91807 -69.58057,40.17402 -70.2056,40.56879 l -1.13643,0.71777 z"
         style="opacity:1;fill:#aa0000;fill-opacity:1;stroke:#000000;stroke-width:0.62362206;stroke-miterlimit:4;stroke-dasharray:none;stroke-opacity:1" />
      <path
         transform="scale(0.26458333)"
         inkscape:connector-curvature="0"
         id="path5120"
         d="m 338.40461,754.55726 0.011,-21.60408 90.81933,-52.40494 90.81933,-52.40495 37.23676,0.12955 37.23677,0.12955 -126.37223,72.98352 c -69.50472,40.14094 -127.13491,73.3867 -128.06709,73.87947 l -1.69487,0.89595 z"
         style="opacity:1;fill:#ff5555;fill-opacity:1;stroke:#000000;stroke-width:0.31497669;stroke-miterlimit:4;stroke-dasharray:none;stroke-opacity:1" />
      <path
         transform="scale(0.26458333)"
         inkscape:connector-curvature="0"
         id="path5122"
         d="m 338.41401,837.09985 0.0204,-59.19488 129.11635,-74.49875 c 71.014,-40.97432 129.39553,-74.49875 129.73675,-74.49875 0.65563,0 76.47675,72.75484 76.47675,73.38396 0,0.20182 -71.64293,41.73049 -159.20651,92.28594 -87.56358,50.55545 -163.02198,94.12363 -167.68532,96.81818 l -8.47881,4.89918 z"
         style="opacity:1;fill:#aa0000;fill-opacity:1;stroke:#000000;stroke-width:0.31497669;stroke-miterlimit:4;stroke-dasharray:none;stroke-opacity:1" />
      <path
         transform="scale(0.26458333)"
         inkscape:connector-curvature="0"
         id="path5143"
         d="m 123.23112,1072.7917 -70.458143,-40.681 -0.126946,-186.73021 -0.126945,-186.73022 4.167556,2.44798 c 2.292155,1.34639 33.828159,19.55322 70.080008,40.45964 36.25185,20.90641 66.19686,38.27615 66.54448,38.59943 0.50422,0.46891 0.60635,38.27287 0.50507,186.95156 l -0.12694,186.36382 z"
         style="opacity:1;fill:#ffe680;fill-opacity:1;stroke:#000000;stroke-width:0.31497669;stroke-miterlimit:4;stroke-dasharray:none;stroke-opacity:1" />
      <path
         transform="scale(0.26458333)"
         inkscape:connector-curvature="0"
         id="path5145"
         d="m 195.58262,927.06857 0.12694,-186.67087 70.37615,-40.62993 c 38.70688,-22.34646 70.46987,-40.62993 70.58441,-40.62993 0.11454,0 0.20826,53.64623 0.20826,119.21385 0,100.62201 0.10819,119.25537 0.69372,119.48006 0.38155,0.14641 76.29907,-43.38567 168.70561,-96.73796 92.40654,-53.35229 168.12098,-97.00416 168.2543,-97.00416 0.13332,0 0.23436,29.94471 0.22452,66.5438 l -0.0179,66.54379 -238.43568,137.63329 C 305.16336,1050.5088 197.32468,1112.7353 196.66149,1113.0916 l -1.20582,0.6479 z"
         style="opacity:1;fill:#aa8800;fill-opacity:1;stroke:#000000;stroke-width:0.31497669;stroke-miterlimit:4;stroke-dasharray:none;stroke-opacity:1" />
      <path
         transform="scale(0.26458333)"
         inkscape:connector-curvature="0"
         id="path5147"
         d="m 123.10485,1072.2469 -70.079335,-40.463 V 845.71342 c 0,-102.33878 0.08658,-186.07051 0.192395,-186.07051 0.181172,0 50.9261,29.26348 111.42946,64.2589 14.86187,8.59617 27.36251,15.95903 27.7792,16.3619 0.66991,0.6477 0.77312,20.18425 0.89156,168.77862 0.0737,92.42537 0.0737,176.06097 0,185.85687 l -0.13395,17.8107 z"
         style="opacity:1;fill:#d6be5f;fill-opacity:1;stroke:#000000;stroke-width:0.31497669;stroke-miterlimit:4;stroke-dasharray:none;stroke-opacity:1" />
      <path
         sodipodi:nodetypes="ccscc"
         inkscape:connector-curvature="0"
         id="path5149"
         d="m 24.059268,279.14063 v -23.81252 c 0,0 4.264937,-4.40787 6.874077,-3.96875 3.451568,0.5809 6.874076,7.9375 6.874076,7.9375 v 27.78127"
         style="fill:none;stroke:#000000;stroke-width:0.26458332px;stroke-linecap:butt;stroke-linejoin:miter;stroke-opacity:1" />
      <path
         transform="scale(0.26458333)"
         inkscape:connector-curvature="0"
         id="path5151"
         d="m 116.41259,1067.9439 -24.74874,-14.3036 -0.129035,-43.9769 -0.129035,-43.97687 2.686149,-2.56367 c 8.447031,-8.06186 18.158191,-13.36757 22.707871,-12.40649 6.55132,1.38391 15.48389,10.99938 22.78026,24.52184 l 2.33888,4.33466 v 51.35003 c 0,28.2425 -0.17046,51.3443 -0.37881,51.3373 -0.20834,-0.01 -11.51574,-6.4493 -25.12754,-14.3163 z"
         style="opacity:1;fill:#784421;fill-opacity:1;stroke:#000000;stroke-width:0.89574802;stroke-miterlimit:4;stroke-dasharray:none;stroke-opacity:1" />
      <path
         sodipodi:nodetypes="cccscc"
         inkscape:connector-curvature="0"
         id="path5153"
         d="m 17.185191,207.70311 6.874077,3.96875 v -19.84375 c 0,0 -1.374815,-4.76249 -3.437038,-5.95312 -1.145678,-0.66146 -3.437039,1.98437 -3.437039,1.98437 v 19.84375"
         style="fill:none;stroke:#000000;stroke-width:0.26458332px;stroke-linecap:butt;stroke-linejoin:miter;stroke-opacity:1" />
      <path
         transform="scale(0.26458333)"
         inkscape:connector-curvature="0"
         id="path5157"
         d="m 77.825983,791.68176 -12.142857,-7.02462 -0.09093,-37.17639 -0.09093,-37.17639 2.858798,-2.68935 c 2.823048,-2.65572 6.487468,-4.88795 8.02404,-4.88795 1.193545,0 3.565694,1.95718 5.545936,4.57578 2.111709,2.79244 5.52715,9.59321 7.118495,14.17422 l 1.116573,3.21428 -0.09813,37.00752 -0.09813,37.00751 z"
         style="opacity:1;fill:#c3efef;fill-opacity:1;stroke:#000000;stroke-width:0.31991002;stroke-miterlimit:4;stroke-dasharray:none;stroke-opacity:1" />
      <path
         style="fill:none;stroke:#000000;stroke-width:0.26458332px;stroke-linecap:butt;stroke-linejoin:miter;stroke-opacity:1"
         d="m 28.183714,214.05312 6.874077,3.96875 v -19.84375 c 0,0 -1.374815,-4.76249 -3.437038,-5.95312 -1.145678,-0.66146 -3.437039,1.98437 -3.437039,1.98437 v 19.84375"
         id="path5163"
         inkscape:connector-curvature="0"
         sodipodi:nodetypes="cccscc" />
      <path
         style="opacity:1;fill:#c3efef;fill-opacity:1;stroke:#000000;stroke-width:0.08464286;stroke-miterlimit:4;stroke-dasharray:none;stroke-opacity:1"
         d="m 31.589981,215.8158 -3.212797,-1.85859 -0.02406,-9.83626 -0.02406,-9.83625 0.756391,-0.71156 c 0.746931,-0.70266 1.716476,-1.29327 2.123027,-1.29327 0.315792,0 0.943423,0.51784 1.467362,1.21068 0.558723,0.73883 1.462392,2.5382 1.883435,3.75026 l 0.295427,0.85045 -0.02596,9.79157 -0.02596,9.79157 z"
         id="path5165"
         inkscape:connector-curvature="0" />
      <path
         sodipodi:nodetypes="cccscc"
         inkscape:connector-curvature="0"
         id="path5167"
         d="m 39.676175,220.10215 6.874077,3.96875 v -19.84375 c 0,0 -1.374815,-4.76249 -3.437038,-5.95312 -1.145678,-0.66146 -3.437039,1.98437 -3.437039,1.98437 v 19.84375"
         style="fill:none;stroke:#000000;stroke-width:0.26458332px;stroke-linecap:butt;stroke-linejoin:miter;stroke-opacity:1" />
      <path
         inkscape:connector-curvature="0"
         id="path5169"
         d="m 43.082442,221.86483 -3.212797,-1.85859 -0.02406,-9.83626 -0.02406,-9.83625 0.756391,-0.71156 c 0.746931,-0.70266 1.716476,-1.29327 2.123027,-1.29327 0.315792,0 0.943423,0.51784 1.467362,1.21068 0.558723,0.73883 1.462392,2.5382 1.883435,3.75026 l 0.295427,0.85045 -0.02596,9.79157 -0.02596,9.79157 z"
         style="opacity:1;fill:#c3efef;fill-opacity:1;stroke:#000000;stroke-width:0.08464286;stroke-miterlimit:4;stroke-dasharray:none;stroke-opacity:1" />
      <path
         sodipodi:nodetypes="cccscc"
         inkscape:connector-curvature="0"
         id="path5171"
         d="m 54.992613,225.56249 6.874076,-3.96875 v -19.84375 c 0,0 -2.483776,-2.90166 -3.437038,-1.98438 -2.062223,1.98438 -3.437038,5.95313 -3.437038,5.95313 z"
         style="fill:none;stroke:#000000;stroke-width:0.26458332px;stroke-linecap:butt;stroke-linejoin:miter;stroke-opacity:1" />
      <path
         transform="scale(0.26458333)"
         inkscape:connector-curvature="0"
         id="path5173"
         d="m 208.3617,814.57578 v -36.78223 l 1.62038,-3.8676 c 3.01817,-7.2039 6.81183,-13.59743 10.3005,-17.35961 0.8652,-0.93303 1.8804,-1.69643 2.25598,-1.69643 1.43057,0 4.54984,1.97763 7.45143,4.72422 l 3.01456,2.85354 v 37.41245 37.41246 l -12.00804,6.92367 c -6.60442,3.80801 -12.14906,6.97724 -12.32142,7.04271 -0.1785,0.0678 -0.31339,-15.71292 -0.31339,-36.66318 z"
         style="opacity:1;fill:#a2d9d9;fill-opacity:1;stroke:#000000;stroke-width:0.31991002;stroke-miterlimit:4;stroke-dasharray:none;stroke-opacity:1" />
      <path
         style="fill:none;stroke:#000000;stroke-width:0.26458332px;stroke-linecap:butt;stroke-linejoin:miter;stroke-opacity:1"
         d="m 78.915462,212.18618 6.874076,-3.96875 v -19.84375 c 0,0 -2.483776,-2.90166 -3.437038,-1.98438 -2.062223,1.98438 -3.437038,5.95313 -3.437038,5.95313 z"
         id="path5175"
         inkscape:connector-curvature="0"
         sodipodi:nodetypes="cccscc" />
      <path
         style="opacity:1;fill:#a2d9d9;fill-opacity:1;stroke:#000000;stroke-width:0.08464286;stroke-miterlimit:4;stroke-dasharray:none;stroke-opacity:1"
         d="m 79.051881,202.14687 v -9.73197 l 0.428726,-1.0233 c 0.798557,-1.90603 1.802297,-3.59765 2.725341,-4.59306 0.228917,-0.24687 0.497522,-0.44885 0.596894,-0.44885 0.378505,0 1.203812,0.52325 1.971524,1.24995 l 0.797603,0.755 v 9.89871 9.89871 l -3.177128,1.83189 c -1.747419,1.00754 -3.214438,1.84606 -3.260042,1.86338 -0.04723,0.0179 -0.08292,-4.15737 -0.08292,-9.70046 z"
         id="path5177"
         inkscape:connector-curvature="0" />
      <path
         sodipodi:nodetypes="cccscc"
         inkscape:connector-curvature="0"
         id="path5179"
         d="m 67.229532,218.93305 6.874076,-3.96875 v -19.84375 c 0,0 -2.483776,-2.90166 -3.437038,-1.98438 -2.062223,1.98438 -3.437038,5.95313 -3.437038,5.95313 z"
         style="fill:none;stroke:#000000;stroke-width:0.26458332px;stroke-linecap:butt;stroke-linejoin:miter;stroke-opacity:1" />
      <path
         inkscape:connector-curvature="0"
         id="path5181"
         d="m 67.365951,208.89374 v -9.73197 l 0.428726,-1.0233 c 0.798557,-1.90603 1.802297,-3.59765 2.725341,-4.59306 0.228917,-0.24687 0.497522,-0.44885 0.596894,-0.44885 0.378505,0 1.203812,0.52325 1.971524,1.24995 l 0.797603,0.755 v 9.89871 9.89871 l -3.177128,1.83189 c -1.747419,1.00754 -3.214438,1.84606 -3.260042,1.86338 -0.04723,0.0179 -0.08292,-4.15737 -0.08292,-9.70046 z"
         style="opacity:1;fill:#a2d9d9;fill-opacity:1;stroke:#000000;stroke-width:0.08464286;stroke-miterlimit:4;stroke-dasharray:none;stroke-opacity:1" />
      <path
         style="fill:none;stroke:#000000;stroke-width:0.26458332px;stroke-linecap:butt;stroke-linejoin:miter;stroke-opacity:1"
         d="m 96.100654,264.38377 6.874076,-3.96875 v -19.84375 c 0,0 -2.48377,-2.90166 -3.437043,-1.98438 -2.062218,1.98438 -3.437033,5.95313 -3.437033,5.95313 z"
         id="path5183"
         inkscape:connector-curvature="0"
         sodipodi:nodetypes="cccscc" />
      <path
         style="opacity:1;fill:#a2d9d9;fill-opacity:1;stroke:#000000;stroke-width:0.08464286;stroke-miterlimit:4;stroke-dasharray:none;stroke-opacity:1"
         d="m 96.237073,254.34446 v -9.73197 l 0.428726,-1.0233 c 0.798557,-1.90603 1.802298,-3.59765 2.725338,-4.59306 0.22892,-0.24687 0.49752,-0.44885 0.5969,-0.44885 0.378503,0 1.203813,0.52325 1.971523,1.24995 l 0.7976,0.755 v 9.89871 9.89871 l -3.177123,1.83189 c -1.747423,1.00754 -3.214442,1.84606 -3.260046,1.86338 -0.04723,0.0179 -0.08292,-4.15737 -0.08292,-9.70046 z"
         id="path5185"
         inkscape:connector-curvature="0" />
      <path
         sodipodi:nodetypes="cccscc"
         inkscape:connector-curvature="0"
         id="path5187"
         d="m 164.84142,224.4893 6.87407,-3.96875 V 200.6768 c 0,0 -2.48377,-2.90166 -3.43704,-1.98438 -2.06221,1.98438 -3.43703,5.95313 -3.43703,5.95313 z"
         style="fill:none;stroke:#000000;stroke-width:0.26458332px;stroke-linecap:butt;stroke-linejoin:miter;stroke-opacity:1" />
      <path
         inkscape:connector-curvature="0"
         id="path5189"
         d="m 164.97784,214.44999 v -9.73197 l 0.42873,-1.0233 c 0.79855,-1.90603 1.80229,-3.59765 2.72533,-4.59306 0.22892,-0.24687 0.49752,-0.44885 0.5969,-0.44885 0.3785,0 1.20381,0.52325 1.97152,1.24995 l 0.7976,0.755 v 9.89871 9.89871 l -3.17712,1.83189 c -1.74742,1.00754 -3.21444,1.84606 -3.26004,1.86338 -0.0472,0.0179 -0.0829,-4.15737 -0.0829,-9.70046 z"
         style="opacity:1;fill:#a2d9d9;fill-opacity:1;stroke:#000000;stroke-width:0.08464286;stroke-miterlimit:4;stroke-dasharray:none;stroke-opacity:1" />
      <path
         style="fill:none;stroke:#000000;stroke-width:0.26458332px;stroke-linecap:butt;stroke-linejoin:miter;stroke-opacity:1"
         d="m 147.65621,234.41118 6.87407,-3.96875 v -19.84375 c 0,0 -2.48377,-2.90166 -3.43704,-1.98438 -2.06221,1.98438 -3.43703,5.95313 -3.43703,5.95313 z"
         id="path5191"
         inkscape:connector-curvature="0"
         sodipodi:nodetypes="cccscc" />
      <path
         style="opacity:1;fill:#a2d9d9;fill-opacity:1;stroke:#000000;stroke-width:0.08464286;stroke-miterlimit:4;stroke-dasharray:none;stroke-opacity:1"
         d="m 147.79263,224.37187 v -9.73197 l 0.42873,-1.0233 c 0.79855,-1.90603 1.80229,-3.59765 2.72533,-4.59306 0.22892,-0.24687 0.49752,-0.44885 0.5969,-0.44885 0.3785,0 1.20381,0.52325 1.97152,1.24995 l 0.7976,0.755 v 9.89871 9.89871 l -3.17712,1.83189 c -1.74742,1.00754 -3.21444,1.84606 -3.26004,1.86338 -0.0472,0.0179 -0.0829,-4.15737 -0.0829,-9.70046 z"
         id="path5193"
         inkscape:connector-curvature="0" />
      <path
         sodipodi:nodetypes="cccscc"
         inkscape:connector-curvature="0"
         id="path5195"
         d="m 130.47102,245.1268 6.87407,-3.96875 V 221.3143 c 0,0 -2.48377,-2.90166 -3.43704,-1.98438 -2.06221,1.98438 -3.43703,5.95313 -3.43703,5.95313 z"
         style="fill:none;stroke:#000000;stroke-width:0.26458332px;stroke-linecap:butt;stroke-linejoin:miter;stroke-opacity:1" />
      <path
         inkscape:connector-curvature="0"
         id="path5197"
         d="m 130.60744,235.08749 v -9.73197 l 0.42873,-1.0233 c 0.79855,-1.90603 1.80229,-3.59765 2.72533,-4.59306 0.22892,-0.24687 0.49752,-0.44885 0.5969,-0.44885 0.3785,0 1.20381,0.52325 1.97152,1.24995 l 0.7976,0.755 v 9.89871 9.89871 l -3.17712,1.83189 c -1.74742,1.00754 -3.21444,1.84606 -3.26004,1.86338 -0.0472,0.0179 -0.0829,-4.15737 -0.0829,-9.70046 z"
         style="opacity:1;fill:#a2d9d9;fill-opacity:1;stroke:#000000;stroke-width:0.08464286;stroke-miterlimit:4;stroke-dasharray:none;stroke-opacity:1" />
      <path
         style="fill:none;stroke:#000000;stroke-width:0.26458332px;stroke-linecap:butt;stroke-linejoin:miter;stroke-opacity:1"
         d="m 113.28582,255.04868 6.87407,-3.96875 v -19.84375 c 0,0 -2.48377,-2.90166 -3.43704,-1.98438 -2.06221,1.98438 -3.43703,5.95313 -3.43703,5.95313 z"
         id="path5199"
         inkscape:connector-curvature="0"
         sodipodi:nodetypes="cccscc" />
      <path
         style="opacity:1;fill:#a2d9d9;fill-opacity:1;stroke:#000000;stroke-width:0.08464286;stroke-miterlimit:4;stroke-dasharray:none;stroke-opacity:1"
         d="m 113.42224,245.00937 v -9.73197 l 0.42873,-1.0233 c 0.79855,-1.90603 1.80229,-3.59765 2.72533,-4.59306 0.22892,-0.24687 0.49752,-0.44885 0.5969,-0.44885 0.3785,0 1.20381,0.52325 1.97152,1.24995 l 0.7976,0.755 v 9.89871 9.89871 l -3.17712,1.83189 c -1.74742,1.00754 -3.21444,1.84606 -3.26004,1.86338 -0.0472,0.0179 -0.0829,-4.15737 -0.0829,-9.70046 z"
         id="path5201"
         inkscape:connector-curvature="0" />
    </g>
  </g>
</svg>
