<?xml version="1.0" encoding="UTF-8" standalone="no"?>
<!-- Created with Inkscape (http://www.inkscape.org/) -->

<svg
   xmlns:dc="http://purl.org/dc/elements/1.1/"
   xmlns:cc="http://creativecommons.org/ns#"
   xmlns:rdf="http://www.w3.org/1999/02/22-rdf-syntax-ns#"
   xmlns:svg="http://www.w3.org/2000/svg"
   xmlns="http://www.w3.org/2000/svg"
   xmlns:sodipodi="http://sodipodi.sourceforge.net/DTD/sodipodi-0.dtd"
   xmlns:inkscape="http://www.inkscape.org/namespaces/inkscape"
   width="39.6875"
   height="39.6875"
   viewBox="-242.660720 0.666667 39.687500 39.687500"
   version="1.1"
   id="svg8"
   sodipodi:docname="pig.svg"
   inkscape:version="0.92.1 r15371">
  <sodipodi:namedview
     id="base"
     pagecolor="#ffffff"
     bordercolor="#666666"
     borderopacity="1.0"
     inkscape:pageopacity="0.0"
     inkscape:pageshadow="2"
     inkscape:zoom="16"
     inkscape:cx="15.836046"
     inkscape:cy="22.161355"
     inkscape:document-units="mm"
     inkscape:current-layer="layer1"
     showgrid="false"
     inkscape:window-width="1366"
     inkscape:window-height="703"
     inkscape:window-x="0"
     inkscape:window-y="0"
     inkscape:window-maximized="1"
     inkscape:measure-start="-8.25195e-07,39.6875"
     inkscape:measure-end="39.6875,39.6875" />
  <defs
     id="defs2" />
  <metadata
     id="metadata5">
    <rdf:RDF>
      <cc:Work
         rdf:about="">
        <dc:format>image/svg+xml</dc:format>
        <dc:type
           rdf:resource="http://purl.org/dc/dcmitype/StillImage" />
        <dc:title></dc:title>
      </cc:Work>
    </rdf:RDF>
  </metadata>
  <g
     id="layer1"
     inkscape:groupmode="layer"
     inkscape:label="Layer 1">
    <path
       style="fill:#ff0000;stroke:#000000;stroke-width:0.07559055;stroke-linecap:butt;stroke-linejoin:miter;stroke-miterlimit:4;stroke-dasharray:none;stroke-opacity:1;fill-opacity:1"
       d="m -204.73584,20.881002 c 1.56226,-2.635589 0.89995,-6.567335 -1.41461,-9.06644 -3.07099,-2.8199457 -8.29491,-3.5884919 -11.96112,-3.8157762 -2.79819,-0.2025227 -5.68855,-0.1486899 -8.35149,0.8317698 -2.11893,0.4812773 -3.9699,1.6793594 -5.66746,2.9968114 -0.19757,-1.583004 -0.45132,-3.3943412 -1.74233,-4.4738372 -1.2701,-0.2395129 -2.89336,1.0961463 -3.36163,2.0371777 1.08151,-0.028704 2.33702,-0.4815223 2.35384,1.2760385 0.19544,1.893195 -0.87389,2.719121 -1.90794,3.811834 -1.09986,1.101885 -1.74852,2.663358 -3.51464,2.378585 -1.84089,0.306977 -1.92246,3.151781 -0.53063,3.952444 1.58481,0.09237 3.0376,0.09791 4.28768,1.278924 1.94415,1.307278 4.37696,1.272298 6.58533,1.736123 -0.82736,0.867351 -1.63943,1.548745 -2.45679,2.919266 -1.00555,2.195458 1.4262,1.609081 2.56079,1.598015 2.57949,-0.11326 2.70823,-0.962403 3.88501,-2.390692 0.91478,-1.22807 1.83651,-2.161276 3.70844,-1.986212 2.69999,0.05988 2.84871,0.12484 5.55235,0.0644 0,0 3.28083,-0.359663 2.58234,0.684992 -0.50815,1.254618 -1.5603,3.383522 -0.28811,3.763768 1.37269,0.09289 3.78845,0.652445 4.02059,-0.636799 0.36991,-1.708317 0.38941,-4.417819 2.36889,-4.935648 1.00908,-0.42923 2.41965,-0.611642 3.29149,-2.024744 z"
       id="path4546"
       inkscape:connector-curvature="0"
       sodipodi:nodetypes="ccccccccccccccccccccccc" />
  </g>
</svg>
