<?xml version="1.0" encoding="UTF-8" standalone="no"?>
<!-- Created with Inkscape (http://www.inkscape.org/) -->

<svg
   xmlns:dc="http://purl.org/dc/elements/1.1/"
   xmlns:cc="http://creativecommons.org/ns#"
   xmlns:rdf="http://www.w3.org/1999/02/22-rdf-syntax-ns#"
   xmlns:svg="http://www.w3.org/2000/svg"
   xmlns="http://www.w3.org/2000/svg"
   xmlns:sodipodi="http://sodipodi.sourceforge.net/DTD/sodipodi-0.dtd"
   xmlns:inkscape="http://www.inkscape.org/namespaces/inkscape"
   width="9.046875"
   height="8.6875"
   viewBox="-227.625790 15.494785 9.046875 8.687500"
   version="1.1"
   id="svg8"
   sodipodi:docname="pigherd.svg"
   inkscape:version="0.92.2 5c3e80d, 2017-08-06">
  <sodipodi:namedview
     id="base"
     pagecolor="#ffffff"
     bordercolor="#666666"
     borderopacity="1.0"
     inkscape:pageopacity="0.0"
     inkscape:pageshadow="2"
     inkscape:zoom="90.509668"
     inkscape:cx="0.69037069"
     inkscape:cy="3.1102211"
     inkscape:document-units="mm"
     inkscape:current-layer="layer1"
     showgrid="true"
     inkscape:window-width="2560"
     inkscape:window-height="1380"
     inkscape:window-x="0"
     inkscape:window-y="0"
     inkscape:window-maximized="1"
     inkscape:measure-start="-8.25195e-07,39.6875"
     inkscape:measure-end="39.6875,39.6875"
     objecttolerance="1"
     gridtolerance="1"
     guidetolerance="1">
    <inkscape:grid
       snapvisiblegridlinesonly="false"
       type="axonomgrid"
       id="grid821"
       units="px"
       empspacing="5"
       spacingy="1" />
  </sodipodi:namedview>
  <defs
     id="defs2" />
  <metadata
     id="metadata5">
    <rdf:RDF>
      <cc:Work
         rdf:about="">
        <dc:format>image/svg+xml</dc:format>
        <dc:type
           rdf:resource="http://purl.org/dc/dcmitype/StillImage" />
        <dc:title></dc:title>
      </cc:Work>
    </rdf:RDF>
  </metadata>
  <g
     id="layer1"
     inkscape:groupmode="layer"
     inkscape:label="Layer 1">
    <path
       sodipodi:nodetypes="cccccc"
       style="fill:#ffd5d5;fill-opacity:1;stroke:#000000;stroke-width:0.03779528;stroke-linecap:butt;stroke-linejoin:miter;stroke-miterlimit:4;stroke-dasharray:none;stroke-opacity:1"
       d="m -221.19929,21.216159 -0.0795,0.598116 -0.29803,0.150679 0.55438,-0.03015 0.10472,-0.768714 z"
       id="path7521"
       inkscape:connector-curvature="0" />
    <path
       sodipodi:nodetypes="cccccc"
       inkscape:connector-curvature="0"
       id="path7519"
       d="m -224.25237,21.071172 -0.14886,0.60103 -0.31841,0.145694 0.55795,0.0055 0.1823,-0.662913 z"
       style="fill:#ffd5d5;fill-opacity:1;stroke:#000000;stroke-width:0.03779528;stroke-linecap:butt;stroke-linejoin:miter;stroke-miterlimit:4;stroke-dasharray:none;stroke-opacity:1" />
    <path
       style="opacity:1;fill:#ffd5d5;fill-opacity:1;stroke:#000000;stroke-width:0.03779528;stroke-linejoin:miter;stroke-miterlimit:4;stroke-dasharray:none;stroke-opacity:1"
       d="m -220.31083,20.232464 c 0,0.170431 -0.01,0.443789 -0.13961,0.591467 -0.13006,0.147679 -0.20889,0.245516 -0.44146,0.357205 -0.23256,0.111688 -0.50949,0.170824 -0.817,0.233286 -0.30751,0.06246 -0.75106,0.05794 -1.10595,0.05794 -0.35489,0 -0.74375,-0.0111 -1.05126,-0.07356 -0.30751,-0.06246 -0.58444,-0.09035 -0.817,-0.202037 -0.23257,-0.111689 -0.37,-0.232964 -0.50006,-0.380643 -0.13007,-0.147678 -0.20199,-0.407698 -0.20199,-0.57813 0,-0.170432 0.0719,-0.332796 0.20199,-0.480474 0.13006,-0.147679 0.26855,-0.29172 0.50112,-0.403409 0.23257,-0.111689 0.43215,-0.179977 0.73966,-0.24244 0.30751,-0.06246 0.77265,-0.108052 1.12754,-0.108052 0.35489,0 0.72059,-0.01518 1.0281,0.04728 0.30751,0.06246 0.57891,0.108653 0.81148,0.220342 0.23257,0.111689 0.4042,0.178391 0.53427,0.32607 0.13006,0.147678 0.13017,0.464722 0.13017,0.635154 z"
       id="path7499"
       inkscape:connector-curvature="0"
       sodipodi:nodetypes="ssssssssssssssssss" />
    <path
       style="opacity:1;fill:#ffd5d5;fill-opacity:1;stroke:#000000;stroke-width:0.03779528;stroke-linejoin:miter;stroke-miterlimit:4;stroke-dasharray:none;stroke-opacity:1"
       d="m -224.52607,19.318794 c 0.0304,0.211408 -0.69162,0.709751 -0.84378,0.898465 0,0 0.056,-0.02347 -0.24606,-0.02347 -0.30203,0 -0.45065,-0.20491 -0.65739,-0.331496 -0.36514,-0.223568 -0.42484,-0.175648 -0.43636,-0.441941 -0.009,-0.21338 0.0561,-0.119677 0.44188,-0.342505 0.20992,-0.121255 0.34984,-0.430933 0.65187,-0.430933 0.30203,0 0.57547,0.08657 0.7734,0.226535 0.19793,0.139964 0.28519,0.227855 0.31644,0.44534 z"
       id="path7501"
       inkscape:connector-curvature="0"
       sodipodi:nodetypes="cssssssssc" />
    <path
       style="fill:none;stroke:#000000;stroke-width:0.03779528;stroke-linecap:butt;stroke-linejoin:miter;stroke-miterlimit:4;stroke-dasharray:none;stroke-opacity:1"
       d="m -225.52818,18.66259 0.23363,0.879307 0.36717,-0.721391"
       id="path7504"
       inkscape:connector-curvature="0"
       sodipodi:nodetypes="ccc" />
    <path
       style="fill:#ffd5d5;fill-opacity:1;stroke:#000000;stroke-width:0.03779528;stroke-linecap:butt;stroke-linejoin:miter;stroke-miterlimit:4;stroke-dasharray:none;stroke-opacity:1"
       d="m -224.6284,21.225852 -0.14886,0.60103 -0.31841,0.145694 0.55795,0.0055 0.1823,-0.662913 z"
       id="path7507"
       inkscape:connector-curvature="0"
       sodipodi:nodetypes="cccccc" />
    <path
       inkscape:connector-curvature="0"
       id="path7509"
       d="m -221.56361,21.383411 -0.0795,0.598116 -0.29803,0.150679 0.55438,-0.03015 0.10472,-0.768714 z"
       style="fill:#ffd5d5;fill-opacity:1;stroke:#000000;stroke-width:0.03779528;stroke-linecap:butt;stroke-linejoin:miter;stroke-miterlimit:4;stroke-dasharray:none;stroke-opacity:1"
       sodipodi:nodetypes="cccccc" />
    <path
       sodipodi:type="spiral"
       style="fill:#ffd5d5;fill-opacity:1;fill-rule:evenodd;stroke:#000000;stroke-width:0.03779528;stroke-miterlimit:4;stroke-dasharray:none"
       id="path7513"
       sodipodi:cx="-220.24298"
       sodipodi:cy="19.549473"
       sodipodi:expansion="1"
       sodipodi:revolution="1.4434688"
       sodipodi:radius="0.14773041"
       sodipodi:argument="-17.919716"
       sodipodi:t0="0"
       d="m -220.24298,19.549473 c 0.009,0.01234 -0.0121,0.0185 -0.0205,0.0153 -0.0228,-0.0087 -0.0222,-0.0394 -0.0101,-0.05632 0.0217,-0.03025 0.0662,-0.02769 0.0921,-0.0049 0.0381,0.03348 0.0334,0.09329 -3.2e-4,0.12793 -0.045,0.04617 -0.12056,0.03921 -0.16374,-0.0055 -0.0401,-0.04157 -0.047,-0.105813 -0.0215,-0.156794"
       transform="rotate(-62.141631,-220.22846,19.585211)" />
    <ellipse
       style="opacity:1;fill:#ffffff;fill-opacity:1;stroke:#000000;stroke-width:0.03779528;stroke-linejoin:miter;stroke-miterlimit:4;stroke-dasharray:none;stroke-opacity:1"
       id="path7515"
       cx="-225.93829"
       cy="19.057285"
       rx="0.078125"
       ry="0.15625" />
    <ellipse
       style="opacity:1;fill:#000000;fill-opacity:1;stroke:#000000;stroke-width:0.03779528;stroke-linejoin:miter;stroke-miterlimit:4;stroke-dasharray:none;stroke-opacity:1"
       id="path7517"
       cx="-225.96124"
       cy="19.128441"
       rx="0.030762887"
       ry="0.053843793" />
  </g>
</svg>
