<?xml version="1.0" encoding="UTF-8" standalone="no"?>
<!-- Created with Inkscape (http://www.inkscape.org/) -->

<svg
   xmlns:dc="http://purl.org/dc/elements/1.1/"
   xmlns:cc="http://creativecommons.org/ns#"
   xmlns:rdf="http://www.w3.org/1999/02/22-rdf-syntax-ns#"
   xmlns:svg="http://www.w3.org/2000/svg"
   xmlns="http://www.w3.org/2000/svg"
   xmlns:xlink="http://www.w3.org/1999/xlink"
   xmlns:sodipodi="http://sodipodi.sourceforge.net/DTD/sodipodi-0.dtd"
   xmlns:inkscape="http://www.inkscape.org/namespaces/inkscape"
   width="9.046875"
   height="8.6875"
   viewBox="-227.625790 15.494785 9.046875 8.687500"
   version="1.1"
   id="svg8"
   sodipodi:docname="gateway.svg"
   inkscape:version="0.92.2 5c3e80d, 2017-08-06">
  <sodipodi:namedview
     id="base"
     pagecolor="#ffffff"
     bordercolor="#666666"
     borderopacity="1.0"
     inkscape:pageopacity="0.0"
     inkscape:pageshadow="2"
     inkscape:zoom="90.509668"
     inkscape:cx="2.677268"
     inkscape:cy="4.0455486"
     inkscape:document-units="mm"
     inkscape:current-layer="layer1"
     showgrid="true"
     inkscape:window-width="2560"
     inkscape:window-height="1380"
     inkscape:window-x="0"
     inkscape:window-y="0"
     inkscape:window-maximized="1"
     inkscape:measure-start="-8.25195e-07,39.6875"
     inkscape:measure-end="39.6875,39.6875"
     objecttolerance="1"
     gridtolerance="1"
     guidetolerance="1">
    <inkscape:grid
       snapvisiblegridlinesonly="false"
       type="axonomgrid"
       id="grid821"
       units="px"
       empspacing="5"
       spacingy="1" />
  </sodipodi:namedview>
  <defs
     id="defs2">
    <linearGradient
       inkscape:collect="always"
       id="linearGradient1601">
      <stop
         style="stop-color:#ffffff;stop-opacity:1;"
         offset="0"
         id="stop1597" />
      <stop
         style="stop-color:#ffffff;stop-opacity:0;"
         offset="1"
         id="stop1599" />
    </linearGradient>
    <radialGradient
       inkscape:collect="always"
       xlink:href="#linearGradient1601"
       id="radialGradient1603"
       cx="-223.09589"
       cy="18.873327"
       fx="-223.09589"
       fy="18.873327"
       r="1.6953125"
       gradientTransform="matrix(5.1289135,-0.05127065,0.01083035,1.0834269,920.93923,-13.117642)"
       gradientUnits="userSpaceOnUse" />
  </defs>
  <metadata
     id="metadata5">
    <rdf:RDF>
      <cc:Work
         rdf:about="">
        <dc:format>image/svg+xml</dc:format>
        <dc:type
           rdf:resource="http://purl.org/dc/dcmitype/StillImage" />
        <dc:title></dc:title>
      </cc:Work>
    </rdf:RDF>
  </metadata>
  <g
     id="layer1"
     inkscape:groupmode="layer"
     inkscape:label="Layer 1">
    <path
       style="fill:#c46221;fill-opacity:1;stroke:none;stroke-width:1.00157475;stroke-linecap:butt;stroke-linejoin:miter;stroke-miterlimit:4;stroke-dasharray:none;stroke-opacity:1"
       d="m -227.48649,21.262709 c 0.008,0.72117 -0.24768,1.844009 0.41539,2.146138 1.91436,0.872285 4.39903,0.850678 6.21094,0.179683 1.00272,-0.371333 1.95455,-1.493514 1.92968,-2.562495 -0.028,-1.203691 -2.30468,-2.78125 -2.30468,-2.78125 0,0 -3.26563,0.367187 -3.53907,0.617187 -0.27343,0.25 -2.72527,1.193427 -2.71226,2.400737 z"
       id="path1547"
       inkscape:connector-curvature="0"
       sodipodi:nodetypes="sssaccs" />
    <path
       style="fill:#a05a2c;fill-opacity:1;stroke:none;stroke-width:0.03779528;stroke-linecap:butt;stroke-linejoin:miter;stroke-miterlimit:4;stroke-dasharray:none;stroke-opacity:1"
       d="m -224.54766,18.19791 c -1.30709,0.542967 -3.13828,1.663542 -2.93883,3.064799 0.0424,0.298042 0.57427,0.669333 0.78214,0.451572 0.41424,-0.433952 1.64547,-3.140478 2.23481,-2.860121 0.82964,0.394674 -2.6881,3.114446 -2.60937,4.546875 0.0139,0.25329 0.97337,0.592903 1.42566,0.429132 0.81519,-0.295173 0.74246,-3.546707 2.12121,-4.429132 0.30272,-0.193747 0.94514,-0.349534 1.07813,-0.01563 0.54394,1.365691 0.10195,3.461116 1.37278,4.136834 0.41013,0.218074 1.25716,-0.42392 1.47878,-0.832147 0.38456,-0.708366 -2.36671,-2.745291 -2.02344,-3.476562 0.45914,-0.978123 2.49272,3.046923 2.6875,1.8125 0.0714,-0.452731 0.0782,-0.945934 -0.13258,-1.352903 -0.23966,-0.46263 -1.35194,-1.159333 -2.17992,-1.412722 -1.05104,-0.321652 -2.28181,-0.484151 -3.29687,-0.06249 z"
       id="path1545"
       inkscape:connector-curvature="0"
       sodipodi:nodetypes="cassssassssssaac" />
    <ellipse
       style="opacity:1;fill:url(#radialGradient1603);fill-opacity:1;stroke:none;stroke-width:0.05822499;stroke-linejoin:miter;stroke-miterlimit:4;stroke-dasharray:none;stroke-opacity:1"
       id="path1524"
       cx="-223.04097"
       cy="18.670221"
       rx="1.6953125"
       ry="0.8203125" />
    <path
       style="fill:#8b512b;stroke:#000000;stroke-width:0.03779528;stroke-linecap:butt;stroke-linejoin:miter;stroke-miterlimit:4;stroke-dasharray:none;stroke-opacity:1;fill-opacity:1"
       d="m -224.18828,23.721347 0.0266,-2.511713 c 0,0 0.52805,-0.527904 0.86603,-0.527349 0.33866,5.56e-4 0.86602,0.53125 0.86602,0.53125 v 2.453125 z"
       id="path1549"
       inkscape:connector-curvature="0"
       sodipodi:nodetypes="ccaccc" />
    <path
       style="fill:none;stroke:#000000;stroke-width:0.03779528;stroke-linecap:butt;stroke-linejoin:miter;stroke-opacity:1;stroke-miterlimit:4;stroke-dasharray:none"
       d="m -223.29566,20.682285 v 3"
       id="path1551"
       inkscape:connector-curvature="0" />
    <path
       style="fill:none;stroke:#000000;stroke-width:0.03779528;stroke-linecap:butt;stroke-linejoin:miter;stroke-opacity:1;stroke-miterlimit:4;stroke-dasharray:none"
       d="m -223.74298,20.869785 0.0312,2.835937"
       id="path1553"
       inkscape:connector-curvature="0" />
    <path
       style="fill:none;stroke:#000000;stroke-width:0.03779528;stroke-linecap:butt;stroke-linejoin:miter;stroke-opacity:1;stroke-miterlimit:4;stroke-dasharray:none"
       d="m -222.81329,20.893222 v 2.78125"
       id="path1555"
       inkscape:connector-curvature="0" />
    <ellipse
       style="opacity:1;fill:#000000;fill-opacity:1;stroke:none;stroke-width:0.04628957;stroke-linejoin:miter;stroke-miterlimit:4;stroke-dasharray:none;stroke-opacity:1"
       id="path1557"
       cx="-223.12189"
       cy="22.32291"
       rx="0.08203125"
       ry="0.0703125" />
    <ellipse
       ry="0.0703125"
       rx="0.08203125"
       cy="22.32291"
       cx="-223.47345"
       id="ellipse1559"
       style="opacity:1;fill:#000000;fill-opacity:1;stroke:none;stroke-width:0.04628957;stroke-linejoin:miter;stroke-miterlimit:4;stroke-dasharray:none;stroke-opacity:1" />
    <g
       id="g1569">
      <path
         sodipodi:nodetypes="caac"
         inkscape:connector-curvature="0"
         id="path1561"
         d="m -223.81404,18.812693 c 0,0 -0.85287,-0.311185 -1.09381,-0.662913 -0.20291,-0.296219 0.0177,-0.766206 -0.18782,-1.06066 -0.30977,-0.443936 -1.40317,-0.817592 -1.40317,-0.817592"
         style="fill:none;fill-opacity:1;stroke:#000000;stroke-width:0.18897638;stroke-linecap:butt;stroke-linejoin:miter;stroke-miterlimit:4;stroke-dasharray:none;stroke-opacity:1" />
      <path
         inkscape:connector-curvature="0"
         id="path1563"
         d="m -226.69771,16.18314 0.60767,0.817592 0.44194,-0.928078 z"
         style="fill:#000000;stroke:none;stroke-width:1px;stroke-linecap:butt;stroke-linejoin:miter;stroke-opacity:1;fill-opacity:1" />
    </g>
    <g
       id="g1575"
       transform="rotate(104.50696,-223.20869,19.160174)">
      <path
         style="fill:none;fill-opacity:1;stroke:#000000;stroke-width:0.18897638;stroke-linecap:butt;stroke-linejoin:miter;stroke-miterlimit:4;stroke-dasharray:none;stroke-opacity:1"
         d="m -223.81404,18.812693 c 0,0 -0.85287,-0.311185 -1.09381,-0.662913 -0.20291,-0.296219 0.0177,-0.766206 -0.18782,-1.06066 -0.30977,-0.443936 -1.40317,-0.817592 -1.40317,-0.817592"
         id="path1571"
         inkscape:connector-curvature="0"
         sodipodi:nodetypes="caac" />
      <path
         style="fill:#000000;fill-opacity:1;stroke:none;stroke-width:1px;stroke-linecap:butt;stroke-linejoin:miter;stroke-opacity:1"
         d="m -226.69771,16.18314 0.60767,0.817592 0.44194,-0.928078 z"
         id="path1573"
         inkscape:connector-curvature="0" />
    </g>
    <g
       id="g1587"
       transform="translate(-0.18782524,0.08838835)">
      <path
         sodipodi:nodetypes="caac"
         inkscape:connector-curvature="0"
         id="path1577"
         d="m -223.25679,18.725458 c 0,0 0.0952,-0.726387 0.29725,-1.015503 0.17196,-0.246097 0.53733,-0.300228 0.72468,-0.534821 0.3084,-0.386163 0.59475,-1.358067 0.59475,-1.358067"
         style="fill:none;fill-opacity:1;stroke:#000000;stroke-width:0.18897638;stroke-linecap:butt;stroke-linejoin:miter;stroke-miterlimit:4;stroke-dasharray:none;stroke-opacity:1" />
      <path
         sodipodi:nodetypes="cccc"
         inkscape:connector-curvature="0"
         id="path1579"
         d="m -221.58759,15.605873 -0.69969,0.740373 0.9907,0.274121 z"
         style="fill:#000000;fill-opacity:1;stroke:none;stroke-width:1px;stroke-linecap:butt;stroke-linejoin:miter;stroke-opacity:1" />
    </g>
  </g>
</svg>
