<?xml version="1.0" encoding="UTF-8" standalone="no"?>
<!-- Created with Inkscape (http://www.inkscape.org/) -->

<svg
   xmlns:dc="http://purl.org/dc/elements/1.1/"
   xmlns:cc="http://creativecommons.org/ns#"
   xmlns:rdf="http://www.w3.org/1999/02/22-rdf-syntax-ns#"
   xmlns:svg="http://www.w3.org/2000/svg"
   xmlns="http://www.w3.org/2000/svg"
   xmlns:sodipodi="http://sodipodi.sourceforge.net/DTD/sodipodi-0.dtd"
   xmlns:inkscape="http://www.inkscape.org/namespaces/inkscape"
   sodipodi:docname="princess.svg"
   inkscape:version="0.92.2 5c3e80d, 2017-08-06"
   id="svg8"
   version="1.1"
   viewBox="-530.746090 179.638350 149.935180 149.935180"
   height="149.93518"
   width="149.93518">
  <sodipodi:namedview
     inkscape:window-maximized="1"
     inkscape:window-y="0"
     inkscape:window-x="0"
     inkscape:window-height="1380"
     inkscape:window-width="2560"
     showgrid="false"
     inkscape:current-layer="layer1"
     inkscape:document-units="mm"
     inkscape:cy="55.112431"
     inkscape:cx="-16.346124"
     inkscape:zoom="5.6"
     inkscape:pageshadow="2"
     inkscape:pageopacity="0.0"
     borderopacity="1.0"
     bordercolor="#666666"
     pagecolor="#ffffff"
     id="base"
     objecttolerance="1"
     guidetolerance="1" />
  <defs
     id="defs2" />
  <metadata
     id="metadata5">
    <rdf:RDF>
      <cc:Work
         rdf:about="">
        <dc:format>image/svg+xml</dc:format>
        <dc:type
           rdf:resource="http://purl.org/dc/dcmitype/StillImage" />
        <dc:title></dc:title>
      </cc:Work>
    </rdf:RDF>
  </metadata>
  <g
     id="layer1"
     inkscape:groupmode="layer"
     inkscape:label="Layer 1">
    <path
       id="path970"
       style="fill:#ffffff;fill-opacity:1;stroke:#000000;stroke-width:0.75590551;stroke-linecap:butt;stroke-linejoin:miter;stroke-miterlimit:4;stroke-dasharray:none;stroke-opacity:1"
       d="m -452.82582,180.60349 12.38456,-0.0631 0.44643,20.37245 30.08928,-0.0893 -0.0523,-20.39862 20.94516,0.0415 v 29.28571 l -14.64286,13.92857 0.84953,105.0523 -50.06126,0.12627 m 0.0415,-148.25578 -12.38456,-0.0631 -0.26785,20.37245 -30.26786,-0.0893 0.0523,-20.39862 -20.94516,0.0415 v 29.28571 l 14.64286,13.92857 -0.84953,105.0523 49.97834,0.12627" />
    <rect
       style="opacity:1;fill:#ffffff;fill-opacity:1;stroke:none;stroke-width:0.14356057;stroke-linejoin:miter;stroke-miterlimit:4;stroke-dasharray:none;stroke-opacity:1"
       id="rect1499"
       width="7.5"
       height="147.37373"
       x="-456.46039"
       y="181.00211" />
    <g
       id="g1509"
       transform="matrix(0.97874278,0,0,0.97874278,-159.1765,0.62082363)">
      <path
         sodipodi:nodetypes="ccccccssscccccccccccccc"
         inkscape:connector-curvature="0"
         id="path4521"
         d="m -331.13918,262.93477 c -2.87272,2.06423 -4.12482,4.63766 -5.76386,7.42961 -1.23331,3.07919 -2.4578,7.32269 -2.91743,10.55571 -0.79317,4.80286 1.53479,1.997 -0.28357,5.6182 -1.31856,2.78367 -1.90521,5.82886 -3.70873,8.40787 0.0243,3.17817 5.22209,-0.36832 3.29694,3.89671 -1.23823,0.77722 -1.28335,1.7631 -0.83114,2.39351 0.39559,0.55146 0.0127,0.69448 -0.27853,1.34487 -0.18306,0.4088 -0.12107,0.84607 0.32168,1.98795 0.33962,0.87591 -3.09318,6.69301 2.32159,7.10567 2.81624,0.2938 7.8438,-1.87411 8.7982,1.38457 0.86151,3.15852 -1.20553,7.11547 -2.45675,9.752 -1.94362,3.07099 -9.79219,11.14737 -9.58535,12.20057 13.38009,0.0129 29.19932,0.73985 42.41936,0.40496 2.33189,-2.55889 -4.77331,-10.7194 -7.11897,-12.04242 -2.37429,-1.44267 -5.62324,-2.97371 -5.93533,-6.11282 -0.45056,-2.82629 1.04923,-4.25808 3.38076,-5.71812 2.52507,-1.70299 5.6344,-3.35458 7.17716,-5.94411 3.54198,-6.62521 5.71516,-12.66488 5.88868,-19.38978 -0.12757,-3.39922 -0.28353,-5.72942 -1.6893,-8.25884 -1.08317,-7.75252 -8.28291,-12.86153 -15.29467,-15.00564 -5.69628,-1.71932 -12.16914,-2.82625 -17.74074,-0.0105 z"
         style="fill:#ffdf6c;fill-opacity:1;stroke:#000000;stroke-width:0.39727613;stroke-linecap:butt;stroke-linejoin:miter;stroke-miterlimit:4;stroke-dasharray:none;stroke-opacity:1" />
      <path
         sodipodi:nodetypes="sscscsccssccsscssssss"
         inkscape:connector-curvature="0"
         id="path5189"
         d="m -331.13918,262.93473 c -2.6833,-0.43504 -3.91418,2.74078 -6.15863,3.41581 -2.2116,0.66514 -4.0619,-0.75421 -4.34885,-0.3 -0.28697,0.45421 2.03964,2.42441 3.63564,2.51075 2.68611,0.14531 5.16177,-0.63649 6.69418,2.91767 4.66527,4.33484 2.39173,7.04116 5.25685,10.58007 2.86513,3.53891 9.03438,9.94878 11.01702,14.35268 2.12615,14.68678 -0.67722,27.66972 -7.8156,30.29894 2.07048,2.81031 8.88035,4.4453 11.41706,2.52935 1.97104,-1.48871 4.46387,-4.03511 4.86646,-0.24056 0.40789,3.84459 3.7664,4.82348 6.76828,5.34424 1.89515,0.0647 7.21035,1.47463 11.2345,0.24437 -2.61801,-1.47401 -7.3854,-6.53695 -7.90306,-11.08429 -0.38114,-3.3481 -1.62659,-11.27426 -0.87745,-14.43025 0.93135,-3.92357 2.16266,0.25671 5.88137,2.06814 -2.5051,-5.03868 -2.92708,-8.29671 -4.22305,-15.85732 -0.62495,-3.64587 0.078,-10.63697 -1.15881,-13.89946 -1.23091,-3.24698 -0.53029,-7.47892 -3.70518,-9.03546 -4.4509,-2.18213 -8.55889,-5.05783 -13.1145,-7.01473 -3.73468,-1.60426 -7.85554,-1.95795 -11.92336,-1.87509 -1.85628,0.0378 -3.70465,-0.22683 -5.54287,-0.52486 z"
         style="fill:#000000;fill-opacity:1;stroke:#000000;stroke-width:0.30506343;stroke-linecap:butt;stroke-linejoin:miter;stroke-miterlimit:4;stroke-dasharray:none;stroke-opacity:1" />
      <path
         sodipodi:nodetypes="cssc"
         inkscape:connector-curvature="0"
         id="path4517"
         d="m -287.96791,222.39132 c 0,0 -26.25133,25.03616 -42.42046,39.79264 -5.02115,4.58246 32.08395,18.65357 32.65999,15.3915 3.81469,-21.60188 9.76047,-55.18414 9.76047,-55.18414 z"
         style="fill:#0000ff;fill-opacity:1;stroke:#000000;stroke-width:0.39727613;stroke-linecap:butt;stroke-linejoin:miter;stroke-miterlimit:4;stroke-dasharray:none;stroke-opacity:1" />
      <path
         sodipodi:nodetypes="csscscssc"
         inkscape:connector-curvature="0"
         id="path4519"
         d="m -287.96791,222.39132 c 0,0 7.28284,4.73964 11.44977,5.44333 7.54512,1.27419 12.27446,7.72787 12.20057,13.8899 -0.11124,9.27775 12.38828,26.46585 12.38828,26.46585 0,0 12.26434,0.36248 17.0808,-2.81551 4.27371,-2.81988 8.25886,-12.95138 8.25886,-12.95138 -0.23199,0.40597 -15.74729,-9.96062 -20.08403,-22.14874 -2.54343,-7.14812 -11.87562,-10.61682 -19.33321,-12.01287 -7.32145,-1.37057 -21.96104,4.12942 -21.96104,4.12942 z"
         style="fill:#00ffff;fill-opacity:1;stroke:#000000;stroke-width:0.39727613;stroke-linecap:butt;stroke-linejoin:miter;stroke-miterlimit:4;stroke-dasharray:none;stroke-opacity:1" />
    </g>
  </g>
</svg>
