<?xml version="1.0" encoding="UTF-8" standalone="no"?>
<!-- Created with Inkscape (http://www.inkscape.org/) -->

<svg
   xmlns:dc="http://purl.org/dc/elements/1.1/"
   xmlns:cc="http://creativecommons.org/ns#"
   xmlns:rdf="http://www.w3.org/1999/02/22-rdf-syntax-ns#"
   xmlns:svg="http://www.w3.org/2000/svg"
   xmlns="http://www.w3.org/2000/svg"
   xmlns:sodipodi="http://sodipodi.sourceforge.net/DTD/sodipodi-0.dtd"
   xmlns:inkscape="http://www.inkscape.org/namespaces/inkscape"
   sodipodi:docname="river_split.svg"
   inkscape:version="0.92.2 5c3e80d, 2017-08-06"
   id="svg8"
   version="1.1"
   viewBox="-530.746090 179.638350 149.935180 149.935180"
   height="149.93518"
   width="149.93518">
  <sodipodi:namedview
     inkscape:window-maximized="1"
     inkscape:window-y="0"
     inkscape:window-x="0"
     inkscape:window-height="1380"
     inkscape:window-width="2560"
     showgrid="false"
     inkscape:current-layer="layer1"
     inkscape:document-units="mm"
     inkscape:cy="65.45338"
     inkscape:cx="33.630549"
     inkscape:zoom="5.6"
     inkscape:pageshadow="2"
     inkscape:pageopacity="0.0"
     borderopacity="1.0"
     bordercolor="#666666"
     pagecolor="#ffffff"
     id="base"
     inkscape:measure-start="150,149.911"
     inkscape:measure-end="9.71445e-17,149.911" />
  <defs
     id="defs2" />
  <metadata
     id="metadata5">
    <rdf:RDF>
      <cc:Work
         rdf:about="">
        <dc:format>image/svg+xml</dc:format>
        <dc:type
           rdf:resource="http://purl.org/dc/dcmitype/StillImage" />
        <dc:title></dc:title>
      </cc:Work>
    </rdf:RDF>
  </metadata>
  <g
     id="layer1"
     inkscape:groupmode="layer"
     inkscape:label="Layer 1">
    <path
       style="fill:#00c6ff;fill-opacity:1;stroke:#000000;stroke-width:0.06425197;stroke-miterlimit:4;stroke-dasharray:none;stroke-opacity:1"
       d="m -466.58806,179.19651 21.58824,-0.15028 c 0,0 0.35715,5.89015 0.35715,9.0138 0,3.12365 0.26785,6.51516 0.26785,9.63881 0,3.12365 -0.44643,6.06873 -0.44643,9.19238 0,3.12365 -0.53571,6.2473 -0.53571,9.37095 0,3.12364 0.89286,6.69372 1.33929,9.72809 0.45467,3.09038 0.98214,6.42587 0.98214,9.54952 0,3.12365 -0.44643,6.15801 -0.44643,9.28166 0,3.12365 -0.95982,5.48837 -1.49553,8.52273 -0.54308,3.07608 -1.07144,7.27409 -2.09822,10.64328 -0.91061,2.98797 0.29018,3.76962 0.29018,6.89326 0,3.12365 0.44643,6.42588 0.44643,9.54952 0,3.12365 -0.625,7.4973 -0.625,10.62095 0,3.12365 -0.35715,6.8723 -0.35715,9.99595 v 9.46024 c 0,3.12365 2.46039,6.64142 2.46039,9.76507 0,3.12365 -0.35714,9.81738 -0.35714,9.81738 l -21.72089,-0.0893 c 0,0 0.89285,-6.60444 0.89285,-9.72809 0,-3.12365 -0.40681,-6.37357 -0.40681,-9.49722 0,-3.12365 1.33928,-5.35444 1.33928,-8.47809 0,-3.12365 -0.0893,-7.05087 -0.0893,-10.17452 0,-3.12365 -1.42858,-6.60444 -1.96429,-9.72809 -0.52801,-3.0787 -1.16071,-6.15801 -1.16071,-9.28166 0,-3.12365 0.33383,-6.11916 0.89285,-9.19238 0.53572,-2.94508 0.96132,-5.91311 1.33929,-9.01381 0.38064,-3.12266 0.71428,-6.06872 0.71428,-9.19237 0,-3.12365 1.25,-6.60445 1.25,-9.72809 0,-3.12365 0.89286,-6.06873 0.89286,-9.19238 0,-3.12365 0.17857,-6.42587 0.17857,-9.54952 0,-3.12365 -0.55225,-6.63417 -0.98214,-9.72809 -0.44643,-3.21294 -1.15782,-6.16927 -1.51786,-9.46024 -0.34467,-3.15046 -0.55854,-6.21505 -0.71428,-9.37095 -0.15738,-3.18903 -0.31378,-9.48852 -0.31378,-9.48852 z"
       id="rect815"
       inkscape:connector-curvature="0"
       sodipodi:nodetypes="ccsssssssssssssssccssssssssssssssscc" />
    <g
       id="g1002"
       transform="translate(-3.2514285,-0.22097087)">
      <path
         inkscape:connector-curvature="0"
         id="path989"
         d="m -459.49609,209.21639 c 1.16671,5.92542 0.51845,12.55801 -0.88094,18.09748 2.34796,7.97516 -3.88365,16.11489 -0.31282,23.93744 1.83951,2.85967 3.92524,-3.83579 4.57526,-5.85471 1.36335,-6.07646 3.20142,-12.10802 3.15359,-18.39888 0.18661,-3.89592 0.20341,-7.80864 0.5374,-11.68997 1.95726,-3.77396 3.65325,3.59636 3.00374,5.38605 -0.5794,5.2732 0.51538,10.43478 1.29939,15.61476 0.99944,5.62202 -0.0446,11.24331 -1.05896,16.77053 -0.75589,4.24528 -0.63894,8.6728 0.91714,12.72637 1.24534,5.16789 1.18663,10.91002 -1.55735,15.60768 -0.98656,3.29836 1.75621,7.8757 5.38211,7.5721 1.0645,-4.58439 1.55085,-7.66674 1.49731,-11.36405 -0.68075,-6.58487 -0.4918,-13.46663 2.04887,-19.95567 2.3636,-7.11134 1.08511,-14.61924 -0.19653,-22.02592 -1.20439,-5.13439 -1.61336,-11.16754 -1.02512,-16.32463 0.0189,-10.00968 2.36551,-19.71817 -2.01945,-29.08703 -3.20152,-4.77723 0.51135,-11.03608 -3.34315,-15.31767 -4.50547,-2.18379 -5.19342,4.20116 -4.8145,7.26905 0.13816,3.61127 0.866,7.19727 0.64588,10.82079 1.97444,3.66786 -2.82945,3.18281 -3.14312,0.1163 -3.20805,-4.01614 -3.63189,-9.19552 -3.84473,-14.07414 -0.99866,-3.87247 -1.76065,-5.93915 -4.32672,-1.96317 -0.25686,4.37162 -0.67973,6.1152 -0.36984,10.07669 3.33569,3.75898 6.34066,10.59676 3.90404,15.44055 -1.60079,4.00412 0.56525,3.69892 -0.0711,6.62005 z"
         style="opacity:0.2;fill:#f0f3f3;fill-opacity:1;stroke:none;stroke-width:1px;stroke-linecap:butt;stroke-linejoin:miter;stroke-opacity:1"
         sodipodi:nodetypes="ccccccccccccccccccccccccccc" />
      <path
         inkscape:connector-curvature="0"
         id="path995"
         d="m -445.73971,327.49385 c -2.01741,-5.7173 -2.87252,-12.2385 0.11775,-17.7952 2.28235,-4.74484 2.79199,-9.9858 2.58382,-15.17394 0.20458,-4.42995 -0.49338,-8.81016 -1.18371,-13.15486 -0.70748,-5.5465 2.68474,-11.23686 0.75342,-16.55393 -1.17683,-3.79692 -5.59051,-3.07523 -4.79386,0.98954 -0.75583,7.86696 -0.66836,15.93268 -2.98868,23.56094 -2.63707,3.46074 -1.3504,-5.65004 -1.60922,-7.39526 -0.8183,-5.71768 2.4108,-11.42693 0.40131,-17.06909 -1.10096,-5.56496 -0.78701,-11.4623 1.58042,-16.65417 1.77079,-6.21405 2.49468,-12.99597 1.06145,-19.32367 -0.81983,-2.32865 -2.2319,-8.77097 -4.31747,-7.78019 -2.82965,7.63637 -2.75987,15.8411 -2.32884,23.84984 0.51808,8.31906 -3.02973,16.08085 -4.36486,24.15921 -2.97002,8.30389 -0.36773,17.10565 1.22826,25.40121 1.20493,5.23094 -0.59281,10.38662 -3.03457,14.94859 -0.35705,5.31171 0.34458,10.66712 -0.38631,15.79749 -0.16505,3.82699 -0.11578,6.82469 1.31428,9.98783 1.64532,2.56193 0.46545,11.43537 4.79916,8.90474 2.51306,-2.69015 -1.58247,-10.96951 3.16594,-10.54446 1.13805,2.90349 6.08783,6.21917 5.89786,0.91173 -1.83861,-3.40095 0.86377,-4.47266 2.21501,-6.73358 l -0.11114,-0.33277 z"
         style="opacity:0.17000002;fill:#f0f3f3;fill-opacity:1;stroke:none;stroke-width:1px;stroke-linecap:butt;stroke-linejoin:miter;stroke-opacity:1"
         sodipodi:nodetypes="cccccccccccccccccccccccc" />
    </g>
    <g
       id="g1008"
       transform="matrix(1,0,0,-1,-19.190929,516.07814)">
      <path
         style="opacity:0.2;fill:#f0f3f3;fill-opacity:1;stroke:none;stroke-width:1px;stroke-linecap:butt;stroke-linejoin:miter;stroke-opacity:1"
         d="m -445.66986,220.42594 c -0.5794,5.2732 -1.71676,10.61335 -2.45061,15.88262 0.99944,5.62202 0.84826,11.06474 -0.1661,16.59196 0.58339,4.24528 0.20635,7.34004 1.76243,11.39361 1.24534,5.16789 4.44848,12.86778 1.7045,17.56544 -0.98656,3.29836 0.41692,4.39356 0.38211,7.12567 3.20736,-2.6201 1.99728,-7.66674 1.94374,-11.36405 -0.68075,-6.58487 -2.9901,-13.37193 -0.4498,-19.86097 2.3636,-7.11134 3.13698,-14.71394 1.85534,-22.12062 -1.20439,-5.13439 -0.44209,-10.35146 0.14615,-15.50855 0.0189,-10.00968 1.19424,-20.53425 -3.19072,-29.90311 -3.20152,-4.77723 0.51135,-11.03608 -3.34315,-15.31767 0.13136,4.52011 0.85654,13.81104 0.64477,17.93742 0.12404,5.82296 3.69106,18.66949 1.16134,27.57825 z"
         id="path1004"
         inkscape:connector-curvature="0"
         sodipodi:nodetypes="cccccccccccccc" />
      <path
         style="opacity:0.17000002;fill:#f0f3f3;fill-opacity:1;stroke:none;stroke-width:1px;stroke-linecap:butt;stroke-linejoin:miter;stroke-opacity:1"
         d="m -445.73971,327.49385 c 1.0183,-5.7173 -0.19395,-11.70279 0.65346,-17.7952 2.28235,-4.74484 2.25628,-9.9858 2.04811,-15.17394 0.20458,-4.42995 -0.49338,-8.81016 -1.18371,-13.15486 -0.70748,-5.5465 2.68474,-11.23686 0.75342,-16.55393 -1.17683,-3.79692 -3.71551,-2.53952 -2.91886,1.52525 1.13816,11.58587 10.09421,62.27063 -1.00984,70.54046 0.48281,-4.20453 1.48877,-6.88338 1.76858,-9.05501 z"
         id="path1006"
         inkscape:connector-curvature="0"
         sodipodi:nodetypes="ccccccccc" />
    </g>
    <path
       style="opacity:0.2;fill:#f0f3f3;fill-opacity:1;stroke:none;stroke-width:1px;stroke-linecap:butt;stroke-linejoin:miter;stroke-opacity:1"
       d="m -446.40853,287.06511 c 0.2669,-5.36249 0.66331,-9.66489 -0.0842,-15.10334 -0.99944,-5.62202 -0.40183,-12.44867 0.61253,-17.97589 0.75589,-4.24528 1.75501,-7.60137 2.65429,-11.47637 0.31716,-4.98932 0.15265,-9.25823 -0.3623,-14.71482 -1.02236,-4.99479 -1.2757,-6.23643 -1.7766,-8.70069 -3.20736,2.6201 -0.826,8.48283 -0.77246,12.18014 0.68075,6.58487 2.9901,13.37193 0.4498,19.86097 -2.3636,7.11134 -3.13698,14.71394 -1.85534,22.12062 1.20439,5.13439 0.44209,10.35146 -0.14615,15.50855 0.94275,-0.55045 0.86944,-0.41604 1.28042,-1.69917 z"
       id="path1010"
       inkscape:connector-curvature="0"
       sodipodi:nodetypes="cccccccccccc" />
    <path
       style="opacity:0.17000002;fill:#f0f3f3;fill-opacity:1;stroke:none;stroke-width:1px;stroke-linecap:butt;stroke-linejoin:miter;stroke-opacity:1"
       d="m -445.59291,214.37062 c -0.20458,4.42995 0.49338,8.81016 1.18371,13.15486 0.70748,5.5465 -2.68474,11.23686 -0.75342,16.55393 1.17683,3.79692 2.91194,0.84309 2.11529,-3.22168 0.0648,8.83829 -1.14619,-20.94764 -2.54558,-26.48708 z"
       id="path1012"
       inkscape:connector-curvature="0"
       sodipodi:nodetypes="cccccc" />
    <path
       sodipodi:nodetypes="cssssssssssssssscccsssssssssssssssc"
       inkscape:connector-curvature="0"
       id="path4011"
       d="m -447.16423,264.10384 c 0,0 6.52552,-0.89285 9.64917,-0.89285 3.12365,0 6.37357,0.40681 9.49722,0.40681 3.12365,0 5.35444,-1.33928 8.47809,-1.33928 3.12365,0 7.05087,0.0893 10.17452,0.0893 3.12365,0 6.60444,1.42858 9.72809,1.96429 3.0787,0.52801 6.15801,1.16071 9.28166,1.16071 3.12365,0 6.11916,-0.33383 9.19238,-0.89285 2.94508,-0.53572 5.91311,-0.96132 9.01381,-1.33929 3.12266,-0.38064 6.06872,-0.71428 9.19237,-0.71428 3.12365,0 6.60445,-1.25 9.72809,-1.25 3.12365,0 6.06873,-0.89286 9.19238,-0.89286 3.12365,0 6.42587,-0.17857 9.54952,-0.17857 3.12365,0 6.63417,0.55225 9.72809,0.98214 3.21294,0.44643 6.16927,1.15782 9.46024,1.51786 3.15046,0.34467 6.21505,0.55854 9.37095,0.71428 3.18903,0.15738 9.48852,0.31378 9.48852,0.31378 l -1e-5,-2e-5 0.15028,-21.58824 c 0,0 -5.89015,-0.35715 -9.0138,-0.35715 -3.12365,0 -6.51516,-0.26785 -9.63881,-0.26785 -3.12365,0 -6.06873,0.44643 -9.19238,0.44643 -3.12365,0 -6.2473,0.53571 -9.37095,0.53571 -3.12364,0 -6.69372,-0.89286 -9.72809,-1.33929 -3.09038,-0.45467 -6.42587,-0.98214 -9.54952,-0.98214 -3.12365,0 -6.15801,0.44643 -9.28166,0.44643 -3.12365,0 -5.44373,1.875 -8.47809,2.41071 -3.07608,0.54308 -6.51516,1.16072 -9.63881,1.16072 -3.12365,0 -4.81873,-0.26786 -7.94237,-0.26786 -3.12365,0 -6.42588,-0.44643 -9.54952,-0.44643 -3.12365,0 -7.4973,0.625 -10.62095,0.625 -3.12365,0 -6.8723,0.35715 -9.99595,0.35715 H -427.75 c -3.12365,0 -6.64142,-2.46039 -9.76507,-2.46039 -3.72343,0 -5.92392,0.43635 -5.92392,0.43635"
       style="fill:#00c6ff;fill-opacity:1;stroke:#000000;stroke-width:0.06425197;stroke-miterlimit:4;stroke-dasharray:none;stroke-opacity:1" />
    <g
       transform="matrix(0,-1,-1,0,-117.02166,-199.58362)"
       id="g4017">
      <path
         sodipodi:nodetypes="ccccccccccccccccccccccccccc"
         style="opacity:0.2;fill:#f0f3f3;fill-opacity:1;stroke:none;stroke-width:1px;stroke-linecap:butt;stroke-linejoin:miter;stroke-opacity:1"
         d="m -459.49609,209.21639 c 1.16671,5.92542 0.51845,12.55801 -0.88094,18.09748 2.34796,7.97516 -3.88365,16.11489 -0.31282,23.93744 1.83951,2.85967 3.92524,-3.83579 4.57526,-5.85471 1.36335,-6.07646 3.20142,-12.10802 3.15359,-18.39888 0.18661,-3.89592 0.20341,-7.80864 0.5374,-11.68997 1.95726,-3.77396 3.65325,3.59636 3.00374,5.38605 -0.5794,5.2732 0.51538,10.43478 1.29939,15.61476 0.99944,5.62202 -0.0446,11.24331 -1.05896,16.77053 -0.75589,4.24528 -0.63894,8.6728 0.91714,12.72637 1.24534,5.16789 1.18663,10.91002 -1.55735,15.60768 -0.98656,3.29836 1.75621,7.8757 5.38211,7.5721 1.0645,-4.58439 1.55085,-7.66674 1.49731,-11.36405 -0.68075,-6.58487 -2.54367,-13.37193 -0.003,-19.86097 2.3636,-7.11134 3.13698,-14.71394 1.85534,-22.12062 -1.20439,-5.13439 -1.61336,-11.16754 -1.02512,-16.32463 0.0189,-10.00968 2.36551,-19.71817 -2.01945,-29.08703 -3.20152,-4.77723 0.51135,-11.03608 -3.34315,-15.31767 -4.50547,-2.18379 -5.19342,4.20116 -4.8145,7.26905 0.13816,3.61127 0.866,7.19727 0.64588,10.82079 1.97444,3.66786 -2.82945,3.18281 -3.14312,0.1163 -3.20805,-4.01614 -3.63189,-9.19552 -3.84473,-14.07414 -0.99866,-3.87247 -1.76065,-5.93915 -4.32672,-1.96317 -0.25686,4.37162 -0.67973,6.1152 -0.36984,10.07669 3.33569,3.75898 6.34066,10.59676 3.90404,15.44055 -1.60079,4.00412 0.56525,3.69892 -0.0711,6.62005 z"
         id="path4013"
         inkscape:connector-curvature="0" />
      <path
         sodipodi:nodetypes="cccccccccccccccccccccccc"
         style="opacity:0.17000002;fill:#f0f3f3;fill-opacity:1;stroke:none;stroke-width:1px;stroke-linecap:butt;stroke-linejoin:miter;stroke-opacity:1"
         d="m -445.73971,327.49385 c -2.01741,-5.7173 -2.87252,-12.2385 0.11775,-17.7952 2.28235,-4.74484 2.79199,-9.9858 2.58382,-15.17394 0.20458,-4.42995 -0.49338,-8.81016 -1.18371,-13.15486 -0.70748,-5.5465 2.68474,-11.23686 0.75342,-16.55393 -1.17683,-3.79692 -5.59051,-3.07523 -4.79386,0.98954 -0.75583,7.86696 -0.66836,15.93268 -2.98868,23.56094 -2.63707,3.46074 -1.3504,-5.65004 -1.60922,-7.39526 -0.8183,-5.71768 2.4108,-11.42693 0.40131,-17.06909 -1.10096,-5.56496 -0.78701,-11.4623 1.58042,-16.65417 1.77079,-6.21405 2.49468,-12.99597 1.06145,-19.32367 -0.81983,-2.32865 -2.2319,-8.77097 -4.31747,-7.78019 -2.82965,7.63637 -2.75987,15.8411 -2.32884,23.84984 0.51808,8.31906 -3.02973,16.08085 -4.36486,24.15921 -2.97002,8.30389 -0.36773,17.10565 1.22826,25.40121 1.20493,5.23094 -0.59281,10.38662 -3.03457,14.94859 -0.35705,5.31171 0.34458,10.66712 -0.38631,15.79749 -0.16505,3.82699 -0.11578,6.82469 1.31428,9.98783 1.64532,2.56193 0.46545,11.43537 4.79916,8.90474 2.51306,-2.69015 -1.58247,-10.96951 3.16594,-10.54446 1.13805,2.90349 6.08783,6.21917 5.89786,0.91173 -1.83861,-3.40095 0.86377,-4.47266 2.21501,-6.73358 l -0.11114,-0.33277 z"
         id="path4015"
         inkscape:connector-curvature="0" />
    </g>
    <g
       transform="rotate(-90,-408.48245,224.83833)"
       id="g4023">
      <path
         sodipodi:nodetypes="cccccccccccccc"
         inkscape:connector-curvature="0"
         id="path4019"
         d="m -445.66986,220.42594 c -0.5794,5.2732 -1.71676,10.61335 -2.45061,15.88262 0.99944,5.62202 0.84826,11.06474 -0.1661,16.59196 0.58339,4.24528 0.20635,7.34004 1.76243,11.39361 1.24534,5.16789 4.44848,12.86778 1.7045,17.56544 -0.98656,3.29836 0.41692,4.39356 0.38211,7.12567 3.20736,-2.6201 1.99728,-7.66674 1.94374,-11.36405 -0.68075,-6.58487 -2.9901,-13.37193 -0.4498,-19.86097 2.3636,-7.11134 3.13698,-14.71394 1.85534,-22.12062 -1.20439,-5.13439 -0.44209,-10.35146 0.14615,-15.50855 0.0189,-10.00968 1.19424,-20.53425 -3.19072,-29.90311 -3.20152,-4.77723 0.51135,-11.03608 -3.34315,-15.31767 0.13136,4.52011 0.85654,13.81104 0.64477,17.93742 0.12404,5.82296 3.69106,18.66949 1.16134,27.57825 z"
         style="opacity:0.2;fill:#f0f3f3;fill-opacity:1;stroke:none;stroke-width:1px;stroke-linecap:butt;stroke-linejoin:miter;stroke-opacity:1" />
      <path
         sodipodi:nodetypes="ccccccccc"
         inkscape:connector-curvature="0"
         id="path4021"
         d="m -445.73971,327.49385 c 1.0183,-5.7173 -0.19395,-11.70279 0.65346,-17.7952 2.28235,-4.74484 2.25628,-9.9858 2.04811,-15.17394 0.20458,-4.42995 -0.49338,-8.81016 -1.18371,-13.15486 -0.70748,-5.5465 2.68474,-11.23686 0.75342,-16.55393 -1.17683,-3.79692 -3.71551,-2.53952 -2.91886,1.52525 1.13816,11.58587 10.09421,62.27063 -1.00984,70.54046 0.48281,-4.20453 1.48877,-6.88338 1.76858,-9.05501 z"
         style="opacity:0.17000002;fill:#f0f3f3;fill-opacity:1;stroke:none;stroke-width:1px;stroke-linecap:butt;stroke-linejoin:miter;stroke-opacity:1" />
    </g>
    <path
       sodipodi:nodetypes="cccccccccccc"
       inkscape:connector-curvature="0"
       id="path4025"
       d="m -404.30774,243.57348 c 5.36249,-0.2669 9.66489,-0.66331 15.10334,0.0842 5.62202,0.99944 12.44867,0.40183 17.97589,-0.61253 4.24528,-0.75589 7.60137,-1.75501 11.47637,-2.65429 4.98932,-0.31716 9.25823,-0.15265 14.71482,0.3623 4.99479,1.02236 6.23643,1.2757 8.70069,1.7766 -2.6201,3.20736 -8.48283,0.826 -12.18014,0.77246 -6.58487,-0.68075 -13.37193,-2.9901 -19.86097,-0.4498 -7.11134,2.3636 -14.71394,3.13698 -22.12062,1.85534 -5.13439,-1.20439 -10.35146,-0.44209 -15.50855,0.14615 0.55045,-0.94275 0.41604,-0.86944 1.69917,-1.28042 z"
       style="opacity:0.2;fill:#f0f3f3;fill-opacity:1;stroke:none;stroke-width:1px;stroke-linecap:butt;stroke-linejoin:miter;stroke-opacity:1" />
    <path
       sodipodi:nodetypes="cccccc"
       inkscape:connector-curvature="0"
       id="path4027"
       d="m -331.61325,242.75786 c -4.42995,0.20458 -8.81016,-0.49338 -13.15486,-1.18371 -5.5465,-0.70748 -11.23686,2.68474 -16.55393,0.75342 -3.79692,-1.17683 -0.84309,-2.91194 3.22168,-2.11529 -8.83829,-0.0648 20.94764,1.14619 26.48708,2.54558 z"
       style="opacity:0.17000002;fill:#f0f3f3;fill-opacity:1;stroke:none;stroke-width:1px;stroke-linecap:butt;stroke-linejoin:miter;stroke-opacity:1" />
  </g>
</svg>
