<?xml version="1.0" encoding="UTF-8" standalone="no"?>
<!-- Created with Inkscape (http://www.inkscape.org/) -->

<svg
   xmlns:dc="http://purl.org/dc/elements/1.1/"
   xmlns:cc="http://creativecommons.org/ns#"
   xmlns:rdf="http://www.w3.org/1999/02/22-rdf-syntax-ns#"
   xmlns:svg="http://www.w3.org/2000/svg"
   xmlns="http://www.w3.org/2000/svg"
   xmlns:sodipodi="http://sodipodi.sourceforge.net/DTD/sodipodi-0.dtd"
   xmlns:inkscape="http://www.inkscape.org/namespaces/inkscape"
   sodipodi:docname="river_lake.svg"
   inkscape:version="0.92.2 5c3e80d, 2017-08-06"
   id="svg8"
   version="1.1"
   viewBox="-530.746090 179.638350 149.935180 149.935180"
   height="149.93518"
   width="149.93518">
  <sodipodi:namedview
     inkscape:window-maximized="1"
     inkscape:window-y="0"
     inkscape:window-x="0"
     inkscape:window-height="1380"
     inkscape:window-width="2560"
     showgrid="false"
     inkscape:current-layer="layer1"
     inkscape:document-units="mm"
     inkscape:cy="90.343749"
     inkscape:cx="92.758463"
     inkscape:zoom="5.6"
     inkscape:pageshadow="2"
     inkscape:pageopacity="0.0"
     borderopacity="1.0"
     bordercolor="#666666"
     pagecolor="#ffffff"
     id="base" />
  <defs
     id="defs2" />
  <metadata
     id="metadata5">
    <rdf:RDF>
      <cc:Work
         rdf:about="">
        <dc:format>image/svg+xml</dc:format>
        <dc:type
           rdf:resource="http://purl.org/dc/dcmitype/StillImage" />
        <dc:title />
      </cc:Work>
    </rdf:RDF>
  </metadata>
  <g
     id="layer1"
     inkscape:groupmode="layer"
     inkscape:label="Layer 1">
    <path
       style="fill:#00c6ff;fill-opacity:1;stroke:#000000;stroke-width:0.06425197;stroke-miterlimit:4;stroke-dasharray:none;stroke-opacity:1"
       d="m -466.62724,179.52707 c -0.0136,1.70205 0.23825,3.39201 0.31971,5.09041 0,0 6.03577,22.74526 6.01261,34.35322 -0.0229,11.475 -3.74547,23.53464 -11.35742,31.84571 -2.88703,3.15219 -8.03936,3.0297 -11.6543,5.34961 -1.76969,1.71585 -3.27023,3.70202 -4.4707,5.85351 -0.90795,4.34101 -1.04097,8.79698 -1.85716,13.15314 -0.85315,5.44947 -1.95089,10.95345 -1.44879,16.49446 0.44383,4.75871 2.48587,9.17229 3.23759,13.87193 0.23756,1.07106 0.98188,1.98717 1.95618,2.48093 1.58099,0.94023 3.39428,1.35761 5.11722,1.95681 2.35129,0.74023 4.71172,1.47241 7.12298,1.98995 2.48454,0.41989 5.01333,0.3253 7.52237,0.33598 4.29496,-0.56716 8.58224,-1.27063 12.91867,-1.42881 5.7742,-0.3167 11.56456,-0.61064 17.27822,-1.55354 1.60715,-0.24949 3.20707,-0.54296 4.81092,-0.81257 1.12043,-0.26362 1.97764,-1.18358 2.3717,-2.23815 0.75113,-1.70539 0.81251,-3.60017 1.15464,-5.40925 0.83375,-5.24025 1.59707,-10.49131 2.37991,-15.73932 0.20924,-3.06226 -0.17798,-6.127 -0.65384,-9.1468 -0.2489,-1.03868 -0.25368,-2.16593 -0.79885,-3.10745 l -9.04731,-18.45864 c -1.94716,-6.41765 -3.75743,-12.90109 -4.81646,-19.53156 -0.79477,-7.34283 -0.63169,-14.73921 -0.74882,-22.11208 -0.1143,-9.99769 -3.80004,-23.12037 -3.91435,-33.11807 -0.22204,-1.91857 -2.69314,-1.4256 -4.59432,-1.24079 -5.81625,-0.0688 -10.91837,0.77267 -16.73493,0.73856 -0.0351,0.1276 -0.0703,0.25521 -0.10547,0.38281 z"
       id="rect815"
       inkscape:connector-curvature="0"
       sodipodi:nodetypes="scsasssssssssssssccsssssssss" />
    <path
       sodipodi:nodetypes="cccccccccccccccccccccccccccccccccccccccc"
       style="opacity:0.2;fill:#f0f3f3;fill-opacity:1;stroke:none;stroke-width:1px;stroke-linecap:butt;stroke-linejoin:miter;stroke-opacity:1"
       d="m -450.5166,174.83662 c -0.92873,0.50086 -1.44445,1.54726 -1.77148,2.51953 -0.70719,2.4713 0.77834,5.19878 0.73407,7.73681 l 0.0306,8.23712 c -0.12762,1.02028 -1.65103,1.58315 -2.32422,0.73828 -1.0273,-1.49174 -1.47599,-3.27398 -2.09252,-4.95415 -1.26557,-3.76302 -3.43899,-7.75739 -4.40845,-11.60376 -0.0121,-0.98878 -1.06112,-2.10358 -2.07329,-1.60118 -0.92849,0.4996 -1.03649,1.66467 -1.17801,2.59871 -0.57434,3.84805 1.11991,7.92139 2.20578,11.64166 0.67341,2.53329 1.44983,5.04363 1.93907,7.62184 0.15811,1.88922 -0.033,3.78438 -0.0288,5.67634 -0.22765,10.86941 -0.55049,21.74252 -1.39491,32.58409 -0.25415,3.03783 -0.90302,6.06818 -2.16807,8.85286 -0.32554,1.02873 -1.17346,1.84713 -1.28515,2.95117 0.0763,1.02002 1.39506,1.55789 2.23242,1.06054 1.5788,-0.63314 2.79886,-1.8688 4.02882,-2.99995 1.74655,-1.70568 3.21021,-3.87187 3.49628,-6.34881 0.45592,-2.81118 0.37005,-5.67353 0.72588,-8.49589 l 1.32324,-14.95027 c 0.20136,-1.06779 2.00666,-1.13597 2.27734,-0.0781 0.49166,4.109 0.6869,8.24592 1.10097,12.36271 0.27544,3.31179 0.77004,6.62115 1.77512,9.79662 1.07021,3.71463 2.33015,7.44766 2.39303,11.35249 0.0415,1.59929 0.26479,3.25783 1.14153,4.63343 1.68118,2.9759 4.15019,5.38103 6.32835,7.98273 2.51181,2.91602 4.86138,5.96686 7.13991,9.06733 1.0804,1.65892 1.71983,3.55918 2.25012,5.45295 0.44996,1.68922 0.76465,3.41078 1.04675,5.13494 -0.0248,0.84683 -0.0498,1.95618 0.78907,2.43945 1.19662,0.35414 1.6989,-1.18058 1.54297,-2.11718 -0.0904,-3.93079 -1.34173,-7.75454 -3.18616,-11.20023 -2.78694,-5.39752 -5.82641,-10.71348 -7.73658,-16.50633 -1.90351,-5.57282 -3.10009,-11.36235 -3.97754,-17.17754 -0.87438,-6.35663 -1.09731,-12.77594 -1.53293,-19.17141 l -1.07265,-17.26676 c -1.23012,-7.22488 -3.8521,-14.55298 -5.18652,-21.75908 -0.35385,-1.49212 -1.14176,-2.87689 -2.25,-3.9375 -0.24923,-0.15339 -0.53078,-0.31158 -0.83399,-0.27344 z"
       id="path989"
       inkscape:connector-curvature="0" />
    <path
       sodipodi:nodetypes="cccccccccccccccccccccccccccccccccc"
       style="opacity:0.17000002;fill:#f0f3f3;fill-opacity:1;stroke:none;stroke-width:1px;stroke-linecap:butt;stroke-linejoin:miter;stroke-opacity:1"
       d="m -452.93945,222.85352 c -0.71278,1.15007 -0.93631,2.51047 -1.28921,3.79615 -1.04447,4.36727 -1.23185,8.87082 -1.69093,13.32206 -0.30728,2.08648 -1.34619,3.97881 -2.46322,5.73725 -0.83171,1.25612 -1.66238,2.53398 -2.79301,3.54767 -2.23889,2.11917 -5.19186,3.31522 -8.18719,3.88672 -3.83745,0.74568 -7.75739,1.33606 -11.37951,2.87182 -1.99427,0.78869 -3.64249,2.30068 -4.84835,4.05149 -1.27525,1.85207 -2.00859,4.05449 -2.15956,6.2945 -0.6064,5.51256 -1.57269,10.97688 -2.2591,16.47881 -0.32238,2.54277 -0.43253,5.11676 -0.1948,7.67203 0.19351,2.44933 0.74548,4.85561 1.47853,7.19611 0.78134,2.7423 0.95595,5.60385 1.46799,8.39929 0.49137,1.61084 1.28848,1.44201 2.49801,2.51591 32.16457,-0.61924 37.53116,6.90452 55.96121,-9.54055 1.57666,-4.58307 3.19583,-9.24794 3.40993,-14.13447 0.19307,-3.19803 0.13037,-6.4522 -0.64108,-9.57573 -1.14802,-3.71131 -3.49464,-6.86384 -5.54057,-10.11281 -0.39581,-0.62071 -1.21235,-1.48198 -1.96311,-0.84478 -0.779,0.60531 -0.4923,1.73702 0.0337,2.41239 0.51769,0.95688 0.94203,1.96548 1.44243,2.93433 1.67894,3.45238 3.29063,7.0597 3.59689,10.93468 0.14826,1.5605 0.17881,3.12908 0.25337,4.69423 -0.0135,0.9145 -1.18186,1.67126 -1.98633,1.1543 -0.69484,-0.66868 -0.89594,-1.67159 -1.24028,-2.53955 -1.05686,-2.63168 -2.52397,-5.07739 -4.06194,-7.45264 -3.41581,-5.16389 -7.05813,-10.18164 -10.2547,-15.488 -1.13809,-1.93441 -2.25075,-3.89203 -3.19008,-5.93026 -0.75352,-1.89248 -0.48357,-3.98619 -0.0447,-5.91954 0.41308,-2.00469 0.62299,-4.06043 0.43821,-6.10517 -0.20053,-3.53617 -1.05714,-6.98736 -1.74205,-10.4505 -0.69329,-3.13191 -1.33186,-6.27804 -2.10782,-9.39027 -0.0483,-0.20706 -0.27813,-0.72511 -0.54276,-0.41547 z"
       id="path995"
       inkscape:connector-curvature="0" />
    <path
       inkscape:connector-curvature="0"
       id="path849"
       d="m -459.21226,263.39178 c -12.293,-3.43579 -9.05699,-4.65095 -15.90103,5.68803 -0.64153,4.92871 -2.40432,8.48795 -4.52945,13.17191 -7.79321,16.7428 4.88423,22.85833 11.94873,23.5634 16.38724,-1.45864 11.36009,1.46492 18.86237,-9.44288 l 3.34677,-12.84735 c 1.38819,-5.71674 4.34629,-22.00164 -13.72739,-20.13311 z"
       style="opacity:0.2;fill:#f0f3f3;fill-opacity:1;stroke:none;stroke-width:1px;stroke-linecap:butt;stroke-linejoin:miter;stroke-opacity:1"
       sodipodi:nodetypes="ccccccc" />
    <g
       id="g1008"
       transform="matrix(1,0,0,-1,-15.9395,516.29911)">
      <path
         style="opacity:0.2;fill:#f0f3f3;fill-opacity:1;stroke:none;stroke-width:1px;stroke-linecap:butt;stroke-linejoin:miter;stroke-opacity:1"
         d="m -470.99888,209.13835 c -0.86157,1.54111 -0.94396,3.34907 -1.24365,5.05287 -0.22963,1.49549 -0.3943,3.02375 -0.98794,4.42987 -1.1929,3.00308 -1.83708,6.21808 -1.89551,9.44869 -0.0812,2.99882 0.28709,5.98497 0.56787,8.96522 0.27636,2.51934 0.9369,4.97624 1.31397,7.48062 0.47535,2.67054 0.75938,5.37262 1.23107,8.04229 1.0248,4.3419 4.32822,7.96553 8.38612,9.72334 4.23608,1.95846 8.72055,3.40954 12.73659,5.82033 2.32242,1.58921 4.01244,3.88362 5.70481,6.08983 1.06828,1.73398 0.89258,3.85692 0.83955,5.80557 -0.0635,1.30899 -0.17159,2.61779 -0.40009,3.90927 -0.16156,1.07471 1.61401,1.58427 1.90077,0.45642 0.30098,-1.00985 -0.0713,-2.08015 0.0277,-3.11899 -0.0987,-3.20493 -0.0791,-6.53338 -1.37934,-9.52933 -1.96622,-4.72467 -6.12768,-8.43143 -10.98662,-9.98974 -2.4902,-0.91565 -5.02656,-1.76057 -7.34571,-3.07031 -1.82159,-1.5645 -2.60912,-3.96801 -2.97265,-6.26953 -0.66614,-4.56399 -1.70853,-9.06677 -3.03536,-13.4828 -1.1588,-4.06701 -2.45053,-8.1843 -2.45009,-12.45456 -0.0439,-2.93838 0.51919,-5.85618 1.4099,-8.64749 0.28383,-1.00794 0.64311,-2.01373 0.72203,-3.06359 -0.0151,-1.43963 1.13752,-2.72628 0.76709,-4.08594 3.96093,-4.90972 -0.78435,-2.87355 -2.91051,-1.51204 z"
         id="path1004"
         inkscape:connector-curvature="0"
         sodipodi:nodetypes="cccccccccccccccccccccccc" />
      <path
         style="opacity:0.17000002;fill:#f0f3f3;fill-opacity:1;stroke:none;stroke-width:1px;stroke-linecap:butt;stroke-linejoin:miter;stroke-opacity:1"
         d="m -447.47455,257.43972 c -1.01711,0.67149 -0.0699,2.04391 0.7475,2.44786 2.05937,1.67246 3.43932,4.01221 4.55718,6.38222 1.13403,2.7344 1.30083,5.72865 1.6844,8.63031 0.42162,3.45444 0.82175,6.91144 1.22771,10.36774 -0.30898,-4.23495 -0.72841,-8.46053 -1.1289,-12.6875 0.18633,-3.26743 0.46043,-6.54314 0.24804,-9.81641 -0.71237,-2.53917 -2.97951,-4.39381 -5.45902,-5.09358 -0.59465,-0.17709 -1.26269,-0.40194 -1.87691,-0.23064 z m 8.21679,27.82813 c -0.0976,4.41644 -0.24056,8.85924 -1.11328,13.20312 -1.0721,3.26158 -1.23849,6.72489 -1.24619,10.13193 -0.13993,5.27067 -0.37996,10.56018 -1.32869,15.75706 -0.21332,1.20302 -0.42664,2.40604 -0.63996,3.60906 2.09346,-2.10717 3.14115,-4.9738 3.96875,-7.76563 1.06988,-6.60358 1.46888,-13.31608 1.15512,-19.99917 -0.18934,-4.98258 -0.51196,-9.95861 -0.79575,-14.93637 z"
         id="path1006"
         inkscape:connector-curvature="0"
         sodipodi:nodetypes="ccccccccc" />
    </g>
    <path
       style="opacity:0.17000002;fill:#f0f3f3;fill-opacity:1;stroke:none;stroke-width:1px;stroke-linecap:butt;stroke-linejoin:miter;stroke-opacity:1"
       d="m -442.37109,214.68164 c -0.0121,3.73186 0.38193,7.44996 0.92679,11.13759 0.29044,1.90503 0.42821,3.84086 0.22938,5.76265 -0.20105,3.3688 -0.39438,6.86265 0.76689,10.09478 0.52536,1.5882 1.33131,3.06708 2.24295,4.46396 1.23135,0.23549 1.10706,-1.52682 0.75103,-2.26027 -0.22487,-0.86442 -0.50251,-1.71285 -0.78423,-2.56004 0.12882,0.5134 0.24107,1.03041 0.33789,1.55078 -1.518,-4.59164 -2.66524,-9.33912 -2.93164,-14.18164 -0.39384,-4.6193 -0.70541,-9.25346 -1.46094,-13.83203 l -0.0547,-0.17187 -0.0156,-0.0176 z"
       id="path1012"
       inkscape:connector-curvature="0"
       sodipodi:nodetypes="ccccccccccccc" />
  </g>
</svg>
