<?xml version="1.0" encoding="UTF-8" standalone="no"?>
<!-- Created with Inkscape (http://www.inkscape.org/) -->

<svg
   xmlns:dc="http://purl.org/dc/elements/1.1/"
   xmlns:cc="http://creativecommons.org/ns#"
   xmlns:rdf="http://www.w3.org/1999/02/22-rdf-syntax-ns#"
   xmlns:svg="http://www.w3.org/2000/svg"
   xmlns="http://www.w3.org/2000/svg"
   xmlns:sodipodi="http://sodipodi.sourceforge.net/DTD/sodipodi-0.dtd"
   xmlns:inkscape="http://www.inkscape.org/namespaces/inkscape"
   sodipodi:docname="river_bend_left.svg"
   inkscape:version="0.92.2 5c3e80d, 2017-08-06"
   id="svg8"
   version="1.1"
   viewBox="-530.746090 179.638350 149.935180 149.935180"
   height="149.93518"
   width="149.93518">
  <sodipodi:namedview
     inkscape:window-maximized="1"
     inkscape:window-y="0"
     inkscape:window-x="0"
     inkscape:window-height="1380"
     inkscape:window-width="2560"
     showgrid="false"
     inkscape:current-layer="layer1"
     inkscape:document-units="mm"
     inkscape:cy="73.949786"
     inkscape:cx="49.991816"
     inkscape:zoom="5.6"
     inkscape:pageshadow="2"
     inkscape:pageopacity="0.0"
     borderopacity="1.0"
     bordercolor="#666666"
     pagecolor="#ffffff"
     id="base" />
  <defs
     id="defs2">
    <inkscape:path-effect
       effect="bend_path"
       id="path-effect840"
       is_visible="true"
       bendpath="m -538.07577,265.11843 c 0,0 26.56274,-4.88984 39.45603,-2.19302 8.58281,1.79521 17.4188,5.52625 23.47815,11.86437 7.47743,7.82145 10.85416,19.06658 13.32391,29.60164 3.20725,13.68093 1.58484,42.12572 1.58484,42.12572"
       prop_scale="1"
       scale_y_rel="true"
       vertical="true"
       bendpath-nodetypes="caaac" />
  </defs>
  <metadata
     id="metadata5">
    <rdf:RDF>
      <cc:Work
         rdf:about="">
        <dc:format>image/svg+xml</dc:format>
        <dc:type
           rdf:resource="http://purl.org/dc/dcmitype/StillImage" />
        <dc:title />
      </cc:Work>
    </rdf:RDF>
  </metadata>
  <g
     id="layer1"
     inkscape:groupmode="layer"
     inkscape:label="Layer 1">
    <g
       id="g838"
       inkscape:path-effect="#path-effect840"
       transform="matrix(1.1792401,0,0,1.1792401,85.334767,-55.704755)">
      <path
         sodipodi:nodetypes="ccsssssssssssssssccssssssssssssssscc"
         inkscape:connector-curvature="0"
         id="rect815"
         d="m -535.42248,255.40312 c 0.87895,5.91862 1.76102,11.83677 2.64629,17.75442 0,0 0.15186,-0.0141 0.41593,-0.039 0.58426,-0.055 5.35914,-0.49501 6.76348,-0.66896 1.10528,-0.13691 2.25282,-0.22549 3.40929,-0.29992 0,0 0,0 0,0 1.42105,-0.0903 2.88466,-0.16241 4.22098,-0.27472 2.4423,-0.20526 4.69867,-0.71556 7.08847,-0.77733 0.2757,-0.007 0.55084,-0.019 0.82557,-0.0342 2.16623,-0.092 4.20321,-0.44314 6.07274,-0.31201 1.24175,0.0871 2.45632,0.48881 3.50901,1.02352 0.92724,0.42649 1.81575,0.88161 2.6367,1.26975 2.00173,0.94639 4.01003,2.07445 5.89818,2.85088 1.86681,0.76765 3.7829,1.31408 5.38096,2.34912 1.59754,1.0347 3.64188,0.69762 5.25554,1.75569 0.13815,0.0906 0.27661,0.1837 0.41504,0.27963 1.64877,0.9951 3.23483,2.33546 4.3021,4.02608 0.97176,1.5393 1.62366,3.28712 2.39091,5.03234 0.90535,2.05933 1.38828,4.50802 2.10612,6.78687 0.71785,2.27885 2.13874,5.47557 2.77241,7.9098 0.16498,0.63376 0.35802,1.30074 0.56371,1.98136 0.50065,1.70536 0.94747,3.51959 1.15657,5.29521 0.22215,1.88641 0.37524,3.84912 0.51717,5.87252 0.0333,0.5078 0.064,1.01644 0.0922,1.52589 0.13777,2.48639 -0.66802,5.23029 -0.63109,7.74469 0.0146,0.99778 0.0839,2.69734 0.14232,4.11081 0,0 0,10e-6 0,10e-6 0.0829,2.02 0.1567,3.83896 0.1567,3.83896 6.01992,0.0551 12.03985,0.10887 18.05979,0.1612 0,0 -0.22013,-1.88368 -0.42782,-3.99164 0,0 0,0 0,0 -0.15021,-1.52923 -0.29999,-3.25453 -0.31675,-4.37971 -0.0403,-2.70213 -0.94103,-5.39545 -1.08809,-8.12787 -0.0365,-0.67796 -0.1427,-1.3056 -0.28484,-1.90569 -0.41872,-1.78712 -1.16348,-3.36252 -1.39644,-5.48596 -0.27826,-2.53639 -0.63318,-5.25478 -1.26815,-8.10728 -0.0867,-0.42595 -0.17439,-0.84077 -0.26293,-1.24276 -0.58069,-2.63665 -0.17943,-5.95124 -0.59772,-8.83842 -0.41239,-2.84655 -0.9077,-5.78203 -2.13857,-8.58856 -1.22025,-2.7823 -2.86741,-5.36155 -4.8814,-7.74877 -1.91572,-2.27073 -4.01471,-4.57088 -6.33958,-6.7587 -0.20833,-0.19605 -0.41749,-0.38994 -0.62738,-0.58185 0,0 0,0 0,0 -2.22945,-1.85976 -4.6579,-3.57135 -6.9239,-5.15148 -2.57798,-1.79769 -6.06838,-2.54947 -8.80309,-3.76945 -2.73471,-1.21998 -5.61167,-1.43082 -8.40064,-2.18824 -1.41182,-0.38342 -2.86096,-0.68149 -4.31982,-0.92803 -1.57779,-0.27888 -3.10502,-0.45909 -4.57877,-0.60616 -2.81469,-0.28089 -5.84006,-0.73431 -8.43267,-1.01135 -0.13567,-0.0153 -0.27051,-0.0302 -0.40447,-0.0447 -2.79693,-0.30189 -5.53135,-0.75198 -8.37686,-0.81542 -1.68327,-0.0375 -3.33473,-0.0129 -4.97054,0.056 -1.05363,0.0436 -2.11027,0.10604 -3.17502,0.18438 -2.82514,0.20786 -6.17467,0.6133 -7.83437,0.82782 0,0 0,0 0,0 -0.20318,0.0262 -0.31728,0.0413 -0.31728,0.0413 1e-5,0 1e-5,1e-5 1e-5,1e-5 z"
         style="fill:#00c6ff;fill-opacity:1;stroke:#000000;stroke-width:0.06425197;stroke-miterlimit:4;stroke-dasharray:none;stroke-opacity:1"
         inkscape:original-d="m -463.33663,179.41748 21.58824,-0.15028 c 0,0 0.35715,5.89015 0.35715,9.0138 0,3.12365 0.26785,6.51516 0.26785,9.63881 0,3.12365 -0.44643,6.06873 -0.44643,9.19238 0,3.12365 -0.53571,6.2473 -0.53571,9.37095 0,3.12364 0.89286,6.69372 1.33929,9.72809 0.45467,3.09038 0.98214,6.42587 0.98214,9.54952 0,3.12365 -0.44643,6.15801 -0.44643,9.28166 0,3.12365 -1.875,5.44373 -2.41071,8.47809 -0.54308,3.07608 -1.16072,6.51516 -1.16072,9.63881 0,3.12365 0.26786,4.81873 0.26786,7.94237 0,3.12365 0.44643,6.42588 0.44643,9.54952 0,3.12365 -0.625,7.4973 -0.625,10.62095 0,3.12365 -0.35715,6.8723 -0.35715,9.99595 v 9.46024 c 0,3.12365 1.07143,6.51515 1.07143,9.6388 0,3.12365 -0.35714,9.81738 -0.35714,9.81738 l -21.72089,-0.0893 c 0,0 0.89285,-6.60444 0.89285,-9.72809 0,-3.12365 0.98215,-6.2473 0.98215,-9.37095 0,-3.12365 1.33928,-5.35444 1.33928,-8.47809 0,-3.12365 -0.0893,-7.05087 -0.0893,-10.17452 0,-3.12365 -1.42858,-6.60444 -1.96429,-9.72809 -0.52801,-3.0787 -1.16071,-6.15801 -1.16071,-9.28166 0,-3.12365 0.33383,-6.11916 0.89285,-9.19238 0.53572,-2.94508 0.96132,-5.91311 1.33929,-9.01381 0.38064,-3.12266 0.71428,-6.06872 0.71428,-9.19237 0,-3.12365 1.25,-6.60445 1.25,-9.72809 0,-3.12365 0.89286,-6.06873 0.89286,-9.19238 0,-3.12365 0.17857,-6.42587 0.17857,-9.54952 0,-3.12365 -0.55225,-6.63417 -0.98214,-9.72809 -0.44643,-3.21294 -1.15782,-6.16927 -1.51786,-9.46024 -0.34467,-3.15046 -0.55854,-6.21505 -0.71428,-9.37095 -0.15738,-3.18903 -0.31378,-9.48852 -0.31378,-9.48852 z" />
      <g
         id="g1002">
        <path
           sodipodi:nodetypes="ccccccccccccccccccccccccccc"
           style="opacity:0.2;fill:#f0f3f3;fill-opacity:1;stroke:none;stroke-width:1px;stroke-linecap:butt;stroke-linejoin:miter;stroke-opacity:1"
           d="m -509.43745,256.15761 c 3.52129,0.59893 7.94077,0.72626 12.01459,1.0456 1.58053,0.0986 3.24568,0.1844 4.76522,0.25518 6.62265,3.86853 16.41611,3.04981 20.30458,10.4201 0.57203,1.53495 -0.75754,1.42355 -2.28996,1.00997 -1.57214,-0.4243 -3.49301,-1.13114 -4.39151,-1.41498 -5.13447,-2.11518 -10.44901,-2.6654 -15.55552,-4.11284 -1.31671,-0.29613 -2.63425,-0.57052 -3.95335,-0.80021 -1.90933,-0.33346 -3.83249,-0.47937 -5.74747,-0.42563 -1.64093,0.7332 -0.83451,1.534 0.36484,2.08852 1.20057,0.55509 2.99947,0.99644 3.67323,0.85701 0.38994,0.0199 0.7761,0.0597 1.15754,0.1185 0,0 0,0 0,0 3.81097,0.60332 7.20357,2.48359 10.28807,4.46957 3.64728,2.49382 7.53757,3.89417 11.11599,6.26353 0.26274,0.17615 0.51947,0.36284 0.76913,0.56002 2.41665,1.84247 4.09766,4.54408 4.46335,7.56977 1.02646,3.88493 2.60809,7.95551 5.93821,10.92147 1.65117,2.40771 0.32004,6.6109 -2.67037,7.12604 -1.86025,-3.43149 -2.83252,-5.38044 -3.7283,-8.1227 -1.02989,-4.67041 -1.84132,-10.20368 -6.34768,-12.1741 -0.72033,-0.36895 -1.42549,-0.71598 -2.12739,-1.04501 -3.44583,-1.89213 -6.58741,-3.42871 -10.18849,-5.90303 -2.33878,-1.86876 -5.49864,-3.21397 -8.73915,-3.80111 -0.59033,-0.0984 -1.19528,-0.14064 -1.80101,-0.13261 -2.38178,-0.31441 -5.06872,-0.0339 -7.92954,0.13397 -4.05228,0.29218 -8.05258,0.57874 -12.30282,-0.47986 -0.65038,-0.16202 -1.30459,-0.35534 -1.96409,-0.58434 -2.743,-1.46071 -5.73707,-0.28628 -8.5343,-0.0737 0,0 -10e-6,0 -10e-6,0 -1.11582,0.0849 -2.2026,0.0176 -3.26136,-0.42339 -0.30078,-0.12526 -0.59716,-0.28104 -0.89074,-0.47196 -0.0269,-0.0383 -0.0529,-0.0764 -0.0779,-0.11423 -0.1394,-0.20872 -0.25036,-0.41094 -0.33513,-0.60467 -0.0441,-0.10081 -0.0813,-0.1997 -0.11186,-0.29656 -0.066,-0.20938 -0.1009,-0.40758 -0.10827,-0.59919 -0.004,-0.0941 -3.8e-4,-0.18599 0.009,-0.27581 0.0197,-0.18331 0.0664,-0.35763 0.13717,-0.52347 l 0,0 c 0.14789,-0.3484 0.40015,-0.65754 0.72559,-0.92969 0.76826,-0.64247 1.92894,-1.06935 3.05541,-1.31026 0.71222,-0.15232 1.40579,-0.22944 1.97418,-0.2421 2.87073,-0.30817 5.77708,-0.11204 8.633,-0.53754 0.11596,-0.0173 0.23187,-0.0356 0.34771,-0.055 3.27044,1.34332 2.32336,-2.61919 -0.17742,-2.60931 -0.16079,-0.10184 -0.32321,-0.19878 -0.48713,-0.29102 -3.36326,-1.89182 -7.33068,-1.79128 -11.08328,-1.39446 -0.21073,0.0223 -0.42098,0.0455 -0.63068,0.0694 -1.14049,-0.10399 -2.11705,-0.20379 -2.78739,-0.39368 -1.08905,-0.30857 -1.39495,-0.84323 -0.34551,-2.02237 0.22993,-0.2583 0.52594,-0.54638 0.89392,-0.86697 0.88565,-0.19804 1.6052,-0.36837 2.29067,-0.53173 2.1456,-0.5117 3.69846,-0.89855 6.27884,-1.03364 1.37412,0.89791 3.1285,1.7241 4.96529,2.27324 2.93382,0.87745 6.14051,1.06485 8.63672,-0.31815 2.87302,-1.29208 3.31911,-0.11663 4.87921,-0.14659 0.25449,-0.007 0.54315,-0.0424 0.88591,-0.11969 z"
           id="path989"
           inkscape:connector-curvature="0"
           inkscape:original-d="m -459.49609,209.21639 c 1.16671,5.92542 0.51845,12.55801 -0.88094,18.09748 2.34796,7.97516 -3.88365,16.11489 -0.31282,23.93744 1.83951,2.85967 3.92524,-3.83579 4.57526,-5.85471 1.36335,-6.07646 3.20142,-12.10802 3.15359,-18.39888 0.18661,-3.89592 0.20341,-7.80864 0.5374,-11.68997 1.95726,-3.77396 3.65325,3.59636 3.00374,5.38605 -0.5794,5.2732 0.51538,10.43478 1.29939,15.61476 0.99944,5.62202 -0.0446,11.24331 -1.05896,16.77053 -0.75589,4.24528 -0.63894,8.6728 0.91714,12.72637 1.24534,5.16789 1.18663,10.91002 -1.55735,15.60768 -0.98656,3.29836 1.75621,7.8757 5.38211,7.5721 1.0645,-4.58439 1.55085,-7.66674 1.49731,-11.36405 -0.68075,-6.58487 -2.54367,-13.37193 -0.003,-19.86097 2.3636,-7.11134 3.13698,-14.71394 1.85534,-22.12062 -1.20439,-5.13439 -1.61336,-11.16754 -1.02512,-16.32463 0.0189,-10.00968 2.36551,-19.71817 -2.01945,-29.08703 -3.20152,-4.77723 0.51135,-11.03608 -3.34315,-15.31767 -4.50547,-2.18379 -5.19342,4.20116 -4.8145,7.26905 0.13816,3.61127 0.866,7.19727 0.64588,10.82079 1.97444,3.66786 -2.82945,3.18281 -3.14312,0.1163 -3.20805,-4.01614 -3.63189,-9.19552 -3.84473,-14.07414 -0.99866,-3.87247 -1.76065,-5.93915 -4.32672,-1.96317 -0.25686,4.37162 -0.67973,6.1152 -0.36984,10.07669 3.33569,3.75898 6.34066,10.59676 3.90404,15.44055 -1.60079,4.00412 0.56525,3.69892 -0.0711,6.62005 z" />
        <path
           sodipodi:nodetypes="cccccccccccccccccccccccc"
           style="opacity:0.17000002;fill:#f0f3f3;fill-opacity:1;stroke:none;stroke-width:1px;stroke-linecap:butt;stroke-linejoin:miter;stroke-opacity:1"
           d="m -465.31183,332.23265 c 0.1999,-0.54609 0.38505,-1.10212 0.55177,-1.66588 1.25347,-4.24588 1.46202,-8.93237 -0.98244,-12.75365 -0.13208,-0.22919 -0.25909,-0.45957 -0.38126,-0.69106 -1.8656,-3.54748 -2.5273,-7.19142 -3.10909,-10.49248 -0.0448,-0.15695 -0.0885,-0.31328 -0.13124,-0.46904 0,0 0,0 0,0 -0.94146,-3.28165 -1.22275,-6.55142 -1.64894,-9.79617 -0.70908,-4.2951 -4.74706,-6.98017 -5.21486,-10.94446 -0.22782,-1.31075 2.37235,-5.80696 3.76917,-1.35819 3.48409,4.92183 5.42452,11.25712 8.88117,16.93886 1.41259,1.11364 1.42692,-0.0599 1.01077,-1.77223 -0.41064,-1.68966 -1.26415,-3.82804 -1.37837,-4.56349 -0.77225,-4.81159 -4.93962,-8.1079 -5.88245,-12.95578 -0.97649,-2.77253 -2.704,-5.32993 -5.09158,-7.13192 -1.41922,-1.06683 -3.01306,-1.81363 -4.68718,-2.18217 -4.76577,-1.85318 -9.70957,-3.45302 -14.19034,-6.06432 -1.06418,-0.80411 -3.56749,-2.15642 -4.83372,-3.35421 -0.62735,-0.5939 -0.9706,-1.17126 -0.58518,-1.68959 0.3191,-0.0525 0.64099,-0.0954 0.96549,-0.12862 6.68909,-0.75298 13.45985,1.7264 19.07532,5.87388 2.28791,1.71733 4.62708,3.2191 7.01374,4.9082 3.75048,2.78588 7.44344,5.86894 10.20674,9.78966 5.78652,5.92415 5.98113,14.30725 6.13383,21.2555 0.0126,0.23508 0.0241,0.46883 0.0347,0.70125 0.061,4.69834 1.69376,8.82007 3.81172,12.51317 0.11237,0.19703 0.22593,0.39298 0.34041,0.58779 2.23174,4.10801 1.24432,9.14534 1.85111,13.54666 0.003,0.0802 0.006,0.16003 0.008,0.23959 0,0 0,0 0,0 0.0936,3.18396 -0.63401,5.92758 -2.3698,8.37593 -0.44622,0.67128 -0.67977,1.87741 -0.90528,3.14062 -0.22194,1.24369 -0.43582,2.54381 -0.82787,3.46546 -0.16662,0.39167 -0.36468,0.71567 -0.60761,0.93304 -0.11596,0.10639 -0.24168,0.18926 -0.37919,0.24287 -0.38192,-0.0155 -3.63969,-0.14621 -4.02161,-0.16169 -0.38336,-0.0152 -0.9606,-0.0376 -1.34396,-0.0529 0,0 0,0 0,0 0,0 0,0 0,0 0,0 0,0 0,0 0,0 0,0 0,0 0,0 0,0 0,0 0,0 0,0 0,0 -0.005,-1.7e-4 -0.005,-1.7e-4 -2e-5,0 0,0 0,0 0,0 0,0 0,0 0,0 -0.351,-0.0135 1.56956,0.0594 1.21856,0.0459 -0.41774,-0.0155 3.62337,0.13163 3.20563,0.1161 l 0,0 0,0 c -0.16665,-0.0674 -0.34432,-0.16298 -0.53505,-0.28749 -0.0251,-0.0161 -0.0503,-0.0327 -0.0759,-0.0499 -0.2155,-0.26281 -0.36308,-0.57739 -0.46051,-0.92788 -0.26876,-0.96684 -0.15666,-2.22814 -0.0352,-3.46013 0,0 0,0 0,0 0.2364,-2.39724 0.50626,-4.70273 -1.81949,-4.54553 -1.02632,2.46552 -5.18145,4.94731 -4.92018,0.64089 1.59644,-2.75758 -0.65211,-3.70569 -1.75444,-5.54548 0.0314,-0.0904 0.0628,-0.18074 0.0942,-0.27114 z"
           id="path995"
           inkscape:connector-curvature="0"
           inkscape:original-d="m -445.73971,327.49385 c -2.01741,-5.7173 -2.87252,-12.2385 0.11775,-17.7952 2.28235,-4.74484 2.79199,-9.9858 2.58382,-15.17394 0.20458,-4.42995 -0.49338,-8.81016 -1.18371,-13.15486 -0.70748,-5.5465 2.68474,-11.23686 0.75342,-16.55393 -1.17683,-3.79692 -5.59051,-3.07523 -4.79386,0.98954 -0.75583,7.86696 -0.66836,15.93268 -2.98868,23.56094 -2.63707,3.46074 -1.3504,-5.65004 -1.60922,-7.39526 -0.8183,-5.71768 2.4108,-11.42693 0.40131,-17.06909 -1.10096,-5.56496 -0.78701,-11.4623 1.58042,-16.65417 1.77079,-6.21405 2.49468,-12.99597 1.06145,-19.32367 -0.81983,-2.32865 -2.2319,-8.77097 -4.31747,-7.78019 -2.82965,7.63637 -2.75987,15.8411 -2.32884,23.84984 0.51808,8.31906 -3.02973,16.08085 -4.36486,24.15921 -2.97002,8.30389 -0.36773,17.10565 1.22826,25.40121 1.20493,5.23094 -0.59281,10.38662 -3.03457,14.94859 -2.37736,4.8382 -1.04438,10.54085 -1.77527,15.67122 -0.16505,3.82699 0.64183,7.1088 2.70324,10.1141 1.64532,2.56193 0.46545,11.43537 4.79916,8.90474 2.51306,-2.69015 -1.58247,-10.96951 3.16594,-10.54446 1.13805,2.90349 6.08783,6.21917 5.89786,0.91173 -1.83861,-3.40095 0.86377,-4.47266 2.21501,-6.73358 l -0.11114,-0.33277 z" />
      </g>
      <g
         transform="matrix(1,0,0,-1,-15.9395,516.29911)"
         id="g1008">
        <path
           sodipodi:nodetypes="cccccccccccccc"
           inkscape:connector-curvature="0"
           id="path1004"
           d="m -437.95896,211.7278 c -0.0645,0.65437 -0.13277,1.31677 -0.20804,1.98764 -0.31494,3.9831 -0.54968,8.2011 -1.42801,12.45617 -2.62589,4.97724 -4.34583,9.22043 -6.75291,14.63335 -2.07677,2.58251 -3.88133,5.0798 -6.33578,6.93606 -0.66406,0.4574 -1.38253,0.87955 -2.16884,1.2519 -4.67356,2.85818 -12.12418,4.1687 -15.41258,7.98942 -2.60188,1.95404 -4.0104,1.15298 -6.45302,1.85838 1.565,-3.1129 6.19856,-3.77699 9.29403,-5.27223 4.43602,-1.72243 9.43366,-3.59293 12.7774,-7.70415 0.8479,-1.12553 1.52757,-2.35411 1.97872,-3.67759 2.51497,-6.385 4.64809,-12.64094 7.65636,-18.42236 2.01735,-3.39286 2.63726,-7.23394 3.03412,-10.94226 0.0874,-0.70865 0.15625,-1.41265 0.21461,-2.11123 0.698,-3.68053 0.85325,-7.33217 1.14071,-10.91068 0.39938,-4.83864 1.00585,-9.58512 2.93934,-14.07322 0.0754,-0.17521 0.15291,-0.35009 0.23245,-0.52462 2.19576,-3.36158 0.37939,-7.57057 1.41086,-11.03161 0.21489,-0.72107 0.55385,-1.41488 1.07936,-2.07131 0.0841,0.59254 0.16276,1.27613 0.23562,2.02482 0.36432,3.74043 0.50701,8.04943 0.62868,11.601 0.023,0.66216 0.0449,1.26662 0.0675,1.77323 -0.0732,2.85845 -1.48598,7.562 -2.59836,12.56209 -0.81705,3.71337 -1.51164,7.94595 -1.33218,11.6672 z"
           style="opacity:0.2;fill:#f0f3f3;fill-opacity:1;stroke:none;stroke-width:1px;stroke-linecap:butt;stroke-linejoin:miter;stroke-opacity:1"
           inkscape:original-d="m -445.66986,220.42594 c -0.5794,5.2732 -1.71676,10.61335 -2.45061,15.88262 0.99944,5.62202 0.84826,11.06474 -0.1661,16.59196 0.58339,4.24528 0.20635,7.34004 1.76243,11.39361 1.24534,5.16789 4.44848,12.86778 1.7045,17.56544 -0.98656,3.29836 0.41692,4.39356 0.38211,7.12567 3.20736,-2.6201 1.99728,-7.66674 1.94374,-11.36405 -0.68075,-6.58487 -2.9901,-13.37193 -0.4498,-19.86097 2.3636,-7.11134 3.13698,-14.71394 1.85534,-22.12062 -1.20439,-5.13439 -0.44209,-10.35146 0.14615,-15.50855 0.0189,-10.00968 1.19424,-20.53425 -3.19072,-29.90311 -3.20152,-4.77723 0.51135,-11.03608 -3.34315,-15.31767 -0.46842,4.55168 -0.56399,13.87417 -0.77576,18.00055 0.12404,5.82296 5.11159,18.60636 2.58187,27.51512 z" />
        <path
           sodipodi:nodetypes="ccccccccc"
           inkscape:connector-curvature="0"
           id="path1006"
           d="m -511.28268,260.64559 c 1.08579,-0.0534 2.17084,-0.0259 3.26128,0.0455 3.88465,0.25663 7.97573,1.09021 12.20272,0.66774 0.47021,-0.19575 0.94354,-0.37047 1.41997,-0.52684 3.78738,-1.23693 7.96046,-1.27235 12.44067,-1.97186 0.0145,-0.003 0.39118,-0.0906 0.40569,-0.094 0,0 0,0 0,0 3.75854,-0.86088 7.6478,-1.40472 11.52863,-2.42387 5.06307,-1.47833 8.13944,-6.59874 13.07156,-8.86171 -0.39191,0.20001 7.86535,-1.61546 0.4303,2.81475 -2.02912,1.43298 -5.36178,3.38695 -9.84842,5.05204 -4.56226,1.69316 -9.60348,2.8345 -15.18171,3.42051 -4.56381,0.53391 -8.81301,0.33098 -12.81035,0.079 -4.88021,-0.27715 -9.43031,-0.62528 -13.39457,-0.62281 0,0 0,-1e-5 0,-1e-5 -5.03404,0.005 -9.10296,0.56592 -11.35246,2.34886 -0.13072,0.10359 -0.25533,0.21127 -0.37361,0.32315 0.1084,0.005 0.21563,0.009 0.32171,0.0126 0,0 0,0 0,0 3.46525,0.11733 5.77913,-0.38692 7.60563,-0.38954 0.0909,0.0422 0.18192,0.0844 0.27296,0.12654 z"
           style="opacity:0.17000002;fill:#f0f3f3;fill-opacity:1;stroke:none;stroke-width:1px;stroke-linecap:butt;stroke-linejoin:miter;stroke-opacity:1"
           inkscape:original-d="m -445.73971,327.49385 c 1.0183,-5.7173 -0.19395,-11.70279 0.65346,-17.7952 2.28235,-4.74484 2.25628,-9.9858 2.04811,-15.17394 0.20458,-4.42995 -0.49338,-8.81016 -1.18371,-13.15486 -0.70748,-5.5465 2.68474,-11.23686 0.75342,-16.55393 -1.17683,-3.79692 -3.71551,-2.53952 -2.91886,1.52525 1.13816,11.58587 10.09421,62.27063 -1.00984,70.54046 0.48281,-4.20453 1.48877,-6.88338 1.76858,-9.05501 z" />
      </g>
      <path
         sodipodi:nodetypes="ccccccccccc"
         inkscape:connector-curvature="0"
         id="path1010"
         d="m -470.58282,301.07183 c -1.52288,-4.60565 -2.42884,-6.47775 -3.52231,-10.91773 -0.84342,-4.22906 -3.62304,-7.88539 -6.85904,-9.79784 -0.0175,-0.0119 -0.0351,-0.0238 -0.0527,-0.0356 -2.13807,-1.461 -4.53001,-2.11174 -6.86176,-2.63461 -1.43356,-0.66785 -6.73102,-3.05318 -8.83806,-3.94813 -1.60933,-0.94306 -3.02403,-1.65883 -3.74312,-2.01537 -0.50467,-0.27868 -1.05673,-0.5417 -1.66308,-0.79216 0.57234,-0.68456 1.28537,-0.95928 2.0287,-0.95584 2.16921,0.0833 4.58002,1.83002 6.35926,2.47557 4.26064,2.0669 6.98166,5.53922 11.35933,6.72588 0.62604,0.21381 1.23301,0.47875 1.81424,0.79518 3.96146,1.8923 6.69817,5.94862 7.61875,10.71579 0.49814,3.94729 2.17603,7.45212 3.7517,11.42231 -0.88542,-0.23288 -0.78547,-0.13821 -1.39193,-1.03741 z"
         style="opacity:0.2;fill:#f0f3f3;fill-opacity:1;stroke:none;stroke-width:1px;stroke-linecap:butt;stroke-linejoin:miter;stroke-opacity:1"
         inkscape:original-d="m -443.1571,287.28608 c 0.2669,-5.36249 0.66331,-9.66489 -0.0842,-15.10334 -0.99944,-5.62202 -0.40183,-12.44867 0.61253,-17.97589 0.75589,-4.24528 1.75501,-7.60137 2.65429,-11.47637 0.31716,-4.98932 0.15265,-9.25823 -0.3623,-14.71482 -1.02236,-4.99479 -1.2757,-6.23643 -1.7766,-8.70069 -3.20736,2.6201 -0.826,8.48283 -0.77246,12.18014 0.68075,6.58487 2.9901,13.37193 0.4498,19.86097 -2.3636,7.11134 -3.13698,14.71394 -1.85534,22.12062 1.20439,5.13439 0.44209,10.35146 -0.14615,15.50855 0.94275,-0.55045 0.86944,-0.41604 1.28042,-1.69917 z" />
      <path
         sodipodi:nodetypes="cccccc"
         inkscape:connector-curvature="0"
         id="path1012"
         d="m -505.27617,270.48464 c 1.80932,-0.0262 3.46864,0.28821 4.89207,0.87605 1.27446,0.49072 2.49733,1.06248 3.67761,1.66396 3.58785,1.66816 8.48112,0.64577 10.5183,3.80561 1.98722,2.72099 -1.41702,1.63074 -2.66264,0.48977 -4.11134,-2.22149 6.64492,3.46968 -1.60437,-1.16721 -2.80692,-1.57776 -6.04097,-2.90089 -10.03382,-4.29048 -1.88067,-0.69489 -3.83242,-1.05146 -4.78713,-1.3777 -1e-5,0 -2e-5,0 -2e-5,0 z"
         style="opacity:0.17000002;fill:#f0f3f3;fill-opacity:1;stroke:none;stroke-width:1px;stroke-linecap:butt;stroke-linejoin:miter;stroke-opacity:1"
         inkscape:original-d="m -442.34148,214.59159 c -0.20458,4.42995 0.49338,8.81016 1.18371,13.15486 0.70748,5.5465 -2.68474,11.23686 -0.75342,16.55393 1.17683,3.79692 2.91194,0.84309 2.11529,-3.22168 0.0648,8.83829 -1.14619,-20.94764 -2.54558,-26.48708 z" />
    </g>
  </g>
</svg>
