<?xml version="1.0" encoding="UTF-8" standalone="no"?>
<!-- Created with Inkscape (http://www.inkscape.org/) -->

<svg
   xmlns:dc="http://purl.org/dc/elements/1.1/"
   xmlns:cc="http://creativecommons.org/ns#"
   xmlns:rdf="http://www.w3.org/1999/02/22-rdf-syntax-ns#"
   xmlns:svg="http://www.w3.org/2000/svg"
   xmlns="http://www.w3.org/2000/svg"
   xmlns:sodipodi="http://sodipodi.sourceforge.net/DTD/sodipodi-0.dtd"
   xmlns:inkscape="http://www.inkscape.org/namespaces/inkscape"
   width="39.6875"
   height="39.6875"
   viewBox="-242.660720 0.666667 39.687500 39.687500"
   version="1.1"
   id="svg8"
   sodipodi:docname="road_straight_half.svg"
   inkscape:version="0.92.2 5c3e80d, 2017-08-06">
  <sodipodi:namedview
     id="base"
     pagecolor="#ffffff"
     bordercolor="#666666"
     borderopacity="1.0"
     inkscape:pageopacity="0.0"
     inkscape:pageshadow="2"
     inkscape:zoom="90.509668"
     inkscape:cx="17.665423"
     inkscape:cy="4.7587336"
     inkscape:document-units="mm"
     inkscape:current-layer="layer1"
     showgrid="false"
     inkscape:window-width="2560"
     inkscape:window-height="1380"
     inkscape:window-x="0"
     inkscape:window-y="0"
     inkscape:window-maximized="1"
     inkscape:measure-start="-8.25195e-07,39.6875"
     inkscape:measure-end="39.6875,39.6875" />
  <defs
     id="defs2" />
  <metadata
     id="metadata5">
    <rdf:RDF>
      <cc:Work
         rdf:about="">
        <dc:format>image/svg+xml</dc:format>
        <dc:type
           rdf:resource="http://purl.org/dc/dcmitype/StillImage" />
        <dc:title />
      </cc:Work>
    </rdf:RDF>
  </metadata>
  <g
     id="layer1"
     inkscape:groupmode="layer"
     inkscape:label="Layer 1">
    <path
       style="fill:#e9ddaf;fill-opacity:1;stroke:#000000;stroke-width:0.05669291;stroke-linecap:butt;stroke-linejoin:miter;stroke-miterlimit:4;stroke-dasharray:none;stroke-opacity:1"
       d="m -224.02665,21.022074 c 0.003,0.108825 -0.005,0.202398 -0.001,0.276108 0.009,0.158115 0.0155,0.329946 0.0249,0.502689 0.0189,0.34548 0.0322,0.725918 0.0112,1.164163 -0.008,2.110902 -0.008,3.281251 -0.0104,5.34375 -0.001,1.119794 -0.0697,2.519535 -0.20544,3.922971 -0.14145,1.462908 0.0152,3.075731 0.14412,4.453373 0.13043,1.393654 0.037,2.681601 0.0344,3.591431 -0.003,0.90983 -0.004,1.469725 -0.004,1.469725 l 2.46875,-0.0625 c 0,0 0.0261,-2.170402 0,-3.255132 -0.0258,-1.071243 -0.0405,-2.117597 -0.15468,-3.210937 -0.11117,-1.064524 0,-3.210938 0,-3.210938 0,0 0.18978,-2.108639 0.15468,-3.166743 -0.0828,-2.496082 0.0523,-3.325384 -0.017,-6.487056 0,0 -0.0112,-0.29694 -0.0176,-0.639258 -0.003,-0.171159 -0.005,-0.353662 -0.004,-0.516064 1.4e-4,-0.0203 3.3e-4,-0.04029 5.7e-4,-0.0599"
       id="path4541"
       inkscape:connector-curvature="0"
       sodipodi:nodetypes="cssccsssccsscscssc" />
    <rect
       style="opacity:1;fill:#e9ddaf;fill-opacity:1;stroke:#000000;stroke-width:0;stroke-linejoin:miter;stroke-miterlimit:4;stroke-dasharray:none;stroke-opacity:1"
       id="rect878"
       width="2.359375"
       height="0.8203125"
       x="-223.99669"
       y="20.3526" />
  </g>
</svg>
